<?xml version="1.0" encoding="UTF-8"?><svg xmlns="http://www.w3.org/2000/svg" width="917.04" height="587.937" xmlns:xlink="http://www.w3.org/1999/xlink" viewBox="0 0 917.04 587.937"><defs><style>.cls-1{fill:#effdec;}.cls-2{stroke-width:1.725px;}.cls-2,.cls-3,.cls-4,.cls-5,.cls-6,.cls-7,.cls-8,.cls-9,.cls-10,.cls-11,.cls-12,.cls-13{fill:none;}.cls-2,.cls-4,.cls-14,.cls-13{stroke-miterlimit:10;}.cls-2,.cls-14{stroke:#030000;}.cls-15{fill:#8b8b8b;}.cls-3{stroke:#6dc74f;stroke-width:4.652px;}.cls-3,.cls-6,.cls-7,.cls-8,.cls-9,.cls-10,.cls-11,.cls-12{stroke-linecap:round;stroke-linejoin:round;}.cls-4{stroke:#1e57a0;stroke-width:2px;}.cls-16{letter-spacing:-.48em;}.cls-17{fill:#c2c2c2;}.cls-18{fill:#6dc74f;}.cls-19,.cls-20,.cls-21{fill:#fff;}.cls-22{fill:#296fc2;}.cls-14{stroke-width:1.15px;}.cls-14,.cls-23,.cls-24,.cls-25{fill:#030000;}.cls-26{fill:#ecf8fd;}.cls-27{fill:#e1e1e1;}.cls-28{fill:#d9d8bb;}.cls-29{fill:#d7d6d5;}.cls-6,.cls-10{stroke:#aeaeae;}.cls-6,.cls-11{stroke-width:1.128px;}.cls-30{fill:#bddff4;}.cls-31{fill:#ec6a65;}.cls-23,.cls-20{font-size:16px;}.cls-23,.cls-24{font-family:PA1GothicStdN-Light, 'PA1GothicStdN Light-90ms-RKSJ-H';font-weight:300;}.cls-32{clip-path:url(#clippath-1);}.cls-33{fill:#bbb;}.cls-34{letter-spacing:-.48em;}.cls-35{fill:#707e6d;}.cls-7{stroke:#296fc2;stroke-width:.174px;}.cls-36{isolation:isolate;}.cls-8{stroke:#8b8b8b;}.cls-8,.cls-10{stroke-width:1.163px;}.cls-20{font-family:PA1GothicStdN-Medium, 'PA1GothicStdN Medium-90ms-RKSJ-H';font-weight:500;letter-spacing:.05em;}.cls-9{stroke:#66765a;stroke-width:1.024px;}.cls-37{fill:#ee7b77;}.cls-38{fill:#c7e4fb;}.cls-39{clip-path:url(#clippath-3);}.cls-11{stroke:#919191;}.cls-40{fill:#cbcbcb;}.cls-41{letter-spacing:.02em;}.cls-42{fill:#9d9c9c;}.cls-43{fill:#c5c5c5;}.cls-12{stroke:#c5c5c5;stroke-width:.582px;}.cls-44{fill:#d0d0d0;}.cls-45{fill:#888;}.cls-46{fill:#ade0fb;}.cls-47{fill:#cce6f7;}.cls-48{fill:#aeaeae;}.cls-21{opacity:.6;}.cls-49{clip-path:url(#clippath-2);}.cls-50{fill:#dcdcdc;}.cls-51{fill:#ececec;}.cls-52{fill:#1e57a0;}.cls-53{fill:#d2d2d2;}.cls-13{stroke:#fff;stroke-width:.778px;}.cls-24,.cls-25{font-size:22px;letter-spacing:.1em;}.cls-54{clip-path:url(#clippath);}.cls-55{fill:#4ba2f1;}.cls-25{font-family:PA1GothicStdN-Bold, 'PA1GothicStdN Bold-90ms-RKSJ-H';font-weight:700;}.cls-56{mix-blend-mode:multiply;opacity:.5;}</style><clipPath id="clippath"><polygon class="cls-5" points="347.672 382.104 375.79 363.868 393.823 373.579 365.474 392.564 347.672 382.104"/></clipPath><clipPath id="clippath-1"><polyline class="cls-5" points="366.363 353.031 331.816 373.746 280.446 345.254 315.355 324.795"/></clipPath><clipPath id="clippath-2"><polygon class="cls-5" points="333.46 311.785 300.328 331.766 290.399 351.145 321.494 332.036 333.46 311.785"/></clipPath><clipPath id="clippath-3"><polygon class="cls-5" points="282.502 341.337 317.411 320.878 368.419 349.114 333.872 369.829 282.502 341.337"/></clipPath></defs><g class="cls-36"><g id="_レイヤー_1"><g class="cls-56"><path class="cls-35" d="M602.134,365.47l-153.036-88.495-.038-18.028-22.412-11.875-7.846,4.31s-2.12,1.094,1.014,2.675v2.985l-11.084-5.524s.138-2.881-2.051-3.236c-1.396-.226-4.139,1.772-4.139,1.772l1.052.608-74.377-43.009-34.367-14.644-226.762,123.937-43.965,25.716c-16.563,9.688-16.504,33.647.107,43.253l180.294,104.257-.157,26.91c-.018,2.999,2.194,5.546,5.166,5.949l67.711,9.192,32.062,18.54c15.573,9.005,34.782,8.958,50.311-.125l242.625-141.914c16.563-9.688,16.504-33.647-.107-43.253ZM437.186,265.336l-10.538-4.992v-2.843l10.538,5.305v2.53Z"/></g><path class="cls-1" d="M602.134,350.35l-153.036-88.495-.038-18.028-22.412-11.875-7.846,4.31s-2.12,1.094,1.014,2.675v2.985l-11.084-5.524s.138-2.881-2.051-3.236c-1.396-.226-4.139,1.772-4.139,1.772l1.052.608-74.377-43.009-34.367-14.644-226.762,123.937-43.965,25.716c-16.563,9.688-16.504,33.647.107,43.253l180.294,104.257-.157,26.91c-.018,2.999,2.194,5.546,5.166,5.949l67.711,9.192,32.062,18.54c15.573,9.005,34.782,8.958,50.311-.125l242.625-141.914c16.563-9.688,16.504-33.647-.107-43.253ZM437.186,250.215l-10.538-4.992v-2.843l10.538,5.305v2.53Z"/><path class="cls-3" d="M362.255,210.91l-182.152,110.82c-7.519,4.575-7.475,15.504.081,20.018l124.174,74.173c8.6,5.137,9.026,17.439.795,23.149-30.903,21.441-97.227,66.721-97.416,66.556"/><polygon class="cls-53" points="458.722 349.753 458.722 387.621 436.306 373.467 436.386 336.472 458.722 349.753"/><polygon class="cls-19" points="404.121 353.702 404.121 391.595 436.306 373.467 436.386 336.472 404.121 353.702"/><polygon class="cls-53" points="426.457 366.431 426.457 404.299 404.121 391.595 404.121 353.702 426.457 366.431"/><path class="cls-5" d="M465.845,350.007l-.543.312c.223-.104.393-.209.543-.312Z"/><path class="cls-17" d="M465.302,350.319l.543-.312c.578-.398.687-.578.687-.877-.045-1.017-.898-1.266-.898-1.266l-.249,1.132-29.923-17.2-39.658,22.824-.506-.984s-.209.101-.346.372c-.228.453-.324,1.206.484,1.669.866.497-.012-.007,0,0l29.661,17.02c.39.224.869.224,1.259,0l38.945-22.378s0,0,0,0h.001Z"/><polygon class="cls-17" points="465.301 350.319 465.301 350.319 465.302 350.319 465.301 350.319"/><path class="cls-19" d="M434.69,330.966l-39.392,22.671c-.265.153-.265.535,0,.688l29.811,17.107c.382.219.852.219,1.768.28l39.554-22.728c-.269-.432-.269-.815-.534-.968l-29.661-17.049c-.479-.275-1.067-.275-1.546,0Z"/><polygon class="cls-47" points="343.214 211.449 331.668 218.047 347.83 227.289 359.344 220.752 343.214 211.449"/><polygon class="cls-30" points="359.344 220.752 347.83 227.289 347.83 246.431 359.344 239.894 359.344 220.752"/><polygon class="cls-26" points="331.668 218.047 331.668 237.189 347.83 246.431 347.83 227.289 331.668 218.047"/><polygon class="cls-47" points="361.17 221.471 349.624 228.069 365.786 237.311 377.3 230.774 361.17 221.471"/><polygon class="cls-30" points="377.3 230.774 365.786 237.311 365.786 256.452 377.3 249.916 377.3 230.774"/><polygon class="cls-26" points="349.624 228.069 349.624 247.211 365.786 256.452 365.786 237.311 349.624 228.069"/><polygon class="cls-47" points="329.376 219.379 317.831 225.978 333.992 235.219 345.506 228.683 329.376 219.379"/><polygon class="cls-30" points="345.506 228.683 333.992 235.219 333.992 254.361 345.506 247.824 345.506 228.683"/><polygon class="cls-26" points="317.831 225.978 317.831 245.119 333.992 254.361 333.992 235.219 317.831 225.978"/><polygon class="cls-51" points="366.664 402.226 357.687 396.928 357.687 391.629 366.664 396.928 366.664 402.226"/><polygon class="cls-27" points="377.065 378.952 357.687 391.629 366.664 396.928 386.122 384.396 377.065 378.952"/><polygon class="cls-40" points="386.256 389.74 386.122 384.396 366.664 396.928 366.664 402.226 386.256 389.74"/><polyline class="cls-11" points="373.574 368.381 373.574 404.808 361.343 412.797"/><polyline class="cls-11" points="380.347 415.405 373.574 404.808 387.196 405.536"/><polygon class="cls-19" points="367.923 351.206 372.393 351.212 370.155 355.723 367.923 351.206"/><polygon class="cls-27" points="387.105 340.755 387.105 342.86 388.944 344.139 387.105 340.755"/><polygon class="cls-19" points="345.566 338.422 343.782 340.077 345.564 336.383 345.566 338.422"/><polygon class="cls-5" points="370.155 355.723 372.393 351.212 372.38 351.212 370.155 355.723"/><polygon class="cls-5" points="372.306 351.212 370.171 352.424 372.306 351.212 367.923 351.206 370.155 355.723 372.38 351.212 372.306 351.212"/><polygon class="cls-19" points="372.408 351.154 372.306 351.212 372.38 351.212 372.408 351.154"/><path class="cls-19" d="M360.381,327.915l-14.817,8.468.002,2.039,22.357,12.784,4.383.006.102-.058-.029.058h.013l14.712-8.352v-2.105l-22.368-12.901-4.355.061ZM354.908,338.943c-1.103-.631-1.103-2.221,0-2.851l7.838-4.48c.507-.29,1.13-.288,1.635.003l12.277,7.081c1.1.634,1.095,2.224-.01,2.851l-7.811,4.434c-.504.286-1.122.285-1.626-.002l-12.304-7.036Z"/><path class="cls-48" d="M368.837,345.981l7.811-4.434c1.104-.627,1.11-2.216.01-2.851l-12.277-7.081c-.506-.292-1.128-.293-1.635-.003l-7.838,4.48c-1.103.63-1.103,2.221,0,2.851l12.304,7.036c.504.288,1.122.289,1.626.002Z"/><polygon class="cls-27" points="367.923 351.206 345.566 338.422 343.782 340.077 343.782 343.416 370.155 358.497 370.155 354.63 367.923 351.206"/><polygon class="cls-40" points="387.105 342.86 372.393 351.212 370.155 354.63 370.155 358.497 388.944 347.831 388.944 344.139 387.105 342.86"/><path class="cls-53" d="M260.741,327.484l5.296-2.888v-44.443c0-1.998-2.109-1.744-3.89-.839h0c-.9.457-1.467,1.382-1.466,2.391l.06,45.779Z"/><polygon class="cls-27" points="281.449 332.249 260.681 321.429 260.684 318.588 281.452 329.288 281.449 332.249"/><polygon class="cls-40" points="281.452 329.288 260.684 318.588 266.037 315.649 286.569 325.701 281.452 329.288"/><polygon class="cls-27" points="281.449 305.196 260.681 294.377 260.684 291.535 281.452 302.235 281.449 305.196"/><polygon class="cls-40" points="281.452 302.235 260.684 291.535 266.037 288.596 286.569 298.648 281.452 302.235"/><line class="cls-6" x1="263.916" y1="282.005" x2="285.45" y2="292.509"/><line class="cls-6" x1="263.359" y1="285.875" x2="284.893" y2="296.379"/><polygon class="cls-53" points="289.449 342.697 295.604 339.128 295.166 293.612 289.449 297.236 289.449 342.697"/><polygon class="cls-40" points="326.011 323.749 330.939 320.401 293.564 300.042 290.103 301.866 326.011 323.749"/><polygon class="cls-27" points="281.511 338.518 281.452 293.339 289.449 297.236 289.449 342.697 281.511 338.518"/><polygon class="cls-27" points="329.226 331.465 290.026 308.782 290.103 301.866 329.521 323.661 329.226 331.465"/><path class="cls-27" d="M325.712,350.035,326.492,350.695l-32.616-19.075v3.355l32.616,19.153v-3.433Z"/><polygon class="cls-40" points="281.452 293.339 287.152 289.988 295.166 293.612 289.449 297.236 281.452 293.339"/><polygon class="cls-48" points="281.159 344.628 347.684 382.509 374.654 364.692 308.935 328.774 281.159 344.628"/><path class="cls-53" d="M375.614,350.115c-.293-.683-3.745-9.578-3.96-10.144s-1.307-1.561-1.931-.566c-.624.995-1.288,2.829-1.288,2.829v7.803c0,.722-.332,1.795-1.19,1.346s-16.64-9.559-18.044-10.417c-1.404-.858-3.004-1.112-3.004-4.623v-3.94c0-.468.117-1.697,1.99-.683,1.773.96,7.525,4.399,8.53,4.995l.146.756.743-.455c.02-.007.036-.021.053-.032l.003-.002h0c.075-.052.123-.145.123-.307v-5.462c0-.312-1.58-4.35-1.814-4.955-.157-.404-.349-.592-.599-.485h0s-.005.003-.005.003c-.049.022-.1.056-.153.101l-.521.344.046.237c-.423.575-.886,1.189-1.069,1.438-.215.293-.468.351-.995.058s-24.247-13.87-24.247-13.87l-.78.477.609,1.233.172-.221v40.276s.429.156.78.585c.351.429.507,1.19.507,1.19v3.921l3.57,2.124v.908l.78-.477v-4.135s-.019-.839.663-.507c.683.332,26.842,15.703,27.115,15.976.038.038.073.068.106.093l.315.51c.003.038.007.073.008.119.02.585,0,4.545,0,4.545l3.057,1.712.552,1.223.78-.477v-4.272c0-.488.195-.897,1.268-1.522,1.073-.624.8-.722.8-2.029s.031-12.309.031-12.309c0,0,5.919-8.7,6.699-9.832.78-1.131.449-2.399.156-3.082ZM350.703,355.357c-.137.101-.379.004-.54-.215-.161-.22-.18-.479-.043-.58.137-.101.379-.004.54.215.161.22.18.479.043.58ZM350.703,353.809c-.137.101-.379.004-.54-.215-.161-.22-.18-.479-.043-.58.137-.101.379-.004.54.215.161.22.18.479.043.58ZM359.196,352.658v8.492c0,.897-.663.741-1.131.494-.468-.247-3.42-2.016-3.966-2.354-.546-.338-.741-.819-.741-1.235v-8.96c0-.832.624-.851,1.222-.474,0,0,2.532,1.578,3.394,2.086,1.3.767,1.222,1.105,1.222,1.951Z"/><path class="cls-48" d="M374.834,350.592c-.293-.683-3.745-9.578-3.96-10.144-.215-.566-1.307-1.561-1.931-.566-.624.995-1.288,2.829-1.288,2.829v7.803c0,.722-.332,1.795-1.19,1.346s-16.64-9.559-18.044-10.417c-1.404-.858-3.004-1.112-3.004-4.623v-3.94c0-.468.117-1.697,1.99-.683s8.193,4.799,8.661,5.072c.468.273.936.41.936-.117v-5.462c0-.312-1.58-4.35-1.814-4.955-.234-.605-.546-.741-1.014-.098-.468.644-1.073,1.444-1.287,1.736-.215.293-.468.351-.995.058-.527-.293-24.247-13.87-24.247-13.87v33.162l-31.836-18.415v3.355l31.836,18.493v5.169s.429.156.78.585c.351.429.507,1.19.507,1.19v3.921l4.35,2.555v-4.135s-.019-.839.663-.507,26.842,15.703,27.115,15.976.41.137.429.722c.02.585,0,4.545,0,4.545l4.389,2.458v-4.272c0-.488.195-.897,1.268-1.522,1.073-.624.8-.722.8-2.029s.031-12.309.031-12.309c0,0,5.919-8.7,6.699-9.832.78-1.131.449-2.399.156-3.082ZM349.923,355.833c-.137.101-.379.004-.54-.215-.161-.22-.18-.479-.043-.58.137-.101.379-.004.54.215.161.22.18.479.043.58ZM349.923,354.286c-.137.101-.379.004-.54-.215-.161-.22-.18-.479-.043-.58.137-.101.379-.004.54.215.161.22.18.479.043.58ZM358.415,353.134v8.492c0,.897-.663.741-1.131.494-.468-.247-3.42-2.016-3.966-2.354-.546-.338-.741-.819-.741-1.235v-8.96c0-.832.624-.851,1.222-.474,0,0,2.532,1.578,3.394,2.086,1.3.767,1.222,1.105,1.222,1.951Z"/><polygon class="cls-10" points="282.868 340.176 347.684 379.503 376.363 361.555 310.644 324.322 282.868 340.176"/><polygon class="cls-38" points="345.923 351.217 334.476 344.739 320.732 352.825 332.188 359.085 345.923 351.217"/><polygon class="cls-38" points="358.85 357.995 348.192 351.912 334.448 359.998 345.641 366.521 358.85 357.995"/><polygon class="cls-38" points="370.981 364.717 359.928 358.634 346.579 366.72 357.772 373.242 370.981 364.717"/><polygon class="cls-43" points="280.928 352.268 241.902 329.943 284.297 306.424 322.027 328.259 280.928 352.268"/><polygon class="cls-43" points="243.323 324.795 215.716 310.797 263.283 283.678 290.95 296.962 243.323 324.795"/><polygon class="cls-27" points="246.966 321.319 289.449 297.236 289.449 303.265 246.966 327.191 246.966 321.319"/><polygon class="cls-53" points="347.672 382.104 375.79 363.868 393.823 373.579 365.474 392.564 347.672 382.104"/><g class="cls-54"><line class="cls-10" x1="354.229" y1="377.851" x2="372.006" y2="388.557"/><line class="cls-10" x1="358.326" y1="374.244" x2="377.3" y2="385.689"/><line class="cls-10" x1="363.711" y1="371.702" x2="381.447" y2="382.383"/><line class="cls-10" x1="366.852" y1="368.195" x2="386.184" y2="379.552"/><line class="cls-10" x1="372.562" y1="365.978" x2="390.331" y2="376.417"/></g><g class="cls-32"><polygon class="cls-53" points="364.619 379.812 278.899 331.689 278.939 333.552 364.659 381.676 364.619 379.812"/><polygon class="cls-53" points="279.013 336.939 364.732 385.063 364.692 383.199 278.972 335.076 279.013 336.939"/><polygon class="cls-53" points="279.086 340.327 364.805 388.45 364.765 386.586 279.045 338.463 279.086 340.327"/><polygon class="cls-53" points="279.159 343.715 364.878 391.838 364.838 389.975 279.119 341.851 279.159 343.715"/><polygon class="cls-53" points="279.232 347.102 364.951 395.225 364.911 393.362 279.192 345.238 279.232 347.102"/><polygon class="cls-53" points="279.305 350.489 365.024 398.612 364.984 396.749 279.265 348.625 279.305 350.489"/><polygon class="cls-53" points="279.378 353.876 365.097 402 365.057 400.136 279.338 352.012 279.378 353.876"/><polygon class="cls-53" points="279.451 357.244 365.17 405.367 365.13 403.523 279.411 355.399 279.451 357.244"/><polygon class="cls-53" points="278.427 309.815 364.147 357.939 364.106 356.075 278.387 307.952 278.427 309.815"/><polygon class="cls-53" points="278.5 313.202 364.22 361.326 364.18 359.462 278.46 311.339 278.5 313.202"/><polygon class="cls-53" points="278.573 316.591 364.293 364.714 364.253 362.851 278.533 314.727 278.573 316.591"/><polygon class="cls-53" points="278.647 319.978 364.366 368.101 364.326 366.238 278.606 318.114 278.647 319.978"/><polygon class="cls-53" points="278.72 323.365 364.439 371.488 364.399 369.625 278.679 321.501 278.72 323.365"/><polygon class="cls-53" points="278.793 326.752 364.512 374.875 364.472 373.012 278.753 324.888 278.793 326.752"/><polygon class="cls-53" points="278.865 330.119 364.585 378.243 364.545 376.399 278.826 328.275 278.865 330.119"/></g><path class="cls-40" d="M379.156,362.702c.346,1.421.031,2.317-1.016,2.317-.957,0-2.255-1.173-2.672-2.618-.385-1.337-.079-2.442.968-2.442s2.39,1.391,2.719,2.743Z"/><path class="cls-27" d="M212.54,353.876l5.296-2.888v-44.443c0-1.998-2.109-1.744-3.89-.839h0c-.9.457-1.467,1.382-1.466,2.391l.06,45.779Z"/><polygon class="cls-27" points="233.248 358.642 212.48 347.822 212.484 344.981 233.251 355.681 233.248 358.642"/><polygon class="cls-40" points="233.251 355.681 212.484 344.981 217.837 342.041 238.369 352.093 233.251 355.681"/><polygon class="cls-27" points="233.248 331.589 212.48 320.769 212.484 317.928 233.251 328.628 233.248 331.589"/><polygon class="cls-40" points="233.251 328.628 212.484 317.928 217.837 314.989 238.369 325.041 233.251 328.628"/><line class="cls-6" x1="215.716" y1="308.398" x2="237.25" y2="318.902"/><line class="cls-6" x1="215.159" y1="312.268" x2="236.693" y2="322.772"/><polygon class="cls-27" points="241.248 369.09 247.403 365.521 246.966 320.004 241.248 323.628 241.248 369.09"/><polygon class="cls-40" points="277.81 350.141 282.739 346.794 245.363 326.435 241.902 328.259 277.81 350.141"/><polygon class="cls-40" points="286.611 354.044 286.611 367.27 290.399 365.447 290.399 352.221 286.611 354.044"/><polygon class="cls-40" points="305.836 354.961 354.924 326.435 356.738 331.39 307.65 359.916 305.836 354.961"/><line class="cls-10" x1="322.022" y1="375.048" x2="369.988" y2="345.507"/><line class="cls-10" x1="325.479" y1="378.818" x2="372.441" y2="348.55"/><line class="cls-10" x1="306.851" y1="364.379" x2="355.621" y2="335.287"/><polygon class="cls-40" points="347.973 379.419 375.598 361.987 378.07 363.208 349.474 382.224 347.973 379.419"/><path class="cls-40" d="M350.34,381.13c.346,1.421.031,2.317-1.016,2.317-.957,0-2.255-1.173-2.672-2.618-.385-1.337-.079-2.442.968-2.442s2.39,1.391,2.719,2.743Z"/><path class="cls-40" d="M349.583,381.043c.205.841.018,1.372-.602,1.372-.566,0-1.335-.695-1.582-1.55-.228-.791-.046-1.446.573-1.446s1.415.824,1.61,1.624Z"/><g class="cls-49"><polygon class="cls-53" points="286.176 365.837 331.001 278.348 331.998 279.923 287.173 367.412 286.176 365.837"/><polygon class="cls-53" points="333.809 282.786 288.984 370.275 287.987 368.7 332.813 281.211 333.809 282.786"/><polygon class="cls-53" points="335.621 285.649 290.796 373.138 289.799 371.563 334.624 284.073 335.621 285.649"/><polygon class="cls-53" points="337.433 288.512 292.608 376.002 291.611 374.427 336.436 286.937 337.433 288.512"/><polygon class="cls-53" points="339.245 291.375 294.419 378.865 293.423 377.289 338.248 289.8 339.245 291.375"/><polygon class="cls-53" points="341.056 294.238 296.231 381.727 295.234 380.152 340.059 292.663 341.056 294.238"/><polygon class="cls-53" points="342.868 297.101 298.043 384.59 297.046 383.015 341.871 295.526 342.868 297.101"/><polygon class="cls-53" points="344.669 299.947 299.844 387.437 298.857 385.878 343.683 298.389 344.669 299.947"/><polygon class="cls-53" points="271.668 342.911 316.494 255.422 317.49 256.997 272.665 344.486 271.668 342.911"/><polygon class="cls-53" points="319.302 259.86 274.477 347.349 273.48 345.774 318.305 258.285 319.302 259.86"/><polygon class="cls-53" points="321.114 262.723 276.288 350.212 275.292 348.637 320.117 261.147 321.114 262.723"/><polygon class="cls-53" points="322.926 265.587 278.101 353.076 277.104 351.501 321.929 264.011 322.926 265.587"/><polygon class="cls-53" points="324.737 268.449 279.912 355.939 278.915 354.364 323.741 266.874 324.737 268.449"/><polygon class="cls-53" points="326.549 271.312 281.724 358.802 280.727 357.226 325.552 269.737 326.549 271.312"/><polygon class="cls-53" points="328.361 274.175 283.535 361.664 282.539 360.089 327.364 272.6 328.361 274.175"/><polygon class="cls-53" points="330.162 277.021 285.336 364.511 284.35 362.952 329.175 275.463 330.162 277.021"/></g><polygon class="cls-27" points="317.137 276.871 275.74 298.454 281.924 296.891 322.027 276.039 317.137 276.871"/><polygon class="cls-19" points="318.584 323.628 318.621 321.168 314.232 314.989 281.938 296.888 275.74 298.454 318.584 323.628"/><polygon class="cls-19" points="281.938 296.888 322.027 276.039 354.924 293.459 314.232 314.989 281.938 296.888"/><path class="cls-19" d="M316.988,321.56c-2.224-1.366-38.141-22.03-38.141-22.03-1.667-.832-3.956-2.861-3.956,1.698v32.661c0,2.601.195,3.901,2.731,5.423,2.119,1.271,3.683,2.219,5.599,3.293,1.713.959,1.74,1.038,11.478-4.893,9.738-5.93,21.898-12.524,23.029-13.187s1.483-1.6-.741-2.965ZM300.992,325.133c-1.248.726-12.602,7.272-14.474,8.287-1.873,1.014-5.15-2.185-5.15-5.384s-.105-16.352,0-17.4c.195-1.951,2.107-1.561,3.316-.975,1.209.585,9.793,5.579,13.928,8.076,4.136,2.497,3.628,6.671,2.38,7.397Z"/><polygon class="cls-27" points="354.924 293.459 314.232 314.989 318.621 321.168 359.012 298.787 354.924 293.459"/><polygon class="cls-40" points="318.621 321.168 318.584 323.628 359.012 301.25 359.012 298.787 318.621 321.168"/><polygon class="cls-48" points="291.952 350.651 342.033 322.795 335.019 318.781 285.351 347.191 291.952 350.651"/><polygon class="cls-40" points="342.033 329.288 342.033 322.795 291.952 350.651 291.952 357.906 342.033 329.288"/><line class="cls-10" x1="297.235" y1="357.811" x2="346.005" y2="328.719"/><path class="cls-53" d="M325.479,378.818c-.293-.683-3.745-9.578-3.96-10.144s-1.307-1.561-1.931-.566c-.624.995-1.288,2.829-1.288,2.829v7.803c0,.722-.332,1.795-1.19,1.346s-16.64-9.559-18.044-10.417c-1.404-.858-3.004-1.112-3.004-4.623v-3.94c0-.468.117-1.697,1.99-.683,1.773.96,7.525,4.399,8.53,4.995l.146.756.743-.455c.02-.007.036-.021.053-.032l.003-.002h0c.075-.052.123-.145.123-.307v-5.462c0-.312-1.58-4.35-1.814-4.955-.157-.404-.349-.592-.599-.485h0s-.005.003-.005.003c-.049.022-.1.056-.153.101l-.521.344.046.237c-.423.575-.886,1.189-1.069,1.438-.215.293-.468.351-.995.058-.527-.293-24.247-13.87-24.247-13.87l-.78.477.609,1.233.172-.221v40.276s.429.156.78.585c.351.429.507,1.19.507,1.19v3.921l3.57,2.124v.908l.78-.477v-4.135s-.019-.839.663-.507,26.842,15.703,27.115,15.976c.038.038.073.068.106.093l.315.51c.003.038.007.073.008.119.02.585,0,4.545,0,4.545l3.057,1.712.552,1.223.78-.477v-4.272c0-.488.195-.897,1.268-1.522,1.073-.624.8-.722.8-2.029s.031-12.309.031-12.309c0,0,5.919-8.7,6.699-9.832.78-1.131.449-2.399.156-3.082ZM300.568,384.06c-.137.101-.379.004-.54-.215-.161-.22-.18-.479-.043-.58.137-.101.379-.004.54.215.161.22.18.479.043.58ZM300.568,382.512c-.137.101-.379.004-.54-.215-.161-.22-.18-.479-.043-.58.137-.101.379-.004.54.215.161.22.18.479.043.58ZM309.061,381.361v8.492c0,.897-.663.741-1.131.494-.468-.247-3.42-2.016-3.966-2.354-.546-.338-.741-.819-.741-1.235v-8.96c0-.832.624-.851,1.222-.474,0,0,2.532,1.578,3.394,2.086,1.3.767,1.222,1.105,1.222,1.951Z"/><polygon class="cls-27" points="233.31 364.911 233.251 319.732 241.248 323.628 241.248 369.09 233.31 364.911"/><polygon class="cls-27" points="281.026 357.858 241.825 335.175 241.902 328.259 281.321 350.054 281.026 357.858"/><polygon class="cls-53" points="245.675 358.013 247.638 357.036 280.392 375.173 278.291 377.088 245.675 358.013"/><path class="cls-27" d="M324.699,379.295c-.293-.683-3.745-9.578-3.96-10.144s-1.307-1.561-1.931-.566c-.624.995-1.288,2.829-1.288,2.829v7.803c0,.722-.332,1.795-1.19,1.346-.858-.449-16.64-9.559-18.044-10.417-1.404-.858-3.004-1.112-3.004-4.623v-3.94c0-.468.117-1.697,1.99-.683,1.873,1.014,8.193,4.799,8.661,5.072.468.273.936.41.936-.117v-5.462c0-.312-1.58-4.35-1.814-4.955-.234-.605-.546-.741-1.014-.098-.468.644-1.073,1.444-1.287,1.736-.215.293-.468.351-.995.058s-24.247-13.87-24.247-13.87v33.162l-31.836-18.415v3.355l31.836,18.493v5.169s.429.156.78.585c.351.429.507,1.19.507,1.19v3.921l4.35,2.555v-4.135s-.019-.839.663-.507,26.842,15.703,27.115,15.976.41.137.429.722c.02.585,0,4.545,0,4.545l4.389,2.458v-4.272c0-.488.195-.897,1.268-1.522,1.073-.624.8-.722.8-2.029s.031-12.309.031-12.309c0,0,5.919-8.7,6.699-9.832.78-1.131.449-2.399.156-3.082ZM299.788,384.536c-.137.101-.379.004-.54-.215-.161-.22-.18-.479-.043-.58.137-.101.379-.004.54.215.161.22.18.479.043.58ZM299.788,382.989c-.137.101-.379.004-.54-.215-.161-.22-.18-.479-.043-.58.137-.101.379-.004.54.215.161.22.18.479.043.58ZM308.28,381.837v8.492c0,.897-.663.741-1.131.494-.468-.247-3.42-2.016-3.966-2.354-.546-.338-.741-.819-.741-1.235v-8.96c0-.832.624-.851,1.222-.474,0,0,2.532,1.578,3.394,2.086,1.3.767,1.222,1.105,1.222,1.951Z"/><path class="cls-29" d="M287.347,346.932c-.084-.143-11.85-6.694-11.85-6.694,0,0-.039-.029-.078-.014h-.002s-3.765,1.817-3.765,1.817l3.694,2.083v9.28s-.008.251.075.41c.084.159,2.739,4.674,2.881,4.908.142.235.218.276.595.494.231.134,4.432,2.536,7.651,4.377l-.026,3.939,3.799-1.829v-.004c.055-.019.079-.093.079-.252v-13.227c0-.118-2.968-5.146-3.052-5.289ZM277.808,356.638c-.21,0-.494-.257-.585-.574-.084-.293-.017-.535.212-.535s.524.305.596.601c.076.311.007.508-.223.508Z"/><polygon class="cls-40" points="287.347 346.932 283.558 348.755 286.611 354.044 290.399 352.221 287.347 346.932"/><path class="cls-50" d="M280.928,352.268l-6.037,3.63,12.498,27.411,6.224,3.525.091-6.534-12.776-28.032ZM286.01,367.216c-.249,0-.579-.323-.736-.706-.148-.36-.041-.706.208-.706s.573.336.694.706c.125.381.083.706-.167.706ZM290.501,375.109c-.249,0-.579-.323-.736-.706-.148-.36-.041-.706.208-.706s.573.336.694.706c.125.381.083.706-.167.706Z"/><polygon class="cls-19" points="284.46 350.054 280.928 352.268 293.704 380.3 297.235 378.086 284.46 350.054"/><polygon class="cls-40" points="293.613 386.834 297.235 384.369 297.235 378.086 293.704 380.145 293.613 386.834"/><path class="cls-51" d="M283.558,348.755c-.084-.143-11.85-6.694-11.85-6.694,0,0-.151-.117-.151.218v12.949s-.008.251.075.41c.084.159,2.739,4.674,2.881,4.908.142.235.218.276.595.494s11.324,6.477,11.324,6.477c.132.047.178-.012.178-.247v-13.227c0-.118-2.968-5.146-3.052-5.289ZM274.019,358.461c-.21,0-.494-.257-.585-.574-.084-.293-.017-.535.212-.535s.524.305.596.601c.076.311.007.508-.223.508ZM283.57,352.34c-.346,0-.817-.425-.968-.948-.14-.484-.028-.884.351-.884s.866.504.985.993c.125.515.011.839-.368.839Z"/><path class="cls-48" d="M276.501,349.862c.385,1.582.034,2.58-1.131,2.58-1.065,0-2.511-1.307-2.975-2.915-.429-1.488-.087-2.719,1.078-2.719s2.661,1.549,3.028,3.054Z"/><polygon class="cls-40" points="233.251 319.732 238.951 316.38 246.966 320.004 241.248 323.628 233.251 319.732"/><path class="cls-48" d="M342.069,370.042c-.286-1.376-1.594-2.827-2.651-2.863-.185-.006-.34.033-.481.092l-.006-.011-.065.043c-.065.034-.126.073-.181.12l-.683.451.254.454c-.048.374-.018.811.101,1.283.304,1.21,1.215,2.243,2.067,2.597l.313.56.868-.556c.018-.01.033-.021.05-.032l.079-.051-.006-.01c.437-.345.55-1.074.341-2.078Z"/><path class="cls-40" d="M341.32,370.539c.3,1.446-.049,2.34-1.106,2.304-.966-.033-2.237-1.262-2.607-2.735-.343-1.363.005-2.468,1.062-2.432s2.365,1.487,2.651,2.863Z"/><path class="cls-48" d="M350.728,363.899c-.286-1.376-1.594-2.827-2.651-2.863-.185-.006-.34.033-.481.092l-.006-.011-.065.043c-.065.034-.126.073-.181.12l-.683.451.254.454c-.048.374-.018.811.101,1.283.304,1.21,1.215,2.243,2.067,2.597l.313.56.868-.556c.018-.01.033-.021.05-.032l.079-.051-.006-.01c.437-.345.55-1.074.341-2.078Z"/><path class="cls-40" d="M349.979,364.396c.3,1.446-.049,2.34-1.106,2.304-.966-.033-2.237-1.262-2.607-2.735-.343-1.363.005-2.468,1.062-2.432,1.057.036,2.365,1.487,2.651,2.863Z"/><path class="cls-48" d="M357.74,359.776c-.286-1.376-1.594-2.827-2.651-2.863-.185-.006-.34.033-.481.092l-.006-.011-.065.043c-.065.034-.126.073-.181.12l-.683.451.254.454c-.048.374-.018.811.101,1.283.304,1.21,1.215,2.243,2.067,2.597l.313.56.868-.556c.018-.01.033-.021.05-.032l.079-.051-.006-.01c.437-.345.55-1.074.341-2.078Z"/><path class="cls-40" d="M356.991,360.273c.3,1.446-.049,2.34-1.106,2.304-.966-.033-2.237-1.262-2.607-2.735-.343-1.363.005-2.468,1.062-2.432,1.057.036,2.365,1.487,2.651,2.863Z"/><path class="cls-48" d="M364.659,355.427c-.286-1.376-1.594-2.827-2.651-2.863-.185-.006-.34.033-.481.092l-.006-.011-.065.043c-.065.034-.126.073-.181.12l-.683.451.254.454c-.048.374-.018.811.101,1.283.304,1.21,1.215,2.243,2.067,2.597l.313.56.868-.556c.018-.01.033-.021.05-.032l.079-.051-.006-.01c.437-.345.55-1.074.341-2.078Z"/><path class="cls-40" d="M363.91,355.924c.3,1.446-.049,2.34-1.106,2.304-.966-.033-2.237-1.262-2.607-2.735-.343-1.363.005-2.468,1.062-2.432s2.365,1.487,2.651,2.863Z"/><path class="cls-48" d="M363.344,363.351c-.343-1.652-1.914-3.393-3.182-3.437-.222-.008-.408.04-.578.11l-.007-.013-.079.052c-.079.04-.151.087-.218.144l-.819.541.305.545c-.057.449-.021.973.121,1.54.365,1.452,1.459,2.693,2.481,3.117l.376.673,1.042-.667c.021-.012.04-.026.06-.038l.095-.061-.007-.012c.525-.414.66-1.289.41-2.495Z"/><path class="cls-15" d="M362.445,363.949c.361,1.736-.058,2.809-1.327,2.766-1.159-.04-2.685-1.516-3.13-3.283-.412-1.636.006-2.963,1.275-2.919,1.269.043,2.839,1.785,3.182,3.437Z"/><path class="cls-40" d="M361.531,363.812c.214,1.028-.035,1.663-.786,1.638-.687-.023-1.59-.897-1.853-1.944-.244-.969.003-1.754.755-1.729s1.681,1.057,1.884,2.035Z"/><path class="cls-48" d="M359.26,365.75c-.343-1.652-1.914-3.393-3.182-3.437-.222-.008-.408.04-.578.11l-.007-.013-.079.052c-.079.04-.151.087-.218.144l-.819.541.305.545c-.057.449-.021.973.121,1.54.365,1.452,1.459,2.693,2.481,3.117l.376.673,1.042-.667c.021-.012.04-.026.06-.038l.095-.061-.007-.012c.525-.414.66-1.289.41-2.495Z"/><path class="cls-15" d="M358.361,366.348c.361,1.736-.058,2.809-1.327,2.766-1.159-.04-2.685-1.516-3.13-3.283-.412-1.636.006-2.963,1.275-2.919,1.269.043,2.839,1.785,3.182,3.437Z"/><path class="cls-40" d="M357.447,366.211c.214,1.028-.035,1.663-.786,1.638-.687-.023-1.59-.897-1.853-1.944-.244-.969.003-1.754.755-1.729s1.681,1.057,1.884,2.035Z"/><polyline class="cls-8" points="345.833 378.216 345.833 374.607 374.703 355.76 374.703 360.035"/><polygon class="cls-19" points="328.004 347.168 324.544 345.257 324.544 340.443 328.004 342.354 328.004 347.168"/><polygon class="cls-19" points="334.687 343.64 329.259 340.113 331.227 336.915 334.687 338.826 334.687 343.64"/><polygon class="cls-19" points="334.687 343.638 328.004 347.168 328.004 342.354 334.687 338.824 334.687 343.638"/><polygon class="cls-19" points="332.092 341.101 324.544 345.259 324.544 340.445 331.227 336.915 332.092 341.101"/><ellipse class="cls-48" cx="333.328" cy="341.489" rx="1.622" ry="1.206" transform="translate(-118.829 494.055) rotate(-64.338)"/><polygon class="cls-53" points="331.227 343.542 328.708 344.978 328.708 342.962 331.227 341.527 331.227 343.542"/><polygon class="cls-38" points="385.366 373.385 374.313 366.776 360.963 375.388 372.921 382.642 385.366 373.385"/><path class="cls-48" d="M374.65,386.492c1.254.754,2.652.577,3.585-1.982.933-2.558,4.062-10.379,4.062-10.379l1.508-.408s-3.63,9.224-4.491,11.44c-1.078,2.774-2.595,3.68-5.945,2.15l1.283-.821Z"/><path class="cls-48" d="M379.353,383.214c1.254.754,2.652.577,3.585-1.982.933-2.558,4.062-10.379,4.062-10.379l1.508-.408s-3.63,9.224-4.491,11.44c-1.078,2.774-2.595,3.68-5.945,2.15l1.283-.821Z"/><path class="cls-48" d="M383.943,380.21c1.254.754,2.652.577,3.585-1.982.933-2.558,4.062-10.379,4.062-10.379l1.508-.408s-3.63,9.224-4.491,11.44c-1.078,2.774-2.595,3.68-5.945,2.15l1.283-.821Z"/><path class="cls-48" d="M388.384,377.154c1.254.754,2.652.577,3.585-1.982.933-2.558,4.062-10.379,4.062-10.379l1.508-.408s-3.63,9.224-4.491,11.44c-1.078,2.774-2.595,3.68-5.945,2.15l1.283-.821Z"/><path class="cls-27" d="M413.658,287.238l-.068-24.937-4.469-28.217c-.218-1.379-1.736-2.126-2.962-1.458l-16.092,8.817-.41,2.17,16.525-8.7,3.661,21.966-20.52,11.498v43.134l48.535-26.58v-10.946l-24.199,13.252Z"/><polygon class="cls-27" points="420.367 290.742 427.145 286.994 427.145 231.257 420.367 235.004 420.367 290.742"/><polygon class="cls-43" points="420.367 290.774 425.368 293.587 425.368 237.85 420.367 235.037 420.367 290.774"/><polygon class="cls-27" points="442.601 302.522 449.379 298.774 449.379 243.037 442.601 246.784 442.601 302.522"/><polygon class="cls-43" points="437.599 299.709 442.601 302.522 442.601 246.784 437.599 243.971 437.599 299.709"/><path class="cls-19" d="M427.145,231.257l22.234,11.78-8.227,4.556c-.66.343-1.445.347-2.109.012l-19.643-9.907c-.879-.444-.901-1.691-.038-2.166l7.784-4.275Z"/><polygon class="cls-43" points="462.27 290.468 465.841 292.294 444.703 304.148 444.703 299.622 462.27 290.468"/><polygon class="cls-43" points="411.336 269.84 411.336 299.455 430.483 310.843 430.164 279.187 411.336 269.84"/><polygon class="cls-27" points="440.886 275.404 413.094 260.999 392.367 270.471 400.41 276.001 411.336 269.84 428.835 278.527 415.891 285.64 417.539 286.895 435.194 276.985 435.403 277.071 440.886 275.404"/><path class="cls-43" d="M461.324,303.273c.185,3.407-2.602,6.81-4.612,6.416-2.284-.448-3.009-2.491-2.677-5.231.332-2.74,2.474-4.734,4.785-4.454,2.311.28,2.355.514,2.504,3.27Z"/><path class="cls-27" d="M386.928,269.84l.603,39.718c.018,1.216.659,2.337,1.698,2.97l26.663,12.631.158-6.664-19.168-8.692-9.953-39.963Z"/><path class="cls-19" d="M389.322,274.089v-5.712s-3.804,1.96-3.762,3.027h0l-.161,31.118.046.378c.03.404.338.902,1.284,1.535,3.498,2.339,10.553,6.662,10.553,6.662l.558-33.519s-8.554-3.513-8.518-3.488Z"/><path class="cls-19" d="M444.703,304.148l-.068-24.937-4.469-28.217c-.218-1.379-1.736-2.126-2.962-1.458l-14.972,8.128.048,2.123,14.947-7.964,3.661,21.966-20.52,11.498c-.342.257-1.105.753-2.19.863-1.612.163-1.986-.291-2.286-.511v39.52c.451.254.813.473,2.339.33.974-.092,0,0,1.408-.187l46.203-26.014v-6.994l-21.138,11.854Z"/><polygon class="cls-19" points="334.05 184.255 84.051 329.522 70.134 319.794 320.133 174.527 334.05 184.255"/><polygon class="cls-19" points="336.834 198.24 334.05 184.255 82.236 328.253 85.019 342.238 336.834 198.24"/><polygon class="cls-27" points="293.782 180.347 293.782 146.247 294.664 145.714 294.664 179.855 293.782 180.347"/><polygon class="cls-27" points="301.757 177.839 301.757 143.738 302.639 143.205 302.639 177.346 301.757 177.839"/><polygon class="cls-27" points="290.73 166.097 305.377 158.346 305.377 157.361 289.955 165.622 290.73 166.097"/><polygon class="cls-27" points="290.73 168.381 305.377 160.631 305.377 159.645 289.955 167.906 290.73 168.381"/><polygon class="cls-33" points="318.519 140.638 318.519 179.054 319.074 178.05 319.074 140.372 318.519 140.638"/><polygon class="cls-44" points="334.708 178.36 305.377 166.511 305.377 151.445 334.708 168.549 334.708 178.36"/><polygon class="cls-27" points="334.708 168.549 336.584 167.507 336.584 177.318 334.708 178.36 334.708 168.549"/><polygon class="cls-19" points="334.708 168.549 336.584 167.507 307.252 150.403 305.377 151.446 334.708 168.549"/><polygon class="cls-33" points="281.919 145.101 281.919 183.517 283.448 182.514 283.448 144.836 281.919 145.101"/><polygon class="cls-27" points="279.64 153.574 269.776 147.878 284.197 140.62 294.062 146.315 279.64 153.574"/><polygon class="cls-27" points="269.776 147.544 269.776 147.878 279.64 153.574 294.062 146.315 294.062 145.981 269.776 147.544"/><polygon class="cls-27" points="279.64 153.239 269.776 147.544 284.197 140.285 294.062 145.981 279.64 153.239"/><polygon class="cls-33" points="290.26 146.371 280.139 151.177 280.139 146.078 290.26 141.27 290.26 146.371"/><polygon class="cls-44" points="280.139 146.078 280.139 151.177 273.577 147.652 273.577 142.662 280.139 146.078"/><polygon class="cls-19" points="290.26 141.27 280.139 146.078 273.577 142.662 283.698 137.854 290.26 141.27"/><path class="cls-42" d="M311.29,188.025l-5.12-2.842v-41.535c0-.46.484-.759.896-.553l3.681,1.844c.208.104.34.317.341.55l.202,42.536Z"/><path class="cls-44" d="M300.606,192.577l-5.12-2.842v-41.535c0-.46.484-.759.896-.553l3.681,1.844c.208.104.34.317.341.55l.202,42.536Z"/><path class="cls-27" d="M313.712,184.855l-7.807-.538v-19.134c0-.706.407-1.348,1.044-1.65l5.572-3.188c.553-.262,1.191.141,1.191.753v23.758Z"/><polygon class="cls-27" points="299.16 183.456 307.47 178.613 307.47 188.423 299.16 193.266 299.16 183.456"/><polygon class="cls-27" points="334.103 188.595 310.886 201.824 310.886 183.051 334.103 169.985 334.103 188.595"/><polygon class="cls-27" points="319.441 187.125 298.898 175.515 321.172 162.708 341.597 174.226 319.441 187.125"/><polygon class="cls-19" points="319.441 186.443 298.898 174.832 321.172 162.026 341.597 173.544 319.441 186.443"/><polygon class="cls-19" points="341.597 174.226 341.597 173.544 319.441 186.443 319.441 187.125 341.597 174.226"/><polygon class="cls-44" points="306.722 201.549 277.391 184.445 277.391 171.144 306.722 186.484 306.722 201.549"/><polygon class="cls-27" points="306.722 186.484 311.902 183.606 311.902 198.671 306.722 201.549 306.722 186.484"/><polygon class="cls-19" points="306.722 186.483 311.902 183.606 282.571 171.756 277.391 174.634 306.722 186.483"/><path class="cls-27" d="M283.175,164.734v14.873l28.613,11.042c.372.212.835-.057.835-.485v-8.886l-13.726-7.81-5.262-9.455-6.367-3.905-4.093,4.626Z"/><polygon class="cls-44" points="274.865 169.036 274.865 178.995 304.313 195.932 304.313 186.121 290.588 178.275 285.325 168.82 278.958 164.915 274.865 169.036"/><polygon class="cls-19" points="298.898 173.468 290.588 178.275 304.313 186.121 312.623 181.278 298.898 173.468"/><polygon class="cls-27" points="285.325 168.82 293.636 164.013 298.898 173.468 290.588 178.275 285.325 168.82"/><polygon class="cls-19" points="278.958 164.915 287.268 160.108 293.636 164.013 285.325 168.82 278.958 164.915"/><path class="cls-27" d="M321.97,160.238l-5.167-9.165v-1.092s.044-.603-.221-.773c-.335-.214-.688.021-.688.021l-22.258,12.46s-.657.35-.788.575c-.157.268-.121,1.178-.121,1.178v1.119l.012-.007,5.377,9.367,13.703,7.827.805-.469-13.725-7.81-5.262-9.455v-1.08l22.258-12.443v1.102l5.088,8.981,13.726,8.005.904-.385-13.642-7.955Z"/><polygon class="cls-27" points="304.313 195.932 304.313 186.121 309.582 183.051 309.582 193.176 304.313 195.932"/><path class="cls-42" d="M317.547,143.785v.157h.005c0,.306.559.553,1.248.553s1.248-.248,1.248-.553v-.157h-2.501Z"/><ellipse class="cls-19" cx="318.8" cy="143.785" rx="1.248" ry=".553"/><path class="cls-28" d="M317.55,140.941v2.842c0,.306.559.553,1.248.553s1.248-.248,1.248-.553v-2.842h-2.496Z"/><ellipse class="cls-19" cx="318.798" cy="140.941" rx="1.248" ry=".553"/><path class="cls-31" d="M317.544,139.727v1.214h.005c0,.306.559.553,1.248.553s1.248-.248,1.248-.553v-1.214h-2.501Z"/><ellipse class="cls-37" cx="318.798" cy="139.727" rx="1.248" ry=".553"/><polygon class="cls-27" points="257.064 201.068 257.064 166.967 257.945 166.435 257.945 200.575 257.064 201.068"/><polygon class="cls-27" points="265.039 198.56 265.039 164.459 265.921 163.926 265.921 198.067 265.039 198.56"/><polygon class="cls-27" points="254.012 186.818 268.658 179.067 268.658 178.082 253.237 186.343 254.012 186.818"/><polygon class="cls-27" points="254.012 189.102 268.658 181.351 268.658 180.366 253.237 188.627 254.012 189.102"/><polygon class="cls-33" points="281.801 161.359 281.801 199.775 282.356 198.771 282.356 161.093 281.801 161.359"/><polygon class="cls-44" points="297.99 199.081 268.658 187.231 268.658 172.166 297.99 189.27 297.99 199.081"/><polygon class="cls-27" points="297.99 189.27 299.866 188.228 299.866 198.039 297.99 199.081 297.99 189.27"/><polygon class="cls-19" points="297.99 189.27 299.866 188.228 270.534 171.124 268.658 172.166 297.99 189.27"/><polygon class="cls-33" points="245.201 165.822 245.201 204.238 246.73 203.234 246.73 165.556 245.201 165.822"/><polygon class="cls-27" points="242.922 174.295 233.058 168.599 247.479 161.341 257.344 167.036 242.922 174.295"/><polygon class="cls-27" points="233.058 168.264 233.058 168.599 242.922 174.295 257.344 167.036 257.344 166.702 233.058 168.264"/><polygon class="cls-27" points="242.922 173.96 233.058 168.264 247.479 161.006 257.344 166.702 242.922 173.96"/><polygon class="cls-33" points="253.542 167.091 243.421 171.898 243.421 166.799 253.542 161.991 253.542 167.091"/><polygon class="cls-44" points="243.421 166.799 243.421 171.898 236.859 168.373 236.859 163.383 243.421 166.799"/><polygon class="cls-19" points="253.542 161.991 243.421 166.799 236.859 163.383 246.98 158.575 253.542 161.991"/><path class="cls-42" d="M274.572,208.745l-5.12-2.842v-41.535c0-.46.484-.759.896-.553l3.681,1.844c.208.104.34.317.341.55l.202,42.536Z"/><path class="cls-44" d="M263.888,213.298l-5.12-2.842v-41.535c0-.46.484-.759.896-.553l3.681,1.844c.208.104.34.317.341.55l.202,42.536Z"/><path class="cls-27" d="M276.994,205.576l-7.807-.538v-19.134c0-.706.407-1.348,1.044-1.65l5.572-3.188c.553-.262,1.191.141,1.191.753v23.758Z"/><polygon class="cls-27" points="262.442 204.176 270.752 199.334 270.752 209.144 262.442 213.987 262.442 204.176"/><polygon class="cls-27" points="297.385 209.315 274.168 222.545 274.168 203.771 297.385 190.706 297.385 209.315"/><polygon class="cls-27" points="282.723 207.846 262.18 196.235 284.454 183.429 304.879 194.947 282.723 207.846"/><polygon class="cls-19" points="282.723 207.163 262.18 195.553 284.454 182.747 304.879 194.265 282.723 207.163"/><polygon class="cls-19" points="304.879 194.947 304.879 194.265 282.723 207.163 282.723 207.846 304.879 194.947"/><polygon class="cls-44" points="270.004 222.269 240.672 205.166 240.672 191.865 270.004 207.204 270.004 222.269"/><polygon class="cls-27" points="270.004 207.204 275.184 204.327 275.184 219.392 270.004 222.269 270.004 207.204"/><polygon class="cls-19" points="270.004 207.204 275.184 204.327 245.853 192.477 240.672 195.355 270.004 207.204"/><path class="cls-27" d="M246.457,185.455v14.873l28.613,11.042c.372.212.835-.057.835-.485v-8.886l-13.726-7.81-5.262-9.455-6.367-3.905-4.093,4.626Z"/><polygon class="cls-44" points="238.147 189.756 238.147 199.716 267.595 216.653 267.595 206.842 253.87 198.995 248.607 189.541 242.24 185.636 238.147 189.756"/><polygon class="cls-19" points="262.18 194.189 253.87 198.995 267.595 206.842 275.905 201.999 262.18 194.189"/><polygon class="cls-27" points="248.607 189.541 256.917 184.734 262.18 194.189 253.87 198.995 248.607 189.541"/><polygon class="cls-19" points="242.24 185.636 250.55 180.829 256.917 184.734 248.607 189.541 242.24 185.636"/><path class="cls-27" d="M285.252,180.959l-5.167-9.165v-1.092s.044-.603-.221-.773c-.335-.214-.688.021-.688.021l-22.258,12.46s-.657.35-.788.575c-.157.268-.121,1.178-.121,1.178v1.119l.012-.007,5.377,9.367,13.703,7.827.805-.469-13.725-7.81-5.262-9.455v-1.08l22.258-12.443v1.102l5.088,8.981,13.726,8.005.904-.385-13.642-7.955Z"/><polygon class="cls-27" points="267.595 216.653 267.595 206.842 272.864 203.771 272.864 213.896 267.595 216.653"/><path class="cls-42" d="M280.829,164.505v.157h.005c0,.306.559.553,1.248.553s1.248-.248,1.248-.553v-.157h-2.501Z"/><ellipse class="cls-19" cx="282.082" cy="164.506" rx="1.248" ry=".553"/><path class="cls-28" d="M280.832,161.662v2.842c0,.306.559.553,1.248.553s1.248-.248,1.248-.553v-2.842h-2.496Z"/><ellipse class="cls-19" cx="282.08" cy="161.662" rx="1.248" ry=".553"/><path class="cls-31" d="M280.826,160.448v1.214h.005c0,.306.559.553,1.248.553s1.248-.248,1.248-.553v-1.214h-2.501Z"/><ellipse class="cls-37" cx="282.08" cy="160.448" rx="1.248" ry=".553"/><polygon class="cls-27" points="220.473 221.953 220.473 187.852 221.354 187.319 221.354 221.46 220.473 221.953"/><polygon class="cls-27" points="228.448 219.444 228.448 185.344 229.329 184.811 229.329 218.952 228.448 219.444"/><polygon class="cls-27" points="217.421 207.703 232.067 199.952 232.067 198.967 216.646 207.227 217.421 207.703"/><polygon class="cls-27" points="217.421 209.987 232.067 202.236 232.067 201.251 216.646 209.512 217.421 209.987"/><polygon class="cls-33" points="245.21 182.243 245.21 220.66 245.764 219.656 245.764 181.978 245.21 182.243"/><polygon class="cls-44" points="261.399 219.966 232.067 208.116 232.067 193.051 261.399 210.155 261.399 219.966"/><polygon class="cls-27" points="261.399 210.155 263.274 209.113 263.274 218.923 261.399 219.966 261.399 210.155"/><polygon class="cls-19" points="261.399 210.155 263.274 209.113 233.943 192.009 232.067 193.051 261.399 210.155"/><polygon class="cls-33" points="208.609 186.706 208.609 225.123 210.139 224.119 210.139 186.441 208.609 186.706"/><polygon class="cls-27" points="206.331 195.179 196.466 189.484 210.888 182.225 220.752 187.921 206.331 195.179"/><polygon class="cls-27" points="196.466 189.149 196.466 189.484 206.331 195.179 220.752 187.921 220.752 187.586 196.466 189.149"/><polygon class="cls-27" points="206.331 194.845 196.466 189.149 210.888 181.891 220.752 187.586 206.331 194.845"/><polygon class="cls-33" points="216.951 187.976 206.83 192.782 206.83 187.684 216.951 182.876 216.951 187.976"/><polygon class="cls-44" points="206.83 187.684 206.83 192.782 200.268 189.258 200.268 184.268 206.83 187.684"/><polygon class="cls-19" points="216.951 182.876 206.83 187.684 200.268 184.268 210.389 179.46 216.951 182.876"/><path class="cls-42" d="M237.981,229.63l-5.12-2.842v-41.535c0-.46.484-.759.896-.553l3.681,1.844c.208.104.34.317.341.55l.202,42.536Z"/><path class="cls-44" d="M227.297,234.183l-5.12-2.842v-41.535c0-.46.484-.759.896-.553l3.681,1.844c.208.104.34.317.341.55l.202,42.536Z"/><path class="cls-27" d="M240.403,226.46l-7.807-.538v-19.134c0-.706.407-1.348,1.044-1.65l5.572-3.188c.553-.262,1.191.141,1.191.753v23.758Z"/><polygon class="cls-27" points="225.85 225.061 234.161 220.218 234.161 230.029 225.85 234.872 225.85 225.061"/><polygon class="cls-27" points="260.794 230.2 237.577 243.429 237.577 224.656 260.794 211.591 260.794 230.2"/><polygon class="cls-27" points="246.131 228.73 225.588 217.12 247.863 204.314 268.287 215.832 246.131 228.73"/><polygon class="cls-19" points="246.131 228.048 225.588 216.438 247.863 203.632 268.287 215.149 246.131 228.048"/><polygon class="cls-19" points="268.287 215.832 268.287 215.149 246.131 228.048 246.131 228.73 268.287 215.832"/><polygon class="cls-44" points="233.413 243.154 204.081 226.05 204.081 212.749 233.413 228.089 233.413 243.154"/><polygon class="cls-27" points="233.413 228.089 238.593 225.211 238.593 240.276 233.413 243.154 233.413 228.089"/><polygon class="cls-19" points="233.413 228.089 238.593 225.211 209.261 213.362 204.081 216.239 233.413 228.089"/><path class="cls-27" d="M209.866,206.34v14.873l28.613,11.042c.372.212.835-.057.835-.485v-8.886l-13.726-7.81-5.262-9.455-6.367-3.905-4.093,4.626Z"/><polygon class="cls-44" points="201.556 210.641 201.556 220.6 231.004 237.537 231.004 227.726 217.278 219.88 212.016 210.425 205.649 206.52 201.556 210.641"/><polygon class="cls-19" points="225.588 215.073 217.278 219.88 231.004 227.726 239.314 222.884 225.588 215.073"/><polygon class="cls-27" points="212.016 210.425 220.326 205.619 225.588 215.073 217.278 219.88 212.016 210.425"/><polygon class="cls-19" points="205.649 206.52 213.959 201.714 220.326 205.619 212.016 210.425 205.649 206.52"/><path class="cls-27" d="M248.661,201.844l-5.167-9.165v-1.092s.044-.603-.221-.773c-.335-.214-.688.021-.688.021l-22.258,12.46s-.657.35-.788.575c-.157.268-.121,1.178-.121,1.178v1.119l.012-.007,5.377,9.367,13.703,7.827.805-.469-13.725-7.81-5.262-9.455v-1.08l22.258-12.443v1.102l5.088,8.981,13.726,8.005.904-.385-13.642-7.955Z"/><polygon class="cls-27" points="231.004 237.537 231.004 227.726 236.273 224.656 236.273 234.781 231.004 237.537"/><path class="cls-42" d="M244.238,185.39v.157h.005c0,.306.559.553,1.248.553s1.248-.248,1.248-.553v-.157h-2.501Z"/><ellipse class="cls-19" cx="245.491" cy="185.39" rx="1.248" ry=".553"/><path class="cls-28" d="M244.241,182.547v2.842c0,.306.559.553,1.248.553s1.248-.248,1.248-.553v-2.842h-2.496Z"/><ellipse class="cls-19" cx="245.488" cy="182.547" rx="1.248" ry=".553"/><path class="cls-31" d="M244.235,181.333v1.214h.005c0,.306.559.553,1.248.553s1.248-.248,1.248-.553v-1.214h-2.501Z"/><ellipse class="cls-37" cx="245.488" cy="181.333" rx="1.248" ry=".553"/><polygon class="cls-27" points="183.882 243.55 183.882 209.449 184.763 208.917 184.763 243.057 183.882 243.55"/><polygon class="cls-27" points="191.857 241.042 191.857 206.941 192.738 206.408 192.738 240.549 191.857 241.042"/><polygon class="cls-27" points="180.83 229.3 195.476 221.549 195.476 220.564 180.055 228.825 180.83 229.3"/><polygon class="cls-27" points="180.83 231.584 195.476 223.833 195.476 222.848 180.055 231.109 180.83 231.584"/><polygon class="cls-33" points="208.619 203.841 208.619 242.257 209.173 241.253 209.173 203.575 208.619 203.841"/><polygon class="cls-44" points="224.807 241.563 195.476 229.713 195.476 214.648 224.807 231.752 224.807 241.563"/><polygon class="cls-27" points="224.807 231.752 226.683 230.71 226.683 240.521 224.807 241.563 224.807 231.752"/><polygon class="cls-19" points="224.807 231.752 226.683 230.71 197.352 213.606 195.476 214.648 224.807 231.752"/><polygon class="cls-33" points="172.018 208.304 172.018 246.72 173.548 245.716 173.548 208.038 172.018 208.304"/><polygon class="cls-27" points="169.74 216.776 159.875 211.081 174.296 203.823 184.161 209.518 169.74 216.776"/><polygon class="cls-27" points="159.875 210.746 159.875 211.081 169.74 216.776 184.161 209.518 184.161 209.183 159.875 210.746"/><polygon class="cls-27" points="169.74 216.442 159.875 210.746 174.296 203.488 184.161 209.183 169.74 216.442"/><polygon class="cls-33" points="180.36 209.573 170.238 214.379 170.238 209.281 180.36 204.473 180.36 209.573"/><polygon class="cls-44" points="170.238 209.281 170.238 214.379 163.676 210.855 163.676 205.865 170.238 209.281"/><polygon class="cls-19" points="180.36 204.473 170.238 209.281 163.676 205.865 173.798 201.057 180.36 204.473"/><path class="cls-42" d="M201.389,251.227l-5.12-2.842v-41.535c0-.46.484-.759.896-.553l3.681,1.844c.208.104.34.317.341.55l.202,42.536Z"/><path class="cls-44" d="M190.706,255.78l-5.12-2.842v-41.535c0-.46.484-.759.896-.553l3.681,1.844c.208.104.34.317.341.55l.202,42.536Z"/><path class="cls-27" d="M203.812,248.058l-7.807-.538v-19.134c0-.706.407-1.348,1.044-1.65l5.572-3.188c.553-.262,1.191.141,1.191.753v23.758Z"/><polygon class="cls-27" points="189.259 246.658 197.569 241.816 197.569 251.626 189.259 256.469 189.259 246.658"/><polygon class="cls-27" points="224.203 251.797 200.986 265.027 200.986 246.253 224.203 233.188 224.203 251.797"/><polygon class="cls-19" points="209.54 250.328 188.997 238.717 211.271 225.911 231.696 237.429 209.54 250.328"/><polygon class="cls-19" points="209.54 249.645 188.997 238.035 211.271 225.229 231.696 236.747 209.54 249.645"/><polygon class="cls-19" points="231.696 237.429 231.696 236.747 209.54 249.645 209.54 250.328 231.696 237.429"/><polygon class="cls-44" points="196.821 264.751 167.49 247.647 167.49 234.347 196.821 249.686 196.821 264.751"/><polygon class="cls-27" points="196.821 249.686 202.002 246.809 202.002 261.874 196.821 264.751 196.821 249.686"/><polygon class="cls-19" points="196.821 249.686 202.002 246.809 172.67 234.959 167.49 237.837 196.821 249.686"/><path class="cls-27" d="M173.275,227.937v14.873l28.613,11.042c.372.212.835-.057.835-.485v-8.886l-13.726-7.81-5.262-9.455-6.367-3.905-4.093,4.626Z"/><polygon class="cls-44" points="164.965 232.238 164.965 242.198 194.413 259.135 194.413 249.324 180.687 241.477 175.425 232.023 169.058 228.118 164.965 232.238"/><polygon class="cls-19" points="188.997 236.671 180.687 241.477 194.413 249.324 202.723 244.481 188.997 236.671"/><polygon class="cls-27" points="175.425 232.023 183.735 227.216 188.997 236.671 180.687 241.477 175.425 232.023"/><polygon class="cls-19" points="169.058 228.118 177.368 223.311 183.735 227.216 175.425 232.023 169.058 228.118"/><path class="cls-27" d="M212.07,223.441l-5.167-9.165v-1.092s.044-.603-.221-.773c-.335-.214-.688.021-.688.021l-22.258,12.46s-.657.35-.788.575c-.157.268-.121,1.178-.121,1.178v1.119l.012-.007,5.377,9.367,13.703,7.827.805-.469-13.725-7.81-5.262-9.455v-1.08l22.258-12.443v1.102l5.088,8.981,13.726,8.005.904-.385-13.642-7.955Z"/><polygon class="cls-27" points="194.413 259.135 194.413 249.324 199.681 246.253 199.681 256.378 194.413 259.135"/><path class="cls-42" d="M207.647,206.987v.157h.005c0,.306.559.553,1.248.553s1.248-.248,1.248-.553v-.157h-2.501Z"/><ellipse class="cls-19" cx="208.9" cy="206.987" rx="1.248" ry=".553"/><path class="cls-28" d="M207.649,204.144v2.842c0,.306.559.553,1.248.553s1.248-.248,1.248-.553v-2.842h-2.496Z"/><ellipse class="cls-19" cx="208.897" cy="204.144" rx="1.248" ry=".553"/><path class="cls-31" d="M207.644,202.93v1.214h.005c0,.306.559.553,1.248.553s1.248-.248,1.248-.553v-1.214h-2.501Z"/><ellipse class="cls-37" cx="208.897" cy="202.93" rx="1.248" ry=".553"/><polygon class="cls-27" points="147.29 264.435 147.29 230.334 148.172 229.801 148.172 263.942 147.29 264.435"/><polygon class="cls-27" points="155.266 261.926 155.266 227.826 156.147 227.293 156.147 261.434 155.266 261.926"/><polygon class="cls-27" points="144.238 250.185 158.885 242.434 158.885 241.449 143.464 249.709 144.238 250.185"/><polygon class="cls-27" points="144.238 252.469 158.885 244.718 158.885 243.733 143.464 251.994 144.238 252.469"/><polygon class="cls-33" points="172.028 224.725 172.028 263.142 172.582 262.138 172.582 224.46 172.028 224.725"/><polygon class="cls-44" points="188.216 262.448 158.885 250.598 158.885 235.533 188.216 252.637 188.216 262.448"/><polygon class="cls-27" points="188.216 252.637 190.092 251.595 190.092 261.405 188.216 262.448 188.216 252.637"/><polygon class="cls-19" points="188.216 252.637 190.092 251.595 160.761 234.491 158.885 235.533 188.216 252.637"/><polygon class="cls-33" points="135.427 229.188 135.427 267.605 136.957 266.601 136.957 228.923 135.427 229.188"/><polygon class="cls-27" points="133.149 237.661 123.284 231.966 137.705 224.707 147.57 230.403 133.149 237.661"/><polygon class="cls-27" points="123.284 231.631 123.284 231.966 133.149 237.661 147.57 230.403 147.57 230.068 123.284 231.631"/><polygon class="cls-27" points="133.149 237.327 123.284 231.631 137.705 224.373 147.57 230.068 133.149 237.327"/><polygon class="cls-33" points="143.769 230.458 133.647 235.264 133.647 230.166 143.769 225.358 143.769 230.458"/><polygon class="cls-44" points="133.647 230.166 133.647 235.264 127.085 231.74 127.085 226.75 133.647 230.166"/><polygon class="cls-19" points="143.769 225.358 133.647 230.166 127.085 226.75 137.207 221.941 143.769 225.358"/><path class="cls-42" d="M164.798,272.112l-5.12-2.842v-41.535c0-.46.484-.759.896-.553l3.681,1.844c.208.104.34.317.341.55l.202,42.536Z"/><path class="cls-44" d="M154.115,276.665l-5.12-2.842v-41.535c0-.46.484-.759.896-.553l3.681,1.844c.208.104.34.317.341.55l.202,42.536Z"/><path class="cls-27" d="M167.221,268.942l-7.807-.538v-19.134c0-.706.407-1.348,1.044-1.65l5.572-3.188c.553-.262,1.191.141,1.191.753v23.758Z"/><polygon class="cls-27" points="152.668 267.543 160.978 262.7 160.978 272.511 152.668 277.354 152.668 267.543"/><polygon class="cls-27" points="187.612 272.682 164.395 285.911 164.395 267.138 187.612 254.073 187.612 272.682"/><polygon class="cls-27" points="172.949 271.212 152.406 259.602 174.68 246.796 195.105 258.314 172.949 271.212"/><polygon class="cls-19" points="172.949 270.53 152.406 258.92 174.68 246.114 195.105 257.631 172.949 270.53"/><polygon class="cls-19" points="195.105 258.314 195.105 257.631 172.949 270.53 172.949 271.212 195.105 258.314"/><polygon class="cls-44" points="160.23 285.636 130.899 268.532 130.899 255.231 160.23 270.571 160.23 285.636"/><polygon class="cls-27" points="160.23 270.571 165.41 267.693 165.41 282.758 160.23 285.636 160.23 270.571"/><polygon class="cls-19" points="160.23 270.571 165.41 267.693 136.079 255.844 130.899 258.721 160.23 270.571"/><path class="cls-27" d="M136.684,248.822v14.873l28.613,11.042c.372.212.835-.057.835-.485v-8.886l-13.726-7.81-5.262-9.455-6.367-3.905-4.093,4.626Z"/><polygon class="cls-44" points="128.374 253.123 128.374 263.082 157.822 280.019 157.822 270.208 144.096 262.362 138.834 252.907 132.467 249.002 128.374 253.123"/><polygon class="cls-19" points="152.406 257.555 144.096 262.362 157.822 270.208 166.132 265.366 152.406 257.555"/><polygon class="cls-27" points="138.834 252.907 147.144 248.101 152.406 257.555 144.096 262.362 138.834 252.907"/><polygon class="cls-19" points="132.467 249.002 140.777 244.196 147.144 248.101 138.834 252.907 132.467 249.002"/><path class="cls-27" d="M175.479,244.326l-5.167-9.165v-1.092s.044-.603-.221-.773c-.335-.214-.688.021-.688.021l-22.258,12.46s-.657.35-.788.575c-.157.268-.121,1.178-.121,1.178v1.119l.012-.007,5.377,9.367,13.703,7.827.805-.469-13.725-7.81-5.262-9.455v-1.08l22.258-12.443v1.102l5.088,8.981,13.726,8.005.904-.385-13.642-7.955Z"/><polygon class="cls-27" points="157.822 280.019 157.822 270.208 163.09 267.138 163.09 277.263 157.822 280.019"/><path class="cls-42" d="M171.055,227.872v.157h.005c0,.306.559.553,1.248.553s1.248-.248,1.248-.553v-.157h-2.501Z"/><ellipse class="cls-19" cx="172.309" cy="227.872" rx="1.248" ry=".553"/><path class="cls-28" d="M171.058,225.029v2.842c0,.306.559.553,1.248.553s1.248-.248,1.248-.553v-2.842h-2.496Z"/><ellipse class="cls-19" cx="172.306" cy="225.029" rx="1.248" ry=".553"/><path class="cls-31" d="M171.053,223.814v1.214h.005c0,.306.559.553,1.248.553s1.248-.248,1.248-.553v-1.214h-2.501Z"/><ellipse class="cls-37" cx="172.306" cy="223.815" rx="1.248" ry=".553"/><polygon class="cls-19" points="130.222 251.226 99.176 267.842 126.343 283.753 158.01 266.661 130.222 251.226"/><polygon class="cls-27" points="99.176 267.842 99.176 295.931 126.343 311.921 126.343 283.753 99.176 267.842"/><polygon class="cls-40" points="158.01 266.661 126.343 283.753 126.343 311.921 158.01 293.464 158.01 266.661"/><polygon class="cls-19" points="99.317 271.361 68.136 288.755 91.297 301.894 122.66 284.759 99.317 271.361"/><polygon class="cls-27" points="68.136 288.755 68.136 318.382 91.297 332.366 91.297 301.894 68.136 288.755"/><polygon class="cls-40" points="131.197 363.704 131.197 347.897 123.616 343.445 121.667 344.505 121.667 358.617 108.202 350.593 106.253 351.653 108.202 353.383 108.202 374.866 146.116 396.602 146.116 398.806 148.065 397.746 148.065 373.842 131.197 363.704"/><polygon class="cls-27" points="129.248 364.764 129.248 348.957 121.667 344.505 121.667 360.839 106.253 351.653 106.253 375.927 146.115 398.806 146.115 374.903 129.248 364.764"/><polygon class="cls-45" points="91.745 347.924 81.98 342.539 81.98 357.641 68.583 350.126 68.583 304.055 82.089 311.516 82.089 326.818 91.745 332.694 91.745 347.924"/><polyline class="cls-27" points="84.779 336.575 84.779 352.041 75.038 346.639 75.038 361.506 61.641 353.991 61.641 307.92 75.146 315.38 75.146 330.683 84.796 336.575"/><polygon class="cls-19" points="91.745 332.694 84.779 336.541 75.056 330.649 82.089 326.818 91.745 332.694"/><polygon class="cls-40" points="91.745 347.943 84.779 352.014 84.779 336.541 91.745 332.694 91.745 347.943"/><polygon class="cls-40" points="101.088 333.881 85.787 335.949 85.787 348.642 100.08 346.193 100.08 347.099 101.088 346.515 101.088 344.277 101.088 343.302 104.001 344.433 104.001 345.408 105.009 344.824 105.009 336.111 101.088 333.881"/><polygon class="cls-27" points="84.779 349.226 100.08 347.099 100.08 343.886 104.001 345.408 104.001 336.695 100.08 334.465 84.779 336.532 84.779 349.226"/><polygon class="cls-40" points="149.143 377.913 122.398 393.369 43.735 347.695 72.301 332.162 149.143 377.913"/><line class="cls-6" x1="51.46" y1="347.338" x2="76.229" y2="333.824"/><line class="cls-6" x1="54.584" y1="348.115" x2="78.687" y2="334.964"/><polygon class="cls-45" points="61.55 364.35 51.785 358.964 51.785 374.067 38.388 366.552 38.388 320.481 51.894 327.942 51.894 343.244 61.55 349.12 61.55 364.35"/><polygon class="cls-19" points="31.429 324.321 68.583 304.055 82.089 311.516 44.934 331.782 31.429 324.321"/><polygon class="cls-40" points="51.785 374.067 44.825 377.907 44.825 363.04 51.785 359.2 51.785 374.067"/><polygon class="cls-40" points="44.934 347.084 82.089 326.818 82.089 311.516 44.934 331.782 44.934 347.084"/><line class="cls-9" x1="136.771" y1="380.669" x2="172.424" y2="369.719"/><polygon class="cls-47" points="86.432 345.046 68.834 355.295 81.61 362.441 99.176 352.256 86.432 345.046"/><path class="cls-48" d="M95.398,342.101c.773.465,10.185,6.698,10.76,5.12.575-1.577.663-6.367.663-6.367l.649-.176s-.28,6.036-.811,7.401c-.665,1.71-9.987-4.53-12.052-5.473l.791-.506Z"/><path class="cls-48" d="M92.103,343.824c.773.465,10.185,6.698,10.76,5.12.575-1.577.663-6.367.663-6.367l.649-.176s-.28,6.036-.811,7.401c-.665,1.71-9.987-4.53-12.052-5.473l.791-.506Z"/><path class="cls-48" d="M88.718,345.754c.773.465,10.185,6.698,10.76,5.12s.663-6.367.663-6.367l.649-.176s-.28,6.036-.811,7.401c-.665,1.71-9.987-4.53-12.052-5.473l.791-.506Z"/><path class="cls-48" d="M84.796,348.017c.773.465,10.185,6.698,10.76,5.12s.663-6.367.663-6.367l.649-.176s-.28,6.036-.811,7.401c-.665,1.71-9.987-4.53-12.052-5.473l.791-.506Z"/><line class="cls-6" x1="78.517" y1="350.529" x2="102.621" y2="337.379"/><polygon class="cls-40" points="76.851 347.052 61.55 349.12 61.55 361.813 75.843 359.364 75.843 360.27 76.851 359.686 76.851 357.448 76.851 356.473 79.764 357.604 79.764 358.579 80.772 357.995 80.772 349.282 76.851 347.052"/><polygon class="cls-27" points="60.542 362.397 75.843 360.27 75.843 357.057 79.764 358.579 79.764 349.866 75.843 347.636 60.542 349.704 60.542 362.397"/><polygon class="cls-40" points="153.146 365.171 148.671 367.784 148.671 376.481 126.184 382.652 121.878 385.265 126.184 384.083 126.184 392.681 152.65 385.756 152.65 422.841 186.954 443.017 186.954 448.163 191.259 445.55 191.259 391.378 153.146 365.171"/><polygon class="cls-27" points="148.345 389.264 121.878 396.189 121.878 386.16 148.671 378.808 148.345 389.264"/><line class="cls-6" x1="86.905" y1="369.356" x2="113.091" y2="354.271"/><polygon class="cls-27" points="99.772 373.367 93.251 369.563 93.251 358.654 99.772 362.458 99.772 373.367"/><polygon class="cls-27" points="98.237 355.913 93.251 358.654 99.772 362.458 104.747 359.91 98.237 355.913"/><polygon class="cls-19" points="121.667 344.505 97.43 358.53 105.011 362.982 129.248 348.957 121.667 344.505"/><polygon class="cls-19" points="105.011 362.982 113.674 362.292 126.184 355.32 129.248 348.957 105.011 362.982"/><polygon class="cls-19" points="97.43 358.53 100.462 354.353 112.512 347.008 121.667 344.505 97.43 358.53"/><polygon class="cls-40" points="113.674 369.719 105.011 370.409 105.011 362.982 113.674 362.292 113.674 369.719"/><polygon class="cls-27" points="126.184 362.747 113.674 369.719 113.674 362.292 126.184 355.32 126.184 362.747"/><polygon class="cls-40" points="129.248 356.384 126.184 362.747 126.184 355.32 129.248 348.957 129.248 356.384"/><path class="cls-6" d="M94.607,358.654s2.384-4.032,1.866,3.804"/><path class="cls-6" d="M93.251,363.784s-1.21,2.003,2.147,2.227"/><path class="cls-27" d="M93.251,366.011l-4.989,3.389,7.218,4.302v-4.298s-2.23-.632-2.23-1.294v-2.099Z"/><polygon class="cls-27" points="91.476 402.1 46.046 371.656 46.046 366.359 91.476 396.682 91.476 402.1"/><polygon class="cls-40" points="105.011 378.789 105.011 362.982 97.43 358.53 95.48 359.59 95.48 373.702 82.016 365.678 80.067 366.739 82.016 368.468 82.016 389.951 119.929 412.193 119.929 414.397 121.878 413.336 121.878 389.433 105.011 378.789"/><polygon class="cls-27" points="103.062 379.849 103.062 364.042 95.48 359.59 95.48 375.924 80.067 366.739 80.067 391.012 119.929 414.397 119.929 390.493 103.062 379.849"/><polygon class="cls-40" points="49.969 364.64 46.046 366.359 91.476 396.85 91.476 402.1 96.096 400.278 96.096 395.28 49.969 364.64"/><polygon class="cls-19" points="61.55 349.129 54.584 352.976 44.934 347.084 51.967 343.253 61.55 349.129"/><polygon class="cls-40" points="61.55 364.377 54.584 368.449 54.584 352.976 61.55 349.129 61.55 364.377"/><polyline class="cls-27" points="54.584 352.976 54.584 368.442 44.825 363.04 44.825 377.907 31.429 370.392 31.429 324.321 44.934 331.782 44.934 347.084 54.584 352.976"/><polygon class="cls-19" points="85.888 273.095 69.661 281.948 84.741 290.464 101.293 281.699 85.888 273.095"/><polygon class="cls-27" points="69.661 281.948 69.661 288.661 84.741 297.387 84.741 290.464 69.661 281.948"/><polygon class="cls-40" points="101.293 281.699 84.741 290.464 84.741 297.387 101.293 288.395 101.293 281.699"/><path class="cls-40" d="M91.297,301.894v30.472l31.363-18.702v-28.905l-31.363,17.134ZM115.891,310.642c0,.508-.268.979-.704,1.24l-14.938,8.908c-.962.574-2.183-.12-2.183-1.24v-12.674c0-1.296.708-2.489,1.845-3.111l13.844-7.563c.962-.526,2.136.171,2.136,1.267v13.174Z"/><polygon class="cls-40" points="219.51 435.319 187.539 453.992 187.539 392.814 219.51 374.141 219.51 435.319"/><polygon class="cls-27" points="144.658 428.555 187.539 453.992 187.539 392.814 144.658 368.11 144.658 428.555"/><polygon class="cls-19" points="176.629 349.437 144.658 368.109 187.539 392.814 219.51 374.141 176.629 349.437"/><polygon class="cls-47" points="315.538 227.353 303.993 233.951 320.155 243.192 331.668 236.656 315.538 227.353"/><polygon class="cls-30" points="331.668 236.656 320.155 243.192 320.155 262.334 331.668 255.798 331.668 236.656"/><polygon class="cls-26" points="303.993 233.951 303.993 253.092 320.155 262.334 320.155 243.192 303.993 233.951"/><g class="cls-39"><polygon class="cls-48" points="281.288 343.185 367.007 391.308 366.967 389.445 281.248 341.321 281.288 343.185"/><polygon class="cls-48" points="281.361 346.572 367.08 394.695 367.04 392.832 281.321 344.708 281.361 346.572"/><polygon class="cls-48" points="281.434 349.959 367.153 398.082 367.113 396.219 281.394 348.095 281.434 349.959"/><polygon class="cls-48" points="281.507 353.326 367.226 401.45 367.186 399.606 281.467 351.482 281.507 353.326"/></g><polygon class="cls-47" points="347.332 229.401 335.787 235.999 351.948 245.241 363.462 238.705 347.332 229.401"/><polygon class="cls-30" points="363.462 238.705 351.948 245.241 351.948 264.383 363.462 257.846 363.462 238.705"/><polygon class="cls-26" points="335.787 235.999 335.787 255.141 351.948 264.383 351.948 245.241 335.787 235.999"/><polygon class="cls-47" points="333.494 237.374 321.949 243.972 338.11 253.214 349.624 246.678 333.494 237.374"/><polygon class="cls-30" points="349.624 246.678 338.11 253.214 338.11 272.356 349.624 265.819 349.624 246.678"/><polygon class="cls-26" points="321.949 243.972 321.949 263.114 338.11 272.356 338.11 253.214 321.949 243.972"/><path class="cls-38" d="M438.183,349.149l-8.813,5.355c-.646.068-1.261.141-1.337.178-.093.046-.049.313.152.586l-3.184,2.055-11.283-6.575,13.457-8.151,11.008,6.551Z"/><path class="cls-19" d="M424.037,260.278c-.095-.021-1.153,1.389-.611,1.77.212.149-.985,1.938-2.785,1.816-1.799-.122-2.318-.858-2.734-.608-.416.25-1.52.414-.063-.989,1.457-1.403,2.31-2.35,3.495-2.734,1.185-.384,2.151-1.238,2.151-1.238l.546,1.982Z"/><path class="cls-46" d="M430.431,340.354s-.821-.452-.832-.623c0,0-1.684.158-1.476-2.367.208-2.525,2.152-4.014,3.437-4.029,0,0,1.189-2.474,4.711-1.796,3.521.679,4.846,3.756,4.829,4.505s-.29,3.266-1.734,4.223l-8.933.087Z"/><path class="cls-19" d="M142.865,331.511l.125,1.937s.163,2.375,2.574,2.507,2.521.552,2.203,1.007-1.077.553-1.077.553c0,0-.045.418,1.144.484,1.189.065,2.414-.288,2.414-.288,0,0-.754-.304-.858-.932-.104-.628-.165-.691.648-1.036s1.925-1.444,1.925-1.444c0,0,1.566.4,1.659-1.208s-5.749-4.624-5.749-4.624c0,0-5.009,2.421-5.009,2.733v.311Z"/><path class="cls-22" d="M142.865,331.2s.701.25,1.228,0c0,0,1.49.479,2.08.083,0,0,1.553.354,2.08.083,0,0,1.588.77,2.399.291,0,0,.361,1.149,1.2.938,0,0,.674-.718,1.061-.629s1.241-.154,1.393-1.282-.18-1.4-.18-1.4c0,0-.076-2.141-1.213-2.703,0,0-.087-1.573-1.912-1.057,0,0-1.174-2.07-4.827-.798,0,0-2.474.321-3.095,2.346,0,0-1.598,1.651-1.12,2.961s.906,1.166.906,1.166Z"/><path class="cls-22" d="M146.691,337.516s1.688,1.02,3.558.196c0,0,2.23,3.348,3.241,5.365s1.026,1.986.862,2.183-3.942,1.046-3.942,1.046l.65,3.404-3.807,2.89s-1.539-1.7-2.236-1.24c-.697.46.166,1.001.166,1.001,0,0-2.296,1.173-1.725,2.365s2.373,1.261,4.696.093l4.639-1.946.537,3.392.246,6.551-9.48,5.406v3.575s-3.732-2.103-3.732-2.103c0,0,.691-7.918.789-8.357l.836-5.157s-.325-1.809-.222-2.18,2.319-8.296,2.319-8.296c0,0-1.628-.008-1.836-1.006,0,0,2.331-4.74,2.978-5.605s1.463-1.576,1.463-1.576Z"/><path class="cls-19" d="M136.274,349.213s-2.547-.944-2.965-.296.691.483.691.483c0,0-2.146.679-1.947,1.961.199,1.282,2.497,1.43,3.262,1.106s1.48-.829,1.48-.829l6.434-2.868.857-3.066-1.386-.34-.77.873-5.657,2.976Z"/><path class="cls-19" d="M150.41,346.306l2.802-.602s1.444,3.902,1.218,4.893c-.226.991-1.849,2.856-6.009,4.059,0,0-2.329,2.119-4.021.926s-1.172-2.049-.194-2.635l.978-.586s-.686-.591-.166-1.001c.52-.41,2.236,1.24,2.236,1.24l3.807-2.89-.65-3.404Z"/><path class="cls-19" d="M434.408,349.149l2.205,1.374-.872.753-6.348.959s-2.115,1.377-2.669.658c-.553-.72,1.095-.558,1.095-.558,0,0-2.712.4-2.567-.821.145-1.221,2.935-2.022,3.745-1.622l5.053-.722"/><path class="cls-19" d="M439.178,354.656s-1.195-.658-1.637-.92-1.354-.75-1.354-.75c0,0-5.394,2.225-5.777,2.112s-2.122-.977-2.558,0c0,0-1.394.466-1.539,1.221s.479,1.551.936,1.662,2.929-.263,3.274-.627c0,0,5.773-1,6.79-1.437,1.016-.437,1.866-1.261,1.866-1.261Z"/><path class="cls-22" d="M440.269,342.285s-1.766.19-2.183,1.384c-.417,1.194-.708,3.147-.708,3.147l-2.97,2.126,2.384,1.745-.604,2.299,3.978,2.029s.436-2.33.041-3.786c0,0,2.131,6.002,2.283,7.953s.4,2.921,1.169,3.079l.26.138s-1.318,13.3-1.223,14.078,1.614,11.052,1.614,11.052c0,0-.944-.297-1.255,2.012-.311,2.309,5.038,2.597,5.679,2.392.641-.205,1.366-.957,1.556-1.65,0,0,3.436.532,4.115-.275.679-.807.779-2.245.443-3.427l-.374-.194-.574-4.835s-1.152-5.533-1.592-6.408c0,0,1.889-13.243,1.577-16.134-.409-3.793-9.603-14.649-13.617-16.722Z"/><path class="cls-19" d="M431.86,335.442s-2.012.223-2.189,1.411.591,3.334,1.009,3.674,1.206.903,1.082,1.226.416,1.168.973,1.405,2.179.353,3.37-.291c1.19-.645,1.657-.546,1.74-.269s.552.749.552.749l1.872-1.061s-.833-.959-.905-1.624-.863-.228-.987-.582c0,0-1.176-.049-1.181-1.418s-1.149-1.573-1.731-1.159c0,0-1.843-2.415-3.605-2.061Z"/><path class="cls-55" d="M424.037,260.278s-.677-.088-.916-.658-.408-.947-.408-.947c0,0-.755,2.248-1.64,1.845,0,0-.544-.993-1.345.124-.802,1.117,1.022,1.665,1.022,1.665,0,0-1.93-.818-2.906.784l-.352.067s-1.298-.569-1.647-.5c0,0-1.8-1.323-1.731-2.666.069-1.343-.095-1.081-.095-1.081,0,0,3.722.796,4.47.71s2.053-.347,3.81-1.283c1.757-.936,2.028-1.081,2.028-1.081,0,0,.36.912.292,1.487s-.583,1.535-.583,1.535Z"/><path class="cls-22" d="M425.934,270.37l.835,2.302s-4.464,4.885-7.994,3.734c-.695-.226-1.983-2.784-1.983-2.784l-5.143,9.886-9.735-2.392.224-.908s-.099-2.611.781-3.819c.88-1.208,11.106-13.556,12.926-13.732,0,0,1.755.123,2.038.784l-.038.452s.903.629,1.069,1.189.815,2.863.815,2.863l.185-.333,1.717,1.524-1.151,1.683.371,1.526s4.534-1.989,5.083-1.975Z"/><path class="cls-55" d="M414.226,311.763s-4.515,1.154-6.098.021-.693-2.51-.693-2.51c0,0-4.148.592-3.895-3.788s.664-12.477.664-12.477l-1.055-7.972s-1.059-2.917-.828-3.821l9.78,1.798s.539,5.055.64,7.43c.1,2.375-.329,17.329-.329,17.329,0,0,1.816-.319,1.816.184v3.806Z"/><path class="cls-19" d="M419.913,267.612l1.613,1.265s1.1-.213.935-.525-.525-.365-.525-.365c0,0,1.039-1.396-.74-1.236-1.146.103-1.097.528-1.282.86Z"/><path class="cls-19" d="M425.934,270.37s.686-.67,1.017-.511,1.4.012,1.665.414.594,1.367,0,1.887-1.847.513-1.847.513l-.835-2.302Z"/><path class="cls-22" d="M274.809,224.906c-.397-.753-1.001-1.398-1.001-1.398l-.904-5.33-.583-1.888.206-.231s-2.655-5.77-3.475-6.804c-.819-1.035-3.323-1.221-3.323-1.221,0,0,.009-1.147.694-1.332.684-.186,1.976-1.105,2.313-1.767s.69-1.2.69-1.2c0,0,.793-.395.912-1.178.119-.783-.772-.925-.772-.925,0,0-.731-4.036-2.915-3.746,0,0-.66-1.087-2.962-.751-2.302.336-3.164.147-3.164.147,0,0,.032.478.219.707l.187.229s-1.788,1.588-1.586,3.415c.202,1.827.315,1.701.315,1.701,0,0-.467.427-.247.881.219.453.581.753,1.33.977,0,0,.028.008.063.019.049.015.098.029.132.039.127.038.227.068,0,0-.047-.014-.094-.028-.132-.039-.023-.007-.035-.011-.063-.019,0,0,.072,1.601,1.506,1.686,1.434.086,1.753-.01,1.83.594.077.605.041,1.139.041,1.139,0,0-1.302-.365-2.391,1.256-1.089,1.621-.962,3.233-1.993,4.861-1.031,1.628-1.239,2.314-1.239,2.314,0,0,1.038.731,1.325.84l-.997,4.238-2.034,5.978s-2.516,2.949-1.643,3.632c.874.683,2.332-.529,2.663-1.129,0,0,.394.627.831.523.437-.104.062-.645.083-1.414.021-.77,2.83-8.614,2.83-8.614,0,0-.644,4.308-.777,5.402-.134,1.093-.262,2.971-.262,2.971l.066,11.039.725,13.374s-1.196.465-1.18,1.258c.016.793.142,2.542,2.947,2.627,2.806.085,4.155-.19,3.876-2.861,0,0,.947.425,2.975.385,2.028-.04,3.028-.643,2.975-1.932-.053-1.29-.989-1.914-.989-1.914,0,0,1.01-7.764.557-10.902l.546-12.978-.141-1.706s.246,1.098,1.036,1.018c.79-.08,1.294-1.216.897-1.969ZM266.814,252.575l-.409-11.129.951-8.813.576,18.921s-.434.281-1.118,1.021Z"/><path class="cls-55" d="M260.658,205.209c.038.011.084.025.132.039-.034-.01-.083-.025-.132-.039Z"/><path class="cls-55" d="M260.595,205.19c.027.008.039.012.063.019-.035-.01-.063-.019-.063-.019Z"/><path class="cls-55" d="M260.789,205.248c.227.068.127.038,0,0h0Z"/><path class="cls-19" d="M260.314,203.258s-.853-.174-.951.713,1.274,1.277,1.426,1.277c0,0,.069,1.4,1.463,1.628s1.782-.092,1.83.594.063,1.27.424,1.353,1.414-.028,1.608-.555c0,0-.362-.223-.32-.721s.629-.845.629-.845l-.448-.471s-.457.5-.77.174c0,0-1.021.057-1.193-.177,0,0-.672.044-.644-.316,0,0-.155.666-.743,0-.588-.666-1.097-.583-.995-1.096s-1.318-1.559-1.318-1.559Z"/><path class="cls-19" d="M269.643,201.856l-.215,1.88s.973-.731.912-1.178-.698-.701-.698-.701Z"/><path class="cls-19" d="M262.064,218.235s-1.903-.173-2.239-.355l-.782,3.772-2.249,6.444s-2.401,2.77-1.643,3.632,2.544-.681,2.663-1.129c0,0,.295.995.831.523s-.181-1.126.178-1.881,2.857-7.665,2.857-7.665l.383-3.34Z"/><path class="cls-19" d="M271.159,216.765l1.163-.473.583,1.888.892,5.555s1.358.962,1.137,1.942-1.326,1.846-1.691,1.013c-.366-.833-.509-3.401-.509-3.401l-1.575-6.523Z"/><path class="cls-27" d="M404.436,236.535l-13.628,7.47-1.83-.409v2.282l.009.009c.012.479.251.954.735,1.217l28.037,13.53c1.412.769,3.117.769,4.529,0l14.571-7.94-32.424-16.159Z"/><path class="cls-19" d="M417.759,258.498l-28.037-13.53c-.992-.54-.992-1.964,0-2.504l14.714-8.066,32.424,16.159-14.571,7.94c-1.412.769-3.117.769-4.529,0Z"/><path class="cls-55" d="M147.799,332.912c-.032.464.033.846.431.874.403.028.515-.342.547-.806s-.161-.855-.431-.874-.515.342-.547.806Z"/><path class="cls-55" d="M144.436,332.748c-.032.464.033.846.431.874.403.028.515-.342.547-.806s-.161-.855-.431-.874-.515.342-.547.806Z"/><path class="cls-55" d="M432.245,340.729c.241.398.514.673.855.467.346-.209.225-.576-.016-.974s-.624-.607-.855-.467-.225.576.016.974Z"/><path class="cls-55" d="M422.37,261.09c-.026.355.01.647.262.666.255.019.33-.265.356-.621s-.091-.653-.262-.666-.33.265-.356.621Z"/><path class="cls-43" d="M449.035,291.724c.271-.022.54-.079.833-.248.583-.338.931-.942.931-1.616v-12.173c0-1.507-.647-2.93-1.737-3.919v1.692c.411.657.641,1.427.641,2.227v4.485l-.668-.29v1.189l.668.359v6.431c0,.279-.427.536-.668.675v1.189ZM426.129,269.016l1.066.214v-6.004c0-.268.133-.499.366-.634.232-.135.498-.135.725-.005l1.856,1.102v7.2l1.096.617v-7.167l4.006,2.378v7.044l1.096.548v-6.941l.846.502v-1.274s-8.348-4.955-8.348-4.955c-.573-.33-1.272-.356-1.827.004-1.532.996-.882,7.372-.882,7.372ZM449.038,281.797"/><path class="cls-43" d="M449.035,295.993l17.948-10.024c.461-.224.568-1.356-.297-1.933l-.747-.565c-.788-.483-1.71-.416-2.285-.1l-12.855,6.828s-.431,1.423-1.764,1.526v4.269Z"/><path class="cls-43" d="M450.799,288.967l11.585-6.092c.7-.295.7-1.063-.297-1.933l-.747-.565c-.788-.483-1.71-.416-2.285-.1l-8.256,4.783v3.909Z"/><line class="cls-12" x1="170.688" y1="503.262" x2="168.273" y2="504.384"/><line class="cls-12" x1="168.762" y1="513.825" x2="166.346" y2="514.946"/><line class="cls-12" x1="166.469" y1="524.159" x2="164.053" y2="525.281"/><line class="cls-7" x1="147.359" y1="352.486" x2="152.082" y2="349.098"/><path class="cls-7" d="M153.307,345.811c1.264,3.794,1.434,4.137,1.184,5.103-.591,2.28-6.204,3.699-6.204,3.699"/><line class="cls-7" x1="149.471" y1="341.646" x2="151.092" y2="349.231"/><path class="cls-7" d="M145.622,340.243s-2.405,8.533-3.822,13.642c-.251.905.259,2.288.259,2.288,1.049.505,2.05.778,5.002.881,5.711.199,6.104-1.847,6.104-1.847l-.358-2.573"/><path class="cls-7" d="M153.165,355.206c.201.706.464,2.894.442,5.413-.003.378-.007.789-.012,1.225"/><path class="cls-7" d="M140.547,369.065c-.026-3.458.684-7.583.793-8.779.285-3.13.485-4.222.485-4.222"/><path class="cls-7" d="M147.309,364.561s-.062.484-.155,1.206"/><path class="cls-7" d="M147.359,352.486s-1.141-1.233-2.099-1.24c-.662-.004-.572,1.047.338.943s-2.275.278-2.145,2.213c.098,1.45,3.116,1.854,4.833.21"/><path class="cls-7" d="M136.827,351.523s5.854-2.502,5.906-2.526"/><path class="cls-7" d="M142.555,345.439c-.313.477-.732.754-.946.842-2.835,1.166-5.169,2.818-5.169,2.818"/><path class="cls-7" d="M147.564,336.977s-1.708.442-2.76,2.88c-.748,1.735-1.748,3.805-2.522,4.983,0,0,.347.583,1.401.75"/><path class="cls-7" d="M136.441,349.098s-1.991-.715-2.713-.609c-.452.066-.638.688.028.796.904.146-1.711.325-1.669,1.764.042,1.453,3.024,2.118,4.741.475"/><path class="cls-7" d="M141.792,356.879s1.704.944,4.582,1.14c2.856.194,5.011.117,6.988-1.868"/><line class="cls-7" x1="144.923" y1="357.1" x2="144.923" y2="357.984"/><line class="cls-7" x1="146.373" y1="358.019" x2="146.373" y2="357.065"/><path class="cls-7" d="M150.442,346.191s4.284-.721,4.038-1.244c-2.727-5.792-4.151-7.706-4.807-7.705"/><path class="cls-7" d="M146.723,337.401s1.295,1.047,3.468.298"/><path class="cls-7" d="M435.429,338.364c-.025-.393.159-.757.495-.905.448-.196.996.068,1.225.59s.146.936-.091,1.392c-.342.657-.777.592-.919.477"/><path class="cls-7" d="M430.962,340.692s1.092.933.886,1.366c-.206.433,1.723,2.304,3.67,1.081,1.948-1.223,2.598-.54,2.495-.234"/><path class="cls-7" d="M439.496,340.385c-.058.015-.223,1.1.754,1.931"/><path class="cls-7" d="M429.082,337.831c.181,2.081,1.524,2.549,1.524,2.549"/><path class="cls-7" d="M440.997,342.827c1.054.773,11.812,10.181,12.698,15.393h0l-9.676,4.071s-1.526-.151-1.368-2.056c.158-1.905-2.591-9.715-2.591-9.715,0,0,.832,3.521.191,4.525,0,0-1.47-.458-2.142-.957s-1.919-1.114-1.919-1.114c.563-.341,1.485-7.16,1.834-8.814.349-1.654,2.003-1.721,2.003-1.721"/><path class="cls-7" d="M436.19,352.975c-.563.341-4.259,2.154-5.825,2.154"/><path class="cls-7" d="M450.839,364.027c-1.133,3.072-1.662,9.754-2.2,11.471-.141.449-.152.922-.041,1.38.556,2.293,2.139,9.662,1.702,11.492l-5.847-1.094s-1.72-9.571-1.669-11.332c.051-1.761,1.236-13.652,1.236-13.652"/><path class="cls-7" d="M453.694,358.22c1.136,0-1.305,16.984-1.305,16.984.512.899,2.251,8.81,2.245,10.887,0,.223-.132.417-.355.417h-3.44"/><path class="cls-7" d="M445.852,387.62s-2.183-.543-2.584.829c-.401,1.372.032,2.617,2.95,3.289,2.918.672,3.605-.02,3.961-.779.356-.759.12-2.59.12-2.59l-4.447-.749Z"/><path class="cls-7" d="M450.339,390.404c.303.051.64.088,1.014.11,2.99.174,3.551-.624,3.775-1.431s-.315-2.574-.315-2.574l-4.229.006"/><path class="cls-7" d="M434.69,349.18c-1.096.006-5.122.812-5.122.812"/><path class="cls-7" d="M437.283,346.847c-1.293,1.137-2.419,2.008-2.914,2.011,0,0,1.977,1.875,2.543,1.681"/><path class="cls-7" d="M429.568,349.991s-3.17-.645-4.126,1.208c-.611,1.186,1.628,1.041,2.311,1.138s-1.08-.098-.943.585,2.405-.007,2.669-.658c0,0,6.038-.662,6.543-1.047.891-.679.677-.665.677-.665"/><path class="cls-7" d="M430.364,355.129s-1.747-.874-2.265-.164c-.239.328.098.475,1.142.455,0,0-2.487-.692-2.831,1.331-.223,1.315,2.518,1.74,4.245.604,0,0,7.982-.936,8.65-2.641"/><path class="cls-7" d="M432.264,335.328s3.025.998,3.162,2.551"/><path class="cls-7" d="M430.364,339.488s-.796-.795-.68-2.191c.076-.923.666-1.803,1.96-1.711"/><path class="cls-7" d="M438.615,338.693s.499.749,0,1.299"/><line class="cls-7" x1="443.945" y1="363.03" x2="453.694" y2="359.039"/><path class="cls-7" d="M419.712,261.211c-.02.39.133.684.366.836.347.226.814.235.893.098"/><path class="cls-7" d="M423.831,260.643s-.591,1.096-.289,1.381-1.668,2.409-3.546,1.74c-1.903-.678-2.309-.537-2.13-.322"/><path class="cls-7" d="M424.455,259.592c-.164.585-.434.687-.434.687"/><path class="cls-7" d="M414.234,259.067c-.421,2.462,1.705,3.673,1.705,3.673"/><path class="cls-7" d="M415.939,262.74s-.247-.626-2.483,1.59c-2.236,2.215-9.023,9.754-10.259,11.567s-1.076,4.312-1.076,4.312l9.841,2.588,4.814-9.174"/><path class="cls-7" d="M422.726,275.851c2.937-1.561,4.027-3.033,4.027-3.033l-.835-2.447s-5.224,1.676-5.723,2.447"/><path class="cls-7" d="M416.219,268.771s.03,6.285,2.358,7.555c.968.529,2.588.149,4.149-.475"/><polyline class="cls-7" points="419.712 267.733 421.752 269.168 420.463 270.821"/><path class="cls-7" d="M419.897,267.613c.17-.497,1.443-1.094,2.144-.767.805.375-.063,1.274-.063,1.274,0,0,.427-.031.56.26.188.412-1.137.542-1.137.542"/><path class="cls-7" d="M425.918,270.371c.601-.818,1.038-.596,1.113-.394s1.001-.31,1.57.297,1.113,2.61-1.847,2.544"/><path class="cls-7" d="M403.131,285.385s.827,7.164,1.055,7.626l-.624,12.278,3.567.199"/><path class="cls-7" d="M407.585,308.576s-.954,2.886.914,3.364c1.868.478,4.98.336,5.71-.176"/><path class="cls-7" d="M412.401,307.591s1.391.027,1.809.368"/><path class="cls-7" d="M403.563,305.289s-1.078,4.2,3.856,3.914"/><path class="cls-7" d="M431.644,333.366s1.287-2.081,4.368-1.834c3.081.247,4.624,2.713,5.142,4.438.519,1.724-.828,3.691-.828,3.691"/><path class="cls-7" d="M151.885,332.48c.116-.377.417-.652.783-.67.488-.025.908.417.936.986s-.195.927-.578,1.269c-.552.493-.937.278-1.029.12"/><path class="cls-7" d="M142.898,331.809c.068.72.324,1.212.125,1.524s.114,2.693,3.92,2.598c1.385-.035.803,1.046.803,1.046"/><path class="cls-7" d="M149.674,337.241s-.953-1.443.161-1.568c1.113-.125,2.051-1.235,2.051-1.235"/><path class="cls-7" d="M151.092,325.491c-1.621-2.393-4.719-.895-4.719-.895,0,0-3.037.166-3.286,2.537,0,0-2.334,3.099-.189,3.952"/><path class="cls-7" d="M151.438,325.303s.843-.166,1.308.832"/><path class="cls-7" d="M152.946,326.62s1.183-.07,1.215,2.634c0,0,.823,1.747-.828,2.687"/><path class="cls-7" d="M143.449,329.546c-.279.686.135,1.373.677,1.539"/><path class="cls-7" d="M147.563,330.315s-.275.686.724.936"/><path class="cls-7" d="M150.282,330.7s-.343.593.308.842"/><path class="cls-7" d="M145.483,330.232s-.275.686.724.936"/><path class="cls-7" d="M431.644,333.366s-1.8,0-2.764,1.962c-.518,1.055-1.166,4.363.803,4.664"/><path class="cls-7" d="M415.686,262.545s1.259.107,2.181.897v.452s.722.42,1.051,1.283c.317.831,1.817,6.619,1.917,7.169"/><line class="cls-7" x1="411.095" y1="267.342" x2="413.813" y2="268.618"/><line class="cls-7" x1="411.632" y1="267.937" x2="410.513" y2="269.589"/><line class="cls-7" x1="412.565" y1="268.101" x2="411.53" y2="269.657"/><path class="cls-7" d="M402.121,280.21l-.224.819,9.735,2.04.33-.27c.799.912.677,9.965.752,12.235s-.362,13.884-.362,13.884l-5.119-.366s-.359-11.954-.352-12.152-1.938-7.782-3.074-9.862c-1.136-2.08-1.693-5.134-1.693-5.134"/><line class="cls-7" x1="424.604" y1="270.973" x2="425.554" y2="273.873"/><line class="cls-7" x1="421.057" y1="269.789" x2="420.312" y2="269.377"/><line class="cls-7" x1="412.723" y1="277.59" x2="414.098" y2="278.172"/><path class="cls-7" d="M417.51,261.814s-.139.538.139.669"/><path class="cls-7" d="M418.788,261.644s-.113.558.109.625"/><path class="cls-7" d="M262.601,214.979s-2.11,12.865-1.983,14.146c0,0,3.657,2.332,12.371-1.622-.353-.143,1.034-3.633-2.76-13.56"/><path class="cls-7" d="M260.886,203.447c-.194-.274-.521-.417-.838-.336-.423.108-.668.575-.548,1.043s.402.698.815.873c.596.253.869-.021.908-.173"/><path class="cls-7" d="M269.653,201.572c.436.008.783.405.775.887s-.229.772-.591,1.039c-.226.167-.416.223-.564.222"/><path class="cls-7" d="M260.864,205.304c-.242.463.858,1.685,2.1,1.558,1.315-.135,1.19.384,1.31,1.468"/><path class="cls-7" d="M260.652,198.555c-1.981,1.775-.956,4.539-.956,4.539"/><path class="cls-7" d="M265.815,207.976s-.16-1.236.691-1.327c2.279-.244,3.921-4.189,2.817-6.642-1.308-2.906-2.586-2.181-2.586-2.181,0,0-.981-1.428-4.185-.483-.578.17-1.941,0-1.941,0"/><path class="cls-7" d="M259.909,217.821l-.86,3.836-2.17,6.38c-1.726,2.164-2.194,3.267-1.643,3.632,1.252.828,2.663-1.129,2.663-1.129,0,0,.434.452.685.452.503,0,.222-.407.187-.907-.048-.677.209-1.328.209-1.328l1.367-4.153"/><path class="cls-7" d="M271.501,216.58c.981-.193,1.112-.579,1.112-.579-.707-1.491-2.704-5.797-3.34-6.655-.636-.858-3.127-1.267-3.127-1.267,0,0-.385,1.151-1.938.471-.416-.182-2.316-.037-3.114,2.926-.595,2.209-2.509,5.578-2.509,5.578,0,0,1.853,1.489,3.377.947"/><path class="cls-7" d="M269.946,251.534l2.212-.15s.763-9.091.399-10.903l.432-12.978"/><path class="cls-7" d="M260.617,229.126s-.096,5.981-.009,9.926l.422,9.46c.092,2.273.215,4.499.365,5.307l5.269-.14s-.279-11.017-.362-12.152.951-8.813.951-8.813c0,0,.096,7.185.249,8.813s.327,10.108.327,10.108l2.116-.101"/><path class="cls-7" d="M262.513,253.828s-2.117-.192-2.291,1.187c-.174,1.379.412,2.51,3.235,2.715,2.823.205,3.362-.564,3.584-1.347.091-.322.062-.802-.003-1.257-.103-.719-.818-1.256-1.658-1.266l-2.867-.032Z"/><path class="cls-7" d="M267.038,254.843c.508.301,1.249.373,2.311.384,3.067.033,3.362-.568,3.583-1.351.091-.322.061-.604-.005-1.058-.059-.403-.409-1.047-.766-1.274"/><path class="cls-7" d="M272.961,225.797s.423,1.471,1.294.893c1.914-1.269-.342-3.138-.342-3.138l-.904-5.255-.721-2.048"/><path class="cls-7" d="M260.604,230.084s2.01,1.206,6.495.25c4.485-.957,5.862-1.995,5.862-1.995"/><path class="cls-7" d="M267.83,251.635s-1.202.608-1.184,1.326"/><path class="cls-7" d="M260.886,203.447c-.021.062.678.621.828,1.449.079.439,1.01.693,1.093.901"/><path class="cls-7" d="M263.015,204.876s.618.333.59.666.163.645.66.562"/><path class="cls-7" d="M264.741,205.304c.333.32-.042.861.499.986"/><path class="cls-7" d="M265.76,205.304c.333.32-.042.861.499.986"/><path class="cls-7" d="M260.612,197.929s.151.229.612.229"/><line class="cls-7" x1="429.455" y1="354.534" x2="433.965" y2="351.794"/><line class="cls-3" x1="205.652" y1="507.073" x2="234.675" y2="509.703"/><line class="cls-3" x1="205.652" y1="505.689" x2="204.44" y2="489.224"/><ellipse class="cls-18" cx="310.837" cy="427.58" rx="10.171" ry="8.547"/><rect class="cls-21" x="165.352" y="465.193" width="290.185" height="103.599" rx="14.968" ry="14.968"/><polygon class="cls-14" points="310.66 451.319 297.958 473.32 323.362 473.32 310.66 451.319"/><path class="cls-2" d="M440.569,465.193c8.267,0,14.968,6.701,14.968,14.968v73.663c0,8.267-6.701,14.968-14.968,14.968H180.32c-8.267,0-14.968-6.701-14.968-14.968v-75.235c0-7.398,5.997-13.395,13.395-13.395h206.657"/></g></g></svg>