<?xml version="1.0" encoding="UTF-8"?><svg xmlns="http://www.w3.org/2000/svg" width="917.04" height="587.937" xmlns:xlink="http://www.w3.org/1999/xlink" viewBox="0 0 917.04 587.937"><defs><style>.cls-1{fill:#5dbd83;}.cls-1,.cls-2,.cls-3,.cls-4,.cls-5,.cls-6,.cls-7,.cls-8,.cls-9,.cls-10,.cls-11,.cls-12,.cls-13,.cls-14,.cls-15{stroke-linecap:round;stroke-linejoin:round;}.cls-1,.cls-2,.cls-10,.cls-12,.cls-13,.cls-16{stroke:#fff;}.cls-1,.cls-2,.cls-10,.cls-13{stroke-width:.355px;}.cls-2,.cls-4,.cls-17,.cls-8,.cls-18,.cls-19{fill:#fff;}.cls-3{stroke:#f7cd46;stroke-width:5.849px;}.cls-3,.cls-20,.cls-21,.cls-5,.cls-7,.cls-22,.cls-11,.cls-23,.cls-12,.cls-16,.cls-14,.cls-15{fill:none;}.cls-24{letter-spacing:.27em;}.cls-4{stroke:#244ef4;stroke-width:.338px;}.cls-20{stroke-width:1.731px;}.cls-20,.cls-21,.cls-23,.cls-25,.cls-16{stroke-miterlimit:10;}.cls-20,.cls-25{stroke:#030000;}.cls-21{stroke:#1e57a0;stroke-width:2px;}.cls-26{letter-spacing:-.48em;}.cls-27{fill:#7e795a;}.cls-28{fill:#c4e0f5;}.cls-29{fill:#f7cd46;}.cls-30{fill:#c2c2c2;}.cls-31{fill:#ec70d3;}.cls-5,.cls-23{stroke:#296fc2;stroke-width:.146px;}.cls-32{letter-spacing:.27em;}.cls-33{fill:#c9c9c9;}.cls-34{fill:#aee5fb;}.cls-35{fill:#ea4798;}.cls-36{fill:#296fc2;}.cls-6{stroke:#194c89;stroke-width:.414px;}.cls-37{fill:#e1e1e1;}.cls-7{stroke-width:.975px;}.cls-7,.cls-14{stroke:#c5c5c5;}.cls-8{stroke:#aaa;stroke-width:.558px;}.cls-38{fill:#8d8d8d;}.cls-39{fill:#d5e6ec;}.cls-40,.cls-18{font-size:16px;}.cls-40,.cls-25,.cls-41,.cls-42{fill:#030000;}.cls-40,.cls-42{font-family:PA1GothicStdN-Light, 'PA1GothicStdN Light-90ms-RKSJ-H';font-weight:300;}.cls-43{fill:url(#_名称未設定グラデーション_7-2);}.cls-44{fill:#bbb;}.cls-45{fill:url(#_名称未設定グラデーション_7-4);}.cls-46{fill:#fdf8d9;}.cls-47{isolation:isolate;}.cls-18{font-family:PA1GothicStdN-Medium, 'PA1GothicStdN Medium-90ms-RKSJ-H';font-weight:500;letter-spacing:.05em;}.cls-48{fill:#c8c8c8;}.cls-9{fill:#a6a6a6;stroke:#a6a6a6;stroke-width:.716px;}.cls-49{fill:silver;}.cls-50{letter-spacing:.02em;}.cls-10{fill:#c45c52;}.cls-11{stroke:#c2c2c2;stroke-width:.762px;}.cls-51{fill:#c5c5c5;}.cls-52{fill:#5accf9;}.cls-12{stroke-width:.855px;}.cls-53{fill:#d2e5e6;}.cls-25{stroke-width:1.154px;}.cls-54{fill:#cce6f7;}.cls-55{fill:url(#_名称未設定グラデーション_7);}.cls-19{opacity:.6;}.cls-56{fill:#1e57a0;}.cls-13{fill:#64b3f8;}.cls-57{fill:#a3daf6;}.cls-58{fill:url(#_名称未設定グラデーション_7-3);}.cls-59{fill:#dff4fd;}.cls-60{fill:#d2d2d2;}.cls-16{stroke-width:.778px;}.cls-61{clip-path:url(#clippath);}.cls-14{stroke-width:1.95px;}.cls-15{stroke:#7c7c7c;stroke-width:1.31px;}.cls-62{fill:#fffc54;}.cls-41{font-family:PA1GothicStdN-Bold, 'PA1GothicStdN Bold-90ms-RKSJ-H';font-size:22px;font-weight:700;letter-spacing:.1em;}.cls-42{font-size:23px;letter-spacing:.2em;}.cls-63{mix-blend-mode:multiply;opacity:.5;}</style><clipPath id="clippath"><rect class="cls-22" x="1.649" y="2.027" width="917.788" height="592.602"/></clipPath><linearGradient id="_名称未設定グラデーション_7" x1="179.533" y1="122.112" x2="200.834" y2="122.112" gradientUnits="userSpaceOnUse"><stop offset=".008" stop-color="#a6a6a6"/><stop offset=".983" stop-color="#d9d9d9"/></linearGradient><linearGradient id="_名称未設定グラデーション_7-2" x1="238.561" y1="83.321" x2="256.589" y2="83.321" xlink:href="#_名称未設定グラデーション_7"/><linearGradient id="_名称未設定グラデーション_7-3" x1="247.604" y1="52.245" x2="251.196" y2="52.245" xlink:href="#_名称未設定グラデーション_7"/><linearGradient id="_名称未設定グラデーション_7-4" x1="184.005" y1="90.039" x2="187.597" y2="90.039" xlink:href="#_名称未設定グラデーション_7"/></defs><g class="cls-47"><g id="_レイヤー_1"><g class="cls-61"><g class="cls-63"><path class="cls-27" d="M996.488,264.915l-102.875-58.265.298-17.889-28.154-16.867-10.563,4.57v-9.394l-28.154-16.79-9.62,5.628v-10.201l-28.154-16.79-9.083,5.282v-9.46l-28.154-16.79-16.128,9.379-12.045-6.822c.003-9.309.02-49.735.091-51.503.081-1.999-.546-2.659-1.177-3.314s-73.667-36.811-74.839-37.396c-1.172-.585-3.45-1.85-4.337-1.492-.888.358-27.102,15.707-27.102,15.707v-.621l-6.686-4.263v-4.883l1.128-.839.224-6.339-1.352-1.389s-.104-4.235,0-5.689c.104-1.454-.987-1.985-1.079-2.026s-28.111-16.074-28.111-16.074l-1.241.594v1.121l-28.734-15.405s-.32.102-.919.484c-.6.382-.967.92-.967.92v4.647l-25.507,14.143-81.968-46.425c-13.051-7.392-29.056-7.25-41.974.371l-43.483,25.653-1.537-.497-23.486,13.822-.808-.534-8.457,4.749v1.004l-18.245,10.608v1.838l-2.29,1.351-163.626,96.53c-13.893,8.196-13.715,28.354.321,36.304l348.294,197.123-.13,22.141c-.015,2.514,1.838,4.648,4.33,4.986l57.47,7.802,145.243,82.402c13.051,7.392,29.056,7.25,41.974-.371l261.932-154.525c13.893-8.196,13.715-28.354-.321-36.304Z"/></g><path class="cls-46" d="M996.488,252.243l-102.875-58.265.298-17.889-28.154-16.867-10.563,4.57v-9.394l-28.154-16.79-9.62,5.628v-10.201l-28.154-16.79-9.083,5.282v-9.46l-28.154-16.79-16.128,9.379-12.045-6.822c.003-9.309.02-49.735.091-51.503.081-1.999-.546-2.659-1.177-3.314s-73.667-36.811-74.839-37.396c-1.172-.585-3.45-1.85-4.337-1.492-.888.358-27.102,15.707-27.102,15.707v-.621l-6.686-4.263v-4.883l1.128-.839.224-6.339-1.352-1.389s-.104-4.235,0-5.689c.104-1.454-.987-1.985-1.079-2.026s-28.111-16.074-28.111-16.074l-1.241.594v1.121l-28.734-15.405s-.32.102-.919.484c-.6.382-.967.92-.967.92v4.647l-25.507,14.143-81.968-46.425c-13.051-7.392-29.056-7.25-41.974.371l-43.483,25.653-1.537-.497-23.486,13.822-.808-.534-8.457,4.749v1.004l-18.245,10.608v1.838l-2.29,1.351-163.626,96.53c-13.893,8.196-13.715,28.354.321,36.304l348.294,197.123-.13,22.141c-.015,2.514,1.838,4.648,4.33,4.986l57.47,7.802,145.243,82.402c13.051,7.392,29.056,7.25,41.974-.371l261.932-154.525c13.893-8.196,13.715-28.354-.321-36.304Z"/><path class="cls-3" d="M322.298,232.024l9.24-4.766c12.156-6.27,26.63-6.102,38.637.449l147.277,80.349c9.705,5.295,10.031,19.113.875,25.2l-30.881,18.407"/><polygon class="cls-14" points="368.813 133.015 381.546 124.094 382.909 124.693 382.909 127.959 372.176 134.869 368.813 133.015"/><polyline class="cls-14" points="382.909 124.693 382.909 108.52 380.109 106.687 368.736 113.932 368.736 132.927"/><path class="cls-37" d="M373.783,132.255h-.604l-4.315-3.225c-.184-.138-.432-.153-.632-.04l-12.765,7.25c-.363.206-.395.717-.061.966l4.687,3.503c.184.138.432.153.632.04l12.765-7.25c.191-.109.284-.301.286-.497l.006-.003v-.745Z"/><path class="cls-17" d="M373.49,133.151l-12.765,7.25c-.2.114-.448.098-.632-.04l-4.687-3.503c-.334-.25-.302-.76.061-.966l12.765-7.25c.2-.114.448-.098.632.04l4.687,3.503c.334.25.302.76-.061.966Z"/><path class="cls-37" d="M377.056,129.181l-.603.044-4.538-2.903c-.194-.124-.442-.121-.633.006l-12.204,8.159c-.347.232-.342.743.01.968l4.929,3.154c.194.124.442.121.633-.006l12.204-8.159c.183-.122.261-.321.249-.516l.006-.003-.054-.743Z"/><path class="cls-17" d="M376.803,129.748l-12.204,8.159c-.191.128-.44.13-.633.006l-4.929-3.154c-.351-.225-.357-.736-.01-.968l12.204-8.159c.191-.128.44-.13.633-.006l4.929,3.154c.351.225.357.736.01.968Z"/><path class="cls-37" d="M382.837,128.014h-.604l-4.6-3.103c-.184-.138-.367.101-.247.431l-12.544,6.177c-.363.206-.509.831-.175,1.081l5.875,3.554c.184.138-.656.137-.456.024l12.46-6.919c.191-.109.284-.301.286-.497l.006-.003v-.745Z"/><polygon class="cls-15" points="451.798 181.049 439.464 156.666 436.926 154.701 436.926 159.369 446.249 177.482 451.798 181.049"/><line class="cls-14" x1="329.976" y1="191.696" x2="329.976" y2="206.195"/><line class="cls-14" x1="347.66" y1="188.684" x2="347.66" y2="204.655"/><line class="cls-14" x1="276.93" y1="176.726" x2="276.93" y2="192.371"/><polygon class="cls-17" points="246.178 53.372 241.173 53.818 218.459 66.29 220.628 67.315 246.178 53.372"/><polygon class="cls-37" points="212.733 72.92 185.783 87.887 185.783 148.34 212.733 133.98 212.733 72.92"/><polygon class="cls-17" points="212.733 72.92 210.074 72.333 183.613 86.861 185.783 87.887 212.733 72.92"/><polyline class="cls-37" points="183.613 86.861 183.613 146.957 185.783 148.365 185.783 87.887"/><path class="cls-55" d="M200.834,93.249l-21.301-1.871v55.55l.04.002c.036.335.098.682.215,1.05,1.235,3.873,7.802,4.995,10.103,4.855,2.301-.14,4.518-.365,6.37-1.375,1.852-1.01,3.536-1.992,3.536-1.992,0,0,.847-.581,1.006-1.451l.031.002v-54.769Z"/><path class="cls-17" d="M198.871,90.983l-7.914-4.921s-1.515-.842-2.947-.786c-1.431.056-2.385.533-3.003.842-.617.309-2.806,1.515-2.806,1.515,0,0-3.648,2.049-2.413,5.921,1.235,3.873,7.802,4.995,10.103,4.855,2.301-.14,4.518-.365,6.37-1.375,1.852-1.01,3.536-1.992,3.536-1.992,0,0,2.862-1.945-.926-4.059Z"/><polygon class="cls-37" points="239.688 150.904 212.733 132.909 212.733 91.285 239.688 107.594 239.688 150.904"/><polygon class="cls-37" points="193.399 109.175 214.431 121.567 214.431 164.527 193.399 152.35 193.399 109.175"/><polyline class="cls-37" points="218.459 66.29 218.459 126.385 220.628 127.793 220.628 67.315"/><polygon class="cls-17" points="247.578 52.348 220.628 67.315 220.628 127.768 247.578 113.408 247.578 52.348"/><path class="cls-43" d="M256.589,59.081l-18.029-2.394v46.814h.086c.832,1.429,7.994,5.637,8.908,6.14.969.534,2.554.283,3.494,0,1.418-.427,3.044-1.651,3.75-2.592.409-.545,1.086-2.002.922-3.548h.034l.835-44.42Z"/><path class="cls-17" d="M252.315,53.13c-3.125-1.232-7.15-.838-9.534,0-2.222.781-4.767,2.419-4.731,3.557.036,1.138,9.653,5.696,10.649,6.229.996.534,2.627.283,3.593,0,1.459-.427,3.13-1.651,3.856-2.592.797-1.034,1.219-5.202-3.833-7.194Z"/><polygon class="cls-17" points="229.631 89.96 255.412 75.738 276.589 88.366 250.967 102.454 229.631 89.96"/><polygon class="cls-17" points="276.589 131.697 250.967 145.763 250.967 102.454 276.589 88.388 276.589 131.697"/><polygon class="cls-37" points="250.967 145.763 220.628 127.768 220.628 84.459 250.967 102.454 250.967 145.763"/><polygon class="cls-37" points="260.819 126.502 250.967 121.486 250.967 145.763 260.819 151.559 260.819 126.502"/><polygon class="cls-37" points="286.441 112.422 276.589 107.406 276.589 132.325 303.799 147.873 286.441 112.422"/><polygon class="cls-33" points="250.967 121.486 276.589 107.406 286.441 112.422 260.819 126.502 250.967 121.486"/><polygon class="cls-37" points="261.976 123.019 260.829 126.503 279.44 140.703 280.36 136.282 261.976 123.019"/><polygon class="cls-37" points="279.44 162.87 260.819 151.559 260.819 126.502 279.44 140.703 279.44 162.87"/><polygon class="cls-17" points="280.36 136.282 279.44 140.703 279.44 162.87 284.312 160.601 284.312 138.626 284.312 134.946 280.36 136.282"/><polygon class="cls-37" points="294.415 141.517 286.441 137.479 286.441 110.549 294.415 115.819 294.415 141.517"/><polygon class="cls-17" points="286.441 110.549 289.729 108.902 297.988 114.401 294.415 115.819 286.441 110.549"/><polygon class="cls-17" points="298.876 117.131 298.876 117.131 294.415 119.12 294.415 115.819 297.988 114.401 298.876 117.131"/><polygon class="cls-17" points="294.415 115.819 270.487 128.644 261.966 123.018 286.441 110.549 294.415 115.819"/><polygon class="cls-17" points="261.976 123.019 265.264 121.372 284.312 134.946 280.36 136.282 261.976 123.019"/><polygon class="cls-17" points="303.799 147.873 308.26 145.961 308.26 123.487 303.799 125.475 303.799 147.873"/><polygon class="cls-37" points="294.415 141.517 303.799 147.873 303.799 125.475 294.415 119.12 294.415 141.517"/><polygon class="cls-17" points="298.876 117.131 308.26 123.487 303.799 125.475 294.415 119.12 298.876 117.131"/><polygon class="cls-17" points="193.399 109.175 218.94 95.068 239.688 107.594 214.431 121.567 193.399 109.175"/><polygon class="cls-17" points="239.688 150.574 214.431 164.527 214.431 121.567 239.688 107.615 239.688 150.574"/><polygon class="cls-37" points="224.143 145.421 214.431 140.446 214.431 164.527 224.143 170.275 224.143 145.421"/><polygon class="cls-37" points="249.4 131.455 239.688 126.48 239.688 150.561 249.4 156.309 249.4 131.455"/><polygon class="cls-33" points="214.431 140.446 239.688 126.48 249.4 131.455 224.143 145.421 214.431 140.446"/><polygon class="cls-17" points="232.571 151.889 232.571 151.889 236.911 149.45 236.911 145.8 233.478 147.658 232.571 151.889"/><polygon class="cls-37" points="225.284 141.967 224.152 145.422 232.571 151.889 233.478 147.658 225.284 141.967"/><polygon class="cls-37" points="242.499 181.495 224.143 170.275 224.143 145.421 242.499 159.507 242.499 181.495"/><polygon class="cls-33" points="232.571 151.889 236.911 149.45 247.302 157.447 242.499 159.507 232.571 151.889"/><polygon class="cls-17" points="247.302 179.245 242.499 181.495 242.499 159.507 247.302 157.447 247.302 179.245"/><polygon class="cls-17" points="272.131 165.469 255.932 152.855 252.641 127.963 271.385 140.469 272.26 143.177 272.131 165.469"/><polygon class="cls-37" points="267.862 167.366 249.4 156.309 249.4 129.597 267.862 141.876 267.862 167.366"/><polygon class="cls-17" points="249.4 129.597 252.641 127.963 271.385 140.469 267.862 141.876 249.4 129.597"/><polygon class="cls-17" points="272.26 143.177 272.131 165.341 267.862 167.366 267.862 141.876 271.385 140.469 272.26 143.177"/><polygon class="cls-17" points="257.26 134.825 233.468 147.657 225.274 141.966 249.4 129.597 257.26 134.825"/><line class="cls-14" x1="249.852" y1="164.099" x2="249.852" y2="179.744"/><line class="cls-14" x1="262.45" y1="171.325" x2="262.45" y2="186.97"/><line class="cls-14" x1="278.904" y1="178.011" x2="278.904" y2="193.656"/><line class="cls-14" x1="290.48" y1="183.965" x2="290.48" y2="199.61"/><line class="cls-14" x1="309.183" y1="188.211" x2="309.183" y2="203.856"/><path class="cls-37" d="M407.122,144.931l-2.194,1.241c-16.254,9.416-48.068,21.193-86.72,10.345-19.051-5.347-33.896-11.488-33.896-11.488v-3.063s40.009,4.361,46.52,9.592c6.511,5.231,2.289,2.179,19.8-1.074,11.048-2.052,27.818-7.12,44.084-13.3l12.406,7.746Z"/><path class="cls-33" d="M394.889,148.481c-19.597,9.181-41.929,13.513-71.919,6.698-21.598-4.909-38.658-13.213-38.658-13.213l19.181-10.325s9.033,4.565,34.835,9.019c22.816,3.938,30.19,2.21,45.35-3.376l11.211,11.197Z"/><line class="cls-14" x1="390.474" y1="183.702" x2="390.474" y2="198.201"/><line class="cls-14" x1="374.795" y1="201.664" x2="374.795" y2="187.165"/><line class="cls-14" x1="407.122" y1="174.246" x2="407.122" y2="188.745"/><line class="cls-14" x1="413.22" y1="173.351" x2="413.22" y2="185.678"/><path class="cls-37" d="M247.302,161.57v3.421s21.752,13.153,45.318,20.309c78.202,23.747,132.008-17.047,132.008-17.047l-3.563-2.511s-48.746,24.169-91.401,15.862c-42.656-8.307-77.022-21.925-77.022-21.925l-5.339,1.89Z"/><path class="cls-33" d="M424.688,166.795s-59.435,39.044-132.588,16.085c-23.498-7.375-44.798-21.366-44.798-21.366l20.041-10.36s27.333,17.688,60.726,21.572c48.708,5.667,77.432-16.187,77.432-16.187l19.187,10.255Z"/><path class="cls-37" d="M438.143,160.753l-12.339,7.184c-.258.15-.576.15-.834,0l-60.383-35.996c-.542-.317-.547-1.098-.01-1.422l11.665-6.102c.259-.156.582-.159.843-.007l61.057,34.914c.549.319.549,1.111,0,1.43Z"/><polygon class="cls-33" points="447.344 177.217 432.967 185.443 423.903 167.799 438.459 159.65 447.344 177.217"/><path class="cls-17" d="M247.619,55.888c0-.037-.003-.072-.003-.11,0,.017.002.088.003.11Z"/><path class="cls-58" d="M251.196,47.222h-3.592v8.157c0,.137.015.472.015.509.042.766.816,1.38,1.781,1.38s1.738-.614,1.781-1.38c.001-.022.015-.372.015-.509v-8.157Z"/><path class="cls-17" d="M249.4,45.781c-.992,0-1.796.645-1.796,1.441s.804,1.441,1.796,1.441,1.796-.645,1.796-1.441-.804-1.441-1.796-1.441Z"/><path class="cls-17" d="M184.021,93.682c0-.037-.003-.072-.003-.11,0,.017.002.088.003.11Z"/><path class="cls-45" d="M187.597,85.016h-3.592v8.157c0,.137.015.472.015.509.042.766.816,1.38,1.781,1.38s1.738-.614,1.781-1.38c.001-.022.015-.372.015-.509v-8.157Z"/><path class="cls-17" d="M185.801,83.575c-.992,0-1.796.645-1.796,1.441s.804,1.441,1.796,1.441,1.796-.645,1.796-1.441-.804-1.441-1.796-1.441Z"/><polygon class="cls-14" points="439.464 139.897 436.926 138.482 436.926 154.701 439.464 156.666 452.305 181.049 452.305 161.683 439.464 139.897"/><polygon class="cls-37" points="616.382 260.951 616.382 267.948 605.639 261.936 605.639 255.43 616.382 260.951"/><polygon class="cls-49" points="624.613 269.295 595.871 254.15 595.871 211.84 624.613 226.985 624.613 269.295"/><polygon class="cls-17" points="611.361 256.797 643.989 237.194 595.871 211.84 563.476 231.303 611.361 256.797"/><polygon class="cls-37" points="611.361 263.131 563.476 237.638 563.476 231.303 611.361 256.797 611.361 263.131"/><polygon class="cls-17" points="643.989 243.53 611.361 263.131 611.361 256.797 643.989 237.195 643.989 243.53"/><polygon class="cls-17" points="611.361 300.742 643.989 281.139 595.871 255.786 563.476 275.249 611.361 300.742"/><polygon class="cls-37" points="611.361 321.379 563.476 295.886 563.476 275.249 611.361 300.742 611.361 321.379"/><polygon class="cls-17" points="643.989 301.777 611.361 321.379 611.361 300.742 643.989 281.141 643.989 301.777"/><polygon class="cls-17" points="612.368 303.665 647.118 282.788 595.871 255.786 561.369 276.514 612.368 303.665"/><polygon class="cls-51" points="612.368 305.637 561.369 278.486 561.369 276.514 612.368 303.665 612.368 305.637"/><polygon class="cls-37" points="647.118 284.761 612.368 305.637 612.368 303.665 647.118 282.789 647.118 284.761"/><polygon class="cls-49" points="564.934 277.114 570.158 274.158 606.377 293.426 601.089 296.481 564.934 277.114"/><polygon class="cls-49" points="611.139 291.912 602.387 297.097 612.301 302.241 621.222 296.949 611.139 291.912"/><polygon class="cls-49" points="574.459 268.866 592.326 258.024 630.316 278.756 612.349 289.337 574.459 268.866"/><polygon class="cls-37" points="626.903 285.223 618.985 277.34 618.985 268.265 626.903 276.148 626.903 285.223"/><polygon class="cls-17" points="626.336 284.008 619.552 277.254 619.552 269.48 626.336 276.233 626.336 284.008"/><polygon class="cls-51" points="618.985 268.265 619.997 268.265 628.137 275.983 626.903 276.148 618.985 268.265"/><polygon class="cls-51" points="626.903 285.223 628.137 285.223 628.137 275.983 626.903 276.148 626.903 285.223"/><polygon class="cls-49" points="619.997 268.265 629.872 277.169 628.137 275.983 619.997 268.265"/><polygon class="cls-51" points="628.137 285.223 629.872 277.169 628.137 275.983 628.137 285.223"/><rect class="cls-51" x="629.186" y="277.169" width=".686" height="9.953"/><polygon class="cls-17" points="623.923 294.016 617.499 287.215 619.297 279.094 625.72 285.895 623.923 294.016"/><polygon class="cls-51" points="623.468 292.549 618.307 287.086 619.751 280.561 624.912 286.025 623.468 292.549"/><polygon class="cls-51" points="619.297 279.094 620.342 279.094 626.763 285.821 625.72 285.895 619.297 279.094"/><polygon class="cls-51" points="623.923 294.016 624.914 294.016 626.763 285.821 625.72 285.895 623.923 294.016"/><path class="cls-14" d="M480.73,26.99l12.289-7.17V-9.429c0-.598-.624-.99-1.163-.731l-10.226,6.023c-.55.264-.9.821-.9,1.431v29.697Z"/><line class="cls-14" x1="481.347" y1="12.007" x2="493.019" y2="5.763"/><path class="cls-14" d="M496.487,18.254l12.289-7.17v-29.249c0-.598-.624-.99-1.163-.731l-10.226,6.023c-.55.264-.9.821-.9,1.431v29.697Z"/><line class="cls-14" x1="496.637" y1="3.521" x2="508.776" y2="-2.973"/><polygon class="cls-37" points="491.094 42.517 491.094 101.074 572.983 146.453 572.983 88.313 491.094 42.517"/><polygon class="cls-17" points="548.681 9.03 491.094 42.517 572.983 88.313 630.569 55.052 548.681 9.03"/><polygon class="cls-17" points="572.983 146.453 572.983 88.313 630.569 55.052 630.569 111.005 572.983 146.453"/><polygon class="cls-17" points="555.339 -12.617 466.867 34.826 574.337 97.739 654.996 47.804 555.339 -12.617"/><polygon class="cls-17" points="503.863 78.857 522.982 67.977 572.499 156.292 554.734 166.465 503.863 78.857"/><polygon class="cls-17" points="497.07 52.506 476.579 62.98 504.378 78.857 523.497 67.977 497.07 52.506"/><path class="cls-14" d="M556.462,140.21l-52.211-91.137c-.014-.638-.347-1.228-.894-1.561l-11.05-6.361c-.531-.323-1.212.059-1.212.681v29.277l12.262,7.098,53.105,91.507v-29.504Z"/><line class="cls-14" x1="504.251" y1="49.073" x2="504.251" y2="79.748"/><line class="cls-14" x1="556.462" y1="155.185" x2="504.251" y2="64.898"/><line class="cls-14" x1="516.81" y1="71.22" x2="516.81" y2="101.586"/><line class="cls-14" x1="529.27" y1="93.419" x2="529.27" y2="122.758"/><line class="cls-14" x1="542.516" y1="115.829" x2="542.516" y2="145.001"/><path class="cls-37" d="M616.378,19.459c0-.137-.075-.264-.195-.33l-6.297-3.473c-.12-.066-.195-.193-.195-.33V-4.478c0-.535-.289-1.028-.756-1.289l-9.579-5.357c-.137-.077-.287-.052-.399.028l-.003-.005-.885.692.727,1v46.818c0,.137.074.263.194.33l15.79,8.759-.264.145.802,1.098.858-.668c.022-.011.037-.028.056-.044l.003-.002h0c.083-.068.144-.163.144-.284v-27.285Z"/><path class="cls-30" d="M597.881-10.083v48.205c0,.137.074.263.194.33l16.829,9.335c.251.139.56-.042.56-.33v-27.285c0-.137-.075-.264-.195-.33l-6.297-3.473c-.12-.066-.195-.193-.195-.33V-3.766c0-.535-.289-1.028-.756-1.289l-9.579-5.357c-.251-.141-.561.041-.561.329Z"/><polygon class="cls-11" points="608.777 1.845 610.621 3.224 610.621 9.103 608.777 10.423 608.777 1.845"/><polygon class="cls-17" points="608.12 15.958 607.053 15.406 607.053 13.113 608.12 13.665 608.12 15.958"/><polygon class="cls-17" points="599.553 12.598 598.485 12.046 598.485 9.753 599.553 10.305 599.553 12.598"/><ellipse class="cls-17" cx="614.331" cy="20.936" rx=".565" ry=".859" transform="translate(.51 53.561) rotate(-4.994)"/><polygon class="cls-60" points="560.388 16.602 560.457 -15.181 519.355 7.362 519.15 40.809 560.388 16.602"/><path class="cls-17" d="M606.568,14.184c-.069-.782-.621-1.373-1.235-1.32-.131.011-.249.064-.361.127l-.005-.013-41.761,24.433.877,2.655,41.864-24.484-.005-.013c.413-.233.68-.771.626-1.386Z"/><ellipse class="cls-30" cx="563.638" cy="38.741" rx="1.115" ry="1.422" transform="translate(-1.222 49.774) rotate(-5.051)"/><path class="cls-17" d="M614.307,24.62c-.068-.819-.616-1.438-1.225-1.382-.13.012-.247.067-.358.133l-.005-.014-41.423,25.59.87,2.781,41.526-25.644-.005-.014c.409-.244.674-.807.621-1.452Z"/><ellipse class="cls-30" cx="571.724" cy="50.34" rx="1.106" ry="1.489" transform="translate(-2.138 41.1) rotate(-4.109)"/><path class="cls-17" d="M608.064,12.302c-.128-.144-.121-.231-.816.084-.131.06-40.889,24.283-40.889,24.283l1.082.205,40.334-24.004h-.006c.398-.236.395-.454.294-.567Z"/><path class="cls-17" d="M568.005,36.261c.128.144-.267.491-.881.775s-1.215.397-1.343.252.267-.491.881-.775c.614-.284,1.215-.397,1.343-.252Z"/><path class="cls-17" d="M599.907,1.186c-.08-.75-.636-1.307-1.24-1.244-.129.014-.245.066-.354.129l-.005-.012-40.824,24.266.908,2.534,40.925-24.317-.005-.012c.404-.232.658-.753.595-1.343Z"/><ellipse class="cls-30" cx="557.932" cy="25.594" rx="1.101" ry="1.366" transform="translate(.633 62.489) rotate(-6.414)"/><polygon class="cls-37" points="567.851 22.904 608.771 -1.856 608.777 -3.397 567.846 21.235 567.851 22.904"/><polygon class="cls-17" points="607.79 -3.99 608.777 -3.397 567.53 21.377 566.275 20.691 607.79 -3.99"/><path class="cls-17" d="M602.816-4.801c-.067-.775-.604-1.36-1.2-1.307-.127.011-.242.063-.351.126l-.005-.013-40.587,24.208.852,2.631,40.687-24.259-.005-.013c.401-.231.661-.764.608-1.373Z"/><ellipse class="cls-30" cx="561.093" cy="19.53" rx="1.084" ry="1.409" transform="translate(.274 45.784) rotate(-4.674)"/><polygon class="cls-60" points="615.25 27.796 615.25 35.009 573.769 61.373 573.769 53.872 615.25 27.796"/><path class="cls-37" d="M580.182-19.811l-29.235-15.789c-.215-.116-.449-.096-.638.005l-.003-.004-.019.011s-.009.005-.014.008l-1.207.697.882.966V11.347c0,.242.129.466.339.587l12.045,6.937-.536.413,1.076,1.008,1.304-.745s.006-.004.009-.005l.005-.003v-.002c.192-.116.329-.322.329-.578V-13.113c0-.512.546-.839.998-.597l12.509,6.706-.108.094,1.109,1.375,1.139-.655-.002-.006c.213-.11.372-.321.372-.594v-12.425c0-.249-.137-.478-.356-.596Z"/><path class="cls-30" d="M579.298-18.498V-6.073c0,.512-.546.839-.998.597l-14.022-7.517c-.451-.242-.998.085-.998.597V19.676c0,.521-.564.847-1.016.587l-13.217-7.612c-.21-.121-.339-.345-.339-.587v-46.351c0-.513.548-.84,1-.596l29.235,15.789c.219.118.356.347.356.596Z"/><path class="cls-17" d="M579.288-13.904c-.092-.95-.837-1.668-1.664-1.603-.176.014-.335.078-.486.155l-.007-.016-41.825,23.203,1.181,3.226,41.964-23.266-.007-.016c.556-.283.916-.936.843-1.684Z"/><ellipse class="cls-30" cx="535.889" cy="9.451" rx="1.5" ry="1.73" transform="translate(4.814 81.743) rotate(-8.762)"/><path class="cls-17" d="M575.45-19.251c-.094-.965-.856-1.694-1.701-1.628-.18.014-.343.079-.497.157l-.007-.016-42.772,23.566,1.208,3.276,42.914-23.629-.007-.016c.569-.288.936-.951.862-1.71Z"/><ellipse class="cls-30" cx="531.068" cy="4.468" rx="1.534" ry="1.757" transform="translate(6.119 84.98) rotate(-9.202)"/><path class="cls-37" d="M538.128,4.585l-29.235-15.789c-.215-.116-.449-.096-.638.005l-.003-.004-.019.011s-.009.005-.014.008l-1.207.697.882.966v45.265c0,.242.129.466.339.587l12.045,6.937-.536.413,1.076,1.008,1.304-.745s.006-.004.009-.005l.005-.003v-.002c.192-.116.329-.322.329-.578V11.283c0-.512.546-.839.998-.597l12.509,6.706-.108.094,1.109,1.375,1.139-.655-.002-.006c.213-.11.372-.321.372-.594V5.181c0-.249-.137-.478-.356-.596Z"/><path class="cls-30" d="M537.244,5.898v12.425c0,.512-.546.839-.998.597l-14.022-7.517c-.451-.242-.998.085-.998.597v32.072c0,.521-.564.847-1.016.587l-13.217-7.612c-.21-.121-.339-.345-.339-.587V-9.891c0-.513.548-.84,1-.596l29.235,15.789c.219.118.356.347.356.596Z"/><polygon class="cls-37" points="557.499 13.469 556.596 14.188 537.244 3.074 538.484 2.481 557.499 13.469"/><polygon class="cls-37" points="537.244 5.985 537.244 3.074 538.484 2.481 538.484 5.268 537.244 5.985"/><polygon class="cls-37" points="612.78 23.234 574.076 47.177 573.161 46.45 612.068 22.904 612.78 23.234"/><path class="cls-37" d="M574.533,44.059c0-.137-.075-.264-.195-.33l-6.297-3.473c-.12-.066-.195-.193-.195-.33v-19.804c0-.535-.289-1.028-.756-1.289l-9.579-5.357c-.137-.077-.287-.052-.399.028l-.003-.005-.885.692.727,1v46.818c0,.137.074.263.194.33l15.79,8.759-.264.145.802,1.098.858-.668c.022-.011.037-.028.056-.044l.003-.002h0c.083-.068.144-.163.144-.284v-27.285Z"/><path class="cls-30" d="M556.035,14.517v48.205c0,.137.074.263.194.33l16.829,9.335c.251.139.56-.042.56-.33v-27.285c0-.137-.075-.264-.195-.33l-6.297-3.473c-.12-.066-.195-.193-.195-.33v-19.804c0-.535-.289-1.028-.756-1.289l-9.579-5.357c-.251-.141-.561.041-.561.329Z"/><polygon class="cls-11" points="566.931 26.445 568.776 27.824 568.776 33.702 566.931 35.023 566.931 26.445"/><ellipse class="cls-17" cx="557.932" cy="16.97" rx=".511" ry=".777" transform="translate(.641 48.636) rotate(-4.994)"/><ellipse class="cls-17" cx="564.827" cy="21.173" rx=".565" ry=".859" transform="translate(.301 49.252) rotate(-4.994)"/><polygon class="cls-17" points="566.275 40.558 565.208 40.006 565.208 37.713 566.275 38.265 566.275 40.558"/><polygon class="cls-17" points="557.707 37.197 556.64 36.646 556.64 34.353 557.707 34.905 557.707 37.197"/><ellipse class="cls-17" cx="572.486" cy="45.536" rx=".565" ry=".859" transform="translate(-1.791 50.011) rotate(-4.994)"/><polygon class="cls-30" points="573.237 72.479 569.128 70.117 569.128 49.584 573.237 51.945 573.237 72.479"/><polygon class="cls-37" points="573.237 72.479 566.931 76.029 566.931 55.457 573.237 51.907 573.237 72.479"/><polygon class="cls-30" points="566.931 76.029 562.822 73.667 562.822 53.134 566.931 55.495 566.931 76.029"/><polygon class="cls-17" points="569.128 49.584 562.822 53.134 566.931 55.495 573.237 51.907 569.128 49.584"/><polygon class="cls-59" points="573.161 13.906 571.296 16.1 593.836 2.717 595.776 .422 573.161 13.906"/><line class="cls-14" x1="491.094" y1="56.479" x2="504.251" y2="65.251"/><path class="cls-14" d="M489.211,70.252l-12.289-7.17v-29.249c0-.598.624-.99,1.163-.731l10.226,6.023c.55.264.9.821.9,1.431v29.697Z"/><line class="cls-14" x1="490.094" y1="56.072" x2="476.922" y2="49.025"/><path class="cls-14" d="M568.151,92.46l-12.289-7.17v-29.249c0-.598.624-.99,1.163-.731l10.226,6.023c.55.264.9.821.9,1.431v29.697Z"/><line class="cls-14" x1="567.854" y1="77.266" x2="555.862" y2="71.233"/><path class="cls-14" d="M552.482,83.867l-12.289-7.17v-29.249c0-.598.624-.99,1.163-.731l10.226,6.023c.55.264.9.821.9,1.431v29.697Z"/><line class="cls-14" x1="552.019" y1="68.967" x2="540.193" y2="62.64"/><path class="cls-14" d="M536.639,75.095l-12.289-7.17v-29.249c0-.598.624-.99,1.163-.731l10.226,6.023c.55.264.9.821.9,1.431v29.697Z"/><line class="cls-14" x1="536.062" y1="60.134" x2="524.35" y2="53.868"/><polygon class="cls-60" points="586.685 93.514 589.941 91.942 589.941 108.722 586.685 109.805 586.685 93.514"/><polygon class="cls-37" points="590.065 37.713 590.065 163.629 668.408 207.825 668.408 77.085 590.065 37.713"/><polygon class="cls-17" points="644.34 4.031 588.588 35.987 668.408 77.085 725.058 44.365 644.34 4.031"/><polygon class="cls-17" points="668.408 207.176 668.408 77.085 725.058 44.365 725.058 174.246 668.408 207.176"/><polygon class="cls-60" points="642.489 194.177 642.489 222.289 577.684 185.39 577.684 155.448 642.489 194.177"/><polygon class="cls-17" points="642.489 194.339 642.489 222.477 660.456 211.217 660.54 184.021 642.489 194.339"/><path class="cls-30" d="M640.25,204.513c-1.433.835-3.209.818-4.626-.044l-71.089-40.52-.338-2.742-.668.451c-.209.121-.343.318-.402.537l-.007-.004-.032.225c0,.005,0,.011,0,.017,0,.003,0,.007,0,.01.006,1.332-.36,3.287.615,4.189l.016.041.006-.02c.139.126.287.24.447.337l69.662,40.969c1.843,1.119,4.15,1.143,6.015.062l28.028-16.242v-3.261l-27.629,15.998Z"/><path class="cls-17" d="M635.299,204.465l-71.697-41.084c-.695-.423-.684-1.435.02-1.842l29.811-17.442c.338-.196.757-.192,1.091.011l71.811,43.472c.695.421.687,1.433-.016,1.842l-26.07,15.09c-1.534.894-3.435.875-4.951-.047Z"/><polygon class="cls-60" points="607.673 178.441 599.533 183.171 627.785 198.986 635.799 194.122 607.673 178.441"/><polygon class="cls-60" points="637.184 195.02 629.044 199.75 637.48 204.116 645.495 199.252 637.184 195.02"/><polygon class="cls-60" points="598.382 166.445 592.672 169.398 596.078 171.473 601.662 168.387 598.382 166.445"/><polygon class="cls-60" points="660.462 159.66 660.54 187.772 590.857 148.259 590.857 123.034 660.462 159.66"/><polygon class="cls-17" points="661.802 188.55 661.802 160.4 633.958 176.682 633.958 177.942 660.462 162.444 660.542 189.332 661.802 188.55"/><polygon class="cls-8" points="644.228 174.191 653.885 179.562 653.853 186.739 644.228 181.289 644.228 174.191"/><polygon class="cls-8" points="655.711 181.303 665.368 186.674 665.336 193.851 655.711 188.402 655.711 181.303"/><polygon class="cls-7" points="582.96 155.448 573.671 160.908 586.646 167.946 595.809 162.353 582.96 155.448"/><polygon class="cls-8" points="593.532 152.075 595.841 158.764 595.809 165.941 593.532 159.174 593.532 152.075"/><polygon class="cls-8" points="597.113 165.858 595.809 165.941 595.841 158.764 597.167 158.764 597.113 165.858"/><polygon class="cls-8" points="599.951 160.4 597.113 165.858 597.167 158.764 599.951 160.4"/><polygon class="cls-17" points="633.958 176.682 563.026 137.07 589.504 122.321 661.802 160.4 633.958 176.682"/><polygon class="cls-37" points="633.958 179.954 563.026 140.342 563.026 137.07 633.958 176.682 633.958 179.954"/><polygon class="cls-37" points="677.641 138.714 677.641 214.368 705.767 230.312 705.767 155.196 677.641 138.714"/><polygon class="cls-17" points="752.04 95.451 677.641 138.714 705.767 155.196 780.166 112.224 752.04 95.451"/><polygon class="cls-51" points="705.767 230.312 705.767 155.196 780.166 112.224 780.166 184.513 705.767 230.312"/><polygon class="cls-37" points="714.841 159.179 714.841 234.832 742.967 250.776 742.967 175.66 714.841 159.179"/><polygon class="cls-17" points="789.24 116.331 714.841 159.595 742.967 175.66 817.366 133.021 789.24 116.331"/><polygon class="cls-51" points="742.967 251.192 742.967 176.076 817.366 133.104 817.366 208.22 742.967 251.192"/><polygon class="cls-37" points="752.577 181.294 752.577 256.947 780.703 272.891 780.703 197.776 752.577 181.294"/><polygon class="cls-17" points="826.976 138.03 752.577 181.294 780.703 197.776 855.102 154.804 826.976 138.03"/><polygon class="cls-51" points="780.703 272.891 780.703 197.776 855.102 154.804 855.102 229.92 780.703 272.891"/><polygon class="cls-37" points="791.256 202.597 791.256 278.25 819.382 294.194 819.382 219.078 791.256 202.597"/><polygon class="cls-17" points="865.655 159.333 791.256 202.597 819.382 219.078 893.781 176.107 865.655 159.333"/><polygon class="cls-51" points="819.382 294.272 819.382 219.156 893.781 176.184 893.781 251.3 819.382 294.272"/><path class="cls-37" d="M889.532,219.194c-.316-.621-.858-.97-1.21-.779l-28.531,16.563,1.146,2.249,28.531-16.563c.352-.191.381-.85.064-1.47Z"/><path class="cls-37" d="M860.937,237.228c-.352.191-.894-.157-1.21-.778-.317-.621-.288-1.279.064-1.47.352-.191.894.157,1.21.778.317.621.288,1.279-.064,1.471Z"/><path class="cls-59" d="M881.373,214.765l-29.272,15.71,8.528,4.326c.765.479,1.23,1.318,1.23,2.221v37.349l28.816-16.618v-36.59c0-1.336-.703-2.574-1.851-3.258l-7.452-3.139Z"/><polygon class="cls-37" points="897.875 215.803 897.875 257.406 937.86 280.757 937.86 235.594 897.875 215.803"/><polygon class="cls-37" points="901.036 217.479 901.036 221.477 862.001 243.291 858.843 241.274 901.036 217.479"/><path class="cls-51" d="M885.705,269.53h0c-.354-.973.324-2.237.986-2.528l18.39-10.518,1.652,3.064-19.275,11.165c-.56.204-1.399-.21-1.753-1.183Z"/><path class="cls-37" d="M898.009,253.233c-.329-.615-.877-.952-1.225-.754l-28.194,17.131,1.191,2.226,28.194-17.131c.348-.198.363-.857.035-1.471Z"/><path class="cls-37" d="M869.781,271.835c-.348.198-.896-.14-1.225-.754-.329-.615-.313-1.273.035-1.471.348-.198.896.14,1.225.754.329.615.313,1.273-.035,1.472Z"/><path class="cls-53" d="M872.304,258.966l-2.523,12.869,28.194-17.131,2.487-13.17-26.86,16.147c-.535.31-.981.752-1.297,1.284Z"/><path class="cls-37" d="M901.015,242.601c-.329-.615-.877-.952-1.225-.754l-28.194,17.131,1.191,2.226,28.194-17.131c.348-.198.363-.857.035-1.471Z"/><path class="cls-37" d="M872.787,261.203c-.348.198-.896-.14-1.225-.754-.329-.615-.313-1.273.035-1.471.348-.198.896.14,1.225.754.329.615.313,1.273-.035,1.472Z"/><path class="cls-51" d="M927.954,270.112h0c-.937.44-2.658-.976-3.278-2.185l-19.955-34.048c-.477-1.016-.448-2.577.261-2.963h0c.937-.44,2.414.061,3.394,1.925l20.132,34.426c.477,1.016.383,2.405-.554,2.845Z"/><path class="cls-4" d="M916.729,293.067l.18-.109c-.062.034-.126.061-.189.093l.009.016Z"/><path class="cls-59" d="M937.808,260.983c-4.7-7.867-12.161-11.373-16.999-8.482l-20.873,11.678h0c4.873-2.911,12.661,1.152,17.395,9.076,4.673,7.821,4.614,16.469-.074,19.491l20.301-12.287c4.838-2.89,4.95-11.61.25-19.477Z"/><path class="cls-4" d="M917.079,292.874c.063-.038.116-.087.178-.127l-.349.211c.056-.031.116-.051.171-.084Z"/><path class="cls-53" d="M917.331,273.256c-4.734-7.924-12.522-11.987-17.395-9.076-4.873,2.911-4.985,11.695-.251,19.619,4.734,7.924,12.522,11.987,17.394,9.076,4.873-2.911,4.986-11.695.252-19.618ZM909.644,280.428c-.646.386-1.677-.153-2.305-1.203-.627-1.05-.612-2.214.033-2.6.646-.386,1.678.153,2.305,1.203.627,1.05.612,2.214-.033,2.6Z"/><path class="cls-59" d="M908.634,230.922c-1.839-2.99-4.821-4.496-6.659-3.365l-17.525,10.403c1.839-1.131,4.82.375,6.659,3.365,1.839,2.99,1.84,6.33.002,7.461l17.525-10.403c1.839-1.131,1.838-4.472-.002-7.461Z"/><path class="cls-53" d="M891.158,241.282c-1.839-2.99-4.821-4.496-6.659-3.365-1.839,1.131-1.838,4.472.002,7.461,1.839,2.99,4.821,4.496,6.659,3.365,1.839-1.131,1.838-4.472-.002-7.461ZM887.388,243.601c-.244-.396-.244-.839,0-.989.244-.15.639.05.882.446.244.396.244.839,0,.989-.244.15-.639-.05-.882-.446Z"/><path class="cls-51" d="M877.266,249.428c-.58-1.136-.606-2.321-.143-2.972.111-.155.241-.29.407-.375.865-.442,2.149.34,2.868,1.747.719,1.407.6,2.905-.265,3.347-.159.081-.335.108-.516.11-.805.01-1.765-.709-2.351-1.857Z"/><path class="cls-51" d="M908.405,281.854h0c-.943.428-2.66-1.04-3.274-2.278l-19.807-34.904c-.472-1.04-.434-2.622.28-2.999h0c.943-.428,2.42.108,3.392,2.016l19.983,35.291c.472,1.04.37,2.446-.573,2.874Z"/><path class="cls-22" d="M877.266,249.421c.587,1.148,1.547,1.867,2.351,1.857-.555-.698-1.071-1.474-1.513-2.338-.424-.829-.743-1.666-.981-2.491-.463.651-.438,1.837.143,2.972Z"/><path class="cls-37" d="M887.913,243.928c-2.251-4.405-6.271-6.854-8.98-5.47l-4.177,2.187c2.709-1.384,6.729,1.065,8.98,5.47,2.251,4.405,1.879,9.098-.829,10.482l4.177-2.187c2.709-1.384,3.08-6.077.829-10.482Z"/><path class="cls-51" d="M883.737,246.115c-2.251-4.405-6.271-6.854-8.98-5.47-2.709,1.384-3.08,6.077-.829,10.482,2.251,4.405,6.271,6.854,8.98,5.47,2.709-1.384,3.08-6.077.829-10.482ZM877.266,249.421c-.58-1.136-.606-2.321-.143-2.972.111-.155.241-.29.407-.375.865-.442,2.149.34,2.868,1.747.719,1.407.6,2.905-.265,3.347-.159.081-.335.108-.516.11-.805.01-1.765-.709-2.351-1.857Z"/><path class="cls-22" d="M898.245,285.043c.587,1.148,1.547,1.867,2.351,1.857-.555-.698-1.071-1.474-1.513-2.338-.424-.829-.743-1.666-.981-2.491-.463.651-.438,1.837.143,2.972Z"/><path class="cls-37" d="M909.932,278.022c-2.251-4.405-6.271-6.854-8.98-5.47l-4.177,2.187c2.709-1.384,6.729,1.065,8.98,5.47,2.251,4.405,1.879,9.098-.829,10.482l4.177-2.187c2.709-1.384,3.08-6.077.829-10.482Z"/><path class="cls-51" d="M905.755,280.209c-2.251-4.405-6.271-6.854-8.98-5.47-2.709,1.384-3.08,6.077-.829,10.482,2.251,4.405,6.271,6.854,8.98,5.47,2.709-1.384,3.08-6.077.829-10.482ZM899.284,283.516c-.58-1.136-.606-2.321-.143-2.972.111-.155.241-.29.407-.375.865-.442,2.149.34,2.868,1.747.719,1.407.6,2.905-.265,3.347-.159.081-.335.108-.516.11-.805.01-1.765-.709-2.351-1.857Z"/><path class="cls-51" d="M904.509,258.677h0c-.529-.972-.043-2.399.59-2.802l17.178-13.726c.543-.295,1.573-.017,2.007.726h0c.529.972.579,2.312-.389,2.955l-17.38,13.836c-.543.295-1.477-.018-2.006-.99Z"/><path class="cls-51" d="M884.614,270.055h0c-.495-.91.08-2.311.753-2.731l20.267-15.59c.575-.313-.221,1.37.188,2.065h0c.495.91,1.724,1.257.692,1.928l-19.883,15.179c-.575.313-1.522.06-2.017-.85Z"/><path class="cls-51" d="M904.189,254.583h0c-.357-.972.317-2.238.978-2.531l18.355-10.579c.56-.206,1.496.185,1.797.932h0c.357.972.205,2.225-.81,2.7l-18.563,10.655c-.56.206-1.4-.205-1.757-1.177Z"/><polygon class="cls-51" points="895.226 263.41 895.214 303.852 865.886 320.877 866.038 280.061 895.226 263.41"/><polygon class="cls-37" points="890.914 278.778 883.065 283.447 883.065 292.826 890.914 288.329 890.914 278.778"/><polygon class="cls-37" points="883.41 293.489 883.41 295.015 889.976 299.555 890.011 297.65 883.41 293.489"/><polygon class="cls-48" points="897.617 293.278 897.617 294.914 889.976 299.555 890.011 297.65 897.617 293.278"/><polygon class="cls-17" points="891.125 289.122 883.41 293.489 890.011 297.855 897.617 293.278 891.125 289.122"/><polygon class="cls-37" points="825.776 256.709 825.776 297.526 865.898 320.877 866.05 280.061 825.776 256.709"/><polygon class="cls-17" points="937.86 235.619 950.219 228.983 909.269 209.167 825.776 256.806 829.302 258.851 829.302 258.851 866.05 280.157 895.226 263.41 858.843 241.274 901.115 217.432 937.86 235.619"/><polyline class="cls-7" points="673.719 317.348 691.015 312.236 745.273 344.028 744.497 376.842"/><polygon class="cls-51" points="732.653 373.61 703.635 391.411 703.635 400.019 732.653 382.48 732.653 373.61"/><polygon class="cls-51" points="623.287 361.988 623.287 361.988 620.388 356.841 620.388 324.077 623.287 329.224 623.287 361.988"/><polygon class="cls-17" points="639.683 298.008 635.067 298.008 605.678 314.897 603.748 317.937 639.119 338.369 674.376 318.193 639.683 298.008"/><polygon class="cls-17" points="639.119 338.369 639.119 371.133 674.376 350.957 674.376 318.193 639.119 338.369"/><polygon class="cls-37" points="639.119 338.369 603.748 317.937 603.748 350.702 606.803 352.187 606.803 352.187 606.803 331.723 623.287 341.363 623.287 353.735 623.287 361.988 623.287 361.988 639.119 371.133 639.119 338.369"/><polygon class="cls-51" points="606.803 352.187 611.978 349.213 611.978 334.749 606.803 331.723 606.803 352.187"/><polygon class="cls-37" points="703.635 400.019 637.302 362.273 637.302 353.665 703.635 391.411 703.635 400.019"/><polygon class="cls-38" points="736.891 373.348 703.272 393.854 703.272 393.425 736.891 372.945 736.891 373.348"/><line class="cls-9" x1="621.138" y1="378.601" x2="621.138" y2="382.477"/><line class="cls-9" x1="614.787" y1="375.398" x2="614.787" y2="379.274"/><polygon class="cls-17" points="687.637 409.592 624.486 372.278 639.491 364.113 702.999 400.241 687.637 409.592"/><polygon class="cls-17" points="630.63 365.795 614.388 374.603 621.138 378.601 637.223 369.667 630.63 365.795"/><polygon class="cls-37" points="621.138 379.274 614.388 375.276 614.388 374.603 621.138 378.601 621.138 379.274"/><polygon class="cls-37" points="621.138 379.274 626.023 376.21 626.023 375.612 621.138 378.601 621.138 379.274"/><polygon class="cls-51" points="696.339 397.359 639.103 364.798 625.038 372.47 623.85 371.979 623.85 380.929 696.603 424.104 703.635 409.68 703.635 400.374 696.339 397.359"/><polyline class="cls-51" points="632.621 356.147 671.279 335.743 736.891 372.945 700.917 395 632.621 356.147"/><polygon class="cls-44" points="700.917 395.429 632.621 356.577 632.621 356.147 700.917 395 700.917 395.429"/><polygon class="cls-38" points="700.917 395.429 700.917 395 736.891 372.945 736.891 373.348 700.917 395.429"/><path class="cls-37" d="M641.551,326.108v29.05c0,.133.072.256.188.322l10.38,5.884c.247.14.552-.038.552-.322v-28.852c0-.131-.07-.253-.183-.319l-10.38-6.083c-.247-.145-.557.033-.557.319Z"/><path class="cls-17" d="M670.807,308.509l-28.818,16.758c-.199.116-.199.402,0,.519l10.526,6.168c.093.055.208.055.302,0l28.821-16.647c.198-.115.2-.4.004-.518l-10.529-6.279c-.094-.056-.21-.057-.305-.002Z"/><polygon class="cls-51" points="652.605 361.122 652.605 332.089 681.89 315.123 682.02 343.015 652.605 361.122"/><path class="cls-37" d="M658.004,335.504v28.674c0,.191.103.368.269.462l10.058,5.701c.354.201.793-.055.793-.462v-28.482c0-.189-.1-.363-.263-.458l-10.058-5.894c-.354-.208-.8.048-.8.458Z"/><polygon class="cls-17" points="687.42 317.471 658.004 334.576 669.124 341.093 698.54 324.103 687.42 317.471"/><polygon class="cls-51" points="668.969 370.311 669.124 341.093 698.54 324.103 698.54 351.883 668.969 370.311"/><path class="cls-37" d="M674.524,344.255v29c0,.141.076.271.198.341l10.171,6.026c.261.148.585-.041.585-.341l.166-28.968c0-.139-.074-.268-.194-.338l-10.337-6.057c-.261-.153-.59.035-.59.338Z"/><path class="cls-17" d="M703.725,326.59l-28.58,16.619c-.278.162-.279.563-.001.725l10.289,6.029c.13.076.292.077.422.001l28.981-16.739c.1-.058.101-.202.002-.261l-10.686-6.373c-.131-.078-.294-.079-.426-.002Z"/><polygon class="cls-51" points="685.488 379.508 685.644 350.088 715.06 333.098 715.06 362.451 685.488 379.508"/><path class="cls-37" d="M691.043,353.088v29.598c0,.048.026.093.068.117l10.148,5.753c.404.229.904-.063.904-.527v-28.583c0-.048-.025-.092-.066-.116l-10.851-6.359c-.09-.053-.202.012-.202.116Z"/><polygon class="cls-17" points="720.459 335.748 691.043 352.854 702.164 359.37 731.579 342.38 720.459 335.748"/><polygon class="cls-51" points="702.008 388.693 702.164 359.4 731.579 342.411 731.514 370.513 702.008 388.693"/><polygon class="cls-37" points="742.623 380.8 705.597 401.125 697.876 397.934 637.302 363.474 622.395 371.663 621.138 371.143 621.138 371.865 696.982 416.387 746.697 384.068 746.697 383.107 742.623 380.8"/><polygon class="cls-17" points="746.697 383.107 736.891 377.552 702.103 398.879 637.662 362.273 621.498 371.143 685.644 408.969 685.644 408.969 696.964 415.399 746.697 383.107"/><polygon class="cls-51" points="744.497 392.906 696.603 424.104 696.982 416.387 744.497 385.463 744.497 392.906"/><polygon class="cls-51" points="735.432 432.814 735.432 398.987 724.054 392.319 724.054 427.351 735.432 432.814"/><polygon class="cls-17" points="644.336 294.733 626.948 304.962 636.758 311.125 654.817 299.863 644.336 294.733"/><polygon class="cls-17" points="654.817 299.863 636.758 310.062 636.758 322.965 654.817 312.059 654.817 299.863"/><polygon class="cls-37" points="626.948 304.962 622.467 308.036 622.467 314.829 636.758 322.965 636.758 310.062 626.948 304.962"/><polygon class="cls-17" points="736.354 390.664 764.763 373.596 734.308 355.991 706.102 372.937 736.354 390.664"/><polygon class="cls-37" points="760.545 417.492 735.432 432.814 735.432 395.786 760.545 383.4 760.545 417.492"/><polygon class="cls-37" points="736.354 390.664 706.102 372.937 706.102 417.381 724.054 427.351 724.054 392.319 736.354 399.527 736.354 390.664"/><polygon class="cls-51" points="764.763 373.596 764.763 382.135 736.354 399.527 736.354 390.664 764.763 373.596"/><polygon class="cls-17" points="363.011 47.661 410.592 19.705 457.218 45.973 407.927 73.844 363.011 47.661"/><polygon class="cls-17" points="457.218 91.181 407.927 119.03 407.927 73.844 457.218 45.995 457.218 91.181"/><polygon class="cls-60" points="407.927 119.03 363.311 92.973 363.311 47.787 407.927 73.844 407.927 119.03"/><polygon class="cls-17" points="413.596 78.629 461.177 50.672 507.803 76.94 458.512 104.812 413.596 78.629"/><polygon class="cls-17" points="507.803 122.148 458.512 149.997 458.512 104.812 507.803 76.963 507.803 122.148"/><polygon class="cls-60" points="458.512 149.997 413.895 123.94 413.895 78.755 458.512 104.812 458.512 149.997"/><path class="cls-12" d="M450.698,129.923l-29.906-17.466c-.727-.425-1.175-1.204-1.175-2.046v-21.38c0-1.073,1.164-1.741,2.091-1.2l29.821,17.416c.78.455,1.259,1.291,1.259,2.194v21.282c0,1.073-1.164,1.741-2.091,1.2Z"/><polygon class="cls-37" points="356.582 10.582 359.629 15.342 356.582 17.094 356.582 10.582"/><polygon class="cls-60" points="345.39 37.249 311.756 17.095 311.756 4.194 345.39 23.556 345.39 37.249"/><polygon class="cls-37" points="312.496 -7.631 305.005 -3.35 311.756 .891 319.226 -3.35 312.496 -7.631"/><polygon class="cls-37" points="305.005 -3.35 305.005 19.723 311.756 23.964 311.756 .891 305.005 -3.35"/><polygon class="cls-37" points="319.226 -3.35 311.756 .891 311.756 23.964 319.226 19.723 319.226 -3.35"/><polygon class="cls-37" points="295.985 11.135 295.985 14.52 309.861 23.236 388.698 -22.186 388.698 -26.275 295.985 11.135"/><polygon class="cls-17" points="388.698 -26.275 309.861 19.851 295.985 11.135 374.033 -33.943 388.698 -26.275"/><polygon class="cls-37" points="352.881 4.5 345.39 8.781 352.141 13.022 359.612 8.781 352.881 4.5"/><polygon class="cls-60" points="345.39 8.781 345.39 44.357 352.141 48.598 352.141 13.022 345.39 8.781"/><polygon class="cls-33" points="359.612 8.781 352.141 13.022 352.141 48.598 359.612 44.357 359.612 8.781"/><polygon class="cls-37" points="347.523 -17.808 347.523 5.265 354.274 9.506 354.274 -13.567 347.523 -17.808"/><polygon class="cls-37" points="361.744 -17.808 354.274 -13.567 354.274 9.506 361.744 5.265 361.744 -17.808"/><polygon class="cls-37" points="387.908 -5.677 387.908 20.057 394.659 24.298 394.659 -1.436 387.908 -5.677"/><polygon class="cls-33" points="402.13 -5.677 394.659 -1.436 394.659 24.298 402.13 20.057 402.13 -5.677"/><polygon class="cls-37" points="303.361 -.639 303.361 -7.15 354.307 -36.771 405.226 -7.097 405.226 -.586 354.307 28.689 303.361 -.639"/><polygon class="cls-37" points="405.226 -.586 354.307 28.689 303.361 -.639 354.307 -30.259 405.226 -.586"/><polygon class="cls-17" points="405.226 -7.097 354.307 22.178 303.361 -7.15 354.307 -36.771 405.226 -7.097"/><polygon class="cls-37" points="354.307 22.178 405.226 -7.097 408.274 -2.337 357.354 26.937 354.307 22.178"/><polygon class="cls-37" points="302.186 -.95 298.571 1.141 303.992 3.915 307.88 1.962 302.186 -.95"/><polygon class="cls-37" points="295.985 1.771 295.985 5.157 298.882 6.639 376.537 -38.155 376.537 -41.54 295.985 1.771"/><polygon class="cls-17" points="376.537 -41.54 298.882 3.254 295.985 1.771 373.65 -43.152 376.537 -41.54"/><polygon class="cls-60" points="295.985 1.771 295.985 14.52 309.861 23.236 309.861 19.851 301.293 14.469 301.406 4.546 295.985 1.771"/><polygon class="cls-17" points="305.294 2.593 301.406 4.546 295.985 1.771 299.6 -.32 305.294 2.593"/><polygon class="cls-33" points="305.181 12.515 301.293 14.469 301.406 4.546 305.294 2.593 305.181 12.515"/><polygon class="cls-33" points="359.612 37.632 394.659 17.094 394.659 5.49 359.612 25.64 359.612 37.632"/><polygon class="cls-60" points="428.116 190.646 428.116 222.382 409.329 210.52 409.396 179.515 428.116 190.646"/><polygon class="cls-17" points="382.356 193.955 382.356 225.713 409.329 210.52 409.396 179.515 382.356 193.955"/><polygon class="cls-60" points="401.075 204.623 401.075 236.36 382.356 225.713 382.356 193.955 401.075 204.623"/><path class="cls-22" d="M434.086,190.858l-.455.261c.187-.088.33-.175.455-.261Z"/><path class="cls-30" d="M433.631,191.12l.455-.261c.484-.333.576-.484.576-.735-.038-.853-.752-1.061-.752-1.061l-.208.949-25.078-14.415-33.237,19.129-.424-.825s-.175.084-.29.312c-.191.379-.271,1.011.405,1.399.725.416-.01-.006,0,0l24.858,14.265c.327.188.729.187,1.055,0l32.639-18.755s0,0,0,0h.001Z"/><polygon class="cls-30" points="433.63 191.12 433.629 191.12 433.631 191.12 433.63 191.12"/><path class="cls-17" d="M407.975,174.9l-33.013,19c-.222.128-.222.449,0,.576l24.984,14.337c.32.184.714.184,1.482.234l33.149-19.048c-.225-.362-.225-.683-.448-.811l-24.859-14.288c-.401-.231-.895-.23-1.296,0Z"/><polygon class="cls-60" points="411.192 179.515 387.944 192.613 404.584 202.587 428.116 188.997 411.192 179.515"/><polygon class="cls-30" points="394.995 184.248 393.717 185.033 419.319 194.414 420.642 193.63 394.995 184.248"/><polyline class="cls-14" points="368.192 132.167 368.192 115.994 365.392 114.161 354.019 121.406 354.019 140.401"/><polygon class="cls-30" points="409.732 111.081 413.662 108.749 458.457 135.857 454.037 137.819 409.732 111.081"/><polygon class="cls-17" points="458.457 139.622 454.037 141.792 454.037 137.819 458.457 135.857 458.457 139.622"/><polygon class="cls-60" points="454.037 141.792 409.79 114.435 409.732 111.081 454.037 137.819 454.037 141.792"/><polygon class="cls-33" points="393.13 133.816 411.212 143.36 432.573 128.492 419.998 120.706 393.13 133.816"/><polygon class="cls-14" points="354.096 140.489 366.829 131.569 368.192 132.167 368.192 135.434 357.459 142.344 354.096 140.489"/><polygon class="cls-60" points="408.338 142.037 411.212 143.698 432.676 130.354 432.573 128.492 408.338 142.037"/><polygon class="cls-33" points="297.436 158.689 273.863 147.846 270.129 149.806 293.696 160.693 297.436 158.689"/><polygon class="cls-37" points="293.696 160.693 270.129 149.806 270.129 152.85 293.696 164.608 293.696 160.693"/><polygon class="cls-17" points="297.436 158.689 293.696 160.693 293.696 164.608 295.822 165.674 297.436 164.73 297.436 158.689"/><path class="cls-37" d="M293.696,160.693l1.87.871s1.196.675,1.184,2.125-.295,2.133-.929,1.986-2.126-1.067-2.126-1.067v-3.915Z"/><polygon class="cls-17" points="251.341 157.894 249.4 158.873 266.866 167.442 268.807 166.463 251.341 157.894"/><polygon class="cls-37" points="249.4 164.929 249.4 158.873 266.866 167.442 266.866 170.304 251.631 162.798 251.631 166.119 249.4 164.929"/><polygon class="cls-37" points="268.807 166.463 266.866 167.442 266.866 170.304 268.807 169.386 268.807 166.463"/><polygon class="cls-17" points="263.107 153.696 289.372 166.508 276.304 173.641 247.517 161.653 263.107 153.696"/><polygon class="cls-17" points="249.966 159.37 249.4 159.658 249.919 159.998 249.919 163.918 273.491 175.56 273.491 176.108 274.01 175.816 274.01 171.059 249.966 159.37"/><polygon class="cls-37" points="249.4 165.714 249.4 159.658 255.275 162.523 255.275 165.384 251.631 163.583 251.631 166.904 249.4 165.714"/><polygon class="cls-52" points="847.803 157.031 840.665 152.718 825.575 161.493 832.82 165.685 847.803 157.031"/><polygon class="cls-52" points="779.586 188.391 786.724 192.464 804.034 182.466 796.976 178.279 779.586 188.391"/><polygon class="cls-6" points="701.563 355.403 704.385 357.014 711.371 352.979 708.58 351.323 701.563 355.403"/><polygon class="cls-6" points="728.534 343.066 725.712 341.36 719.472 344.989 722.335 346.646 728.534 343.066"/><path class="cls-57" d="M901.01,272.552l-4.448,2.35s-.447-1.446-.287-3.13c.16-1.685.796-4.448,1.6-5.085l3.135,5.865Z"/><path class="cls-57" d="M905.567,273.055l-5.005-9.042s3.308-2.706,10.14,1.813c6.831,4.519,9.362,13.365,9.362,13.365,0,0,1.741,6.617-.093,10.263-1.834,3.645-4.719,4.526-6.408,4.361-1.689-.165-5.536-.682-7.934-3.462l4.01-2.129s3.187-2.59,1.199-8.179c-1.988-5.59-5.27-6.99-5.27-6.99Z"/><path class="cls-57" d="M889.235,251.462l3.575,6.46-3.424,2-5.665-3.764,4.114-2.043s1.205-1.199,1.4-2.653Z"/><polygon class="cls-57" points="892.414 249.277 899.936 244.662 897.974 254.704 896 255.904 892.414 249.277"/><path class="cls-57" d="M886.432,241.534s.739-.352,1.953,1.053c1.214,1.405,3.142,5.692,3.142,5.692,0,0,.705-.503.887-1.35s.437-2.565-.887-5.096c-1.323-2.531-3.644-4.185-5.095-4.176-1.451.009-2.368.299-2.711,1.274l2.711,2.604Z"/><path class="cls-57" d="M890.676,227.215v7.083l-6.119,3.618s-.794.364-.835,1.014c0,0-2.019-1.245-4.258-.669l-4.987,2.585s-3.843,2.678-.826,9.437l-11.649-6.992,28.675-16.075Z"/><polygon class="cls-59" points="825.833 161.329 796.72 178.259 803.774 182.445 833.076 165.521 825.833 161.329"/><polygon class="cls-57" points="571.296 32.678 571.296 20.843 592.805 8.2 592.805 20.102 571.296 32.678"/><path class="cls-59" d="M590.065,37.713s0,2.016,0,2.957l-6.609,4.08s.737-2.082-1.272-2.664l7.881-4.373Z"/><path class="cls-54" d="M602.146,28.248l-8.843-5.153-21.154,12.222,9.154,6.216,8.762-5.204s-.137-.604.144-1.016.89-.669,2.28-1.563c1.39-.893,9.656-5.502,9.656-5.502Z"/><path class="cls-54" d="M594.51-1.981l-26.48-4.392-20.109,11.149s23.585,5.946,24.146,6.629c1.702.422,1.095,2.501,1.095,2.501l-1.865,2.195,22.54-13.384,1.94-2.294c0-1.969-1.266-2.404-1.266-2.404Z"/><path class="cls-54" d="M564.41-14.966c-.45-.383-.777-.519-1.019-.525l-20.83-10.735-18.788,10.417,21.04,10.789h0s1.28.633,1.725,1.491c.708,1.367.357,5.151.357,5.151l18.844-10.908s.543-4.082-1.331-5.679Z"/><polygon class="cls-57" points="540.414 4.909 538.484 5.981 538.484 3.782 540.414 4.909"/><polygon class="cls-39" points="547.86 7.798 547.485 5.032 545.228 6.265 547.86 7.798"/><polygon class="cls-57" points="538.57 2.387 541.703 4.212 546.978 1.304 546.535 -1.955 538.57 2.387"/><polygon class="cls-57" points="537.244 3.96 537.317 3.071 536.325 3.611 537.037 3.96 537.244 3.96"/><path class="cls-57" d="M548.032,9.058l-4.145-2.208-5.317,3.057-.085,7.997-1.447.921s-.441.555-2.058-.469l3.505,11.104,11.409-6.698-1.861-13.704Z"/><polygon class="cls-57" points="527.56 -14.116 525.162 -12.743 529.073 -.352 532.755 1.571 544.912 -5.045 527.56 -14.116"/><path class="cls-39" d="M537.037,18.825c-.451.006-1.199-.227-2.115-.649l.057.18c1.617,1.023,2.058.469,2.058.469Z"/><polygon class="cls-57" points="583.252 67.766 590.119 62.983 590.062 51.017 583.21 55.372 583.252 67.766"/><polygon class="cls-57" points="590.012 40.493 583.172 44.357 583.185 47.955 590.027 43.656 590.012 40.493"/><polygon class="cls-62" points="678.904 315.694 676.082 313.989 669.841 317.618 672.705 319.275 678.904 315.694"/><polygon class="cls-62" points="651.933 328.032 654.755 329.642 661.741 325.607 658.95 323.951 651.933 328.032"/><polygon class="cls-59" points="669.841 317.618 658.95 323.951 661.741 325.607 672.705 319.275 669.841 317.618"/><polygon class="cls-35" points="695.506 324.767 692.684 323.061 686.444 326.69 689.307 328.347 695.506 324.767"/><polygon class="cls-35" points="668.535 337.104 671.357 338.715 678.343 334.68 675.552 333.024 668.535 337.104"/><polygon class="cls-59" points="686.444 326.69 675.552 333.024 678.343 334.68 689.307 328.347 686.444 326.69"/><polygon class="cls-52" points="711.961 333.964 709.139 332.258 702.898 335.887 705.762 337.544 711.961 333.964"/><polygon class="cls-52" points="684.99 346.301 687.812 347.912 694.797 343.877 692.006 342.221 684.99 346.301"/><polygon class="cls-59" points="702.898 335.887 692.006 342.221 694.797 343.877 705.762 337.544 702.898 335.887"/><polygon class="cls-59" points="719.472 344.989 708.58 351.323 711.371 352.979 722.335 346.646 719.472 344.989"/><polygon class="cls-59" points="789.245 139.001 760.131 155.931 767.186 160.117 796.488 143.193 789.245 139.001"/><path class="cls-33" d="M287.852,169.763l-.971.554c.01-.72-.459-1.192-.508-1.214l-26.498-13.811,1.264-.72,25.705,13.42c.401.235,1.025.545,1.007,1.771Z"/><path class="cls-33" d="M285.374,170.87l-.971.554c.01-.72-.459-1.192-.508-1.214l-26.498-13.811,1.264-.641,25.705,13.42c.401.155,1.025.466,1.007,1.692Z"/><path class="cls-33" d="M282.73,172.417l-.971.554c.01-.72-.459-1.192-.508-1.294l-26.498-13.811,1.264-.561,25.705,13.42c.401.155,1.025.466,1.007,1.692Z"/><polygon class="cls-33" points="289.372 168.758 289.748 167.393 294.234 164.878 295.362 165.509 289.372 168.758"/><polygon class="cls-33" points="287.275 164.372 286.148 163.866 289.204 162.152 290.271 162.677 287.275 164.372"/><polygon class="cls-33" points="282.775 161.995 281.649 161.567 284.704 159.854 285.771 160.299 282.775 161.995"/><polygon class="cls-33" points="277.969 159.711 276.842 159.125 279.898 157.412 280.965 158.015 277.969 159.711"/><polygon class="cls-33" points="273.776 157.564 272.65 156.977 275.706 155.264 276.773 155.868 273.776 157.564"/><polygon class="cls-33" points="269.879 155.589 268.753 155.002 271.809 153.289 272.875 153.893 269.879 155.589"/><polygon class="cls-33" points="265.573 153.373 264.447 152.946 267.502 151.232 268.569 151.677 265.573 153.373"/><path class="cls-33" d="M594.103,161.108c-.136,0-.176.172-.221.036l-.678-2.016c-.011-.034-.017-.068-.017-.103v-1.657c0-.179.145-.128.325-.128s.325.145.325.325v1.407l.574,1.709c.057.17-.034.354-.204.411-.034.012-.069.017-.103.017Z"/><path class="cls-33" d="M595.815,160.304h-.002c-.179-.001-.323.049-.323-.131l.006-1.57c.001-.179.146-.07.325-.07h.002c.179.001.323.147.323.326l-.006,1.121c-.001.179-.146.323-.325.323Z"/><path class="cls-33" d="M597.139,160.099h-.003c-.179-.002-.323-.032-.322-.211l.002-.501c.001-.179.13-.156.327-.142.179.002.323.148.322.327l-.002.364c-.002.178-.146.163-.325.163Z"/><polygon points="885.968 178.151 878.831 173.838 863.248 182.899 870.491 187.091 885.968 178.151"/><polygon points="817.891 209.356 825.028 213.43 841.329 204.015 834.274 199.829 817.891 209.356"/><polygon class="cls-59" points="863.388 182.899 834.274 199.829 841.329 204.015 870.631 187.091 863.388 182.899"/><rect class="cls-59" x="855.98" y="178.532" width="0" height="33.838"/><polygon class="cls-31" points="741.476 166.648 748.613 170.722 767.701 159.696 760.637 155.505 741.476 166.648"/><polygon class="cls-31" points="809.692 135.399 802.555 131.086 788.733 139.124 795.982 143.318 809.692 135.399"/><polygon class="cls-62" points="772.291 114.028 765.154 109.715 749.37 118.893 756.612 123.084 772.291 114.028"/><polygon class="cls-62" points="704.075 145.233 711.212 149.307 728.881 139.101 721.822 134.913 704.075 145.233"/><polygon class="cls-59" points="749.64 118.733 721.545 135.071 728.609 139.262 756.889 122.928 749.64 118.733"/><polygon class="cls-59" points="749.37 118.478 721.812 134.492 721.822 134.497 749.37 118.478 749.37 118.478"/><polygon class="cls-54" points="360.546 -29.504 338.256 -16.646 338.256 -16.646 317.509 -4.678 354.35 16.685 397.132 -8.097 360.546 -29.504"/><polygon class="cls-28" points="324.226 152.869 312.18 149.852 318.758 139.11 326.865 141.095 324.226 152.869"/><polygon class="cls-28" points="304.04 147.131 292.93 143.046 305.086 134.185 313.118 136.963 304.04 147.131"/><polygon class="cls-28" points="343.451 155.634 330.455 154.239 331.722 142.491 340.65 143.91 343.451 155.634"/><polygon class="cls-28" points="361.425 155.425 350.272 156.193 345.895 144.377 354.517 144.377 361.425 155.425"/><polygon class="cls-28" points="378.771 151.51 367.413 154.505 359.621 144.603 369.406 142.647 378.771 151.51"/><path class="cls-14" d="M400.168,137.459l-14.887-8.602v-36.871c0-.598.624-.99,1.163-.731l12.824,7.455c.55.264.9.821.9,1.431v37.319Z"/><line class="cls-14" x1="399.886" y1="117.919" x2="385.449" y2="109.273"/><path class="cls-14" d="M418.713,148.032l-14.887-8.602v-36.871c0-.598.624-.99,1.163-.731l12.824,7.455c.55.264.9.821.9,1.431v37.319Z"/><line class="cls-14" x1="418.43" y1="128.492" x2="403.993" y2="119.846"/><path class="cls-14" d="M436.926,157.952l-14.887-8.602v-36.871c0-.598.624-.99,1.163-.731l12.824,7.455c.55.264.9.821.9,1.431v37.319Z"/><line class="cls-14" x1="436.643" y1="138.412" x2="422.206" y2="129.766"/><path class="cls-14" d="M385.542,144.641l-14.887-8.602v-36.871c0-.598.624-.99,1.163-.731l12.824,7.455c.55.264.9.821.9,1.431v37.319Z"/><line class="cls-14" x1="385.259" y1="125.101" x2="370.822" y2="116.455"/><path class="cls-14" d="M403.313,155.26l-14.887-8.602v-36.871c0-.598.624-.99,1.163-.731l12.824,7.455c.55.264.9.821.9,1.431v37.319Z"/><line class="cls-14" x1="403.03" y1="135.72" x2="388.593" y2="127.075"/><path class="cls-14" d="M421.526,165.18l-14.887-8.602v-36.871c0-.598.624-.99,1.163-.731l12.824,7.455c.55.264.9.821.9,1.431v37.319Z"/><line class="cls-14" x1="421.243" y1="145.64" x2="406.806" y2="136.994"/><polygon class="cls-17" points="462.997 150.081 446.44 140.903 453.617 119.638 468.441 126.595 462.997 150.081"/><polygon class="cls-60" points="468.441 126.595 462.997 150.081 462.997 168.836 473.481 162.782 473.481 123.515 468.441 126.595"/><polygon class="cls-30" points="462.997 168.836 446.44 159.924 446.44 140.903 462.997 150.081 462.997 168.836"/><polygon class="cls-17" points="458.68 116.582 453.617 119.638 468.441 126.595 473.481 123.515 458.68 116.582"/><path class="cls-1" d="M460.229,117.903c-.347-.153-.769-.245-1.226-.245s-.879.092-1.226.245h-.903v1.724c0,.732.953,1.325,2.13,1.325s2.13-.593,2.13-1.325v-1.724h-.903Z"/><ellipse class="cls-1" cx="459.002" cy="118.087" rx="2.13" ry="1.325"/><path class="cls-13" d="M460.229,116.257c-.347-.153-.769-.245-1.226-.245s-.879.092-1.226.245h-.903v1.724c0,.732.953,1.325,2.13,1.325s2.13-.593,2.13-1.325v-1.724h-.903Z"/><ellipse class="cls-13" cx="459.002" cy="116.44" rx="2.13" ry="1.325"/><path class="cls-10" d="M460.229,114.716c-.347-.153-.769-.245-1.226-.245s-.879.092-1.226.245h-.903v1.724c0,.732.953,1.325,2.13,1.325s2.13-.593,2.13-1.325v-1.724h-.903Z"/><ellipse class="cls-10" cx="459.002" cy="114.899" rx="2.13" ry="1.325"/><path class="cls-2" d="M460.229,113.697c-.347-.153-.769-.245-1.226-.245s-.879.092-1.226.245h-.903v1.202c0,.732.953,1.325,2.13,1.325s2.13-.593,2.13-1.325v-1.202h-.903Z"/><ellipse class="cls-2" cx="459.002" cy="113.791" rx="2.13" ry="1.325"/><path class="cls-37" d="M446.719,170.815h-.604l-4.315-3.225c-.184-.138-.432-.153-.632-.04l-12.765,7.25c-.363.206-.395.717-.061.966l4.687,3.503c.184.138.432.153.632.04l12.765-7.25c.191-.109.284-.301.286-.497l.006-.003v-.745Z"/><path class="cls-37" d="M450.541,177.854h-.604l-4.315-3.225c-.184-.138-.432-.153-.632-.04l-12.765,7.25c-.363.206-.395.717-.061.966l4.687,3.503c.184.138.432.153.632.04l12.765-7.25c.191-.109.284-.301.286-.497l.006-.003v-.745Z"/><path class="cls-37" d="M443.004,163.303h-.604l-4.315-3.225c-.184-.138-.432-.153-.632-.04l-12.765,7.25c-.363.206-.395.717-.061.966l4.687,3.503c.184.138.432.153.632.04l12.765-7.25c.191-.109.284-.301.286-.497l.006-.003v-.745Z"/><path class="cls-17" d="M438.118,176.081l-4.457,2.531c-.2.114-.448.098-.632-.04l-4.687-3.503c-.334-.25-.302-.76.061-.966l12.765-7.25c.2-.114.448-.098.632.04l4.687,3.503c.334.25.302.76-.061.966l-6.682,3.795"/><path class="cls-17" d="M450.248,178.401l-12.765,7.25c-.2.114-.448.098-.632-.04l-4.687-3.503c-.334-.25-.302-.76.061-.966l12.765-7.25c.2-.114.448-.098.632.04l4.687,3.503c.334.25.302.76-.061.966Z"/><path class="cls-17" d="M442.711,163.751l-12.765,7.25c-.2.114-.448.098-.632-.04l-4.687-3.503c-.334-.25-.302-.76.061-.966l12.727-7.481s.486.133.67.271l4.687,3.503c.334.25.302.76-.061.966Z"/><path class="cls-51" d="M439.622,189.476c.012-.045.019-.088.023-.134.002-.022.011-.043.011-.065v-20.463c0-.137-.036-.272-.106-.391l-12.334-20.926c-.069-.117-.169-.215-.288-.281l-2.539-1.415c-.237-.132-.528-.13-.764.008-.235.138-.379.391-.379.663v21.125c0,.122.029.243.085.352l9.324,18.114c.062.12.154.222.268.295l5.549,3.566s.006,0,.009.003c.121.076.261.12.407.12.059,0,.119-.007.178-.021.018-.004.032-.016.049-.021.037-.012.071-.028.106-.045.048-.024.093-.05.134-.082.015-.012.033-.016.047-.029.017-.015.026-.035.041-.051.029-.031.054-.062.077-.097.024-.036.044-.073.062-.112.016-.036.029-.072.04-.11ZM425.997,148.457l12.121,20.566v17.03l-10.879-21.505c-.051-.102-.125-.191-.215-.261l-2.241-1.735v-14.77l1.213.676ZM433.928,185.175l-9.144-17.764v-2.914l1.162.899,10.979,21.705-2.997-1.926Z"/><polygon class="cls-33" points="236.911 149.45 255.707 139.771 267.862 146.34 267.862 151.232 253.334 158.873 251.341 157.894 249.4 158.873 249.4 162.87 247.302 161.514 247.302 157.447 236.911 149.45"/><path class="cls-17" d="M293.403,164.304l-17.099,9.336s-1.638,1.074-.619,1.624c.296.16.074,1.398.074,1.398l19.602-11.153c-.139-1.434-1.959-1.205-1.959-1.205Z"/><path class="cls-37" d="M275.188,172.176l-25.787-12.518v4.781s24.894,12.254,25.47,12.425c.752.222,1.766-.761,1.766-2.095,0-1.746-1.449-2.593-1.449-2.593Z"/><path class="cls-36" d="M426.089,101.343s-3.312-.456-4.429,2.363c-1.117,2.819-.867,5.044.952,5.526,1.818.483,8.32,2.598,8.32,2.598,0,0-1.645-.56-.208-2.422,2.509-3.249-.193-9.472-4.635-8.065Z"/><path class="cls-36" d="M296.074,91.404s-5.295,4.363-5.851,4.391c0,0,2.479,2.653,2.426,2.898l.947-.521s-1.403,4.397-1.323,5.269-.083,1.639-.083,1.639l.083.243-.699,4.785,5.043,3.425.319-2.423.433,2.824.422.435.819,2.61,3.39,2.249.573-12.697-.192-3.619.71-5.681s-1.836-3.766-2.943-4.733c-1.107-.967-1.816-1.214-1.816-1.214,0,0-.61.999-2.258.119Z"/><path class="cls-17" d="M292.068,97.978s-1.432,1.216-3.276.681c-1.844-.535-5.395-2.876-5.395-2.876,0,0-1.758.215-2.032-.7s.442-2.111,1.504-1.905c0,0-.204-1.02.197-.996s1.225.275,1.429.651.465,1.372.465,1.372c0,0,4.55,1.793,4.776,1.785s.486-.193.486-.193l1.845,2.183Z"/><path class="cls-17" d="M300.615,98.142s.575,1.942.514,2.209l-5.413,1.853s-1.221-.767-1.569-.401,0,.937,0,.937c0,0-1.29.388-1.202,1.434s1.708,1.429,2.493.75c.784-.68,2.702-1.238,3.556-1.447s4.959-.67,5.269-1.686c.309-1.016-.791-4.119-1.001-4.182l-2.646.534Z"/><path class="cls-17" d="M292.472,85.334s.441,2.66.283,2.905,1.398,1.978,3.45,1.831c.244-.017.612.216.428.593s-.559.741-.559.741c0,0,.741.462,1.159.375s1.098-.493,1.098-.493c0,0-.627-.621-.54-1.232l1.709-.837s1.27-.745.704-1.689c-.565-.943-1.419.25-1.419.25,0,0-.655-.212-.794-.612,0,0-1.282.048-1.639-.528,0,0-1.427.139-1.737-.349,0,0-.79.012-1.019-.274,0,0-.812-.227-1.125-.68Z"/><path class="cls-34" d="M298.907,81.745s-2.14-1.936-4.76-.169c-2.62,1.766-1.644,4.126-1.063,4.713.581.587,6.74,2.097,6.74,2.097,0,0,1.047-.533,1.395-1.22s.744-3.594-.5-4.498-1.812-.923-1.812-.923Z"/><path class="cls-36" d="M335.2-2.759c1.207-1.149,2.311-.8,3.277.133.966.933,4.954,4.194,4.954,4.194l4.178.268-.233,3.368s-5.127-.805-5.664-1.251-2.756-2.888-2.756-2.888c0,0,.78,4.113,1.174,4.417s3.501,2.537,3.501,2.537l-.585,3.87s-5.648-3.435-5.791-4.361c-.143-.925-.562-3.857-.562-3.857,0,0-1.507,6.489-2.03,7.354-.523.866-1.392,2.151-1.392,2.151,0,0,1.138,12.014,1.077,12.642s-1.077,7.484-1.077,7.484c0,0,.955.448.744,1.561-.211,1.112-.841,1.166-.841,1.166,0,0,1.034.71.858,1.48s-.854,2.205-3.725,2.439c-2.871.234-2.566-1.37-2.588-2.996l-.042-11.166s-2.09-8.65-2.296-10.408c-.205-1.759-.21-2.008-.21-2.008,0,0-.187-3.035.665-5.478,1.18-3.384,9.363-10.649,9.363-10.649Z"/><path class="cls-17" d="M343.13,11.72l.376-2.364s1.846-.456,2.068-.237-.157.567-.157.567c0,0,1.259.521,1.198,1.489s-2.003,2.264-3.486.544Z"/><path class="cls-17" d="M347.793,1.937l-.18,2.355s2.136,1.48,2.391.693-.599-.613-.599-.613c0,0,1.758.052,1.846-.558s-.991-1.749-3.458-1.877Z"/><polygon class="cls-17" points="416.575 125.075 415.361 125.603 417.888 127.258 417.972 125.679 416.575 125.075"/><path class="cls-17" d="M414.662,127.115s.015,1.987,1.561,1.926l1.546-.061-3.107-1.865Z"/><polygon class="cls-17" points="419.511 123.731 421.138 122.739 421.138 125.736 419.511 124.882 419.511 123.731"/><path class="cls-17" d="M423.376,120.549l-.493.554-.041,3.548,2.372-2.325s-1.309-1.153-1.838-1.777Z"/><path class="cls-36" d="M427.241,114.862l-3.865,5.687s2.577,3.293,3.184,3.182l2.075-3.906s-.227,7.56.07,8.513c.298.953.435,2.192.435,2.192l.099.932-.099,1.399,5.454,3.412,1.61-3.279v-12.537s-.597-.932-1.61-1.244c-1.012-.312-7.353-4.352-7.353-4.352Z"/><path class="cls-36" d="M428.005,113.454l.929-1.116s1.36-.131,1.853-.827c0,0,3.182,2.222,7.147,7.979,3.965,5.757,4.168,6.964,4.168,6.964,0,0-.422,13.657-.846,14.61l-.933-1.403-2.549-1.592-.032-17.002s.567-1.619-2.668-3.338c-3.236-1.719-7.069-4.274-7.069-4.274Z"/><polygon class="cls-36" points="427.632 121.885 428.566 123.088 428.635 119.825 427.632 121.885"/><path class="cls-36" d="M428.957,134.726l-1.455,13.186,2.246,3.878s1.578.701,1.852.327l1.092-6.674s-.005-1.519.307-2.976c.311-1.456,1.061-4.72,1.061-4.72l-5.102-3.022Z"/><polygon class="cls-36" points="435.514 134.399 435.768 136.94 436.203 137.237 436.01 133.388 435.514 134.399"/><polygon class="cls-36" points="435.724 138.867 436.142 149.721 436.203 139.032 435.724 138.867"/><path class="cls-36" d="M437.742,139.852l.032,14.764,2.357,1.851.314.456s.685-1.176.345-2.167l.358-10.665-2.045-3.469-1.361-.77Z"/><path class="cls-17" d="M425.992,123.39s-2.086,3.88-2.616,3.81l-.53-.07v2.109s1.271.761,1.271.761l4.449-6.911-.933-1.204-1.073,1.846-.568-.341Z"/><path class="cls-17" d="M422.219,108.443s1.062,1.656,1.584,2.057.432.929.432.929l1.259.631s1.904-.154,2.878-.806c.346-.232.988.936.988.936,0,0,1.191-.408,1.309-.545s-1.682-.529-2.034-.942-1.256-1.177-1.256-1.177c0,0,.22-.467-.049-.95s-1.206-.6-1.271-.355-.145.707-.145.707c0,0-1.8-.183-1.887-.832,0,0,.271,1.129.58,1.234,0,0-1.11.163-1.486-.506,0,0-.779.192-.904-.383Z"/><path class="cls-36" d="M424.608,109.409c.25.358.399.686.165.85-.238.166-.491-.089-.741-.447s-.324-.739-.165-.85.491.089.741.447Z"/><path class="cls-36" d="M295.986,87.445c-.067.389-.034.72.347.785.386.066.523-.235.589-.624s-.089-.741-.347-.785-.523.235-.589.624Z"/><path class="cls-36" d="M293.367,87.083c-.067.389-.034.72.347.785.386.066.523-.235.589-.624s-.089-.741-.347-.785-.523.235-.589.624Z"/><path class="cls-17" d="M581.983,270.455s-.816,1.787,1.113,2.036c0,0,.562.897,1.658,1.066,1.359.209-.333,1.427-.333,1.427,0,0,.882.61,2.004.427s.864-.186.864-.186c0,0-1.003-.511-.547-1.253,0,0,2.17-.199,2.749-.621s1.375-1.497,1.093-1.821.384-1.514.384-1.514c0,0-2.595-6.061-4.896-4.643-2.301,1.418-4.088,5.083-4.088,5.083Z"/><path class="cls-17" d="M712.902,258.428c-.604-.119-1.339-.102-1.192.739.147.842,1.106.989,1.106.989,0,0-.441,1.102.845,1.482,1.286.379,2.007.502,1.896,1.072s-.437.826-.437.826c0,0,1.635.285,1.931-.035s-.16-.7-.158-.989-.678-1.37-.678-1.37l-3.312-2.714Z"/><path class="cls-34" d="M600.807,161.576s-2.002-2.447-4.831-1.556c-2.829.891-3.701,3.231-3.563,4.256.135,1.006.84,2.103,1.48,2.783l1.937-.726s4.074-2.023,4.156-2.58c0,0-1.064,3.017.206,3.391,1.27.374,1.811-.126,2.247-1.183s.135-4-1.632-4.385Z"/><path class="cls-36" d="M597.731,173.688l-2.422-2.079-.205-1.139s-1.297-.718-1.679-1.442c0,0-.353-.412-4.307,3.476-3.954,3.888-6.259,6.712-7.006,9.396s.38,7.935.38,7.935l.845,4.67s-2.171,8.926-1.793,9.595c0,0-1.169,2.807.355,3.091s3.244.174,3.244.174c0,0,.263,2.148,3.454,1.119,3.191-1.029,2.683-2.374,2.472-2.757s-1.199-.992-1.199-.992l1.518-9.504-1.309-10.634s.777-2.347,1.243-2.539,1.232-3.191,1.232-3.191c0,0,1.96-.416,2.371-.516s1.577-.473,1.577-.473l-.527-2.367s.908-.442,1.305-.883.45-.939.45-.939Z"/><path class="cls-17" d="M593.87,178.694s-.066,1.327,1.855,1.499c1.92.172,5.082,1.224,5.082,1.224,0,0,.778,1.146,2.068,1.337s1.812-.278,1.952-1.194-1.586-1.551-1.586-1.551c0,0-.222-.549-1.392-.34l-5.345-1.791-2.633.817Z"/><path class="cls-17" d="M595.977,175.51s1.422-.655,1.755-1.386l4.488,1.1s3.124-.129,3.503,1.371c.116.459-1.49.692-1.49.692,0,0,.909.773-.137.688-1.046-.085-2.247-1.38-2.247-1.38l-5.709-.354-.162-.73Z"/><path class="cls-17" d="M599.912,163.474s-1.185,1.842-2.647,1.904c0,0-.247-.72-.848-.58s-.776,1.134-.691,1.308l-2.224.491s.382.624.717,1.211c.219.384-.792,1.219-.792,1.219,0,0,.707,1.578,1.679,1.211,0,0,.275-1.451,1.564-.887s2.322.855,2.952.21c.631-.645.625-.666.588-1.015s1.111-1.246,1.111-1.246c0,0-.245-.058-.514-.417,0,0-.861-.377-.896-.795s1.063-2.231,0-2.615Z"/><path class="cls-34" d="M712.046,258.399s-1.183-1.929,1.579-4.02,5.343,0,5.343,0c0,0,1.285.105,1.915,2.754.63,2.649-1.813,4.331-2.143,4.505s-1.676.46-1.768.727-.887-.727-.887-.727c0,0-2.221-.986-3.103-2.972,0,0-.222-.534-.936-.267Z"/><path class="cls-36" d="M715.119,263.537s1.339.302,1.931-.035c0,0,1.376.24,2.496,2.842,1.12,2.602,1.944,4.939,1.944,4.939l-1.678,1.319.699,6.948s-.045,1.073-1.361,3.535c-1.316,2.462-1.123,2.527-1.123,2.527l.749,5.541s1.745,7.572,1.77,9.516l-1.379.289s.682.293.773,1.356c.091,1.063.23,2.487-2.158,2.509-2.388.022-3.887-.557-3.957-1.688-.07-1.131.732-1.635,1.586-1.688l.854-.053-1.325-5.665-.571,2.595-.46.071s.493,1.431,0,2.146-1.253,1.393-3.268.61c-2.016-.783-2.939-1.028-2.876-1.987s-.094-1.538,2.608-1.562c0,0,1.29-8.461,1.325-8.792s.906-2.667.906-2.667l-1.121-5.038.23-6.786s.979-.518,1.013-.884-1.583-1.665-1.689-2.767c0,0,2.549-5.515,2.981-6.211s1.099-.916,1.099-.916Z"/><path class="cls-17" d="M720.915,257.93s.588.075.584.702-.813,1.118-1.088,1.169.504-1.871.504-1.871Z"/><path class="cls-17" d="M711.536,271.915l-4.19-3.242s-.696-1.839-1.049-1.513-.054.555-.054.555c0,0-1.43-1.179-2.11-.442-.68.737-.382,1.38.14,1.712s1.69.783,1.69.783c0,0,3.867,4.689,4.515,4.679s2.197-.249,2.249-1.016-1.192-1.517-1.192-1.517Z"/><path class="cls-17" d="M719.812,272.601l1.187-.933s.423,1.539.468,2.129-.121,5.482-.121,5.482c0,0,.531,2.879-1.534,2.708,0,0,.969-2.455.69-3.344s-.69-6.043-.69-6.043Z"/><path class="cls-36" d="M587.289,275.225s-2.498.326-3.242-.244c0,0-1.195.564-1.946,2.852-.13.397-2.862,11.421-2.862,11.421,0,0-.143,4.689.045,5.425s.743,3.616.732,5.213,1.245,13.832,1.245,13.832l1.534-.008s-1.253.499-1.254,1.318,1.171,1.943,2.514,1.648,1.232-.076,1.232-.076l.011.31h1.983s-1.597.61-1.612,1.284.543,1.677,2.309,1.675,2.853-.789,2.751-1.476-1.334-1.57-1.334-1.57l.379.087.41-14.428s-.836-10.473-.879-11.044.049-.891.049-.891c0,0,.004-1.876-.152-3.373-.155-1.497-.52-1.948-.52-1.948l.7.976,4.23-2.679-6.322-8.306Z"/><path class="cls-36" d="M585.56,267.38s.884-1.554,2.243-.828,1.918,2.714,1.615,3.161c0,0,.124.413.504.302,0,0,1.059.496,1.424-.533.619-1.746-2.982-7.754-7.09-4.644,0,0-2.549.966-2.761,3.179-.211,2.213.488,2.439.488,2.439,0,0,.764-.283.989.084s.892.643.892.643l.65-.349s-1.441-3.305,1.046-3.454Z"/><path class="cls-17" d="M589.545,278.467l3.124-.369s1.733-2.097,3.275-.754c.23.2.156,1.313-.844,1.421,0,0,.523.237.453.562s-1.566.171-1.566.171l-2.953.887-1.489-1.918Z"/><path class="cls-17" d="M592.633,284.046l-2.067,1.38s.505,1.501,2.257,1.699,8.457-1.901,8.457-1.901c0,0,2.076.555,2.665-.66s-.522-1.865-1.251-1.755c0,0,.642-.4.119-.703s-1.872.692-1.872.692c0,0-4.868,1.503-6.588,1.376s-1.824-.139-1.824-.139"/><path class="cls-36" d="M585.83,271.418c0,.395.088.715.475.715.392,0,.475-.32.475-.715s-.213-.715-.475-.715-.475.32-.475.715Z"/><path class="cls-36" d="M588.748,271.016c0,.395.088.715.475.715.392,0,.475-.32.475-.715s-.213-.715-.475-.715-.475.32-.475.715Z"/><path class="cls-36" d="M599.145,167.276c-.216.33-.317.646.006.858.327.214.572-.008.788-.338s.213-.714-.006-.858-.572.008-.788.338Z"/><path class="cls-36" d="M431.599,152.116s.545,2.485-.654,1.544l-1.198-1.871,1.852.327Z"/><polygon class="cls-28" points="326.983 153.564 314.925 150.544 321.509 139.792 329.624 141.778 326.983 153.564"/><polygon class="cls-28" points="306.776 147.82 295.655 143.731 307.823 134.861 315.864 137.642 306.776 147.82"/><polygon class="cls-28" points="346.227 156.331 333.218 154.935 334.486 143.175 343.423 144.596 346.227 156.331"/><polygon class="cls-28" points="364.218 156.123 353.054 156.891 348.673 145.064 357.303 145.064 364.218 156.123"/><polygon class="cls-28" points="381.581 152.203 370.212 155.201 362.412 145.29 372.207 143.332 381.581 152.203"/><line class="cls-5" x1="428.041" y1="151.896" x2="424.616" y2="149.967"/><path class="cls-5" d="M425.494,112.03c.631.039,1.532-.145,2.787-.769.59-.293.983.51.983.51"/><path class="cls-5" d="M423.376,110.09s.842.403.817.938c-.003.067.008.146.036.23"/><path class="cls-5" d="M422.219,108.529c.15.312.338.635.567.968"/><path class="cls-5" d="M426.176,101.328s.549-.962,3.166.497c2.95,1.645,2.638,4.663,2.027,6.269s-1.689,2.248-.833,3.386"/><path class="cls-5" d="M437.959,129.871s3.735-2.281,4.172-3.21c.194-.413-2.116-3.521-3.531-6.061-3.572-6.416-7.813-9.121-7.813-9.121-.877.778-1.853.827-1.853.827,0,0-.393.714-.929,1.116"/><path class="cls-5" d="M428.559,119.591s-.149,10.022.705,11.159c0,0,3.597.053,6.878-.416"/><line class="cls-5" x1="427.241" y1="114.831" x2="423.526" y2="120.35"/><path class="cls-5" d="M429.101,118.715s-1.59,3.791-2.474,5.079c0,0-2.814-2.332-3.101-3.444l-.643.722"/><line class="cls-5" x1="421.138" y1="122.708" x2="419.511" y2="123.7"/><path class="cls-5" d="M416.575,125.044s-.881.288-1.214.528"/><path class="cls-5" d="M414.677,127.277s-.186.792.732,1.415c.918.623,2.108.242,2.108.242"/><line class="cls-5" x1="428.372" y1="123.562" x2="424.235" y2="129.852"/><path class="cls-5" d="M442.131,126.661s-.395,13.594-.874,14.498"/><path class="cls-5" d="M441.148,144.06l-.358,10.665s-1.794.005-3.047-.943"/><line class="cls-5" x1="435.681" y1="134.695" x2="435.768" y2="136.909"/><line class="cls-5" x1="435.768" y1="138.74" x2="436.142" y2="149.025"/><line class="cls-5" x1="436.203" y1="132.964" x2="434.594" y2="135.902"/><path class="cls-5" d="M434.059,137.717s-1.442,6.002-1.462,7.129-.998,7.24-.998,7.24c0,0-.773.257-1.852-.327"/><line class="cls-5" x1="428.957" y1="134.695" x2="427.501" y2="147.88"/><path class="cls-5" d="M440.79,154.725s.368,1.89-.443,1.972"/><path class="cls-5" d="M431.233,153.782c1.028,0,.366-1.696.366-1.696"/><path class="cls-5" d="M299.114,88.078c.097-.316.349-.546.656-.562.409-.021.761.349.785.826s-.164.777-.485,1.064c-.463.413-.785.233-.862.101"/><path class="cls-5" d="M296.655,91.389c.418-.302,0-.86,0-.86-1.242-.095-3.766-1.097-3.694-1.941s-.16-1.891-.16-1.891"/><path class="cls-5" d="M292.801,86.196s-.951-2.526,1.628-4.251c2.619-1.751,4.45.061,4.45.061"/><path class="cls-5" d="M299.311,82.123s.837-.343,1.934,1.337c1.361,2.084-.061,4.653-.609,5.129"/><path class="cls-5" d="M298.66,91.635c2.156.469,5.196,6.541,5.657,8.686s.626,2.506-3.76,3.261c-4.259.733-4.391,1.356-4.391,1.356"/><path class="cls-5" d="M298.463,94.552s.555,3.451,1.243,4.241"/><path class="cls-5" d="M292.977,99.227c-1.244-1.936-2.548-3.083-2.548-3.083,2.076-1.108,5.851-4.391,5.851-4.391,0,0,1.156.904,2.38-.119"/><path class="cls-5" d="M292.978,99.229c.571-.415.922-.811.922-.811"/><path class="cls-5" d="M283.604,96.132s5.045,3.352,6.688,3.082c.777-.128,1.469-.515,1.982-.887"/><line class="cls-5" x1="302.798" y1="106.277" x2="302.587" y2="103.262"/><path class="cls-5" d="M294.354,97.002s-1.182,3.315-1.783,6.26c-.062.302-.107.631-.086.926"/><line class="cls-5" x1="302.779" y1="106.881" x2="302.207" y2="119.579"/><line class="cls-5" x1="292.479" y1="105.533" x2="291.843" y2="110.499"/><line class="cls-5" x1="296.823" y1="109.381" x2="297.58" y2="114.319"/><line class="cls-5" x1="297.064" y1="111.179" x2="296.823" y2="113.815"/><path class="cls-5" d="M283.604,96.132c-2.123.192-2.399-.87-1.858-1.953.385-.771,1.477-.646,1.477-.646,0,0-.382-.396-.101-.879s1.479.393,1.479.393c.501.614.66,1.542.66,1.542,0,0,4.439,1.892,4.908,1.74l.47-.152"/><path class="cls-5" d="M295.616,105.278c-2.012.706-2.67-.045-2.41-1.227.185-.842,1.274-.988,1.274-.988,0,0-.468-.291-.313-.828.155-.537,1.724.347,1.724.347,0,0,4.792-1.883,6.108-1.883"/><line class="cls-5" x1="427.814" y1="124.633" x2="428.566" y2="125.085"/><path class="cls-23" d="M336.658-3.554s1.387.056,1.679,1.442,1.415,7.421,1.887,7.707,3.554,2.336,3.46,2.516-.635,3.779-.635,3.779c0,0-5.656-3.574-5.791-4.361s-.626-4.311-.626-4.311c0,0-1.385,6.746-2.171,8.142-.516.916-1.147,1.723-1.147,1.723l-8.109.397s-.433-1.259,0-3.809c.742-4.368,9.758-12.253,10.642-12.901"/><path class="cls-5" d="M326.446,17.049c.995,2.782,2.286,6.44,2.758,7.995.124.407.134.835.036,1.25-.488,2.077-1.879,8.751-1.495,10.408l5.136-.991s1.511-8.669,1.467-10.264c-.044-1.595-1.086-12.365-1.086-12.365l-8.091.429s.043,1.942,1.138,6.324,1.368,5.95,1.368,5.95l.047,8.439"/><path class="cls-5" d="M331.652,36.024s1.917-.492,2.27.751c.353,1.243-.028,2.37-2.591,2.979s-3.167-.018-3.48-.705c-.313-.687-.106-2.346-.106-2.346l3.907-.679Z"/><path class="cls-23" d="M338.477-2.625s4.287,4.256,5.206,4.261c.919.005,4.093.149,4.093.149l-.292,3.436s-3.846-.548-5.209-1.004-3.317-3.26-3.317-3.26"/><path class="cls-23" d="M347.782,4.491c.221.545,2.122,1.124,2.237.551s-1.363-.409-.79-.491c.572-.082,2.395.066,1.936-.954-.601-1.335-3.43-1.532-3.43-1.532"/><path class="cls-23" d="M343.442,9.377s3.455-.408,3.162,1.738c-.18,1.312-2.27,1.661-3.478.259"/><path class="cls-23" d="M343.49,9.241s1.307-.4,1.586-.467c.527-.127.807.361.392.573"/><path class="cls-5" d="M333.308,33.186c.279.123.512.337.614.697.231.814.147,1.579-.658,2.18"/><path class="cls-5" d="M293.041,104.678c-.355-.275-.562-.469-.562-.469l-.083,1.22s2.615,1.639,4.547,1.917c1.659.24,5.11.215,5.836-.465.084-.079-.028-.633,0-.744,0,0-2.353.838-5.956.337-.773-.107-1.747-.536-2.403-.883"/><path class="cls-5" d="M299.706,98.793s.883-.493,1.232-.374,2.208-.462,2.208-.462"/><path class="cls-5" d="M300.822,98.677s.558,1.64.511,1.883"/><path class="cls-5" d="M298.415,91.495c-.335,0-.417-1.092-.417-1.092,0,0,.616-.232.849-.349"/><path class="cls-5" d="M293.546,85.003s-.186,1.203.257,1.361"/><path class="cls-5" d="M294.812,85.406s-.22,1.215.338,1.398"/><path class="cls-5" d="M296.359,86.105s-.177.714.423,1.065"/><path class="cls-5" d="M297.984,86.804c.29,1.423.863,1.322.863,1.322"/><line class="cls-5" x1="295.534" y1="106.138" x2="295.532" y2="106.98"/><line class="cls-5" x1="296.944" y1="106.491" x2="296.944" y2="107.346"/><line class="cls-5" x1="422.939" y1="124.633" x2="425.055" y2="122.583"/><polyline class="cls-5" points="429.264 130.75 429.224 132.035 429.14 132.831"/><path class="cls-5" d="M437.818,130.807c1.853-.838,3.332-2.11,4.332-3.007"/><path class="cls-5" d="M429.239,131.55s3.386-.05,6.443-.282c.157-.012.31-.026.46-.043"/><line class="cls-5" x1="427.632" y1="121.963" x2="428.372" y2="123.005"/><path class="cls-5" d="M425.992,123.359s-2.086,3.723-2.616,3.81l-.53.087"/><path class="cls-5" d="M426.176,101.328s-1.721-.358-2.937.549c-1.216.906-2.041,1.952-2.101,4.323-.06,2.371.869,2.7.869,2.7"/><path class="cls-5" d="M422.612,107.478c.139.837.353,1.544.765,1.627"/><path class="cls-5" d="M423.997,108.005s.307,1.321.611,1.373"/><path class="cls-5" d="M425.055,108.691s.256.172.708.27c.357.077.093-.712.393-.872.4-.213.926-.008,1.175.458s.202.855.015,1.294c-.269.632-.677.603-.816.507"/><path class="cls-5" d="M428.005,110.09s.381.619,1.259.898"/><path class="cls-5" d="M582.263,181.628c1.364-4.451,9.656-11.697,10.501-12.317"/><path class="cls-5" d="M590.47,183.703s-.901.603-3.225,0c-2.324-.603-4.982-2.075-4.982-2.075-.061.201-.181.671-.213.859,0,0,.921.625,3.155,1.499,2.308.903,3.504,1.028,5.091.551"/><path class="cls-5" d="M584.876,185.979c.949,2.575,1.304,7.291,1.755,8.73.118.377-.144,2.755-.237,3.139-.466,1.922-1.432,6.237-1.066,7.77l4.9-.917s1.353-8.143,1.31-9.619-1.308-10.322-1.308-10.322"/><path class="cls-5" d="M582.122,182.714c-.952,0,1.366,11.75,1.366,11.75-.429.753-1.797,7.505-1.793,9.246,0,.187.111.349.298.349h2.883"/><path class="cls-5" d="M589.055,204.991s1.829-.455,2.166.695-.026,2.193-2.472,2.757c-2.446.563-3.021-.017-3.32-.653-.299-.636-.101-2.171-.101-2.171l3.727-.628Z"/><path class="cls-5" d="M585.295,207.324c-.254.043-.536.074-.85.092-2.506.146-2.976-.523-3.164-1.2s.264-2.157.264-2.157l3.544.005"/><path class="cls-5" d="M583.196,270.907c-.097-.316-.349-.546-.656-.562-.409-.021-.761.349-.785.826-.024.477.164.777.485,1.064.463.413.785.233.862.101"/><path class="cls-5" d="M590.728,270.344c-.057.603-.272,1.015-.105,1.277s-.252,2.229-3.442,2.229c-.976,0-.401.994-.401.994,0,0,.164.291.509.381"/><path class="cls-5" d="M583.196,272.548s.625.903,1.558,1.008.419.712.419.712c0,0-.45.697-.868.715"/><path class="cls-5" d="M583.92,265.016c-2.637,1.001-2.846,4.104-1.937,5.439"/><path class="cls-5" d="M589.154,290.555c.689-.139-.406-5.828-.406-5.828"/><path class="cls-5" d="M585.173,313.628l-3.913.096s-1.434-17.515-1.871-18.643c-.437-1.128-.203-4.91-.203-4.91l.097-.834s.586,1.101,2.922,1.555c2.336.453,7.032-.337,7.032-.337l.078,1.039c-.202.82.847,9.064.867,11.015.021,1.952-.409,14.307-.409,14.307h-4.476s-.457-12.332-.464-13.593-1.671-8.807-1.671-8.807"/><ellipse class="cls-5" cx="588.198" cy="318.4" rx="2.53" ry="1.483"/><path class="cls-5" d="M585.286,316.492c-.413.171-.688.191-1.232.191-1.397,0-2.53-.664-2.53-1.483s1.133-1.483,2.53-1.483c.507,0,.736.006,1.131.156"/><path class="cls-5" d="M589.201,291.316s-3.305.872-7.17.279c-2.58-.396-2.748-1.423-2.748-1.423"/><path class="cls-5" d="M585.258,267.389c-.383-.081-1.325.395-1.185,1.79s.372,1.524.372,1.524"/><path class="cls-5" d="M585.676,267.238s.755-1.476,2.127-.686c1.371.79,1.894,2.696,1.615,3.161"/><path class="cls-5" d="M584.326,264.837s.394-.734,2.286-.744c2.097-.011,3.607,1.261,4.404,3.406s-.098,2.517-.098,2.517"/><path class="cls-5" d="M583.585,270.344s.081.579.279.671"/><path class="cls-5" d="M590.128,269.042s.127.765-.082.881"/><path class="cls-5" d="M590.231,184.76s.579-2.024,1.14-2.617,1.053-2.871,1.053-2.871"/><path class="cls-5" d="M597.172,165.567c.021-.329-.133-.635-.415-.758-.375-.164-.835.057-1.027.494s-.122.785.076,1.166c.286.551.652.496.771.4"/><path class="cls-5" d="M600.916,167.519s-.915.782-.743,1.145-1.444,1.931-3.076.906c-1.632-1.025-2.186.369-2.099.625"/><path class="cls-5" d="M593.763,167.261c.049.013.819.668,0,1.365"/><path class="cls-5" d="M600.97,161.812s1.758.581,1.521,3.309c-.151,1.744-1.277,2.136-1.277,2.136"/><path class="cls-5" d="M600.344,161.379s-1.079-1.744-3.661-1.537c-2.582.207-3.875,2.274-4.31,3.719-.435,1.445.694,3.093.694,3.093"/><path class="cls-5" d="M592.705,174.926s-.741,3.15-.203,3.992c0,0,2.151-.404,2.728-.711s1.305-.394,1.305-.394"/><path class="cls-5" d="M593.318,168.984c.287.598.783,1.069,1.395,1.324l.284.118c.293,1.386,1.065,7.101,1.537,7.387.472.286,5.121,1.632,5.026,1.812"/><path class="cls-5" d="M601.908,176.708s-4.529-.054-5.892-.511"/><path class="cls-5" d="M598.06,174.363c.919.005,4.052.817,4.052.817"/><path class="cls-5" d="M595.23,171.734c1.084.953,1.944,1.518,2.603,2.085,0,0-.841,1.138-1.817,1.738"/><path class="cls-5" d="M601.908,176.708c.221.545,2.373,1.635,2.488,1.062s-1.363-.409-.79-.491,2.395.066,1.936-.954c-.601-1.335-3.43-1.145-3.43-1.145"/><path class="cls-5" d="M589.664,278.453c.511.026,1.171.002,1.914-.178.346-.084.821-.104,1.09-.213,0,0,1.089-1.303,2.413-1.165,1.631.171.941,1.813.07,1.831-.667.013.471-.017.506.506s-1.726.22-1.726.22c0,0-1.429.617-2.833.896"/><path class="cls-5" d="M601.164,282.71s1.473-1.122,1.833-.447c.213.399-.526.541-.526.541,0,0,1.287.064,1.579.727s-.473,2.377-2.739,1.704"/><path class="cls-5" d="M587.347,281.634s.709,3.009,1.952,4.547l4.054-2.652-6.064-8.303c-1.721.53-3.242-.244-3.242-.244,0,0-.697-.016-1.83,2.546-.539,1.218-2.978,11.728-2.978,11.728"/><path class="cls-5" d="M601.311,285.234s-6.626,2.202-8.67,1.921c-.704-.097-1.518-.959-2.171-1.767"/><path class="cls-5" d="M592.978,284.229c.998.017,2.157-.035,3.433-.225,1.912-.285,3.514-.795,4.752-1.295"/><path class="cls-5" d="M593.763,178.651c.057.365.022,1.063,1.626,1.446s5.079,1.022,5.311,1.277.313.592,1.041,1.071c1.448.952,3.165.174,2.978-.928-.288-1.695-2.207-1.42-2.207-1.42.875.016.664-.25.406-.471-.161-.138-1.178,0-1.178,0"/><path class="cls-5" d="M599.525,163.85s-1.586,1.855-2.367,1.485"/><path class="cls-5" d="M600.219,163.85c.472.604-.827,2.278-.127,2.557"/><path class="cls-5" d="M600.7,165.843s-.325.916,0,1.088"/><line class="cls-5" x1="594.989" y1="166.29" x2="594.138" y2="166.569"/><path class="cls-5" d="M712.947,259.036c-.142-.26-.414-.42-.701-.381-.382.052-.646.436-.589.859s.281.654.626.851c.497.284.765.071.815-.058"/><path class="cls-5" d="M720.987,258.334c.382.052.494.396.437.818s-.281.654-.626.851c-.216.123-.276.157-.406.14"/><path class="cls-5" d="M712.736,260.664c-.26.381.418,1.393,1.683,1.584.791.119,1.379.473.935,1.475"/><path class="cls-5" d="M717.093,263.723c.083-.273-.896-1.024.458-1.297,2.349-.474,3.829-3.26,3.157-5.54-.627-2.127-1.701-2.081-1.701-2.081,0,0-2.297-2.258-5.433.082"/><path class="cls-5" d="M720.948,272.032c.14.571.154.64.344,1.39.41,1.622.003,4.617.003,6.203"/><path class="cls-5" d="M711.079,270.867c.477-1.07,1.458-3.266,2.047-4.587.801-1.796,1.327-1.971,1.993-2.433,0,0,.583.482,1.946,0"/><path class="cls-5" d="M712.676,273.755c-.074.776-1.7,1.308-2.464.895-.704-.381-4.288-4.535-4.288-4.535"/><path class="cls-5" d="M720.55,279.751c-.22-2.177-.824-7.89-1.278-9.621"/><path class="cls-5" d="M711.679,275.081s-.337,4.99-.113,5.3c.214.297,5.323,1.317,8.703.18"/><path class="cls-5" d="M711.484,280.266s.006.857,0,1.206,2.254,10.14,2.703,11.711c.449,1.571,2.081,8.709,2.081,8.709,0,0,3.047-.695,4.239-.798,0,0-1.058-7.682-1.774-9.542l-1.129-8.35"/><path class="cls-5" d="M720.443,280.126s.109.757-.513,1.759-1.911,3.787-1.911,3.787"/><path class="cls-5" d="M712.478,286.565s-.613,1.44-.762,2.492c-.149,1.052-1.247,8.86-1.247,8.86l3.836.82.585-2.873"/><path class="cls-5" d="M715.898,301.796s-1.88-.142-2.019,1.048.394,2.158,2.899,2.303,2.976-.523,3.164-1.2-.264-2.157-.264-2.157l-3.78.005Z"/><path class="cls-5" d="M710.324,297.956s-2.102-.189-2.504.94c-.5,1.404.814,2.109,3.247,2.723,2.418.61,2.865-.394,3.013-1.08.189-.881-.089-1.665-.089-1.665l-3.667-.918Z"/><path class="cls-5" d="M705.924,270.115s-2.878-.715-2.065-2.139c.356-.624,1.077-.752,1.53-.485.362.213.802.569.802.569,0,0-.31-.624.139-.557.232.035.779.525.964,1.515l4.138,3.33"/><path class="cls-5" d="M716.5,262.387s-.031.399.42.324"/><path class="cls-5" d="M713.231,255.179s-2.18,1.916-1.236,3.567"/><path class="cls-5" d="M719.67,282.333c2.26,0,1.624-2.708,1.624-2.708"/><path class="cls-5" d="M714.889,267.619s-.581,6.229-1.507,6.647c0,0-2.407-2.013-2.41-3.447"/><path class="cls-5" d="M719.761,272.947l1.687-1.288s-2.436-7.811-4.383-7.811"/><path class="cls-5" d="M711.491,279.625s4.742,1.124,9.059.125"/><path class="cls-5" d="M713.399,259.784s1.116,1.759,2.634,2.201"/><polyline class="cls-23" points="325.054 12.275 333.733 12.012 333.263 13.083"/><line class="cls-3" x1="485.347" y1="338.874" x2="487.159" y2="351.323"/><line class="cls-3" x1="505.388" y1="354.31" x2="487.159" y2="351.323"/><ellipse class="cls-29" cx="494.624" cy="296.77" rx="8.524" ry="7.163"/><rect class="cls-19" x="424.166" y="169.508" width="143.352" height="103.91" rx="15.013" ry="15.013"/><path class="cls-20" d="M551.385,169.508c8.291,0,15.013,6.722,15.013,15.013v73.884c0,8.291-6.722,15.013-15.013,15.013h-113.326c-8.291,0-15.013-6.722-15.013-15.013v-75.461c0-7.42,6.015-13.436,13.436-13.436h70.208"/><polygon class="cls-25" points="495.939 284.769 483.198 262.702 508.679 262.702 495.939 284.769"/></g></g></g></svg>