<?xml version="1.0" encoding="UTF-8"?><svg xmlns="http://www.w3.org/2000/svg" width="917.04" height="587.937" viewBox="0 0 917.04 587.937"><defs><style>.cls-1{fill:#657276;}.cls-2{stroke:#1e57a0;stroke-width:2px;}.cls-2,.cls-3,.cls-4,.cls-5,.cls-6,.cls-7{fill:none;}.cls-2,.cls-6,.cls-7,.cls-8{stroke-miterlimit:10;}.cls-9{letter-spacing:-.48em;}.cls-3{stroke:#5accf9;stroke-width:6.943px;}.cls-3,.cls-4,.cls-5,.cls-10,.cls-11{stroke-linecap:round;stroke-linejoin:round;}.cls-12{fill:#78a6af;}.cls-4,.cls-11{stroke:#296fc2;stroke-width:.174px;}.cls-13,.cls-14,.cls-11,.cls-15{fill:#fff;}.cls-16{fill:#cae5f7;}.cls-17{fill:#296fc2;}.cls-18{fill:#e1e1e1;}.cls-5{stroke:#a6a6a6;stroke-width:1.655px;}.cls-19,.cls-14{font-size:16px;}.cls-19,.cls-20{font-family:PA1GothicStdN-Light, 'PA1GothicStdN Light-90ms-RKSJ-H';font-weight:300;}.cls-19,.cls-20,.cls-21,.cls-8{fill:#030000;}.cls-22{letter-spacing:-.48em;}.cls-23{isolation:isolate;}.cls-14{font-family:PA1GothicStdN-Medium, 'PA1GothicStdN Medium-90ms-RKSJ-H';font-weight:500;letter-spacing:.05em;}.cls-24{letter-spacing:.02em;}.cls-10{fill:#d2d2d2;stroke:#d2d2d2;stroke-width:1.148px;}.cls-25{fill:#c5c5c5;}.cls-26{fill:#5accf9;}.cls-6{stroke-width:1.736px;}.cls-6,.cls-8{stroke:#030000;}.cls-27{fill:#cce6f7;}.cls-28{fill:#e4f2f5;}.cls-15{opacity:.6;}.cls-29{fill:#7fc7f9;}.cls-30{fill:#1e57a0;}.cls-31{fill:#a3daf6;}.cls-7{stroke:#fff;stroke-width:.778px;}.cls-32{fill:#4ba2f1;}.cls-20{letter-spacing:.2em;}.cls-20,.cls-21{font-size:22px;}.cls-21{font-family:PA1GothicStdN-Bold, 'PA1GothicStdN Bold-90ms-RKSJ-H';font-weight:700;letter-spacing:.1em;}.cls-8{stroke-width:1.157px;}.cls-33{mix-blend-mode:multiply;opacity:.5;}</style></defs><g class="cls-23"><g id="_レイヤー_1"><g class="cls-33"><path class="cls-1" d="M599.957,389.04l-194.762-112.623-8.381-33.455c-.617-2.462-2.729-4.259-5.258-4.474l-60.886-5.166-14.319-8.28c-15.493-8.959-34.603-8.912-50.052.124L24.925,366.349c-16.478,9.638-16.419,33.474.107,43.031l283.606,163.998c15.493,8.959,34.603,8.911,50.052-.125l241.375-141.182c16.478-9.638,16.419-33.474-.107-43.031Z"/></g><path class="cls-28" d="M599.957,373.998l-194.762-112.623-8.381-33.455c-.617-2.462-2.729-4.259-5.258-4.474l-60.886-5.166-14.319-8.28c-15.493-8.959-34.603-8.912-50.052.124L24.925,351.307c-16.478,9.638-16.419,33.474.107,43.031l283.606,163.998c15.493,8.959,34.603,8.911,50.052-.125l241.375-141.182c16.478-9.638,16.419-33.474-.107-43.031Z"/><path class="cls-3" d="M376.714,223.424h18.714s-45.493,28.192-45.493,28.192l-30.071-20.277c-4.078-2.75-9.351-2.987-13.659-.616l-82.606,45.471"/><ellipse class="cls-26" cx="312.494" cy="230.07" rx="10.118" ry="8.503"/><path class="cls-13" d="M204.609,310.926c0,3.394-.159,10.68,5.44,8.821,5.155-1.711,7.982-7.494,8.393-11.575.411-4.081-1.426-3.941-2.327-3.924-2.587.048-11.506,3.358-11.506,6.677Z"/><path class="cls-18" d="M216.292,313.637c-4.089.919-10.314,3.998-8.976,8.441,1.255,4.167,9.782,7.499,16.225,5.517,11.41-3.51,12.824-7.584,6.373-11.263-5.866-3.345-11.453-3.183-13.623-2.696Z"/><path class="cls-13" d="M320.703,245.937c0,3.394-.159,10.68,5.44,8.821,5.155-1.711,7.982-7.494,8.393-11.575.411-4.081-1.426-3.941-2.327-3.924-2.587.048-11.506,3.358-11.506,6.677Z"/><path class="cls-18" d="M332.386,248.648c-4.089.919-10.314,3.998-8.976,8.441,1.255,4.167,9.782,7.499,16.225,5.517,11.41-3.51,12.824-7.584,6.373-11.263-5.866-3.345-11.453-3.183-13.623-2.696Z"/><path class="cls-13" d="M262.744,277.829c0,3.394-.159,10.68,5.44,8.821,5.155-1.711,7.982-7.494,8.393-11.575.411-4.081-1.426-3.941-2.327-3.924-2.587.048-11.506,3.358-11.506,6.677Z"/><path class="cls-18" d="M274.426,280.54c-4.089.919-10.314,3.998-8.976,8.441,1.255,4.167,9.782,7.499,16.225,5.517,11.41-3.51,12.824-7.584,6.373-11.263-5.866-3.345-11.453-3.183-13.623-2.696Z"/><polygon class="cls-10" points="196.728 363.935 196.728 337.764 201.37 340.499 196.728 363.935"/><polygon class="cls-10" points="241.157 390.106 241.157 363.935 236.514 361.179 241.157 390.106"/><path class="cls-13" d="M404.133,269.402c-.016-.027-.045-.042-.066-.066-.036-.041-.066-.087-.114-.115l-45.338-26.276c-.155-.09-.347-.09-.501,0l-161.637,94.387c-.153.089-.247.252-.247.429s.093.341.245.43l44.183,26.026v25.887c0,.26.2.476.459.497.014,0,.027.002.04.002.243,0,.453-.176.492-.421l4.553-28.599,43.809-25.411,4.543,23.281c.003.017.013.03.018.046.008.027.017.052.03.076.015.029.032.056.051.081.016.021.031.04.05.058.024.023.051.042.08.06.021.013.041.026.064.036.034.015.07.022.107.029.017.003.032.012.05.014.013,0,.026.002.039.002,0,0,0,0,0,0h0s0,0,0,0c.016,0,.031,0,.047-.002.021-.002.039-.013.059-.017.032-.007.063-.014.093-.027.025-.011.047-.026.069-.041.027-.017.052-.035.075-.057.02-.019.035-.04.052-.062.018-.025.035-.05.049-.079.013-.026.021-.054.029-.082.005-.018.015-.034.018-.053l4.589-28.826c.016-.097,0-.194-.039-.281l47.89-27.777,4.446,22.787c.003.017.013.03.018.046.008.027.017.052.03.076.015.029.032.056.051.081.016.021.031.04.05.058.024.023.051.042.08.06.021.013.041.026.064.036.034.015.07.022.107.029.017.003.032.012.05.014.013,0,.026.002.039.002,0,0,0,0,0,0h0s0,0,0,0c.016,0,.031,0,.047-.002.021-.002.039-.013.059-.017.032-.007.063-.014.093-.027.025-.011.047-.026.069-.041.027-.017.052-.035.075-.057.02-.019.035-.04.052-.062.018-.025.035-.05.049-.079.013-.026.021-.054.029-.082.005-.018.015-.034.018-.053l4.546-28.554,41.536-24.092,3.727,23.226c.039.243.249.42.492.42.013,0,.027,0,.04-.002.259-.02.459-.237.459-.497v-26.171c0-.09-.025-.176-.069-.251Z"/><path class="cls-13" d="M371.817,432.484c2.045,1.456,4.341,1.619,5.37,5.693,1.028,4.074.715,13.185-4.884,10.844-5.155-2.155-7.982-9.439-8.393-14.579-.411-5.14.581-6.487,1.922-6.338,2.577.287,3.54,2.638,5.985,4.379Z"/><path class="cls-18" d="M366.061,442.989c4.089.919,10.314,3.998,8.976,8.441-1.255,4.167-9.782,7.499-16.225,5.517-11.41-3.51-12.824-7.584-6.373-11.263,5.866-3.345,11.453-3.183,13.623-2.696Z"/><polyline class="cls-5" points="360.328 449.934 360.328 463.678 356.195 464.151 356.195 464.951"/><polyline class="cls-5" points="360.328 463.752 359.772 467.619 359.772 468.419"/><polyline class="cls-5" points="360.328 463.678 364.732 464.151 364.732 464.951"/><polyline class="cls-5" points="360.328 463.752 360.839 461.695 360.839 462.496"/><polygon class="cls-10" points="289.424 488.947 289.424 462.76 294.069 465.496 289.424 488.947"/><polygon class="cls-10" points="333.879 515.133 333.879 488.947 329.234 486.188 333.879 515.133"/><path class="cls-13" d="M377.494,464.175c0-.177-.092-.342-.245-.432l-44.462-26.222c-.154-.091-.347-.092-.502-.003l-43.109,24.81c-.154.089-.249.252-.25.429,0,.178.092.343.245.432l44.21,26.041v25.902c0,.26.2.476.459.497.014,0,.027.002.04.002.243,0,.453-.176.492-.421l4.551-28.587,33.108-19.024,4.476,22.938c.046.236.253.403.489.403.016,0,.032,0,.049-.002.255-.025.45-.239.45-.497v-26.187c0-.015-.01-.026-.011-.041.001-.014.011-.026.011-.04Z"/><path class="cls-27" d="M341.913,445.611l-9.466,5.41c-.394.225-.394.793,0,1.018l13.726,7.849c.18.103.401.103.581,0l9.438-5.358c.394-.224.396-.791.003-1.018l-13.698-7.901c-.181-.104-.403-.105-.584-.001Z"/><polygon class="cls-13" points="188.893 488.815 491.788 312.707 491.788 256.16 188.893 432.269 188.893 488.815"/><polygon class="cls-18" points="342.264 399.727 477.891 477.796 477.891 421.908 342.264 343.178 342.264 399.727"/><path class="cls-13" d="M524.189,338.978c2.045,1.456,4.341,1.619,5.37,5.693,1.028,4.074.715,13.185-4.884,10.844-5.155-2.155-7.982-9.439-8.393-14.579-.411-5.14.581-6.487,1.922-6.338,2.577.287,3.54,2.638,5.985,4.379Z"/><path class="cls-18" d="M518.433,349.484c4.089.919,10.314,3.998,8.976,8.441-1.255,4.167-9.782,7.499-16.225,5.517-11.41-3.51-12.824-7.584-6.373-11.263,5.866-3.345,11.453-3.183,13.623-2.696Z"/><polyline class="cls-5" points="512.7 370.247 512.144 374.113 512.144 374.914"/><polyline class="cls-5" points="512.7 370.172 517.104 370.645 517.104 371.446"/><polyline class="cls-5" points="512.7 370.247 513.211 368.19 513.211 368.99"/><polygon class="cls-10" points="445.156 396.166 445.156 369.979 449.801 372.715 445.156 396.166"/><polygon class="cls-10" points="489.611 422.352 489.611 396.166 484.966 393.407 489.611 422.352"/><polygon class="cls-13" points="489.611 422.352 489.611 396.166 494.202 393.509 489.611 422.352"/><polygon class="cls-13" points="532.727 397.661 528.135 374.132 532.727 371.475 532.727 397.661"/><polygon class="cls-13" points="488.264 345.169 445.156 369.979 489.611 396.166 532.727 371.391 488.264 345.169"/><path class="cls-27" d="M497.645,352.83l-9.466,5.41c-.394.225-.394.793,0,1.018l13.726,7.849c.18.103.401.103.581,0l9.438-5.358c.394-.224.396-.791.003-1.018l-13.698-7.901c-.181-.104-.403-.105-.584-.001Z"/><path class="cls-18" d="M459.918,393.725c.66.844,7.64.514,9.149.589,1.21.061,1.042,1.431.81,2.357-1.237.527-2.651,1.047-4.298,1.553-3.002.923-6.449.684-9.409-.247-.018-2.119,3.235-4.91,3.749-4.253Z"/><path class="cls-13" d="M453.756,380.649c2.588,1.456,6.834,2.603,8.136,6.677,1.302,4.074.905,13.185-6.182,10.844-6.525-2.155-10.104-9.439-10.625-14.579-.52-5.14.908-6.945,2.433-6.338,1.525.607,3.143,1.654,6.238,3.395Z"/><polygon class="cls-27" points="372.83 265.452 362.181 271.537 377.088 280.061 387.708 274.033 372.83 265.452"/><polygon class="cls-27" points="213.905 325.902 203.256 331.988 218.163 340.512 228.783 334.483 213.905 325.902"/><polygon class="cls-27" points="203.256 331.988 203.256 336.525 218.163 345.049 218.163 340.512 203.256 331.988"/><polygon class="cls-13" points="228.783 334.483 218.163 340.512 218.163 345.049 228.783 339.02 228.783 334.483"/><path class="cls-27" d="M236.419,316.378l-9.353,5.345c-.432.247-.432.869,0,1.116l13.613,7.784c.197.113.439.113.636,0l9.325-5.294c.432-.245.434-.867.004-1.116l-13.585-7.836c-.198-.114-.442-.115-.64-.001Z"/><path class="cls-18" d="M272.983,356.953c-.66.844-7.609.074-9.118.149-1.21.061-1.069,1.563-.837,2.489.402.81,2.648,1.354,4.295,1.861,3.002.923,6.449.684,9.409-.247.018-2.119-3.235-4.91-3.749-4.253Z"/><path class="cls-13" d="M279.292,343.86c-2.588,1.456-6.834,2.603-8.136,6.677-1.302,4.074-.905,13.185,6.182,10.844,6.525-2.155,10.104-9.439,10.625-14.579.52-5.14-.908-6.945-2.433-6.338-1.525.607-3.143,1.654-6.238,3.395Z"/><path class="cls-18" d="M262.859,370.753c-.538,0-.974-.436-.974-.974v-.8c0-.488.362-.901.845-.965l5.134-.685v-8.353c0-.538.436-.974.974-.974s.974.436.974.974v9.206c0,.488-.362.901-.845.965l-5.136.685c-.027.513-.452.921-.972.921Z"/><path class="cls-18" d="M268.283,373.897c-.538,0-.974-.436-.974-.974v-.801c0-.047.003-.092.01-.138l.555-3.867c.076-.532.569-.901,1.102-.826.532.076.902.57.826,1.102l-.545,3.798v.731c0,.538-.436.974-.974.974Z"/><path class="cls-18" d="M274.063,370.753c-.526,0-.954-.417-.973-.938l-4.398-.671c-.532-.081-.897-.578-.816-1.109.081-.532.58-.896,1.109-.816l5.225.797c.475.072.827.481.827.963v.8c0,.538-.436.974-.974.974Z"/><path class="cls-18" d="M268.839,369.23c-.078,0-.157-.009-.236-.029-.522-.13-.84-.658-.709-1.18l.512-2.057c.118-.477.573-.791,1.063-.731.489.06.855.475.855.967v.8c0,.304-.139.575-.357.754l-.184.738c-.11.443-.507.739-.944.739Z"/><path class="cls-18" d="M356.529,278.175l-10.878,6.164c-.297.17-.297.599,0,.769l5.906,2.996c.171.098.38.098.552,0l10.809-6.088c.316-.179.318-.634.003-.816l-5.836-3.025c-.172-.099-.383-.099-.555-.001Z"/><path class="cls-18" d="M331.523,326.186c-.66.844-7.64.514-9.149.589-1.21.061-1.042,1.431-.81,2.357.402.81,2.651,1.047,4.298,1.553,3.002.923,6.449.684,9.409-.247.018-2.119-3.235-4.91-3.749-4.253Z"/><path class="cls-13" d="M337.685,313.11c-2.588,1.456-6.834,2.603-8.136,6.677-1.302,4.074-.905,13.185,6.182,10.844,6.525-2.155,10.104-9.439,10.625-14.579.52-5.14-.908-6.945-2.433-6.338-1.525.607-3.143,1.654-6.238,3.395Z"/><path class="cls-18" d="M321.399,339.986c-.538,0-.974-.436-.974-.974v-.8c0-.488.362-.901.845-.965l5.134-.685v-8.353c0-.538.436-.974.974-.974s.974.436.974.974v9.206c0,.488-.362.901-.845.965l-5.136.685c-.027.513-.452.921-.972.921Z"/><path class="cls-18" d="M326.823,343.131c-.538,0-.974-.436-.974-.974v-.801c0-.047.003-.092.01-.138l.555-3.867c.076-.532.569-.901,1.102-.826.532.076.902.57.826,1.102l-.545,3.798v.731c0,.538-.436.974-.974.974Z"/><path class="cls-18" d="M332.603,339.986c-.526,0-.954-.417-.973-.938l-4.398-.671c-.532-.081-.897-.578-.816-1.109.081-.532.58-.896,1.109-.816l5.225.797c.475.072.827.481.827.963v.8c0,.538-.436.974-.974.974Z"/><path class="cls-18" d="M327.379,338.463c-.078,0-.157-.009-.236-.029-.522-.13-.84-.658-.709-1.18l.512-2.057c.118-.477.573-.791,1.063-.731.489.06.855.475.855.967v.8c0,.304-.139.575-.357.754l-.184.738c-.11.443-.507.739-.944.739Z"/><path class="cls-18" d="M383.018,291.856c-.66.844-7.64.514-9.149.589-1.21.061-1.042,1.431-.81,2.357.402.81,2.651,1.047,4.298,1.553,3.002.923,6.449.684,9.409-.247.018-2.119-3.235-4.91-3.749-4.253Z"/><path class="cls-13" d="M389.18,278.78c-2.588,1.456-6.834,2.603-8.136,6.677-1.302,4.074-.905,13.185,6.182,10.844,6.525-2.155,10.104-9.439,10.625-14.579.52-5.14-.908-6.945-2.433-6.338-1.525.607-3.143,1.654-6.238,3.395Z"/><path class="cls-18" d="M372.894,305.656c-.538,0-.974-.436-.974-.974v-.8c0-.488.362-.901.845-.965l5.134-.685v-8.353c0-.538.436-.974.974-.974s.974.436.974.974v9.206c0,.488-.362.901-.845.965l-5.136.685c-.027.513-.452.921-.972.921Z"/><path class="cls-18" d="M378.318,308.8c-.538,0-.974-.436-.974-.974v-.801c0-.047.003-.092.01-.138l.555-3.867c.076-.532.569-.901,1.102-.826.532.076.902.57.826,1.102l-.545,3.798v.731c0,.538-.436.974-.974.974Z"/><path class="cls-18" d="M384.098,305.656c-.526,0-.954-.417-.973-.938l-4.398-.671c-.532-.081-.897-.578-.816-1.109.081-.532.58-.896,1.109-.816l5.225.797c.475.072.827.481.827.963v.8c0,.538-.436.974-.974.974Z"/><path class="cls-18" d="M378.874,304.133c-.078,0-.157-.009-.236-.029-.522-.13-.84-.658-.709-1.18l.512-2.057c.118-.477.573-.791,1.063-.731.489.06.855.475.855.967v.8c0,.304-.139.575-.357.754l-.184.738c-.11.443-.507.739-.944.739Z"/><path class="cls-18" d="M463.089,398.571v3.361c-.307.166-.512.489-.512.856v.8c0,.147.035.284.093.409l-3.979.607c-.475.072-.827.481-.827.963v.8c0,.538.436.974.974.974.526,0,.954-.417.973-.938l3.417-.521.416,2.899v.731c0,.538.436.974.974.974s.974-.436.974-.974v-.801c0-.047-.003-.092-.01-.138l-.383-2.669,3.871.516c.027.513.452.921.972.921.538,0,.974-.436.974-.974v-.8c0-.488-.362-.901-.845-.965l-5.134-.685v-5.724s-1.948.377-1.948.377Z"/><polygon class="cls-31" points="228.783 334.483 218.163 340.512 218.163 345.049 228.783 339.02 228.783 334.483"/><path class="cls-25" d="M247.191,342.689s0,.002,0,.003c0,.001,0,.002,0,.003,0,.022.014.04.018.062.008.042.014.085.036.121.013.021.035.033.051.051.025.028.045.059.078.079.003.002.008.001.011.003.003.002.004.005.007.006l1.182.603s.001,0,.002,0l2.384,1.216c.009.005.017.009.026.013l1.207.615c.02.014.04.022.062.032l1.283.654c.053.027.11.041.168.041.062,0,.124-.016.18-.048l10.583-5.887s.978-.485.105-.964l-5.75-2.998v-7.809c0-.131-.069-.253-.183-.319-.113-.067-.253-.068-.368-.005l-10.929,6.079c-.118.066-.191.19-.19.326l.037,8.122ZM247.896,334.783l10.187-5.667v7.188s-10.155,5.75-10.155,5.75l-.033-7.271Z"/><path class="cls-25" d="M343.127,467.05c0-.136-.072-.26-.19-.326l-10.929-6.079c-.114-.064-.255-.062-.368.005-.114.067-.183.188-.183.319v7.809l-5.75,2.998c-.873.479.105.964.105.964l10.583,5.887c.056.032.118.048.18.048.058,0,.116-.015.168-.041l1.283-.654c.022-.009.042-.018.062-.032l1.207-.615c.009-.005.017-.008.026-.013l2.384-1.216s.001,0,.002,0l1.182-.603s.004-.005.007-.006c.003-.002.008,0,.011-.003.033-.019.053-.051.078-.079.017-.018.039-.031.051-.051.022-.036.028-.079.036-.121.004-.021.018-.039.018-.062,0-.001,0-.002,0-.003,0-.001,0-.002,0-.003l.037-8.122ZM342.352,474.536l-10.155-5.75v-7.188l10.187,5.667-.033,7.271Z"/><polygon class="cls-16" points="332.402 461.95 332.402 469.138 342.557 474.888 342.59 467.617 332.402 461.95"/><polygon class="cls-27" points="247.888 334.844 247.921 342.115 258.076 336.365 258.076 329.177 247.888 334.844"/><polyline class="cls-18" points="386.25 368.19 386.25 325.437 414.404 309.11 414.404 357.632 391.342 371.005"/><polygon class="cls-18" points="264.439 445.126 236.284 461.453 236.284 413.03 264.439 396.802 264.439 445.126"/><path class="cls-18" d="M304.268,486.553c.66.844,7.64.217,9.149.292,1.21.061,1.042,1.727.81,2.653-1.237.527-2.651.75-4.298,1.257-3.002.923-8.619.651-9.248-1.252-.018-2.119,3.074-3.608,3.588-2.951Z"/><path class="cls-13" d="M298.106,473.477c2.588,1.456,6.834,2.603,8.136,6.677,1.302,4.074.905,12.888-6.182,10.547-6.525-2.155-10.104-9.142-10.625-14.282-.52-5.14.908-6.945,2.433-6.338,1.525.607,3.143,1.654,6.238,3.395Z"/><path class="cls-18" d="M307.457,491.079v3.566c-.307.166-.512.489-.512.856v.8c0,.147.035.284.093.409l-3.979.607c-.475.072-.827.481-.827.963v.8c0,.538.436.974.974.974.526,0,.954-.417.973-.938l3.417-.521.416,2.899v.731c0,.538.436.974.974.974s.974-.436.974-.974v-.801c0-.047-.003-.092-.01-.138l-.383-2.669,3.871.516c.027.513.452.921.972.921.538,0,.974-.436.974-.974v-.8c0-.488-.362-.901-.845-.965l-5.134-.685v-5.725s-1.948.174-1.948.174Z"/><path class="cls-26" d="M160.249,222.619l.069-.062-39.189-21.732c-6.323-3.353-16.411-.992-27.021,4.627l-1.068.566c-14.107,7.47-26.73,19.063-32.844,32.743l.421-1.035-1.975-1.159c-.869-.51-1.963.117-1.963,1.124v2.039c0,.871.461,1.676,1.212,2.117l.841.469c-.459,1.088-1.276,1.989-2.319,2.553-12.478,6.756-22.714,21.413-22.714,32.624v3.2c0,.804.339,1.343.882,1.612l-.011.009,38.885,22.459s2.126,1.526,4.19.379l7.943-4.412c1.177,2.774,4.75,3.268,8.965.914,4.196-2.344,7.738-6.793,8.915-10.846l20.9-11.609,19.679-10.931c1.078,2.723,4.415,3.274,8.376,1.061,3.944-2.203,7.294-6.469,8.428-10.395l4.708-2.615c1.703-.946,3.099-3.001,3.12-4.593l.165-12.265c.111-8.266-3.135-14.045-8.595-16.841Z"/><path class="cls-13" d="M107.175,240.898l-30.622-17.663c-.963-.528-2.109-.288-2.915.459-5.309,4.919-10.416,13.87-12.019,19.225-.366,1.221-.029,2.532,1.077,3.166l30.588,17.521c1.229.704,2.792.173,3.338-1.133,1.791-4.287,5.874-13.155,11.042-18.678.826-.883.573-2.314-.488-2.896Z"/><path class="cls-13" d="M110.911,265.336l53.492-28.951s1.748-12.765-15.237-11.481c-13.308,1.006-33.606,17.336-43.593,37.004"/><ellipse class="cls-13" cx="41.949" cy="272.965" rx="6.154" ry="4.669" transform="translate(-234.189 277.136) rotate(-82.129)"/><ellipse class="cls-13" cx="69.615" cy="287.98" rx="6.464" ry="4.944" transform="translate(-226.092 306.305) rotate(-79.956)"/><path class="cls-26" d="M103.155,263.917l1.733.898v.27c0,.958.508,1.844,1.334,2.329l2.586,1.517c.931.546,2.104-.125,2.104-1.205v-2.335c0-.942-.499-1.814-1.312-2.29l-2.449-1.292c-.956-.561-2.16.129-2.16,1.237l-.103.24-1.733-.869"/><path class="cls-12" d="M152.538,253.308c-4.875,2.68-8.852,8.407-8.859,12.773-.001.807.135,1.509.387,2.102,1.107,2.607,4.464,3.072,8.425.859,3.944-2.203,7.273-6.384,8.379-10.193.251-.865.389-1.712.393-2.512.019-4.33-3.877-5.693-8.725-3.028ZM156.771,260.335c-.577,1.988-2.314,4.169-4.372,5.318-2.067,1.154-3.819.912-4.396-.448-.131-.309-.202-.675-.202-1.097.004-2.278,2.079-5.266,4.622-6.664,2.53-1.391,4.562-.679,4.553,1.58-.002.418-.074.86-.205,1.311Z"/><path class="cls-12" d="M94.601,284.911c-5.187,2.851-9.418,8.945-9.426,13.59-.001.859.144,1.606.412,2.236,1.177,2.774,4.75,3.269,8.965.914,4.196-2.344,7.739-6.793,8.915-10.846.267-.92.414-1.821.418-2.673.02-4.607-4.125-6.058-9.284-3.222ZM98.992,292.214c-.587,2.023-2.356,4.244-4.451,5.414-2.104,1.175-3.888.928-4.475-.456-.134-.315-.206-.688-.205-1.116.004-2.319,2.116-5.361,4.705-6.784,2.575-1.416,4.644-.691,4.635,1.608-.002.425-.075.875-.209,1.334Z"/><polygon class="cls-13" points="58.661 298.434 47.989 292.248 47.989 285.472 58.661 291.659 58.661 298.434"/><path class="cls-13" d="M461.73,369.026s.752.471.614,1.279l1.058-.063s-.204-.691,1.372-.936c1.576-.244,2.243-.933,2.243-.933,0,0,2.047,2.982,2.783,2.933,0,0,2.194-.667,1.192-2.99-.393-.911-2.417-.324-2.417-.324,0,0,1.382-1.603-.65-.795,0,0,.129-1.086-.112-1.165,0,0,.961-4.75-3.266-1.834-4.227,2.916-2.817,4.828-2.817,4.828Z"/><path class="cls-13" d="M225.284,296.706s-4.51,1.794-3.429,3.76c.951,1.729.405,1.869.409,2.484l1.507.328.33-.645s1.146.417,1.259.565c.281.367-.201,1.002-.201,1.002,0,0,.955,1.722,1.845,1.503.89-.219.052-1.554-.159-1.651s.174-.914.174-.914c0,0,4.53-.808,4.385-2.304-.149-1.538.771-4.108.343-4.716s-6.464.588-6.464.588Z"/><path class="cls-13" d="M272.758,334.812c-.099-.457,1.383-1.126,1.383-1.126,0,0,2.413-3.268-1.772-5.578-4.185-2.311-6.58-3.236-6.823-.857-.243,2.38,1.08,4.833.926,5.119s-.402,1.729.965,2.158c1.368.428,3.18.168,3.413.775l1.907-.49Z"/><path class="cls-13" d="M147.997,359.603c-.015-.448-.291-.616-.577-.673.087-.218.152-.364.152-.364,0,0-1.74-3.17-4.103-3.181-2.362-.01-4.145.703-4.145.703l.038.112c-1.943,2.486-2.81,3.687-2.523,4.368s.895,1.266,1.401,1.294c0,0,1.3,1.704,2.74,1.681,0,0,.371.646.148.903l1.025.585.677-.449-.059-.967s2.178.036,2.906-.486,1.425-1.006,1.246-1.873c.407-.179,1.105-.712,1.075-1.654Z"/><path class="cls-13" d="M167.081,374.6s-1.241-.979-1.592.321,1.324,1.732,1.433,1.706c0,0-.51,1.409,1.3,1.893,1.81.484,2.056.495,2.143.902l.087.407h1.626l.125-.479s1.843-.68,2.708-1.395c.865-.715,1.497-1.9,1.497-1.9,0,0,.718-.04.925-.332s.81-1.462-.081-1.887-10.17.765-10.17.765Z"/><path class="cls-13" d="M352.506,428.919s.212,1.149.075,1.872,1.44,1.477,2.64,1.815c1.2.338,1.608.235,1.761.53s.475.493.475.493l.594-.493s-.214-.301,0-.402,2.425-.442,3.517-1.943c0,0,.986-.405.986-1.447s-1.03-1.336-1.655-.495.329-2.15-2.572-3.835c-2.901-1.685-5.821,3.904-5.821,3.904Z"/><path class="cls-13" d="M305.898,462.949l.363-.3.596-.048-.251-.424,1.982-5.926,3.502-1.272,1.202,2.66s-.33,1.615-.807,1.761c0,0,.268.386-.025.892s-1.265,1.324-3.19,1.833-1.302.647-1.302.647l.58.315s-.221.216-1.374.141-1.274-.277-1.274-.277Z"/><path class="cls-17" d="M307.103,451.2s2.976-2.027,5.397,1.422c2.421,3.449,2.018,4.984.313,5.239,0,0-1.137-1.495-2.029-.068-.892,1.427-.717,3.707-2.721,3.631,0,0-1.059.971-2.052.645s-2.618-.248-3.688-2.867c0,0-1.606-1.94-.52-4.601s4.023-4.556,5.3-3.401Z"/><path class="cls-13" d="M314.481,462.601l.987.981.269-.49s1.063.162,1.132-.183-.564-.433-.564-.433l.345-.457s-1.448-.14-2.169.582Z"/><path class="cls-13" d="M323.067,466.733l-.754.851s-.547-.601-.903-.118.528.718.708,1.395.079.925.079.925l.87.801s.6-1.257.639-2.011-.118-1.57-.639-1.844Z"/><path class="cls-32" d="M315.468,463.358l-.987-.981-4.159,2.508s-1.051-1.81-1.513-1.78-.672.181-1.42.043-1.961-.258-2.318.21-4.647,7.899-5.185,10.313c0,0,5.668,2.156,6.367,6.201s.346,6.685.346,6.685h4.469s1.415-.527,1.623-1.459c.207-.932.221-4.286-.19-4.495,0,0-1.699-.083-2.069-4.061s-.252-4.312-.252-4.312c0,0,2.433,6.092,4.409,5.698,1.976-.394,5.291-2.238,8.416-7.282.151-.244.063-.281.063-.281l-1.669-1.927s-1.787,2.839-2.16,2.818-1.851-.776-1.851-.776l-1.879,1.976-3.336-4.868,3.296-4.231Z"/><path class="cls-32" d="M315.387,486.921s-.189,11.459.349,11.94h5.17s1.233-12.579.062-14.938-4.208-3.157-6.297-3.275l-2.088-.118s1.11,4.657-1.432,5.954l4.236.437Z"/><path class="cls-32" d="M310.228,477.038s2.397-.002,2.999.658,1.446,2.255,1.361,3.084-.268,1.246-.268,1.246l-3.487-.516-.605-4.472Z"/><path class="cls-17" d="M315.653,499.157s-1.257,3.588,1.243,3.886c2.5.298,5.31-.227,5.673-1.387s-.209-2.372-1.746-2.498c-1.537-.126-5.17,0-5.17,0Z"/><path class="cls-32" d="M359.889,422.522s-3.311-1.683-6.072.099c-2.762,1.782-2.543,5.506-2.258,5.988s-.221.838-.221.838c0,0,.726-.364.905-.588,0,0,2.138.672,2.547-1.247.409-1.919.605-2.94,1.756-2.447,1.151.493,1.133-.031,1.374.611s-.718,1.743-.418,2.646,1.012,1.179,2.235,1.162c0,0,.595.041.845-.239s.877-1.996,1.974-.486c0,0,.352-.457.414-1.571.062-1.114-.358-4.165-3.08-4.766Z"/><path class="cls-32" d="M358.052,432.734s-.024.431.45.51,1.371.452,2.028.262c.657-.189,1.501-.465,1.762-.938,0,0-.852.094-.609-.66s.381-1.151.295-1.186-.646.138-.646.138c0,0-1.029,1.768-3.28,1.875Z"/><polygon class="cls-13" points="356.895 433.271 356.695 433.471 357.072 434.565 357.531 434.134 357.662 434.717 358.502 433.245 358.001 433.045 357.458 433.629 356.895 433.271"/><path class="cls-13" d="M355.638,445.86c-.07.027,1.057-.48,1.057-.48l.2-.791-.515-2.293.892-6.688-.259-.135.059-.907-.304-.771s-.674,11.888-1.129,12.065Z"/><path class="cls-13" d="M359.058,433.442l-.447-.175-.878,1.225-.125,1.116-.255.127.09,4.317s.483-3.268.815-4.041.8-2.569.8-2.569Z"/><path class="cls-29" d="M356.518,433.56l-2.145,7.507-7.693,2.185s1.291,1.279,1.613,2.094.591,2.279.591,2.279l5.139-1.763.118.33s1.453.207,1.688-1.616.691-11.015.691-11.015Z"/><path class="cls-29" d="M359.058,433.442s-1.732,4.912-1.615,6.61c.117,1.698-.118,5.387-.806,5.526-.688.139-4.624,1.69-4.624,1.69,0,0,1.507,1.353,1.797,2.713.29,1.36.321,2.108.321,2.108l2.037-.798,6.639,4.092s4.161-2.195,4.057-4.474c-.104-2.279-3.89-11.576-3.89-11.576,0,0-2.336-5.767-3.916-5.891Z"/><polygon class="cls-32" points="357.499 434.27 357.156 434.795 357.156 435.472 357.609 435.608 357.499 434.27"/><polygon class="cls-32" points="357.272 435.608 356.352 442.945 356.767 444.977 357.272 443.524 357.272 435.608"/><path class="cls-13" d="M346.679,443.251s1.927,1.421,2.195,4.169c0,0-3.411,1.013-4.279.078-.868-.935-.896-2.53-.503-2.938s2.587-1.309,2.587-1.309Z"/><path class="cls-13" d="M352.014,447.268s-2.571,1.584-2.362,3.086c.208,1.501,2.936,2.466,4.48,1.735,0,0-.337-3.233-2.118-4.821Z"/><path class="cls-32" d="M174.783,369.42s-2.761-2.332-6.066-.468c-3.305,1.864-3.412,4.354-2.945,5.268,0,0,1.261-.094,1.308.379s.181,1.699.654,1.964c0,0,.364,1.045,1.03,1.048,0,0,.704,1.186,1.327.979,0,0,.591.709,1.206.766s.906-.007.906-.007c0,0,.81-.51,1.512-.699.761-.205,2.918-1.864,3.269-4.376.13-.929-.081-4.322-2.2-4.854Z"/><path class="cls-13" d="M160.582,385.212s-.274-1.403-.617-1.337-.413.667-.413.667c0,0-1.555-.375-2.186.385-.63.76-.779,2.373.43,3.731,0,0,2.015-3.041,2.786-3.447Z"/><path class="cls-13" d="M176.688,399.217h1.55s-.316,2.637-1.411,3.021c-1.095.385-1.277.312-1.277.312,0,0,.728-1.524.931-2.028l.239-.307-.031-.998Z"/><path class="cls-29" d="M170.221,379.829l-.105.706s-1.264.601-2.203,2.643c-.786,1.71-2.825,6.442-2.825,6.442l-4.506-4.408s-1.494,1.083-2.13,2.191c-.593,1.033-.457,1.714-.457,1.714,0,0,5.067,4.2,6.08,4.49,1.013.289,1.952-.139,1.952-.139l-.146,6.388.02,1.628,1.117,5.992-.763,2.592-1.561,10.964,4.56.975.695-3.415,1.61,7.043,5.066-.828s-1.127-8.095-2.157-11.366l-.872-7.026,2.612-5.033.273-.862.239-.307-.031-.998h1.55s-.25-5.505-.572-6.835-1.464-7.628-3.526-10.09-1.633-1.842-1.633-1.842l-.154-.634-2.132.014Z"/><path class="cls-32" d="M168.825,421.792l-4.132-.76s-2.973-.618-3.243,1.526c-.225,1.784,2.972,2.766,4.203,2.931s3.159.493,3.267-1.425c.093-1.646-.094-2.272-.094-2.272Z"/><path class="cls-32" d="M175.255,424.899l-3.809.648s-3.161-.513-2.722,2.096c.303,1.802,2.456,2.094,4.417,2.007,1.961-.087,2.816-.861,2.816-2.05,0-.844-.702-2.701-.702-2.701Z"/><path class="cls-29" d="M140.407,353.065s-2.525.152-3.481,2.448c-.956,2.296,0,4.137,0,4.137,0,0,.702-.582,1.057-.245s.677.602.985.245,1.177-1.799,1.535-2.752c0,0-.307,1.881-.688,2.119,0,0,1.314,0,2.086-2.493,0,0-.528,2.38-.743,2.527,0,0,1.91.354,2.451-2.276,0,0,.235,1.089.055,1.545s-.467.506-.467.506c0,0,1.679.858,1.976-.888,0,0,.557.696.204,1.079,0,0,1.141.12,1.262-.773.12-.892.141-1.47.141-1.47,0,0-.022,2.243.303,2.385s.548-.217.667-.757.867-3.536-2.539-5.424c-2.611-1.447-4.803.087-4.803.087Z"/><polygon class="cls-29" points="140.886 364.603 142.745 375.37 142.373 381.078 144.018 381.162 143.104 375.287 143.068 364.636 142.27 364.915 140.886 364.603"/><path class="cls-32" d="M140.895,364.447s-.924.237-2.202,1.609c-1.278,1.372-5.794,6.936-5.595,8.741s2.916,5.492,2.916,5.492l-.397,3.048.642.181s5.319,1.204,5.775.528c.214-.317.796-9.029.796-9.029l-1.935-10.571Z"/><path class="cls-32" d="M143.068,364.636l.036,10.651,1.375,8.759,2.775-.182-.743-7.205,1.859,2.032s1.343-2.307,2.697-2.494l-4.103-4.189s-2.946-7.56-3.897-7.371Z"/><path class="cls-32" d="M136.287,381.597l10.78.435-3.197,11.553s.125,2.55-.193,3.005-3.004,12.887-3.004,12.887l-4.343-.778.607-3.089-1.341.062,2.561-11.955s-2.409-7.789-1.87-12.12Z"/><polygon class="cls-29" points="142.486 381.021 142.433 382.094 144.071 382.032 144.133 381.021 142.486 381.021"/><path class="cls-13" d="M148.37,378.69s1.246-2.238,2.697-2.494c0,0,1.353.841,1.172,1.084s-.956.355-.956.355c0,0,1.202,1.23.541,1.998s-2.712,1.476-3.454-.943Z"/><path class="cls-13" d="M137.427,381.557s2.355-1.536,2.717-1.67c0,0,1.176,1.042,1.013,1.471s-.779.199-.779.199c0,0,1.112.774.449,1.697-.663.922-2.876.554-3.401-1.697Z"/><path class="cls-29" d="M136.33,408.7s-1.897,2.283-.269,3.627c1.628,1.344,7.314,1.822,6.937-.5-.378-2.321-2.325-2.35-2.325-2.35l-4.343-.778Z"/><path class="cls-29" d="M136.814,405.617l-1.217.056s-.494,2.27-.101,2.805.489.611.489.611l.534-.389.295-3.083Z"/><path class="cls-29" d="M141.499,405.776l-.825,3.701s2.063-.637,2.264-1.423c.201-.786-.074-2.196-1.438-2.278Z"/><path class="cls-17" d="M267.038,325.446s-1.468-.215-1.655,1.414c-.188,1.629-.113,1.807-.334,2.434s.255,1.421.794,1.366c0,0-.652-3.583.539-4.362.352-.231-.041.232.334.171s.367-.217.42.322-.649,2.734-.193,3.336,1.448.68,2.132.558c0,0-.602-.659-.529-1.261,0,0,.425,1.12,1.814,1.16,1.388.041,1.903.829,1.903.829,0,0,.6.94.861.956,0,0,.614,1.373,1.018,1.316s.963-.698.963-.698c0,0,1.264-.177,1.456-1.658s.35-1.913.618-2.428-.986-6.316-6.285-5.094c0,0-3.198-.061-3.855,1.638Z"/><path class="cls-32" d="M270.944,335.313s-6.142,8.225-7.129,9.99l-4.772-3.246s-2.45,1.38-2.742,4.138l7.333,4.82s-1.872-.775-2.502-.41-3.12,1.318-4.111,3.448-2.677,11.267-2.677,11.267l5.112.885,2.314-9.773s3.419,1.119,4.745,1.45c1.326.332,3.719.373,4.429-.518,0,0-1.114-3.62.233-7.031s4.699-4.829,4.699-4.829c0,0-.79-7.806-1.642-9.212-.653-1.077-.923-1.016-.923-1.016l-.46-.454-1.907.49Z"/><path class="cls-32" d="M263.389,337.033s-1.089,1.798-.509,3.559l3.368,1.123,2.23-3.202-5.089-1.48Z"/><path class="cls-13" d="M263.389,337.033s-.965,1.218-.509,3.559c0,0-2.362-.2-2.445-.68s.824-.325.824-.325c0,0-1.618-.713-1.211-1.511s1.447-1.451,3.341-1.042Z"/><path class="cls-13" d="M258.578,342.294s-.671-1.29-1.231-1.206-.19.767-.19.767c0,0-1.266-.626-1.889.444s-.22,3.224.929,3.659c0,0,1.065-2.826,2.38-3.664Z"/><path class="cls-17" d="M258.512,366.061l-4.261-.752.084-.489s-2.193-1.193-3.21,1.241,4.775,2.774,4.775,2.774c0,0,2.617.291,2.611-1.059-.006-1.35,0-1.715,0-1.715Z"/><path class="cls-17" d="M226.323,292.667s-4.874-.395-5.766,4.589c-.779,4.355,2.441,4.972,3.282,4.836,0,0-1.26-.187-1.374-.905s.058-1.716.935-1.553c.585.109.696.405.696.405,0,0,.542-.256.824-.611s.792-.505,1.681-.962.913-1.866.913-1.866c0,0-.412,1.768-.799,1.853,0,0,1.679.435,2.184-.572.281-.559-.023-1.082-.023-1.082,0,0,.321.993-.46,1.646,0,0,1.928.161,2.102-.502s-.31-1.45-.31-1.45c0,0,.776.714.31,1.718,0,0,1.133.1,1.4-.71s.097-5.605-5.595-4.835Z"/><path class="cls-17" d="M222.876,302.915s-1.325.171-1.518,1.83c-.106.91-.978.623-.639,2.077.159.679.702.774.702.774,0,0,.041.681-.29.743,0,0,.559.311,1.233-1.243.673-1.554,1.544-3.685,1.285-3.878s-.772-.302-.772-.302Z"/><path class="cls-17" d="M225.197,304.153s-1.414-.484-2.992,2.764c-1.504,3.095-5.677,13.531-5.521,14.518.097.613.112,3.246,1.096,3.44l6.365-3.717,1.975-3.602s1.03.406,1.772-.114,1.54-1.032,1.54-1.032l7.595,1.421s.723-4.508,2.278-5.298l-4.444-.432-.755.828s-1.699-1.306-2.068-2.328-.58-2.281-.58-2.281l-3.972,3.565-1.028-5.767c-.038-.316-.172-.61-.385-.847-.311-.346-.751-.859-.878-1.118Z"/><path class="cls-17" d="M226.845,304.052l.607,1.096c.153.277.234.588.234.904v5.993l2.788-2.574s-2.395-5.689-3.629-5.418Z"/><path class="cls-13" d="M231.536,308.259l.994-.615s.446-.957.848-.931c.592.039.282.728.282.728,0,0,2.148-.311,2.613,1.122.55,1.691-2.262,4.281-2.262,4.281,0,0-2.553-1.729-2.475-4.585Z"/><path class="cls-13" d="M238.852,313.015s2.319.139,2.59,1.366.359,2.169-.539,2.183-1.906-.166-1.906-.166c0,0,.525,1.381-.028,1.547s-1.832-.591-1.832-.591c0,0,.368-2.873,1.715-4.338Z"/><path class="cls-13" d="M228.095,317.347v1.528l-3.747,2.188,1.975-3.602s1.382.588,1.772-.114Z"/><path class="cls-29" d="M461.798,358.535s1.865-.674,3.522.084,3.388,2.347,3.531,4.253-.819,3.586-.819,3.586c0,0,.377-2.289-.912-2.178-1.289.111-1.09,1.765-2.198,3.024-1.108,1.259-3.316,2.92-6.211.439,0,0-.628.352-.524.802s.495,1.094.429,1.51-.598,1.908-.346,2.363c0,0-.775.261-1.256-.802,0,0-.853-.137-.812-1.257.041-1.119.481-.957-.001-2.261s-.129-3.564,1.014-3.753l.88.212.456-.207s-.383-.648-1.103-.476c0,0-.167-4.331,4.35-5.34Z"/><path class="cls-32" d="M457.449,363.875l-.232.471s.355-.064.88.212l.594-.341s-.453-.458-1.242-.341Z"/><path class="cls-29" d="M474.141,387.873c-1.036-.871-5.66-.109-5.66-.109l-1.64-4.427-.216-3.043s2.874,4.887,4.822,5.18c1.948.294,9.572-5.831,9.572-5.831-.54-2.305-3.429-3.697-3.429-3.697l-5.449,4.502s-3.444-3.979-4.984-5.952l3.271-2.875c-1.081.034-3.411-3.25-3.411-3.25l-1.186.583-1.711,1.961c-.414-.395-.718-.675-.718-.675l-1.294-.01s-1.994,2.414-2.181,3.004c-.186.59-1.9,9.335-1.9,9.335,5.675,2.983,4.428,10.194,4.428,10.194l-.242,1.234c8.688-.237,7.686.524,7.686.524l1.403-.727c-.228.72-.34,9.133-.34,9.133l4.374-.883s.022-8.639-.076-9.779c-.099-1.14-.083-3.522-1.119-4.394Z"/><path class="cls-13" d="M477.77,376.04s2.388.952,3.088,3.099c0,0,2.42-.951,1.121-3.049-.689-1.113-2.234-.254-2.234-.254,0,0,.715-1.311-.421-.857-1.349.54-1.554,1.061-1.554,1.061Z"/><path class="cls-13" d="M499.917,351.893s-2.276,1.255-1.304,2.928,2.298.084,2.298.084c0,0-.497.914-.166,1.023s1.677-1.336,1.667-1.732-1.819-2.002-2.496-2.304Z"/><path class="cls-13" d="M512.853,342.421s.634-2.24-.197-2.302-4.236.006-4.647-1.789c-.411-1.795-.125-2.242.437-2.475s1.275-2.104,1.699-2.622.431-.842.963-.407.498-.457,1.25.434,1.099,3.756,2.169,4.002c1.07.246,2.218-.28,2.218-.28,0,0,.43-1.053,1.247-.537s.352,2.588-1.011,2.354c0,0-2.158.775-2.341,1.358s.226,1.37.226,1.37l-.637.894s-1.155.313-1.375,0Z"/><path class="cls-13" d="M506.581,344.895s-2.354,2.255-2.751,3.598c0,0-2.005-1.498-1.17-3.033.835-1.536,2.506-.565,2.506-.565,0,0-.76-.618-.318-.946s1.733.946,1.733.946Z"/><path class="cls-29" d="M512.853,342.421s.878.334,1.375,0c0,0-1.678,3.431-2.01,3.393l.635-3.393Z"/><path class="cls-29" d="M511.457,354.396l1.198.332v-1.94s-.725.783-.965.809l-.233.799Z"/><path class="cls-29" d="M508.55,341.024s-1.133-1.271-.638-4.761c.137-.965.45.122,1.553-1.712,1.102-1.835,1.103-2.048,1.641-1.724,0,0,.845-.286,1.25.434s.972,4.419,2.989,4.06c0,0,1.109.094,1.397-.338,0,0,.877-1.651,1.716.186,0,0,1.575-2.19.406-4.665-1.17-2.476-4.525-4.241-7.295-2.875,0,0-3.103.431-3.917,3.896-.814,3.465-.29,6.393-.082,6.891s.981.608.981.608Z"/><path class="cls-29" d="M516.512,339.022s1.098,4.713-.065,5.376l.085,1.242s1.933-.322,2.15-1.419-.622-3.995-2.171-5.198Z"/><path class="cls-32" d="M512.954,341.143l-.55,4.498s2.473-4.229,2.568-4.306,1.27.711,1.475,3.062.276,5.82.276,5.82c0,0,3.055,5.773,2.466,8.363-.589,2.59-6.054,1.178-6.336.226s-.197-6.019-.197-6.019c0,0-.497.761-.965.809l-1.075,4.039s-3.198-1.314-3.046-2.329.622-.741.622-.741l.685-1.288-6.211,1.215s-1.941-2.433-3.177-2.913c0,0,4.368-1.626,5.337-1.664l-1.14-.931s1.568-3.69,3.382-4.237l1.946,1.827s1.745-3.894,2.677-4.612c.931-.718,1.263-.82,1.263-.82Z"/><path class="cls-32" d="M511.258,355.225l1.398.458s-.081,3.354.393,3.547,2.735,1.097,4.589.714l-1.978,1.318-9.078-5.354.743-.315s2.926,2.548,3.292,2.042.642-2.411.642-2.411Z"/><polygon class="cls-32" points="511.457 354.396 511.258 355.225 512.655 355.683 512.655 354.727 511.457 354.396"/><path class="cls-32" d="M470.596,404.687s-.044-1.498.365-1.758l4.374-.883s1.893-.158,1.989,1.158-.5,2.228-2.08,2.559c-1.581.332-4.209.383-4.209.383,0,0,.146-1.281-.439-1.458Z"/><path class="cls-13" d="M369.519,277.383s-2.043-1.526-3.525-.539.316,3.225.316,3.225c0,0,3.161-1.663,3.209-2.686Z"/><path class="cls-13" d="M375.835,273.506s2.823-1.435,3.022-2.005c0,0-2.284-2.133-3.363-1.062s.341,3.067.341,3.067Z"/><path class="cls-17" d="M379.52,270.7s-3.03,2.823-3.684,3.046l2.87,2.528s-2.072,4.41-2.87,4.227-5.715-3.59-5.715-3.59c0,0-3.379,3.158-3.81,3.158,0,0,7.352,4.846,8.476,4.839,1.125-.007,3.163-.312,4.088-1.54l-2.649,4.347s-2.465.585-2.974.794-2.9,1.159-3.074,3.83-.738,12.128-.738,12.128l2.261-.103s.162-1.364.829-1.463,2.29-.316,2.29-.316l.589-6.77s-2.419-.269-2.493-1.47-.281-1.961,1.666-2.006c1.948-.045,6.159.025,6.159.025l-.28-1.945s-.339-5.573,2.587-7.909,4.503-3.004,4.503-3.004c0,0-1.779-6.584-2.24-6.849s-.771-.733-.771-.733l-.213-.102-2.242.601s-.27.539-.643,0-1.92-1.723-1.92-1.723Z"/><path class="cls-29" d="M371.701,304.364l-2.261.103s-1.806.514-1.807,1.867c0,1.354,6.58,1.543,6.768,1.367s1.133-1.461.235-3.127l-.877.117s-.38,1.008-1.071.87c-.691-.138-1.008-.542-.988-1.197Z"/><path class="cls-17" d="M379.736,296.842v3.242s.425.276.381.49l4.399.219.034-4.156s-4.259.422-4.814.204Z"/><path class="cls-29" d="M380.116,300.574s.213,1.244.088,1.561l4.573.899s-.051-1.981-.261-2.242l-4.399-.219Z"/><path class="cls-13" d="M377.627,266.953s.638,1.101.495,1.573-.212,1.811,1.639,2.175,2.5.417,2.611.939.138.756.138.756l1.815-.573s-.202-1.059,0-1.383.3-4.302-2.588-5.365c-2.888-1.064-4.918-.76-4.642.497s.532,1.381.532,1.381Z"/><path class="cls-17" d="M383.993,260.212s-2.089-1.32-3.943-.318c-1.854,1.002-2.985,2.403-3.122,3.287s-.7,3.437.834,4.085c0,0-.613-1.752.271-2.325,0,0-.114,2.449,1.419,2.477,0,0,.456.846.921.846s.272-1.235,1.197-1.025.891,1.191.846,1.342c0,0,.923,2.523,1.771,2.415.652-.083.788-.114.788-.114,0,0-.178-.454.532-.926s2.844-1.331,3.085-3.756c.207-2.085-.455-6.025-4.599-5.989Z"/><path class="cls-27" d="M319.585,471.312c-.119.157-.312.239-.507.216l-6.167-3.457c-.427-.274-.509-.434-.302-.707l6.737-8.911c.119-.158.314-.241.51-.217l6.114,3.511c.458.248.538.462.318.751l-6.703,8.814Z"/><path class="cls-13" d="M154.206,249.86c.342-1.351,1.972-2.528,3.961-2.23,0,0,3.286-1.166,5.87,1.5,2.584,2.666,1.231,6.703.512,7.102s-1.288.728-1.238,1.198c0,0-1.116.267-1.882.355-.766.088-1.696.445-1.651.921s.1.759.1.759h.346s4.712,6.254,5.402,9.514c.69,3.26.436,5.664.436,5.664,0,0,.387,2.023-.114,2.077s-.779.106-1.305-.474l-.064,3.018,6.357.826.438,8.408-1.984,1.155-5.267-.769-.394,2.09-.249,12.547h-.522s1.181,3.204-.423,3.296-2.902.095-2.902.095c0,0,1.103,2.583-2.738,2.603s-4.601-1.069-4.469-2.762,2.4-1.246,2.4-1.246l-.608-24.88s-.61-2.047-.148-5.757c.072-.581.192-1.42.192-1.42l-8.037,2.202-.268-.76s-2.648.449-3.106-1.129,1.119-1.991,1.119-1.991c0,0-.417-.632-.141-.814s1.664.296,1.664.296l7.542-1.16s2.568-6.192,2.929-6.938c.361-.746,1.609-2.449,1.609-2.449l.705-1.241.434.119s.735-1.359-.904-1.537c-1.64-.178-2.681-.21-3.169-1.101-.488-.891-.877-1.542-.498-1.937s-.163-1.819-.002-2.281-.58-.769-.348-1.639c.232-.869.415-1.23.415-1.23Z"/><path class="cls-32" d="M158.732,254.132s-5.124.085-4.921-3.07,3.619-3.489,4.376-3.459c.545.022,4.322-1.32,6.476,2.285,2.155,3.605.358,5.67-.519,6.317-1.365,1.006-.702,1.751-.702,1.751,0,0-1.449,1.192-2.321-.199-.361-.577-1.021-1.555-.663-2.246.58-1.119.048-3.362-1.727-1.379Z"/><path class="cls-29" d="M158.278,259.455s-1.962,2.642-3.067,5.156c-1.105,2.514-2.46,5.516-2.46,5.516l-7.257,1.116s-.185,3.44.733,4.399l8.037-2.202s-1.091,6.358-.044,7.177l.608,24.88,5.079-.006.167-1.982,3.276-.249.381-12.297s1.047-8.532.85-11.71c-.197-3.178-.164-4.172-.164-4.172l1.646-.449s-.106-4.601-.271-5.132-2.327-5.981-3.76-7.48c-1.434-1.499-1.807-2.566-1.807-2.566,0,0-1.614.121-1.946,0Z"/><path class="cls-32" d="M159.41,305.413l-4.556.006s-2.227-.19-2.4,1.246.988,3.012,3.972,2.762,3.522-.485,2.984-4.014Z"/><path class="cls-32" d="M162.899,303.422h-2.886s-.167,1.981-.167,1.981h-.524l.252,1.41s3.495.37,3.694-.834-.369-2.557-.369-2.557Z"/><path class="cls-17" d="M155.771,254.358c0,.42-.094.761-.506.761-.417,0-.506-.341-.506-.761s.227-.761.506-.761.506.341.506.761Z"/><path class="cls-17" d="M358.795,430.371c0,.429-.096.776-.516.776-.425,0-.516-.347-.516-.776s.231-.776.516-.776.516.347.516.776Z"/><path class="cls-17" d="M354.669,429.867c0,.429-.096.776-.516.776-.425,0-.516-.347-.516-.776s.231-.776.516-.776.516.347.516.776Z"/><path class="cls-17" d="M513.036,337.479c0,.429-.096.776-.516.776-.425,0-.516-.347-.516-.776s.231-.776.516-.776.516.347.516.776Z"/><path class="cls-17" d="M509.906,337.322c0,.429-.096.776-.516.776-.425,0-.516-.347-.516-.776s.231-.776.516-.776.516.347.516.776Z"/><path class="cls-17" d="M141.401,360.838c0,.42-.094.761-.506.761-.417,0-.506-.341-.506-.761s.227-.761.506-.761.506.341.506.761Z"/><path class="cls-17" d="M145.03,360.838c0,.42-.094.761-.506.761-.417,0-.506-.341-.506-.761s.227-.761.506-.761.506.341.506.761Z"/><path class="cls-17" d="M227.208,300.321c0,.42-.094.761-.506.761-.417,0-.506-.341-.506-.761s.227-.761.506-.761.506.341.506.761Z"/><path class="cls-17" d="M230.78,300.003c0,.42-.078.761-.421.761-.347,0-.421-.341-.421-.761s.188-.761.421-.761.421.341.421.761Z"/><path class="cls-17" d="M378.912,267.947c0,.375-.061.679-.325.679-.268,0-.325-.304-.325-.679s.146-.679.325-.679.325.304.325.679Z"/><path class="cls-17" d="M267.964,331.81c0,.42-.078.761-.421.761-.347,0-.421-.341-.421-.761s.188-.761.421-.761.421.341.421.761Z"/><polygon class="cls-13" points="492.734 257.703 442.75 286.912 492.734 314.172 492.734 257.703"/><path class="cls-17" d="M309.404,496.63v-1.817s4.386-.084,4.882.034.993.08,1.097.273l.199,3.241s.09-.814-1.201-1.067c-1.291-.253-4.977-.665-4.977-.665"/><line class="cls-4" x1="228.01" y1="317.249" x2="228.01" y2="318.776"/><path class="cls-4" d="M159.108,253.806c.193-.341.545-.544.904-.484.48.081.793.599.699,1.158s-.388.859-.834,1.109c-.642.361-.97.069-1.025-.104"/><path class="cls-4" d="M154.121,253.312s.401,1.371-.006,1.62.179,2.856,2.467,2.899,2.457.966,2.204,1.164"/><path class="cls-4" d="M161.393,257.705c-.057-.019-1.964.17-1.604,1.394"/><path class="cls-4" d="M157.776,247.608s-2.124-.565-3.662,2.298c-.983,1.831.422,3.406.422,3.406"/><path class="cls-4" d="M155.403,251.018s.396,2.317,1.3,2.788"/><path class="cls-4" d="M156.797,251.225s.769,2.553,1.552,2.859"/><path class="cls-4" d="M163.367,257.554c-.625-.998,1.303-.904,1.811-2.622s.566-4.611-1.864-6.495c-2.43-1.884-4.635-.853-4.635-.853"/><path class="cls-4" d="M161.996,256.768s-.052,1.134.492,1.375"/><path class="cls-4" d="M158.349,259.382s.468.359,1.841,0l.379.515s-.419.885-2.792.298l.573-.812Z"/><line class="cls-4" x1="157.607" y1="260.496" x2="157.477" y2="260.747"/><path class="cls-4" d="M158.138,260.877s.767.539.606,2.787c-.327,4.548-2.309,9.107-4.935,9.84-1.563.436-7.598,2.043-7.598,2.043,0,0-.898-2.095-.732-4.393,0,0,6.176-1.093,7.532-1.158"/><path class="cls-4" d="M157.071,260.991s-.318.211-1.687,3.28c-1.37,3.069-2.428,5.441-2.428,5.441"/><path class="cls-4" d="M154.236,273.348s-.915,5.687-.044,7.167c0,0,1.855,1,4.98.943,3.125-.057,5.347-1.443,5.347-1.443,0,0,.095-4.542-.569-9.264-.664-4.721-3.111-10.356-3.111-10.356,0,0,3.835,4.882,4.915,9.08.1.389.327,4.131.34,5.224l-1.258.212"/><path class="cls-4" d="M154.612,274.988s.514.756,1.808.396"/><path class="cls-4" d="M146.007,274.988s-3.206.085-3.214-1.665c-.003-.799.556-1.32,1.164-1.651.725-.394,1.521-.518,1.521-.518,0,0-1.702-.664-1.8,0-.041.282.448.432.448.432"/><path class="cls-4" d="M154.192,280.515s.304,10.719.304,12.515.303,12.331.303,12.331h5.15s.488-10.915.371-12.331.722-9.412.722-9.412"/><path class="cls-4" d="M164.519,280.015s-.026,5.003-.828,10.832l-.249,12.53h-3.57"/><path class="cls-4" d="M154.799,305.362s-2.231-.169-2.396,1.244c-.165,1.413.467,2.561,3.442,2.734,2.974.173,3.532-.621,3.755-1.424s-.314-2.561-.314-2.561l-4.487.006Z"/><path class="cls-4" d="M159.764,306.72c2.974.145,3.27-.062,3.493-.736s-.337-2.607-.337-2.607l-3.049.004"/><path class="cls-4" d="M166.122,275.202s.226,1.129-.216,1.412-1.07-.246-1.07-.246"/><path class="cls-4" d="M164.603,276.14s.942-1.193,2.31.783c.823,1.188.573,4.259.573,4.259"/><polyline class="cls-4" points="164.467 280.041 169.612 280.744 169.344 289.529 164.084 288.761"/><polyline class="cls-4" points="169.83 289.453 171.325 288.375 170.888 279.978 169.675 280.775"/><line class="cls-4" x1="164.578" y1="279.067" x2="170.888" y2="279.978"/><path class="cls-4" d="M138.425,359.91c-.19-.343-.54-.548-.901-.491-.48.077-.797.593-.708,1.153.09.56.382.862.825,1.116.64.366.969.077,1.026-.095"/><path class="cls-4" d="M135.991,409.047c-.573-.41-.667-.999-.677-1.457-.024-1.069.476-1.921.476-1.921l.976-.055"/><path class="cls-4" d="M136.236,383.49s-.364,1.904,1.335,7.75c1.184,4.073,1.094,4.713,1.094,4.713"/><path class="cls-4" d="M138.399,396.612s-1.649,8.479-1.995,11.684"/><line class="cls-4" x1="138.132" y1="393.543" x2="135.696" y2="404.936"/><line class="cls-4" x1="136.904" y1="375.001" x2="137.253" y2="373.21"/><path class="cls-4" d="M320.217,498.951s2.231-.169,2.396,1.244-.467,2.561-3.442,2.734-3.532-.621-3.755-1.424c-.223-.803.314-2.561.314-2.561l4.487.006Z"/><path class="cls-4" d="M138.339,362.296c.015.386-.267.507-.267.507"/><path class="cls-4" d="M138.886,362.735s0,.389-.331.472"/><path class="cls-4" d="M222.247,304.77c.041.155-.055.64-.462.993s-.283.763-.076,1.127.279,1.305-.641,1.574"/><path class="cls-4" d="M232.45,307.769s.681-1.155.929-1.102.621.437.207.824"/><path class="cls-4" d="M380.717,267.879c.14-.366.458-.619.823-.612.486.009.873.475.863,1.042s-.257.907-.66,1.22c-.582.452-.949.213-1.029.05"/><path class="cls-4" d="M516.863,336.922c.115-.375.415-.649.779-.667.486-.025.903.415.932.981s-.194.922-.575,1.262c-.55.491-.932.277-1.024.12"/><path class="cls-4" d="M377.763,267.514s.58.816.277,1.306-.148,2.171,3.71,2.349c.706.033.656.991.656.991"/><path class="cls-4" d="M378.082,265.048c-.319.11-.579.464-.612.933-.054.764-.005.882.491,1.288"/><path class="cls-4" d="M384.428,270.538c-.173.224-.286.608-.221,1.081"/><path class="cls-4" d="M379.843,282.124c-1.382,2.583-4.182,3.202-5.35,2.788-1.798-.638-8.175-4.672-8.175-4.672,1.738-.974,3.805-3.24,3.805-3.24l5.606,3.527s.282.614,1.915-2.081c1.931-3.189,2.175-4.219,3.196-4.795l3.348-1.228"/><path class="cls-4" d="M378.549,283.741s-1.941,3.544-2.329,4.154"/><line class="cls-4" x1="374.901" y1="302.421" x2="375.404" y2="295.879"/><path class="cls-4" d="M376.22,287.895s-1.764.251-2.97.687-2.949,1.416-3.115,4.317c-.152,2.654-.691,11.517-.691,11.517"/><path class="cls-4" d="M384.188,272.423s.688-.087,1.103.329,1.484,4.549,2.041,6.702"/><path class="cls-4" d="M378.705,276.274l-2.977-2.623s2.82-1.377,3.781-2.786"/><line class="cls-4" x1="381.594" y1="272.63" x2="380.085" y2="271.065"/><path class="cls-4" d="M366.318,280.24s-1.695-2.185-.264-3.353c1.432-1.168,3.552.652,3.552.652"/><path class="cls-4" d="M375.882,273.651s-1.575-1.432-.527-2.952,3.493.899,3.493.899"/><polyline class="cls-4" points="384.533 296.892 384.499 300.85 380.337 300.622"/><path class="cls-4" d="M384.743,303.089c.095-.871-.244-2.239-.244-2.239l-4.162-.219"/><path class="cls-4" d="M508.199,337.434c-.455.943.441,2.682,4.228,2.682,1.158,0,.652.961.652.961"/><path class="cls-4" d="M514.779,341.076s-.439-.88.29-1.256c1.228-.635,1.794-.949,1.794-.949"/><path class="cls-4" d="M515.55,342.872c.245,1.237.13,3.17-.948,5.977-2.147,5.592-2.944,4.674-4.157,4.637-1.213-.037-6.693-4.637-6.693-4.637,0,0,1.925-4.104,3.449-4.172l4.011,4.172"/><path class="cls-4" d="M513.079,341.076s-1.115.226-1.759,1.187-2.175,4.238-2.175,4.238"/><path class="cls-4" d="M506.715,344.824s-1.54-1.308-1.813-.846.292.846.292.846c0,0-1.415-.581-2.064-.017s-.699,2.757.838,3.61"/><path class="cls-4" d="M499.941,351.926s-2.193,1.171-1.461,2.638c.795,1.594,2.291.441,2.291.441,0,0-.433.798.062.88.495.082,1.262-1.324,1.262-1.324"/><path class="cls-4" d="M516.545,344.676c-.05-2.29-.858-2.897-1.45-3.407l-2.117,3.765"/><path class="cls-4" d="M515.552,361.051s.574-.642,2.125-1.187"/><line class="cls-4" x1="510.556" y1="348.039" x2="513.079" y2="344.908"/><path class="cls-4" d="M509.316,353.196c-4.4.396-6.604,1.481-6.779,1.314-.622-1.935-3.148-2.929-3.148-2.929,0,0,3.623-1.452,5.419-1.697"/><path class="cls-4" d="M506.562,355.867s.608-.387,1.484-.451"/><path class="cls-4" d="M466.136,364.919c.115-.375.415-.649.779-.667.486-.025.903.415.932.981s-.194.922-.575,1.262c-.55.491-.932.277-1.024.12"/><path class="cls-4" d="M461.985,358.438s3.202-1.119,5.689,2.008.159,6.078.159,6.078c.218.704-.005,1.718-2.745,2.616-.954.313-1.956.384-1.81,1.065"/><path class="cls-4" d="M458.5,367.527c.197.218.422.424.678.613,2.253,1.671,3.054.632,3.044,1.777v.277s-1.316.996-2.324,3c-.355.705-1.397,6.737-1.826,9.421"/><path class="cls-4" d="M461.472,358.598s-1.798.098-3.079,2.02c-.56.841-.983,2.013-1.061,3.229"/><path class="cls-4" d="M466.497,380.244s3.052,4.84,4.947,5.161,9.427-5.811,9.427-5.811c-.748-2.743-3.424-3.692-3.424-3.692l-5.442,4.496s-3.754-4.519-5.494-6.718c-.646-.816-1.339-1.59-2.076-2.324l-1.157-1.152c-.993.081-1.056-.01-1.056-.01"/><path class="cls-4" d="M466.497,380.244l.215,3.039,1.678,4.529s4.131-1.102,5.647.23c1.366,1.2,1.186,3.344,1.159,9.187-.014,2.958,0,4.759,0,4.759l-4.368.859s.067-7.716.284-9.121l-1.183.582"/><path class="cls-4" d="M477.748,375.865s1.578-1.384,2.031-.893-.3.808-.3.808c0,0,1.685-.533,2.338.217s.366,2.971-1.115,3.093"/><path class="cls-4" d="M466.992,368.51s1.61,2.655,3.456,3.117l-3.204,2.623"/><line class="cls-4" x1="464.335" y1="370.561" x2="465.704" y2="369.028"/><path class="cls-4" d="M467.903,367.215c.344-.171.672-.251.842-.067.453.491-.3.808-.3.808,0,0,1.685-.533,2.338.217.653.749.366,2.971-1.115,3.093"/><path class="cls-4" d="M470.532,404.202c-.081-.807.285-1.221.285-1.221l4.379-.993s1.821-.279,1.986,1.134c.165,1.413-.467,2.561-3.442,2.734-1.298.075-2.216.178-2.656.203"/><path class="cls-4" d="M384.091,260.24s2.172-.448,3.813,2.225c1.128,1.837.797,4.306.155,5.465-.644,1.163-1.731,1.479-2.518,2.085s-.566.868-.566.868"/><path class="cls-4" d="M384.091,260.24c-.786-.186-2.581-1.559-4.782.117-.319.243-1.674,1.233-2.217,2.359-.379.786-.407,1.142-.463,2.09-.085,1.426.612,2.525,1.134,2.46"/><path class="cls-4" d="M378.082,265.048c-.125.152-.014.789.08,1.185.094.398.284,1.058.987,1.185"/><path class="cls-4" d="M379.555,266.158c.162.718.013.894.097,1.356.098.541.393.734.895,1.014"/><path class="cls-4" d="M382.696,269.117c.083.245.221.897.607,1.344"/><line class="cls-4" x1="382.069" y1="272.63" x2="384.538" y2="271.924"/><line class="cls-4" x1="382.069" y1="272.747" x2="381.724" y2="273.327"/><path class="cls-4" d="M380.393,290.901s-1.443.246-2.621-.001c-2.369-.497-4.146-2.262-4.146-2.262"/><path class="cls-4" d="M516.863,336.922c-1.905,1.455-2.886-1.371-3.201-2.634-.572-2.29-1.844-1.945-2.055-1.559,0,0,.659-.166,1.324,1.393s.982,3.477,2.596,3.159"/><path class="cls-4" d="M511.234,332.771s-.127-.398-.538-.11c-.69.483-1.193,2.731-2.221,3.187-.746.331-.265,1.263-.402,1.261"/><path class="cls-4" d="M519.277,335.551c-.257,1.558-.927,2.553-.927,2.553"/><path class="cls-4" d="M508.461,340.835c-1.448-.116-.979-5.678-.979-5.678.497-5.352,4.286-5.587,4.286-5.587,0,0,1.287-.965,3.439-.303s4.097,2.524,4.166,4.869c.015.508-.025.983-.096,1.414"/><path class="cls-4" d="M516.745,339.149c.317.11,4.711,5.942-.113,6.345"/><path class="cls-4" d="M516.703,338.958s.936,4.586-.071,5.304"/><line class="cls-4" x1="513.079" y1="341.076" x2="512.482" y2="345.504"/><path class="cls-4" d="M512.914,342.296s.445.51,1.32.097"/><line class="cls-4" x1="516.59" y1="345.506" x2="516.545" y2="344.676"/><path class="cls-4" d="M512.781,353.15s.027,4.545.134,5.279c.204,1.401,3.934,1.779,5.389,1.242,3.244-1.199-1.461-9.532-1.461-9.532l-.253-4.632"/><path class="cls-4" d="M511.664,353.46l-1.073,4.132s-2.649-1.041-2.959-1.931c-.31-.89.331-.841.538-1.134s.685-1.286.685-1.286"/><line class="cls-4" x1="511.419" y1="355.185" x2="512.453" y2="355.557"/><line class="cls-4" x1="511.543" y1="354.357" x2="512.628" y2="354.688"/><path class="cls-4" d="M457.07,364.251c-1.31.257-1.586,2.409-.924,3.954.662,1.545-.636,1.715.289,3.175"/><path class="cls-4" d="M458.463,364.674s1.048,2.477,0,3.142.386,1.811,0,2.562c-.386.751-.642,2.241.037,2.241"/><path class="cls-4" d="M465.704,365.525s-1.369,4.269-4.918,3.502"/><path class="cls-4" d="M457.333,363.846s.763-.348,1.167.405l-.429.422s-.796-.486-1.002-.293l.263-.534Z"/><path class="cls-4" d="M457.07,369.95s-.635,1.786.56,2.503"/><path class="cls-4" d="M467.903,362.549s.35,1.867-.308,2.235"/><path class="cls-4" d="M468.39,387.812s1.65,1.916,1.538,2.34c-.421,1.602-4.858,3.104-7.555,2.69"/><path class="cls-4" d="M224.101,300.228c-.115-.375-.415-.649-.779-.667-.486-.025-.903.415-.932.981s.194.922.575,1.262c.55.491.932.277,1.024.12"/><path class="cls-4" d="M167.059,374.702c-.179-.328-.521-.528-.882-.48-.481.065-.812.549-.74,1.08s.353.823.787,1.07c.625.357.963.089,1.025-.074"/><path class="cls-4" d="M177.173,373.819c.481.065.622.498.55,1.029s-.353.823-.787,1.07c-.271.155-.347.197-.511.177"/><path class="cls-4" d="M147.474,359.077c.414-.132.6.378.414,1.142-.134.551-.845,1.152-.997,1.178"/><path class="cls-4" d="M310.868,457.637c.115-.375.415-.649.779-.667.486-.025.903.415.932.981.029.566-.194.922-.575,1.262-.55.491-.932.277-1.024.12"/><line class="cls-4" x1="350.476" y1="447.922" x2="349.671" y2="447.447"/><path class="cls-4" d="M360.806,429.193c0-.735.561-1.016.926-1.035.486-.025.903.415.932.981.029.566-.194.922-.575,1.262-.55.491-.932.277-1.024.12"/><path class="cls-4" d="M315.814,463.063l-3.124,4.132c-.206.273-.124.432.302.706l6.159,3.452c.195.023.388-.059.507-.216l2.159-2.838"/><path class="cls-4" d="M271.03,335.409c-.089-.247-.269-.503-.636-.495-3.861.085-4.13-1.582-3.861-2.091s-.19-1.394-.19-1.394"/><path class="cls-4" d="M274.837,333.249c-.994.961-1.796.791-1.932,1.29"/><path class="cls-4" d="M275.763,345.573c-.574-5.969-1.164-9.659-2.309-9.986-.914-.261-2.425.443-2.425.443"/><path class="cls-4" d="M272.189,339.359s-5.554,13.224-7.811,11.856c-2.257-1.368-8.023-4.931-8.023-4.931,0,0,.176-2.838,2.748-4.238,0,0,3.924,2.672,4.726,3.365-.093-.192,2.784-4.031,4.648-6.9.563-.866,1.534-2.157,2.552-2.483"/><path class="cls-4" d="M266.134,341.611l-3.28-1.048s-.572-2.319.52-3.55l4.941,1.472"/><path class="cls-4" d="M270.394,331.363c.115-.375.415-.649.779-.667.486-.025.903.415.932.981s-.194.922-.575,1.262c-.55.491-.932.277-1.024.12"/><path class="cls-4" d="M263.689,350.993s-2.067-.662-2.499-.41c-3.122,1.83-3.877,2.249-4.835,5.345-1.027,3.319-1.956,9.432-1.956,9.432l5.117.802s1.563-7.793,2.181-9.186"/><path class="cls-4" d="M227.093,312.327l4.366-4.006c.25,3.679,3.202,4.93,3.202,4.93,0,0-4.769,2.647-6.252,3.715-1.483,1.068-3.314.497-4.089-1.925-.775-2.422-1.112-7.598-1.112-7.598"/><line class="cls-4" x1="225.868" y1="306.902" x2="227.43" y2="311.865"/><path class="cls-4" d="M226.82,303.98c-.205-.314.2-.842.2-.842,1.475-.113,4.47-1.302,4.385-2.304s.19-2.245.19-2.245"/><path class="cls-4" d="M231.755,298.029s.946-3.502-2.192-4.982c-1.653-.78-2.877-.398-2.877-.398"/><path class="cls-4" d="M226.685,292.649s-2.937-.531-5.061,2c-2.074,2.472-1.324,7.105,1.472,7.388"/><path class="cls-4" d="M223.945,302.545s.656.386,1.193.499.264,1.095-.198,1.089"/><path class="cls-4" d="M224.726,304.172s-1.183-.192-2.809,3.418c-1.621,3.599-4.851,12-5.057,13.692-.206,1.692.337,2.763.864,3.195"/><path class="cls-4" d="M234.997,312.151l4.374.371s-2.074,1.196-2.344,5.309l-7.757-1.532"/><path class="cls-4" d="M254.399,364.64s-2.611-.955-3.066,1.523c-.257,1.399.617,2.012,3.731,2.505,2.591.41,3.215.096,3.374-.723.262-1.35.227-1.783.227-1.783"/><path class="cls-4" d="M231.657,308.151s2.85-1.712,4.393-.099c1.542,1.613-2,4.85-2,4.85"/><path class="cls-4" d="M238.819,312.991s3.417,0,2.742,3.121c-.218,1.01-2.719.375-2.719.375,0,0,.53.994.268,1.344-.335.448-2.043-.467-2.043-.467"/><path class="cls-4" d="M256.314,346.056s-2.121-1.605-1.045-3.757c.512-1.024,2.056-.859,2.8-.055"/><path class="cls-4" d="M261.288,339.575s-1.843-.517-1.161-1.717c.781-1.373,3.246-.846,3.246-.846"/><path class="cls-4" d="M371.701,304.364l-1.562.156s-1.897-.088-2.396,1.244c-.614,1.639,1.605,1.739,4.579,1.921,1.583.097,2.395.192,2.618-.611.098-.353.079-1.962-.303-2.501"/><path class="cls-4" d="M166.794,376.75c-.327.48.525,1.752,2.117,1.992.995.15,1.343.401,1.463.864"/><path class="cls-4" d="M172.017,379.688c.104-.343.351-.591.834-.722,2.909-.788,4.817-4.101,3.972-6.969-.788-2.676-2.14-2.617-2.14-2.617,0,0-2.889-2.84-6.835.103"/><path class="cls-4" d="M166.6,392.729c-.088.921-1.68,1.327-2.586.836-.836-.452-6.058-4.469-6.058-4.469-.226-1.881,2.57-3.882,2.57-3.882l4.5,4.369s1.809-4.053,2.76-6.185c.951-2.132,1.576-2.34,2.366-2.888,0,0,.692.572,2.31,0,0,0,.843.163,2.345,3.114,1.501,2.95,1.684,4.344,2.673,8.251.487,1.926.758,5.481.758,7.364,0,0-.732.053-1.654,0"/><path class="cls-4" d="M166.069,393.846s-.4,5.923-.134,6.291,7.167,1.337,10.764.264c0,0-.947-9.877-1.618-12.432"/><path class="cls-4" d="M165.838,400s.008,1.017,0,1.432,2.676,12.037,3.208,13.902c.533,1.865,2.47,10.338,2.47,10.338,0,0,3.617-.825,5.031-.947,0,0-1.256-9.118-2.106-11.326l-1.34-9.912"/><path class="cls-4" d="M176.48,400.522s.122.21-.617,1.4-2.268,4.495-2.268,4.495"/><path class="cls-4" d="M167.017,407.477s-.728,1.71-.905,2.959-1.48,10.517-1.48,10.517l4.553.974.694-3.41"/><path class="cls-4" d="M171.078,425.557s-2.231-.169-2.396,1.244.467,2.561,3.442,2.734c2.974.173,3.532-.621,3.755-1.424s-.314-2.561-.314-2.561l-4.487.006Z"/><path class="cls-4" d="M164.46,420.999s-2.495-.224-2.972,1.116c-.593,1.667.966,2.504,3.855,3.232,2.87.724,3.401-.467,3.576-1.282.224-1.046-.106-1.976-.106-1.976l-4.353-1.089Z"/><path class="cls-4" d="M140.724,409.427s2.368.819,2.253,2.236c-.142,1.764-1.907,1.888-4.841,1.368-2.914-.516-2.911-1.82-2.736-2.636.224-1.046.907-1.759.907-1.759l4.417.791Z"/><path class="cls-4" d="M141.543,405.717c.65.238,1.328.652,1.436,1.355.197,1.277-.651,1.904-2.281,2.216"/><path class="cls-4" d="M142.537,385.714s1.857,7.508,1.017,10.898c-.628,2.536-2.817,12.387-2.817,12.387"/><polyline class="cls-4" points="146.475 384.168 146.475 384.168 143.772 393.543"/><path class="cls-4" d="M147.207,359.607s-.405,1.136-.341,1.5c.228,1.292-1.055,2.235-2.513,2.398-.606.068-1.582.077-1.582.077,0,0,.044.586,0,.863"/><path class="cls-4" d="M140.817,353.026s2.98-2.18,6.228,1.793c1.799,2.2.162,4.787.162,4.787"/><path class="cls-4" d="M140.031,353.288s-1.573-.317-3.129,2.235c-1.17,1.918.067,4.272.067,4.272"/><path class="cls-4" d="M138.886,362.735c.45.389,1.499.735,1.986.789.306.034.337.386.283.75"/><path class="cls-4" d="M142.916,364.624c.425-.08.888.335,1.642,2.001.959,2.119,2.369,5.28,2.487,6.043"/><path class="cls-4" d="M146.984,372.071l4.177,4.106s-2.142.629-2.732,2.593l-1.954-2.078"/><path class="cls-4" d="M141.128,364.502c-1.335,0-1.82.734-4.024,3.249-2.204,2.515-4.263,6.078-4.011,7.433s3.959,6.636,3.959,6.636c0,0,2.088-1.808,3.514-2.047,0,0-3.847-4.881-4.606-6.005"/><line class="cls-4" x1="139.336" y1="369.616" x2="136.58" y2="374.372"/><path class="cls-4" d="M142.004,384.018c-2.276-.004-4.611-.127-6.408-.709,0,0,.295-2.5.365-2.799"/><path class="cls-4" d="M146.507,377.165l.711,6.68s-.988.115-2.814.172"/><path class="cls-4" d="M352.155,428.157s.613.957.434,2.14c-.188,1.243,1.859,2.084,3.291,2.274,1.432.19,1.112.407,1.112.407"/><path class="cls-4" d="M361.162,431.186s-.226.318-1.289.943c-1.063.624-2.105.205-1.923.678"/><path class="cls-4" d="M359.545,422.241s-4.149-2.081-6.801,1.131c-2.384,2.888-1.168,5.086-1.168,5.086"/><path class="cls-4" d="M360.269,422.631s4.176,1.651,2.394,6.508"/><path class="cls-4" d="M358.414,436.445s-.681,8.431-1.901,8.905-4.482,1.741-4.482,1.741c0,0,2.319,2.874,2.115,4.814,0,0,5.774-2.72,6.123-3.609.349-.889.255-7.352.255-7.352"/><path class="cls-4" d="M358.839,433.168s2.173-.87,6.986,13.625c.369,1.112,1.405,4.336.557,5.499s-3.573,2.904-3.573,2.904"/><path class="cls-4" d="M356.007,435.969l-1.585,4.92-7.718,2.192s1.823,1.387,2.159,3.917c.022.169.038.342.046.521,0,0,4.172-1.481,6.233-2.233"/><path class="cls-4" d="M356.648,433.349c-.4.138-.91,5.349-.943,5.545"/><path class="cls-4" d="M346.703,443.08s-2.598.503-2.766,1.769c-.168,1.266.131,2.724,1.735,2.856,1.604.132,3.223-.388,3.223-.388"/><path class="cls-4" d="M351.87,447.166s-2.676,1.361-2.144,3.278c.532,1.917,3.862,1.758,4.42,1.461"/><path class="cls-4" d="M308.271,467.144s3.033,10.686,6.504,10.719c3.471.033,8.359-7.26,8.359-7.26l-1.667-2.112"/><line class="cls-4" x1="317.462" y1="470.531" x2="315.788" y2="472.381"/><path class="cls-4" d="M299.917,473.891c2.058-5.485,4.688-9.968,5.313-10.547s1.326-.282,1.326-.282c0,0,1.306.283,1.876.132,0,0,.613-.21.981.293.368.503,5.677,8.433,5.9,8.768l.499.751"/><path class="cls-4" d="M313.475,457.106c-.235,1.279-.91,2.135-.91,2.135.218.704-.025,1.995-2.745,2.616-.686.157-1.371.282-1.669.578"/><path class="cls-4" d="M312.584,453.952c.892.958.963,2.593.891,3.154"/><path class="cls-4" d="M302.474,458.075c-.056.968.451,2.052,1.436,2.782,2.107,1.562,2.944.755,3.035,1.581"/><path class="cls-4" d="M322.422,467.502c-.333-.814-1.289-.23-.811.326s.652,1.67.652,1.67"/><path class="cls-4" d="M323.134,470.249s1.611-2.451,0-3.684"/><path class="cls-4" d="M315.703,462.438c.659-.101,1.451-.197,1.338.37-.074.371-1.227.254-1.227.254"/><path class="cls-4" d="M316.725,461.857s-1.324-.165-2.058.581"/><polyline class="cls-4" points="310.407 464.943 314.512 462.386 315.381 463.345"/><path class="cls-4" d="M310.136,472.987s.244,4.846.801,6.096c.557,1.25,1.004,1.535,2.373,1.658,1.369.122,4.993-.341,7.128,2.27,1.939,2.372.471,11.865.454,15.998h-5.196s-.741-10.282,0-11.864c0,0-1.187-.436-2.261-.497"/><path class="cls-4" d="M314.39,494.814l.237-7.793"/><path class="cls-4" d="M314.667,480.757s-.194-4.229-4.166-3.667"/><path class="cls-4" d="M309.539,494.839l4.243.006s.872-.066,1.566.229"/><path class="cls-4" d="M159.558,384.654s-.091-.848.447-.806.521,1.367.521,1.367c-1.198-.94-2.608-1.037-3.38-.148-1.335,1.536.741,3.72.741,3.72"/><path class="cls-4" d="M151.161,376.177s1.311.84.982,1.214-.982.207-.982.207c0,0,1.086.843.751,1.776s-2.646,1.646-3.484-.603"/><path class="cls-4" d="M139.971,379.943s1.159.639,1.157,1.338-.863.207-.863.207c0,0,1.049.584.69,1.513s-2.47,1.674-3.38-1.181"/><polyline class="cls-4" points="142.759 375.297 139.934 369.924 140.737 367.852 138.934 366.123 140.886 364.53 142.799 375.545 142.107 383.846"/><polyline class="cls-4" points="144.404 384.018 143.073 375.387 143.036 364.663 144.255 366.372 143.72 367.604 144.639 370.036 143.073 375.387"/><path class="cls-4" d="M141.128,364.502l1.025.457-.15.948s-.434.129-.827-.29"/><path class="cls-4" d="M142.753,364.624l-.599.335.409.966s.453-.105.473-.35"/><rect class="cls-4" x="142.586" y="381.137" width="1.33" height=".869"/><path class="cls-4" d="M141.9,356.451c-.023.627-.94,2.465-1.163,2.493"/><path class="cls-4" d="M143.576,356.306s-.24,2.136-.824,2.414"/><path class="cls-4" d="M145.376,356.535s-.103,2.006-.807,2.409"/><path class="cls-4" d="M139.655,358.721c-.327.582-.713.886-.713.886"/><path class="cls-4" d="M140.569,352.226s-.267.385-.168.765"/><path class="cls-4" d="M139.655,352.715s.229-.034.377.159"/><path class="cls-4" d="M140.951,363.543s.527.031.69.039"/><path class="cls-4" d="M146.742,356.782s.015,1.448-.352,2.048"/><path class="cls-4" d="M264.378,351.216s-.612,1.65-.364,2.436,4.012,3.187,5.923,3.187"/><path class="cls-4" d="M267.029,351.535s1.21.603,2.46.879"/><path class="cls-4" d="M228.579,296.384c.331.652.739,1.437-.248,1.942"/><path class="cls-4" d="M227.296,296.65s-.104,1.32-.875,1.821c-.656.426-1.153.012-1.694,1.089-.301.598-.741.417-.741.417"/><path class="cls-4" d="M229.81,296.24s.993,1.179.464,1.852"/><polygon class="cls-11" points="222.394 301.782 222.264 302.95 223.692 303.301 224.015 302.287 222.394 301.782"/><path class="cls-4" d="M222.616,303.099s-1.055,0-1.097,1.376c-.017.55-.797.859-.817,1.748s.497,1.066.497,1.066"/><path class="cls-4" d="M226.24,317.364s-2.064,3.65-2.403,3.849-6.458,2.809-6.976.069"/><path class="cls-4" d="M220.136,317.018s2.252.463,3.269.463"/><path class="cls-4" d="M267.664,330.7s-1.073-.265-.628-2.251c.278-1.239.455-2.731-.248-1.876,0,0-.145-.27-.279-.252s-1.223,1.411-.393,4.525"/><path class="cls-4" d="M268.622,329.442c-.014.372.224,1.185.519,1.234"/><path class="cls-4" d="M271.184,323.845s1.521-.84,3.507.372,3.091,4.001,2.524,4.91c-.567.908-.424,1.64-.481,2.013s-.451,1.615-1.175,1.862"/><path class="cls-4" d="M265.608,330.601c-.468-.259-.517-1.214-.362-1.417.331-.435-.31-1.304.56-2.928.691-1.289,1.375-.786,1.375-.786,0,0,.914-1.273,2.007-1.448,1.159-.186,1.386.021,1.386.021"/><path class="cls-4" d="M269.529,329.929s.153.851,1.644.767"/><path class="cls-4" d="M269.891,327.001c-.18.486-.149,2.326,1.007,2.621,1.094.28,1.592,1.163,1.486,1.724"/><path class="cls-4" d="M273.164,330.459c.635.91.179,1.027.1,1.724-.086.759.479,1.006.479,1.006"/><polyline class="cls-4" points="269.938 336.717 271.029 335.409 272.893 334.823 273.454 335.587"/><path class="cls-4" d="M261.258,339.575c-.91.088-1.161.443,0,.677.793.159.994.21.994.21"/><path class="cls-4" d="M257.113,341.675s-.145-.689.389-.689c.487,0,1.076,1.389,1.076,1.389"/><path class="cls-4" d="M261.201,356.176s3.246,1.404,7.242,1.821c1.495.156,2.14-.331,2.14-.331"/><ellipse class="cls-4" cx="353.451" cy="429.981" rx="1.291" ry="1.695" transform="translate(-128.203 708.944) rotate(-80.658)"/><ellipse class="cls-4" cx="358.06" cy="430.498" rx="1.207" ry="1.585" transform="translate(-94.942 759.626) rotate(-86.249)"/><path class="cls-4" d="M355.141,430.524s.751-.454,1.305.114"/><line class="cls-4" x1="360.806" y1="429.193" x2="359.628" y2="430.192"/><path class="cls-4" d="M356.446,425.018c-.331-.141-1.176-.498-1.305.867-.129,1.365-.596,2.652-1.48,2.822"/><path class="cls-4" d="M353.163,426.477s-.581,2.537-1.808,2.662"/><path class="cls-4" d="M357.023,425.346c.527-.138.996.11.721,1.131s-.477,2.82.396,2.817"/><path class="cls-4" d="M359.067,428.27s-.083,1.08.828,1.161"/><path class="cls-4" d="M360.269,432.412s.241.781.636.695"/><path class="cls-4" d="M362.075,430.637s-1.05,2.367.221,1.633"/><path class="cls-4" d="M357.023,433.158c.024.013.479.468.479.468l.558-.648.559.135-1.001,1.444-.158-.528-.352.476-.331-1.21.245-.137Z"/><path class="cls-4" d="M359.074,433.471s-1.438,3.166-1.697,8.008c-.036.672-.096,2.433-.096,2.433"/><path class="cls-4" d="M356.648,433.637s-.387,11.389-1.112,11.885c-.724.497-1.383.612-1.383.612"/><path class="cls-4" d="M358.619,449.572s1.638-.041,1.967,1.537,4.026-.496,4.771-1.184c.745-.687.976-1.421.976-1.421"/><path class="cls-4" d="M360.904,448.504s.453-.075.894.357"/><line class="cls-4" x1="359.663" y1="434.406" x2="358.51" y2="436.027"/><polygon class="cls-4" points="357.109 434.506 357.109 435.395 357.618 435.447 357.618 434.557 357.46 434.03 357.109 434.506"/><polygon class="cls-4" points="356.798 444.572 356.446 442.875 357.363 435.421 357.363 443.144 356.798 444.572"/><path class="cls-4" d="M313.36,457.591s2.063-1.114-.32-4.515c-2.904-4.145-5.775-1.985-5.848-2.023,0,0-.772-.685-2.317.028-2.508,1.157-4.663,5.313-2.456,7.963"/><path class="cls-4" d="M311.839,455.083s1.055.635,1.055,2.621"/><path class="cls-4" d="M310.407,458.615s-.318,1.931-1.229,2.538"/><path class="cls-4" d="M308.433,460.684s-.402,1.041-1.242,1.157"/><path class="cls-4" d="M312.584,480.639s1.532,5.644-1.778,5.743"/><path class="cls-4" d="M311.151,481.197s-.606,1.2-1.358,1.407"/><polyline class="cls-4" points="308.895 463.08 308.433 462.635 306.35 462.486 305.626 463.086"/><path class="cls-4" d="M172.463,380.511l-.228-.719c-.497.166-1.986,0-1.986,0l-.095.719"/><path class="cls-4" d="M171.529,378.919s-.039.502.529.408"/><path class="cls-4" d="M167.416,369.85s-2.742,2.41-1.555,4.487"/><path class="cls-4" d="M167.142,374.337s-.274,1.803.588,2.213c.034.016.196.821.96.978,0,0,.725,1.038,1.254.96s.528.979,1.204.823"/><path class="cls-4" d="M175.555,402.454c2.683,0,2.683-3.214,2.683-3.214"/><path class="cls-17" d="M314.628,486.382l-.342,8.466-4.882-.034v-3.909s4.389-.639,4.622-1.582c.232-.944.596-2-.007-2.239-.602-.239-1.387-.398-1.387-.398l.982-.688-1.742.871s1.98-.017,2.302.41c.322.427-.188,2.217-.569,2.398"/><line class="cls-3" x1="397.96" y1="234.928" x2="395.429" y2="223.424"/><rect class="cls-15" x="239.53" y="95.994" width="143.773" height="104.215" rx="15.057" ry="15.057"/><path class="cls-6" d="M368.246,95.994c8.316,0,15.057,6.741,15.057,15.057v74.101c0,8.316-6.741,15.057-15.057,15.057h-113.659c-8.316,0-15.057-6.741-15.057-15.057v-75.683c0-7.442,6.033-13.475,13.475-13.475"/><line class="cls-6" x1="294.82" y1="95.994" x2="368.246" y2="95.994"/><polygon class="cls-8" points="312.602 214.806 299.824 192.674 325.38 192.674 312.602 214.806"/></g></g></svg>