<?xml version="1.0" encoding="UTF-8"?><svg id="_レイヤー_1" xmlns="http://www.w3.org/2000/svg" width="917.04" height="587.937" xmlns:xlink="http://www.w3.org/1999/xlink" viewBox="0 0 917.04 587.937"><defs><style>.cls-1{stroke-width:1.092px;}.cls-1,.cls-2,.cls-3,.cls-4,.cls-5,.cls-6,.cls-7,.cls-8,.cls-9,.cls-10,.cls-11,.cls-12,.cls-13{stroke-linecap:round;stroke-linejoin:round;}.cls-1,.cls-14,.cls-15,.cls-12,.cls-16{fill:#fff;}.cls-1,.cls-12,.cls-13{stroke:#aaa;}.cls-2,.cls-3{stroke-width:1.737px;}.cls-2,.cls-3,.cls-4,.cls-17,.cls-5,.cls-6,.cls-18,.cls-7,.cls-8,.cls-9,.cls-11,.cls-19,.cls-13{fill:none;}.cls-2,.cls-20{stroke:#030000;}.cls-3,.cls-8{stroke:#e1e1e1;}.cls-4{stroke-width:.868px;}.cls-4,.cls-6,.cls-9{stroke:#a6a6a6;}.cls-17{stroke:#1e57a0;stroke-width:2px;}.cls-17,.cls-20,.cls-19{stroke-miterlimit:10;}.cls-21{letter-spacing:-.48em;}.cls-5{stroke:#ec70d3;stroke-width:6.946px;}.cls-22{fill:#ec70d3;}.cls-23{fill:#aee5fb;}.cls-24{fill:#faeff4;filter:url(#drop-shadow-1);}.cls-25{fill:#296fc2;}.cls-6{stroke-width:1.656px;}.cls-26{fill:#e1e1e1;}.cls-7{stroke:#296fc2;stroke-width:.174px;}.cls-27,.cls-20,.cls-28,.cls-29{fill:#030000;}.cls-27,.cls-15{font-size:16px;}.cls-27,.cls-28{font-family:PA1GothicStdN-Light, 'PA1GothicStdN Light-90ms-RKSJ-H';font-weight:300;}.cls-30{letter-spacing:-.48em;}.cls-8{stroke-width:1.733px;}.cls-20,.cls-13{stroke-width:1.158px;}.cls-9{stroke-width:.579px;}.cls-10{fill:#d2d2d2;stroke:#d2d2d2;stroke-width:1.149px;}.cls-15{font-family:PA1GothicStdN-Medium, 'PA1GothicStdN Medium-90ms-RKSJ-H';font-weight:500;letter-spacing:.05em;}.cls-11,.cls-12{stroke-width:1.24px;}.cls-11,.cls-19{stroke:#fff;}.cls-31{letter-spacing:.02em;}.cls-32{fill:#c5c5c5;}.cls-33{fill:#ade0fb;}.cls-34{fill:#cce6f7;}.cls-16{opacity:.6;}.cls-35{fill:#1e57a0;}.cls-36{fill:#a3daf6;}.cls-19{stroke-width:.778px;}.cls-37{fill:#4ba2f1;}.cls-28{letter-spacing:.2em;}.cls-28,.cls-29{font-size:22px;}.cls-29{font-family:PA1GothicStdN-Bold, 'PA1GothicStdN Bold-90ms-RKSJ-H';font-weight:700;letter-spacing:.1em;}</style><filter id="drop-shadow-1" x="13.915" y="201.967" width="600.092" height="376.943" filterUnits="userSpaceOnUse"><feOffset dx="0" dy="15.05"/><feGaussianBlur result="blur" stdDeviation="0"/><feFlood flood-color="#000" flood-opacity=".5"/><feComposite in2="blur" operator="in"/><feComposite in="SourceGraphic"/></filter></defs><path class="cls-24" d="M333.2,217.55l-15.38-8.893c-15.501-8.964-34.621-8.916-50.077.124L26.245,350.035c-16.487,9.643-16.427,33.491.107,43.053l283.751,164.082c15.501,8.964,34.621,8.916,50.077-.124l241.498-141.255c16.487-9.643,16.427-33.491-.107-43.053l-20.686-11.962-8.384-33.466c-.617-2.463-2.731-4.261-5.261-4.476l-60.906-5.168-116.532-67.386-56.604-32.732Z"/><ellipse class="cls-22" cx="299.31" cy="234.874" rx="10.123" ry="8.507"/><path class="cls-14" d="M66.999,261.394c.839,1.935-1.136,66.958.964,63.762l80.59-47.561v-60.799l-81.554,44.598Z"/><path class="cls-5" d="M63.524,413.48l32.622-20.216c4.374-2.71,4.236-9.119-.25-11.639l-20.401-11.463c-4.481-2.517-4.505-8.959-.044-11.511l208.06-118.991c12.778-7.308,28.494-7.197,41.168.289l176.952,104.527c8.548,5.049,19.091,5.352,27.914.801l44.469-22.937"/><path class="cls-26" d="M518.273,395.165c4.088.919,10.311,3.997,8.973,8.439-1.255,4.166-9.78,7.497-16.221,5.516-11.407-3.509-12.821-7.582-6.372-11.26,5.865-3.344,11.45-3.183,13.619-2.695Z"/><path class="cls-14" d="M522.845,391.55c-2.588,1.456-6.832,2.602-8.133,6.676s-.905,13.182,6.18,10.841c6.523-2.155,10.102-9.437,10.622-14.575.52-5.139-.908-6.943-2.433-6.336s-3.142,1.654-6.236,3.394Z"/><path class="cls-26" d="M517.02,415.619l-3.563-.383c.179-.128.302-.332.302-.57v-.8c0-.317-.216-.579-.512-.667v-11.092c0-.39-.316-.706-.707-.706s-.707.316-.707.706v13.11l-3.506.401c-.356.041-.626.343-.626.702v.8c0,.39.316.706.707.706s.707-.316.707-.706v-.17l2.607-.299-.436,3.036c-.005.033-.008.067-.008.1v.8c0,.39.316.706.707.706s.707-.316.707-.706v-.749l.461-3.215,3.084.331v.165c0,.39.316.706.707.706s.707-.316.707-.706v-.8c0-.361-.273-.664-.631-.702Z"/><path class="cls-14" d="M356.181,300.259c0,3.125-.762,8.875,5.055,7.164,5.355-1.575,9.377-4.556,9.316-10.6-.038-3.781-1.584-3.526-2.521-3.51-2.687.044-11.85,3.89-11.85,6.946Z"/><path class="cls-26" d="M368.214,303.17c-1.823,1.96-5.227,3.464-8.364,4.562-1.637.573-2.039,9.069,5.308,7.404,12.096-2.74,24.013-5.549,17.311-9.371-6.094-3.475-13.494-3.414-14.255-2.595Z"/><path class="cls-32" d="M291.362,362.615l-4.733-2.788c-.154-.09-.344-.092-.499-.003-.155.088-.251.254-.251.432v26.683c0,.256.194.47.449.495.017.001.033.002.049.002.235,0,.441-.166.487-.401l4.733-23.894c.041-.207-.053-.418-.235-.525Z"/><path class="cls-26" d="M345.764,431.178c-4.088.919-10.311,3.997-8.973,8.439,1.255,4.166,9.78,7.497,16.221,5.516,11.407-3.509,12.821-7.582,6.372-11.26-5.865-3.344-11.45-3.183-13.619-2.695Z"/><path class="cls-14" d="M334.084,427.826c0,3.068-.626,9.575,4.861,7.562,7.002-2.569,8.558-6.363,8.969-10.05.411-3.688-1.425-3.561-2.327-3.546-2.586.044-11.503,3.034-11.503,6.035Z"/><polyline class="cls-6" points="351.495 438.121 351.495 451.861 355.627 452.334 355.627 453.134"/><polyline class="cls-6" points="351.495 451.936 352.05 455.801 352.05 456.602"/><polyline class="cls-6" points="351.495 451.861 347.092 452.334 347.092 453.134"/><polyline class="cls-6" points="351.495 451.936 350.984 449.879 350.984 450.68"/><path class="cls-14" d="M447.555,363.67c0,3.393-.294,8.633,5.304,6.775,5.153-1.711,8.115-5.448,8.526-9.528.411-4.08-1.425-3.94-2.327-3.923-2.586.048-11.503,3.357-11.503,6.676Z"/><path class="cls-26" d="M459.234,366.381c-4.088.919-10.311,3.997-8.973,8.439,1.255,4.166,9.78,7.497,16.221,5.516,11.407-3.509,12.821-7.582,6.372-11.26-5.865-3.344-11.45-3.183-13.619-2.695Z"/><polyline class="cls-6" points="464.966 373.324 464.966 387.064 469.098 387.537 469.098 388.337"/><polyline class="cls-6" points="464.966 387.138 465.521 391.004 465.521 391.804"/><polyline class="cls-6" points="464.966 387.064 460.563 387.537 460.563 388.337"/><polyline class="cls-6" points="464.966 387.138 464.455 385.082 464.455 385.882"/><path class="cls-26" d="M401.172,396.908c-.658.895-9.664,2.52-7.955,8.151,1.186,3.908,9.543,6.891,15.985,4.909,11.407-3.509,12.821-7.582,6.372-11.26-5.865-3.344-13.085-3.591-14.401-1.8Z"/><path class="cls-14" d="M390.534,393.063c0,2.981,1.234,8.862,4.199,7.351,7.066-3.599,9.795-5.302,9.541-10.288-.183-3.603-1.425-3.461-2.327-3.446-2.586.042-11.413,3.468-11.413,6.383Z"/><polygon class="cls-10" points="370.4 504.625 370.4 477.91 365.661 475.096 370.4 504.625"/><polygon class="cls-10" points="325.048 477.91 325.048 451.195 329.787 453.986 325.048 477.91"/><polygon class="cls-14" points="536.326 408.382 536.326 381.667 531.623 379.079 536.326 408.382"/><path class="cls-14" d="M536.576,381.236l-46.28-26.822c-.156-.09-.346-.09-.501,0l-164.998,96.349c-.153.089-.247.253-.247.429s.093.341.245.43l45.353,26.715c.078.046.165.069.253.069.086,0,.173-.022.25-.067l165.926-96.242c.154-.089.248-.254.248-.431s-.094-.342-.248-.431Z"/><path class="cls-32" d="M404.431,415.949l3.822,2.307c.166.1.374.1.54,0l13.351-8.067c.334-.202.337-.685.005-.891l-3.831-2.374c-.167-.104-.379-.105-.547-.002l-13.342,8.134c-.335.204-.334.691.002.893Z"/><path class="cls-26" d="M496.653,353.927c-.216-.127-.485-.13-.703-.007l-23.401,13.12c-.224.126-.362.363-.361.619l.071,15.74c0,.24.124.462.325.592.115.074.248.111.381.111.099,0,.199-.021.292-.063l23.33-10.609c.252-.114.415-.366.415-.643v-18.251c0-.251-.133-.483-.349-.609Z"/><path class="cls-26" d="M436.807,387.854c-.158-.093-.354-.096-.514-.006l-24.074,13.389c-.165.092-.267.266-.266.455l.08,17.89c.001.184.099.353.258.446.08.047.17.07.26.07.088,0,.176-.022.255-.067l23.993-13.583c.163-.092.263-.264.263-.451v-17.696c0-.184-.097-.354-.255-.447Z"/><polygon class="cls-34" points="507.643 361.546 484.477 374.43 484.554 391.646 507.643 378.575 507.643 361.546"/><polygon class="cls-3" points="507.643 361.546 484.477 374.43 484.554 391.646 507.643 378.575 507.643 361.546"/><path class="cls-32" d="M490.543,392.34l3.678,2.22c.16.096.36.096.52,0l12.847-7.763c.321-.194.324-.66.005-.857l-3.686-2.284c-.161-.1-.365-.101-.526-.002l-12.839,7.827c-.322.196-.321.664.002.859Z"/><path class="cls-14" d="M299.343,334.751c0,3.125-.762,8.875,5.055,7.164,5.355-1.575,9.377-4.556,9.316-10.6-.038-3.781-1.584-3.526-2.521-3.51-2.687.044-11.85,3.89-11.85,6.946Z"/><path class="cls-26" d="M311.377,337.662c-1.823,1.96-5.227,3.464-8.364,4.562-1.637.573-2.039,9.069,5.308,7.404,12.096-2.74,24.013-5.549,17.311-9.371-6.094-3.475-13.494-3.414-14.255-2.595Z"/><polyline class="cls-6" points="317.436 344.671 317.436 358.95 321.73 359.441 321.73 360.273"/><polyline class="cls-6" points="317.436 359.027 318.012 363.044 318.012 363.876"/><polyline class="cls-6" points="317.436 358.95 312.86 359.441 312.86 360.273"/><polyline class="cls-6" points="317.436 359.027 316.904 356.89 316.904 357.722"/><path class="cls-32" d="M331.928,386.51l-4.733-2.811c-.165-.098-.374-.092-.534.016-.159.109-.242.3-.211.49l4.733,29.493c.039.243.249.419.491.419.013,0,.027,0,.04-.001.259-.021.458-.237.458-.496v-26.682c0-.175-.092-.338-.243-.427Z"/><polygon class="cls-14" points="436.543 325.606 440.88 349.925 441.867 349.844 442.282 322.285 436.543 325.606"/><path class="cls-14" d="M442.558,322.981l-.575-.453-45.502-26.865c-.147-.087-.329-.087-.476-.001l-55.679,32.513h0s-54.241,31.674-54.241,31.674c-.31.181-.311.629-.002.811l45.352,26.714c.146.086.328.087.474.002l55.717-32.318-.158-.124,55.088-31.953Z"/><path class="cls-14" d="M331.497,386.51l4.733-2.811c.165-.098.374-.092.534.016.159.109.242.3.211.49l-4.733,29.493c-.039.243-.249.419-.491.419-.013,0-.027,0-.04-.001-.259-.021-.458-.237-.458-.496v-26.682c0-.175.092-.338.243-.427Z"/><line class="cls-13" x1="396.104" y1="337.028" x2="402.254" y2="341.044"/><line class="cls-13" x1="393.029" y1="338.289" x2="399.179" y2="342.305"/><polygon class="cls-26" points="390.853 335.435 387.979 337.078 390.547 338.621 393.414 336.993 390.853 335.435"/><polygon class="cls-26" points="395.904 334.528 393.029 336.171 393.718 336.588 396.585 334.96 395.904 334.528"/><path class="cls-14" d="M246.935,258.822c0,3.374-.158,10.615,5.407,8.768,5.123-1.701,7.934-7.449,8.342-11.505.409-4.056-1.417-3.917-2.313-3.9-2.571.048-11.436,3.337-11.436,6.637Z"/><path class="cls-26" d="M258.547,261.517c-4.065.913-10.251,3.973-8.921,8.39,1.247,4.142,9.723,7.454,16.126,5.484,11.341-3.489,12.747-7.538,6.335-11.194-5.831-3.324-11.384-3.164-13.54-2.68Z"/><polyline class="cls-6" points="264.245 268.419 264.245 282.08 268.353 282.55 268.353 283.345"/><polyline class="cls-6" points="264.245 282.154 264.797 285.997 264.797 286.792"/><polyline class="cls-6" points="264.245 282.08 259.868 282.55 259.868 283.345"/><polyline class="cls-6" points="264.245 282.154 263.737 280.109 263.737 280.905"/><path class="cls-32" d="M230.668,286.897c-.155-.091-.346-.092-.502-.003-.156.089-.252.255-.252.434v26.842c0,.258.195.473.452.498.017.001.033.002.049.002.236,0,.444-.167.49-.403l4.762-24.037c.042-.209-.053-.42-.237-.528l-4.762-2.805Z"/><path class="cls-32" d="M271.475,310.912c-.167-.098-.375-.093-.537.016-.16.109-.243.302-.213.493l4.761,29.669c.039.244.25.421.494.421.013,0,.027,0,.04-.001.26-.021.461-.238.461-.499v-26.841c0-.176-.093-.34-.245-.43l-4.761-2.827Z"/><path class="cls-14" d="M354.286,268.369c-.155-.088-.345-.089-.501,0l-4.706,2.724c-.185.107-.281.32-.24.529l4.706,24.118c.046.237.254.405.491.405.016,0,.032,0,.049-.002.256-.025.452-.24.452-.498v-26.842c0-.179-.095-.344-.25-.434Z"/><polygon class="cls-14" points="307.977 240.984 229.428 287.329 275.727 314.601 275.981 314.751 354.537 268.443 307.977 240.984"/><path class="cls-14" d="M275.765,313.903l4.733-2.811c.165-.098.374-.092.534.016.159.109.242.3.211.49l-4.733,29.493c-.039.243-.249.419-.491.419-.013,0-.027,0-.04-.001-.259-.021-.458-.237-.458-.496v-26.682c0-.175.092-.338.243-.427Z"/><circle class="cls-11" cx="391.705" cy="269.323" r=".932"/><circle class="cls-11" cx="334.345" cy="236.848" r=".932"/><polygon class="cls-12" points="332.622 173.798 332.941 211.683 390.72 245.039 390.72 206.667 332.622 173.798"/><path class="cls-12" d="M339.416,185.74c.179,2.866.179,5.015,2.329,3.762,2.149-1.254,5.015-.537,5.732,2.149.716,2.687,1.254,5.374,3.762,3.403,2.508-1.97,3.657-1.254,4.336,1.433.679,2.687,4.261,3.224,7.844,2.329,3.582-.896,4.812,4.478,4.812,4.478"/><path class="cls-1" d="M340.176,195.436c-.022,2.027-.185,3.532,2.265,2.91,2.45-.622,5.536.221,6.116,2.187.581,1.966.965,3.911,3.862,2.83,2.897-1.081,4.102-.442,4.642,1.519s4.424,2.764,8.416,2.564,4.932,3.707,4.932,3.707"/><line class="cls-12" x1="333.317" y1="238.279" x2="332.923" y2="210.24"/><line class="cls-12" x1="390.343" y1="270.754" x2="390.72" y2="238.804"/><circle class="cls-11" cx="389.088" cy="271.215" r=".932"/><circle class="cls-11" cx="331.727" cy="238.741" r=".932"/><path class="cls-14" d="M231.198,423.378l-4.449,3.028-4.507-3.148c-.164-.115-.381-.121-.551-.017-.171.104-.264.299-.237.498l4.791,35.12c.003.023.015.042.021.064.008.028.014.055.027.081.014.031.033.057.053.083.016.022.031.044.051.063.024.024.052.041.081.059.023.015.044.03.069.041.032.014.066.02.101.027.022.004.041.015.063.017.011,0,.022,0,.033,0,0,0,0,0,0,0h.001s0,0,0,0c.011,0,.022,0,.033,0,.023-.002.042-.012.064-.017.035-.007.069-.013.1-.027.026-.011.047-.027.071-.042.028-.018.055-.035.078-.058.02-.02.035-.042.052-.065.019-.026.038-.051.052-.081.012-.026.019-.054.027-.082.006-.022.018-.04.021-.063l4.735-34.997c.027-.197-.065-.391-.234-.496-.17-.105-.384-.101-.548.012Z"/><path class="cls-14" d="M252.541,470.26c.006-.022.018-.04.021-.063l4.735-34.997c.027-.197-.065-.391-.234-.496-.17-.104-.385-.101-.548.012l-4.449,3.028-4.507-3.148c-.163-.115-.381-.121-.551-.017-.171.104-.264.299-.237.498l4.791,35.12c.003.023.015.042.021.064.008.028.014.055.027.081.014.031.033.057.053.083.016.022.031.044.051.063.024.024.052.041.081.059.023.015.044.03.069.041.032.014.066.02.101.027.022.004.041.015.063.017.011,0,.022,0,.033,0,0,0,0,0,0,0h0s0,0,0,0c.011,0,.022,0,.033,0,.023-.002.042-.012.064-.017.035-.007.069-.013.1-.027.026-.011.047-.027.071-.042.028-.018.055-.035.078-.058.02-.02.035-.042.052-.065.019-.026.038-.051.052-.081.012-.026.019-.054.027-.082Z"/><path class="cls-14" d="M249.679,397.73c-23.89,0-43.102,11.304-43.325,25.877-.215,14.046,19.436,25.477,43.325,25.477,28.735,0,43.487-11.154,43.325-25.977-.154-14.047-19.436-25.378-43.325-25.378Z"/><path class="cls-22" d="M191.992,169.844c-.967-.649-1.932-1.4-2.724-1.785-.285-.138-.901-.268-1.409-.33.099-.115.141-.245.11-.379-.091-.389-.768-.664-1.513-.613-.09.006-.178.017-.262.032-.174-.479-.492-1.113-.763-1.287-1.549-.996-5.648-3.201-6.664-3.597-.352-.137-.568.138-.713.21-.548.272,1.292,1.664,3.347,3.044.966.649,1.931,1.4,2.724,1.785.248.12.746.234,1.205.302-.06.096-.033.738-.033.867v.125l-1.19.564-9.732,4.265c.228-.441.447-.865.635-1.23.403-.782-.043-1.722-.902-1.91-1.787-.392-4.481-.951-5.447-.993-.696-.03-1.347.253-1.799.784-.461.543-1.118,1.403-1.826,2.361l-7.598-5.478v-.194c0-.161-.005-.869-.192-1.063-.003-.003-.006-.006-.01-.009.854-.038,2.221-.168,2.575-.321,1.816-.782,5.866-2.894,6.607-3.433.257-.187-.214-.337-.334-.427-.449-.339-2.971.568-5.482,1.6-1.181.485-2.54.959-3.252,1.372-.299.173-.599.607-.699.907-.358-.09-.787-.084-1.159.04-.539.179-.783.544-.621.87-.839.03-2.326.165-2.698.326-1.815.782-5.866,2.894-6.607,3.433-.257.187.215.337.334.427.449.339,2.971-.569,5.482-1.6,1.181-.485,2.539-.959,3.251-1.372.052-.03.104-.069.155-.112v1.176c0,.513.42.933.933.933h.783c.41,0,.76-.268.884-.638l.481.051,6.185,4.853c-.457.632-.905,1.259-1.333,1.861l-11.514,5.505c-.242-.085-.539-.165-.819-.225.102-.119.146-.254.117-.392-.084-.397-.742-.672-1.472-.615-.112.009-.219.025-.32.048-.117-.505-.412-1.297-.69-1.511-1.439-1.109-5.278-3.602-6.24-4.066-.334-.161-.564.108-.71.173-.554.246,1.141,1.776,3.046,3.307.896.72,1.783,1.543,2.529,1.984.277.164.9.338,1.399.429-.225.077-.168,1.163-.168,1.389v1.903c0,.23.085.441.225.605,0,0,.948,3.16,1.137,3.224.098.034.351.081.416,0,.053-.067-.062-2.896-.062-2.896.513,0,1.247-.827,1.623-1.059,1.75,1.226,4.443,2.951,5.227,3.329.333.161.563-.108.71-.173.553-.246-1.141-1.776-3.046-3.307-.412-.331-.822-.684-1.218-1.011,1.567-.859,5.334-2.759,8.082-4.134-1.446,2.171,1.925,6.617,3.849,6.968,3.514.64,5.584-3.755,6.587-5.943.963.854,4.445,3.976,6.065,5.959-.772.383-1.628.841-2.463,1.258-2.845,1.425-5.482,2.858-5.092,3.125.104.071.161.346.591.202,1.087-.364,5.334-2.164,7.795-3.297.363.582,1.903.35,1.903.35,0,.513.42.933.933.933h.29s-.422,2.627-.352,2.896c.026.101.329.055.416,0,.188-.118,1.137-3.224,1.137-3.224.14-.163.225-2.508.225-2.508,0-.207-.076-.397-.2-.545.01-.009.021-.018.03-.027.201-.197.232-.414.121-.599.557-.062,1.338-.214,1.733-.37,1.013-.401,2.408-1.174,3.746-1.844,2.845-1.424,5.482-2.858,5.091-3.125-.103-.071-.161-.346-.591-.202-1.242.415-6.601,2.703-8.72,3.732-.42.204-1.242,1.006-1.668,1.497-.056-.023-.115-.043-.18-.06-.631-.17-1.445-.011-1.817.356-.175.172-.221.36-.156.528-.204.029-.424.066-.637.109l-7.463-6.631c.379-.711.785-1.482,1.198-2.273l11.41-4.618.583-.15c.115.384.473.666.894.666h.783c.513,0,.933-.42.933-.933v-.508c.005.004.011.008.016.012,1.549.996,5.648,3.201,6.664,3.597.352.137.568-.138.713-.21.548-.272-1.292-1.664-3.347-3.044Z"/><path class="cls-32" d="M353.46,442.513l3.678,2.22c.16.096.36.096.52,0l12.847-7.763c.321-.194.324-.66.005-.857l-3.686-2.284c-.161-.1-.365-.101-.526-.002l-12.839,7.827c-.322.196-.321.664.002.859Z"/><path class="cls-26" d="M189.439,320.401l-68.129,41.848s-35.013-17.676-44.707-24.894c-9.693-7.218-9.605-15.816-9.605-15.816v-60.201l81.718-44.688v60.922s-2.457,10.115,17.458,18.158c19.916,8.043,36.928,16.279,36.928,16.279l-13.664,8.393Z"/><path class="cls-32" d="M121.31,323.973l4.698,29.276c.061.384.393.661.775.661.021,0,.042,0,.063-.002.409-.033,4.373-31.841,4.373-32.251l-9.91,2.316Z"/><path class="cls-14" d="M96.796,309v26.517c0,.405.307.743.709.783.026.002.052.003.077.003.371,0,.697-.262.771-.633l4.539-22.913"/><path class="cls-14" d="M125.998,326.709v26.415c0,.41.315.751.724.784.021.001.042.002.063.002.383,0,.715-.278.776-.662l4.636-29.123"/><path class="cls-14" d="M182.517,293.694l-29.418-17.801c-.248-.15-.556-.152-.803-.006l-55.111,32.182c-.24.14-.387.396-.389.673s.142.535.38.679l29.203,17.608c.125.075.266.112.406.112.136,0,.272-.035.395-.106l55.246-32.044c.225-.131.371-.365.389-.624.019-.26-.093-.512-.297-.673Z"/><path class="cls-18" d="M241.734,365.238c-.156-1.088-.848-1.889-1.546-1.789-.533.076-.913.657-.995,1.412.727.38,1.598.9,2.468,1.549.101-.343.133-.747.073-1.172Z"/><polygon class="cls-34" points="448.101 393.918 424.935 406.803 425.012 424.018 448.101 410.947 448.101 393.918"/><polygon class="cls-3" points="448.101 393.918 424.935 406.803 425.012 424.018 448.101 410.947 448.101 393.918"/><path class="cls-32" d="M431.001,424.713l3.678,2.22c.16.096.36.096.52,0l12.847-7.763c.321-.194.324-.66.005-.857l-3.686-2.284c-.161-.1-.365-.101-.526-.002l-12.839,7.827c-.322.196-.321.664.002.859Z"/><polygon class="cls-26" points="358.317 433.61 358.4 451.971 382.481 438.338 382.481 420.171 358.317 433.61"/><polygon class="cls-34" points="394.546 428.734 371.381 441.619 371.458 458.835 394.546 445.763 394.546 428.734"/><polygon class="cls-3" points="394.546 428.734 371.381 441.619 371.458 458.835 394.546 445.763 394.546 428.734"/><path class="cls-32" d="M377.447,459.529l3.678,2.22c.16.096.36.096.52,0l12.847-7.763c.321-.194.324-.66.005-.857l-3.686-2.284c-.161-.1-.365-.101-.526-.002l-12.839,7.827c-.322.196-.321.664.002.859Z"/><path class="cls-25" d="M371.38,235.737l-.484.715,4.085,1.934.979-1.166.94,1.22s4.433.405,6.997-2.619l-.523-.731s-3.69,4.547-11.994.647Z"/><path class="cls-14" d="M373.138,213.894s.375,1.883.19,2.326,1.461,1.497,2.702,1.824,1.692.351,1.791.546,0,.531,0,.531l.213.211.815-.303s-.107-.294.154-.501,2.06-.694,2.161-.913.952-.484,1.053-1.038-.023-1.833-.601-1.732c-.577.101-.973.687-.973.687,0,0-1.5-.679-2.14-1.225,0,0-.945-.031-1.395-.302s-.696-.357-.712-1.116.148-1.725-.304-1.741c-.453-.016-.653.296-.904.097s-.435-.052-.417.335-.264,2.15-1.633,2.314Z"/><path class="cls-37" d="M229.996,219.925l-1.021.902s-.557.131-1.826,1.639c-1.269,1.508-2.548,3.667-3.013,4.298-.465.631-2.351,2.746-2.015,4.8.336,2.054,3.266,1.389,4.201,1.125,0,0,.159,5.238.282,5.947s.27,1.327.27,1.327c2.196.262,4.045.29,5.43.252,1.583-.044,2.528-.077,3.794-.38.887-.213,3.507-1.007,2.634-.745h0v-.898c.151-.913.267-1.975.29-3.158.025-1.267-.061-2.402-.19-3.368,1.857.708,3.552.606,4.179-.247.633-.861.693-2.212-.702-3.69-1.395-1.478-5.264-5.847-5.264-5.847,0,0-1.789-1.477-2.328-1.609-.539-.132-1.304-.805-1.304-.805,0,0-.862,1.116-1.651,1.167s-1.767-.711-1.767-.711Z"/><path class="cls-25" d="M250.178,319.879s2.131-.242,4.497-.671c2.366-.429,3.204-.502,3.204-.502l1.161-.827.348,13.596,5.169-.392s.902-12.387.506-14.515c-.396-2.128-1.971-4.683-6.115-4.814,0,0-1.302-3.934-4.616-2.669,0,0-.302,1.585.126,2.503s-3.594,5.14-3.594,5.14l-.686,3.151Z"/><path class="cls-14" d="M255.523,288.441s-.392,1.243-.139,1.813.325,1.803-.783,2.373c-1.109.57-2.535.711-2.66.943s.021,1.505.393,1.794.514.258.514.258c0,0-3.233.482-3.771-.5,0,0,.49-.3.738-.175s.752-.35.674-.655-.222-2.069-.222-2.069l.552-3.067,2.228-4.301s2.145.985,2.277,1.503.37,1.35.2,2.082Z"/><path class="cls-14" d="M327.673,278.847s.137.591.638.68c.501.089,1.092.245,1.289.508s-.912,1.009-2.611.719c-1.699-.29-2.33-.68-2.33-.68,0,0,.638.02.796-.534s.206-1.252.206-1.252l2.012.56Z"/><polygon class="cls-34" points="312.594 291.631 300.881 283.252 309.612 278.371 320.695 286.464 312.594 291.631"/><path class="cls-14" d="M209.695,400.039c3.244-3.627,6.9-2.01,7.072-1.223s1.124,3.887-.24,5.13c-1.168,1.064-.6,1.334-.6,1.334,0,0-1.508,2.501-3.906,1-2.132-1.335-2.216-.068-2.216-.068l-1.197-.827s.603-.308.061-1.171c-.369-.588-.061-3.476-.061-3.476l1.088-.7Z"/><polygon class="cls-34" points="226.115 410.207 209.749 421.226 224.461 430.346 240.995 418.789 226.115 410.207"/><polygon class="cls-34" points="261.402 430.146 250.751 436.233 267.661 445.651 279.517 439.958 261.402 430.146"/><polygon class="cls-34" points="407.658 318.272 398.863 323.325 405.593 338.461 414.751 332.827 407.658 318.272"/><path class="cls-14" d="M412.575,324.464s-1.807-.668-2.245-.364l.764,1.741s-1.661-.318-1.403.612,2.09,1.273,2.09,1.273l1.087-1.385s1.086.647,2.122.647,1.97.054,2,.476.278,1.31-1.303,2.199c0,0-.609.394.156.378.765-.016,3.041-.912,3.891-2.052,0,0-.6.214-1.166-.642s.076-4.545.1-4.518-6.827-2.793-6.827-2.793c0,0-.207.891-.074,1.793.133.901.807,2.634.807,2.634Z"/><polygon class="cls-36" points="352.351 372.914 343.561 378.045 328.652 369.519 336.806 364.859 352.351 372.914"/><polygon class="cls-34" points="358.319 349.648 334.485 362.996 347.912 373.775 371.208 360.774 358.319 349.648"/><path class="cls-14" d="M466.088,347.359l-4.269,5.504,1.591,2.226s3.233.43,3.255.946c.037.842-.458.81-1.268.824,0,0,.888,2.274,1.836,2.024s.257-1.74.405-2.888c0,0,4.714-.926,4.534-2.375-.135-1.088.416-2.794.416-2.794l-6.501-3.466Z"/><path class="cls-33" d="M458.628,405.961s-2.397-.328-4.38,1.331-1.702,3.113-1.418,3.526l3.682,2.229s1.726,3.11,2.752,2.998c1.026-.111.476,2.953.355,3.898-.121.945-.755,1.576-.755,1.576,0,0,.344,1.068,1.11.674s1.304-2.978,1.253-4.062c-.062-1.311-1.054-2.165-1.054-2.165,0,0,3.407-1.446,3.752-4.222.362-2.91-1.939-6.473-5.297-5.783Z"/><path class="cls-14" d="M395.205,445.045s-.636.939-.428,1.824c.207.884.414,1.188.193,1.824s.746,2.243,2.611,2.51c1.865.267,1.569,1.166,1.569,1.166,0,0-.861.085-.752.45s.83.543,1.449.434,1.63-.468,1.603-.897-1.161-.706-1.161-.706c0,0,.295.016.597-.455s-1.55-2.308-1.55-2.308c0,0,1.368-.566.028-1.616s-4.159-2.224-4.159-2.224Z"/><path class="cls-25" d="M394.901,446.546s-.423-1.834.713-3.4c0,0-.446-1.071,1.416-2.168,1.862-1.098,2.82-.724,2.82-.724,0,0,2.702-1.07,4.512.916s2.544,4.839,1.576,6.866c-.968,2.027-3.565,3.055-4.45,3.206s-1.779-.046-1.987-.649-.188-1.476-.188-1.476c0,0,.628-1.269-.104-1.681-.732-.412-1.369.583-1.369.583,0,0-1.102-.412-1.255-1.479,0,0-1.087.105-1.217-1.603,0,0-.326.553-.467,1.609Z"/><path class="cls-14" d="M393.945,453.051s1.53-1.743,2.538-1.958c0,0-2.179-2.469-3.736-1.446-1.556,1.023.657,2.22.657,2.22,0,0-.699-.442-1.104.052s1.645,1.133,1.645,1.133Z"/><path class="cls-14" d="M386.412,459.55l-3.265,2.214s-2.924-1.973-2.053-3.663c.872-1.69,3.301,0,3.301,0,0,0-.171-.662.306-.751s1.348,1.36,1.71,2.2Z"/><polygon class="cls-33" points="383.872 462.473 383.127 461.825 386.392 459.611 387.048 460.009 383.872 462.473"/><path class="cls-33" d="M396.974,451.494l-.553-.401s-1.794.648-2.538,2.059l.529.472s1.609-2.03,2.562-2.13Z"/><path class="cls-23" d="M398.71,452.26l-1.688-.874s-2.27,1.081-2.591,2.013l2.01,1.917-4.904,7.238-4.583-2.613-3.176,2.464s5.345,5.114,8.324,5.357c2.405.196,4.263-3.997,4.263-3.997l-.668,4.95s-1.723,3.524-1.671,4.352c0,0,3.199,1.12,5.211.808,0,0,.199-5.742,2.261-7.275,2.061-1.533,5.139-3.46,5.139-3.46,0,0-2.128-7.257-3.296-9.155-1.04-1.691-1.843-1.922-1.843-1.922,0,0,.051.841-1.203,1.053-1.091.185-1.793-.094-1.85-.406s.264-.45.264-.45Z"/><path class="cls-25" d="M392.957,469.854s.774-3.75,3.089-3.569l-.234,2.389-.559,1.18h-2.296Z"/><path class="cls-25" d="M392.058,487.84h-5.362s-.743-9.157-.131-12.44.342-3.123,1.502-4.079c1.61-1.328,7.295-1.466,7.295-1.466,0,0-1.321,2.744-1.083,3.219,0,0,3.648.79,5.128.839l.279,2.051s-6.478.509-7.162,0c0,0-1.451.506-1.078,1.563.373,1.057.999,1.533.999,1.533l-.387,8.78Z"/><polygon class="cls-25" points="392.968 479.31 393.111 484.023 396.724 483.728 396.819 480.525 392.968 479.31"/><path class="cls-23" d="M391.259,487.901l-4.266-.007s-2.77.436-2.54,2.342,3.703,2.342,5.066,2.131c1.363-.21,2.635-.324,2.685-2.146.05-1.823-.944-2.32-.944-2.32Z"/><path class="cls-23" d="M392.827,487.746s-.569-.092-.679-.341l.154-3.333,4.612-.371.095,2.406c-.421.389-1.192.994-2.318,1.352-.735.234-1.389.287-1.863.287Z"/><path class="cls-14" d="M357.695,414.282s-1.024-.415-1.303-1.299c-.324-1.027-1.927-3.195-3.894-1.365l-.093.108s-.82-.16-1.027.905c-.207,1.065-.707,2.121-1.191,2.132,0,0-1.321-1.08-1.669.18s1.027,1.911,1.027,1.911c0,0,.584.556,1.077.717s1.351.325,1.338.654-.598.775-.93.858l-.332.083.908.491s2.239.661,3.705-.5l-.08-.406-2.507-.183s-.256-.343.73-.501c.986-.158,4.103-.861,4.062-1.72-.041-.859.179-2.067.179-2.067Z"/><path class="cls-33" d="M352.701,407.729s2.369-.944,3.735.702,1.456,3.687,1.618,4.241.411.513.618.493c.268.202-1.044,2.292-2.145.075-1.13-2.275-1.606-2.235-2.446-2.284s-1.161.339-1.38.635-.661.014-1.12.405c-.175.149-.548,2.868-1.191,2.74,0,0-.505-.761-1.141-.348s-.655,1.27-.655,1.27c0,0-1.488-1.1-1.432-3.324.055-2.224.984-3.29,2.289-4.079,1.305-.789,3.251-.527,3.251-.527Z"/><path class="cls-33" d="M352.002,419.676s2.502.085,3.16-.557c0,0,2.251,11.766,1.743,12.906l-3.257,1.851-2.378-.948s.414-2.54.393-3.307.339-9.945.339-9.945Z"/><path class="cls-25" d="M350.716,419.092s-1.024.105-2.719,4.277c-1.695,4.172-3.493,10.105-3.224,10.696s1.754,2.22,2.855,2.729,3.03,1.388,3.03,1.388c0,0,2.792-3.805,3.152-4.17l-2.392-1.095s.351-4.108.355-6.785c.003-2.683.175-6.487.175-6.487,0,0-1.17-.221-1.232-.553Z"/><path class="cls-25" d="M355.391,418.835l-.106.203s1.864,11.255,1.619,12.987l1.5-1.014-1.66,1.953,1.46.591s.159.352.943-.084c.785-.436,4.946-3,4.946-3,0,0,1.46-1-.568-3.108-1.578-1.642-7.983-8.521-8.135-8.527Z"/><path class="cls-14" d="M353.97,434.032s-1.938,1.988-2.341,3.247c0,0,2.458,1.965,3.827,1.052s.743-2.087.199-2.564-.433-.362-.433-.362c0,0,.831.051.851-.225s-2.102-1.147-2.102-1.147Z"/><path class="cls-14" d="M356.876,433.148s-1.031,1.794-.562,2.003.759-.275.759-.275c0,0-.492,2.928.942,2.832v-4.126s-1.139-.433-1.139-.433Z"/><path class="cls-25" d="M453.452,432.08s-6.449.521-8.232,6.964c-1.783,6.443-1.315,8.342-1.315,8.342,0,0,.982.215,2.019.858,1.036.642,2.103.448,2.574.208.471-.239,3.483-.888,4.412-.962.929-.074,2.397-.144,2.397-.144l-.041-2.573s-3.32-.863-4.134-1.462c-.814-.6-.991-1.68-.84-2.818s.826-1.753,1.601-1.447,4.967,1.821,6.214,1.583c0,0-.305-4.496,0-5.702,0,0-2.023.664-5.196-.687l.542-2.159Z"/><path class="cls-33" d="M441.798,423.98s4.367,4.824,5.038,5.847,2.193,2.916,3.904,2.534c1.871-.418,4.618-6.235,4.618-6.235l-2.448,8.113s2.292,1.358,5.196.687c0,0,.602-3.358,2.843-4.785,2.241-1.427,3.355-1.984,3.355-1.984,0,0-2.008-8.111-3.138-9.552,0,0-.632,3.963-1.388,3.693s-.598-.896-.598-.896c0,0,1.065-.204.598-4.183,0,0-.706-.62-1.115-.468s-2.288.736-2.288.736l-2.273-1.904s-2.789,1.885-3.577,2.963l3.222,2.808-3.619,5.31-4.149-5.474s-3.058.537-4.182,2.79Z"/><path class="cls-33" d="M443.373,450.919l3.592.752s1.116.461.756,2.23-2.817,1.689-3.871,1.271-3.048-.801-3.043-2.542,1.478-1.891,2.022-1.801l.544.09Z"/><polygon class="cls-14" points="443.905 447.386 447.792 448.703 446.964 451.672 443.373 450.919 443.905 447.386"/><polygon class="cls-14" points="452.91 447.49 452.91 449.037 455.156 449.196 455.307 447.346 452.91 447.49"/><path class="cls-33" d="M450.997,452.277s-1.543-.278-1.581-1.358,1.555-1.939,3.494-1.882c1.939.056,2.246.159,2.246.159l.109,1.285s-3.928.242-4.134.767-.135,1.029-.135,1.029Z"/><path class="cls-14" d="M445.314,421.402s.215-1.565-.312-1.5-.202.372-.202.372c0,0-1.893-1.636-2.97.149-1.078,1.785.286,2.944.286,2.944,0,0,.773-.777,1.538-1.201.648-.359,1.661-.764,1.661-.764Z"/><path class="cls-14" d="M451.257,417.708s-1.83-.267-1.875-.834.607-.603.607-.603c0,0-.556-1.108-.151-1.492s1.628-.811,2.47-.214,1.012,1.232,1.012,1.232l-2.063,1.912Z"/><path class="cls-14" d="M452.83,410.818s.535,1.461.378,1.925-.766,1.651.731,2.349,3.066.951,3.079,1.444-.105.784-.105.784l1.749-.568s-.046-.762.151-.763-.433-.203-.807-1.424-.562-1.22-.562-1.22c0,0-.227-1.664-1.511-.832l-.47-.967s-.423.174-.681-.195c0,0-1.041.118-1.157-.374,0,0-.427-.373-.448-1.072l-.347.914Z"/><path class="cls-14" d="M474.687,387.131s-1.177-1.237-1.842-.371c-.665.866.08,1.539,1.076,1.814,0,0,.265,1.66,1.472,1.729,1.207.069,1.983.01,2.007.47s.152.947.152.947c0,0,1.163-.443,1.519-.417,0,0-.115-.847.522-1.078s-1.837-.117-2.107-.684-.695-.704-1.436-1.029-1.363-1.38-1.363-1.38Z"/><path class="cls-14" d="M483.014,384.877s-.216,1.829-.388,2.254c0,0,1.135-.348,1.234-1.19s-.846-1.064-.846-1.064Z"/><path class="cls-33" d="M480.173,380.846s-2.967-1.855-5.732.825c-2.764,2.68-1.485,4.969-1.485,4.969,0,0,1.774-.119,2.161.82s2.902,3.155,4.58,2.6,3.328-2.187,3.318-4.203-.702-4.855-2.843-5.011Z"/><path class="cls-37" d="M479.071,391.303s-2.494.187-3.067,1.512c-.573,1.325-6.455,16.51-7.844,17.774,0,0,4.352,2.317,4.58,3.024l.207.467s3.306.792,7.808.216c4.502-.577,7.109-1.362,7.109-1.362,0,0,.14-2.204-.135-2.919l1.027,1.758,3.798-3.773s-9.594-13.185-10.585-14.446-1.78-2.055-2.898-2.249Z"/><path class="cls-25" d="M474.321,433.944l.374,4.527,5.398-.143-.319-13.634.923-7.843.185,7.843.405,11.54,4.434-.257s.686-9.647.408-11.17l.859-11.76s-4.56,1.299-7.49,1.37-5.664.087-5.664.087v8.904l.487,10.535Z"/><path class="cls-14" d="M469.818,411.584s-.895,1.241-.838,2.319.609,1.213.838,1.222.777-1.547.777-1.547c0,0,.018.62.391.501s.692-1.413.692-1.413l-1.86-1.082Z"/><path class="cls-14" d="M489.789,410.745l1.381-1.372s1.542.962,1.799,1.525.209,1.146-.353,1.216-1.495-.655-1.495-.655c0,0,.083.435-.352.539-.435.104-.981-1.253-.981-1.253Z"/><path class="cls-37" d="M464.301,354.9s-1.189-.284-1.188-1.628c.002-1.389,1.526-.764,1.526-.764,0,0,.993-.816,1.864-3.448,0,0,.448,2.034.161,2.346,0,0,1.743.227,2.138-.231,0,0,1.369.313,1.79-.293,0,0,1.204.118,1.459.059l.643.121s.46-3.348-1.466-4.862c-1.926-1.514-3.568-1.286-4.644-.768,0,0-2.061-.778-4.242,1.455s-1.673,5.426-1.374,6.404.756,1.865,1.239,1.987c0,0-.732.748-.497,1.378s.829.846.829.846c0,0-.616,1.289-.015,1.552.805.352,1.575.036,1.575.036,0,0-.039.995.572.861,0,0-.207,2.272,2.212.312,0,0-1.741-.195-1.664-.554.083-.392.166-1.131-.456-1.384,0,0,.499-.657-1.065-1.043,0,0,1.024-.35-.074-2.195,0,0,.321,0,.679-.19Z"/><path class="cls-37" d="M468.776,355.743l1.476-.45s.292.566,0,.76c0,0,.369.258.225.631s-.122.207-.074.464.273.72,0,.906.196,1.198-.639,1.038c-.346-.066-.245-.144-.098-.448s-.144-.86-.144-.86l.055-.635s-.467-.126-.411-.505.078-.607.078-.607l-.468-.293Z"/><path class="cls-33" d="M469.517,357.576s.025-.309.215-.377c-.431-.096-.675-.339-.472-.866-.568-.338-.392-.135-.392-.135,0,0,.054,2.703-1.635,2.686-1.139-.012-1.836-2.024-1.836-2.024l-1.106.532s.655.369.476.754c0,0,.761.993.45,1.566,0,0,1.091.763,1.661.309.57-.454.392-.778.392-.778,0,0,.573.631,1.071.523s1.284-1.865,1.284-1.865c.005-.002-.05-.131-.129-.312l.021-.013Z"/><path class="cls-37" d="M462.769,359.14s-4.328,9.725-4.26,10.671c.103,1.441,4.138,8.494,4.138,8.494,0,0,4.547-2.67,5.296-2.816l-4.533-6.391,8.981-5.151s.628,2.001.619,2.333l2.412-1.429-5.021-7.703s.356.692,0,.906c0,0-.148.922-.639,1.038s.177-.479.177-.479l-.418-.829s-.554,1.832-1.3,1.876-.881-.422-.881-.422c0,0-.205,1.046-.703.797,0,0-.82,1.078-1.539.719-.718-.359-.16-.79-.16-.79,0,0-.903-.076-.841-.873,0,0-1.068.187-1.329.049Z"/><path class="cls-33" d="M462.902,378.079s3.823-2.314,4.807-2.518c0,0,.836.158.454.633s-.785.103-.785.172c0,.069-.065.776-.345.787s-.482-.374-.592-.236-.095.777-.373.841-.651,0-.651,0c0,0,.273.457-.18.651s-.827-.134-.827-.134c0,0,.045.655-.228.701s-.587-.388-.587-.388c0,0-.046.713-.207.713s-.514-.933-.485-1.224Z"/><path class="cls-33" d="M472.091,369.811s-1.133-.677-1.603-.64c-.47.038-.559.521-.559.521,0,0,.67.028.822-.014s-.453,1.009.181.732.608.502.8.479.457-.215.457-.215l-.098-.864Z"/><path class="cls-14" d="M464.181,378.979s2.259,1.936,3.516.767c1.257-1.169.16-2.143.16-2.143,0,0,.483.382.673-.116s-.984-1.189-.984-1.189l-.168.07s.018.482-.164.635-.774-.083-.774-.083c0,0,.169.743-.192.841s-.832,0-.832,0c0,0,.066.582-.18.651s-.827-.134-.827-.134c0,0,.013.537-.228.701Z"/><path class="cls-14" d="M470.253,369.956s-.561,1.033-.156,1.214.723-.279.723-.279c0,0-.863,2.655,1.351,2.877l.018-3.093s-.347.289-.568.165-.325-.467-.325-.467c0,0-.366.301-.56.039s-.485-.456-.485-.456Z"/><path class="cls-37" d="M361.686,349.514s-2.038.271-1.764,1.511c.274,1.24,1.994,4.435,2.762,4.435.767,0,1.45-.318,1.631,1.044,0,0,1.014.006,1.427,1.098.413,1.092.723,1.482,1.554.995s4.49-2.343,3.105-6.656-7.222-4.756-8.715-2.426Z"/><path class="cls-14" d="M359.886,358.556l-2.486,2.679s-1.982.071-1.899-.551.545-.473.545-.473c0,0-1.757-1.218-.674-2.424,1.083-1.206,2.847-.945,4.514.769Z"/><path class="cls-14" d="M349.954,366.444s.373-.553.414-1.064-.373-1.212-1.105-.44c0,0-1.437-1.356-2.749-.444s-.525,2.76.47,3.521c.995.762,1.294.983,1.294.983,0,0,.35-2.404,1.676-2.556Z"/><path class="cls-14" d="M359.958,351.669s-.727,1.78-.467,2.941c.259,1.161.702,1.928.46,2.456s.255,1.543,1.416,1.834c1.161.29,2.899.472,2.952.847s-.345,1.148-.345,1.148c0,0,1.788-.227,1.953-.603,0,0-.27-.976.289-1.142s.885-.451.885-.451c0,0-.802.035-1.134-.856-.332-.891-1.591-1.299-1.591-1.299,0,0,.235-1.231-1.201-1.064,0,0-1.311-.098-3.218-3.81Z"/><path class="cls-37" d="M351.066,366.34s-1.243-.228-2.072.746c-.829.974-.74,2.029-.456,2.901s.249.953,1.782,2.155c1.534,1.202,5.141,3.706,6.551,3.528,1.411-.178,4.273-1.984,5.554-5.737,0,0-.159,3.342-.892,5.835s-.952,2.031-.952,2.031c0,0,.324,2.28,1.332,2.778,1.007.497,3.711.518,3.711.518,0,0,.221-4.476,1.519-5.741,1.298-1.264,4.475-3.267,4.475-3.267,0,0-.988-5.748-1.237-6.266,0,0-.005-2.093-.536-3.692s-2.29-1.627-2.846-1.838c-.556-.211-1.375.079-1.375.079l-1.609.524.196-.444-1.689-1.316-2.553-.571-2.507,2.752s.489.63.774.838,3.399,1.578,3.399,1.578l-4.994,7.106-5.575-4.497Z"/><path class="cls-25" d="M361.856,374.254s-2.324.089-2.791.868-1.133,2.487-1.133,2.487c0,0-5.161.483-5.897,2.97-.736,2.488-1.167,10.859-.174,15.999h5.304l.357-12.35.657-.027h7.522s-.271-2.665-.28-3.392c0,0-3.698.316-4.361-1.224s-.329-1.939-.329-1.939c0,0,1.182-1.482,1.126-3.392Z"/><path class="cls-37" d="M351.802,396.583l4.076.116s1.243.378,1.124,2.185c-.086,1.297-.99,1.917-3.673,1.815s-3.381-1.536-3.343-2.324.097-1.495,1.816-1.791Z"/><path class="cls-25" d="M358.019,386.639l.188,5.436,4.653-.011v-3.719s-4.545-1.325-4.841-1.706Z"/><path class="cls-37" d="M358.726,396.003s-1.443-.135-1.576-.463l.109-3.284s4.356-.353,5.601-.191v1.991s-1.928,1.13-4.009,1.076c-.621-.016-.125.872-.125.872Z"/><path class="cls-37" d="M416.571,316.744s-3.525.158-4.467,2.458c-.942,2.3,1.483,3.704,2.001,3.552,0,0,1.797,1.209,2.181,1.078s.514-1.216,1.544-.7c.831.417,0,1.915,0,1.915,0,0-.244,2.77,1.462,2.79,1.706.02,1.673-.034,1.673-.034,0,0,.65.095.701-.159,0,0-.541-1.028.412-2.467.501-.757,2.773-4.946-.403-7.615-3.176-2.669-5.103-.817-5.103-.817Z"/><path class="cls-33" d="M412.955,326.41l-2.262,3.011,2.613,2.115s-3.616,4.964-3.626,5.14l-3.514-4.527s-2.534,1.083-4.462,3.156c0,0,5.797,6.218,6.424,6.598s1.495,1.102,2.623.282c1.128-.82,2.682-2.818,2.682-2.818,0,0-1.054,3.394-1.222,3.435s.922,1.987,4.164,2.112c0,0,.76-3.42,2.797-4.782,2.037-1.362,3.609-2.161,3.609-2.161,0,0-1.161-5.465-1.75-7.25-.588-1.784-1.05-2.847-1.05-2.847,0,0,.04,1.161-3.15,2.208-1.385.455-1.26-.102-1.26-.102l.73-.586-3.347-2.985Z"/><path class="cls-14" d="M405.725,332.157s-1.291-2.174-1.927-1.676c-.636.497-.34.966-.34.966,0,0-1.479-1.003-2.538-.03s.851,3.604.851,3.604l3.954-2.864Z"/><path class="cls-37" d="M412.799,341.362s-1.626.729-2.033,2.142-.44,1.585-.44,1.585c0,0-3.791-.049-5.305,2.33s-3.489,12.993-3.489,12.993l5.352.513,2.573-7.764s-.893-1.044-.451-2.232.932-1.107,2.131-.963c1.199.144,5.399,1.425,5.96,1.014,0,0-1.196-4.621-.728-6.096,0,0-2.187-.248-2.854-.729s-1.375-1.152-1.375-1.152l.659-1.642Z"/><polygon class="cls-37" points="410.332 353.493 410.405 358.189 413.496 358.189 413.565 354.561 410.332 353.493"/><path class="cls-25" d="M404.055,360.63l-2.618.275s-1.633.215-1.604,1.562.412,2.145,2.904,2.316c2.492.171,4.077-.178,4.104-1.343.027-1.165.119-2.85-2.786-2.809Z"/><path class="cls-25" d="M413.826,358.143l-3.189.027v.473s-2.72-.12-2.46,2.041c.218,1.804,1.254,1.327,1.254,1.327,0,0,2.571-.248,3.341-.354s.793-1.387.793-1.387l.261-2.127Z"/><path class="cls-14" d="M266.938,421.89s-2.721.774-3.398-.456c-.677-1.23-.677-2.252-.677-2.252,0,0-1.257-.47-1.506-1.188s.401-3.412,1.022-3.454c.622-.042,1.851.718,2.901,2.417s1.658,4.932,1.658,4.932Z"/><path class="cls-33" d="M265.291,426.15l-3.25,4.643-7.928,5.15s-1.148.481-1.01.794l-.636.401,1.451,3.432.868.354s1.246-.032,2.904-1.042c1.657-1.011,7.61-5.331,8.088-6.943l-.401,8.23s-4.573,18.287-4.301,21.018c0,0,4.859,1.197,8.025,1.114,3.265-.086,8.788-2.198,11.081-3.601l-4.269-20.855-.285-2.816s1.905,4.623,2.177,4.64,1.424.491,1.424.491l.532.481,2.627-2.096-.337-.94-.196-1.12s-6.934-10.435-8.42-11.901c-1.486-1.466-8.144.568-8.144.568Z"/><path class="cls-14" d="M252.328,437.743s-1.412.44-1.359.804,1.075.59,1.075.59c0,0-2.307.578-1.402,1.737s3.06,0,3.06,0l-1.375-3.131Z"/><path class="cls-14" d="M281.922,439.802l-2.163,1.726s.016,1.854.415,1.704.847-1.04.847-1.04c0,0,.649,1.193,1.281,1.037s1.604-.687,1.282-1.702-1.662-1.726-1.662-1.726Z"/><path class="cls-25" d="M261.657,462.338s-1.518,11.579-1.365,12.264l5.31.825,1.881-12.106-5.826-.983Z"/><path class="cls-25" d="M271.429,463.068l.238,9.929h5.46s.654-10.69.404-11.944c0,0-5.429,2.004-6.101,2.015Z"/><path class="cls-25" d="M265.601,475.428l-4.687-.577s-1.203.129-1.244,1.539.812,2.481,3.345,2.765c2.125.238,2.816-.958,2.585-3.727Z"/><path class="cls-25" d="M272.128,473.078l4.429-.106s.758,2.536.068,3.269-1.104,1.015-2.487.924c-1.383-.091-3.275-.359-3.275-2.565,0-1.522,1.265-1.522,1.265-1.522Z"/><path class="cls-14" d="M221.072,413.047v2.541s1.731,1.354,2.118.608c.387-.746-.608-.663-.608-.663,0,0,1.74.165,1.74-.459s.075-2.247-3.25-2.027Z"/><path class="cls-14" d="M216.737,419.313s-.324,2.185-.21,2.809c0,0,3.7-.038,3.766-1.652.065-1.613-.565-2.214-2.208-1.478l-.367-.09-.981.411Z"/><path class="cls-25" d="M208.353,405.314l-.835.631s-.751.266-1.891,1.364c-1.139,1.098-10.136,9.936-10.821,13.985-.685,4.049.076,5.769.076,5.769l9.822-.437.397-1.127s.797.008.6-1.788c-.197-1.796,2.678-9.262,2.678-9.262,0,0,.339,4.264.504,4.536.299.497,3.388,3.874,5.57,3.753,2.182-.12,2.073-.619,2.073-.619l.197-3.097s-4.301-1.375-4.689-2.46-1.406-5.193-1.406-5.193c0,0,2.191,3.015,3.202,3.459s5.74,1.244,5.74,1.244l1.502-.486s.189-3.001-.361-3.295-3.986-.961-4.898-.795l-5.779-4.425v-.742s-1.266-.902-1.681-1.018Z"/><path class="cls-37" d="M215.541,398.712s-.965,2.689-3.327,2.754c0,0-.888-1.36-1.687-.295-.8,1.065-1.179,3.152-1.179,3.152l-1.247-.992-.088.428s-1.11-1.071-1.077-1.441c0,0-.756-.089-.755-.5,0,0-.565.339-1.058-.648s.859-4.518,3.498-5.913c2.64-1.395,5.315-.918,6.35.553,0,0,2.242.586,2.996,2.77.754,2.183.546,4.51-1.229,5.132,0,0,.511-1.617.377-2.542-.134-.925-.733-2.293-1.573-2.458Z"/><path class="cls-33" d="M194.882,427.063l9.463-.431s.836,12.107.746,13.096-1.81,11.149-1.81,11.149l-5.67.836-.03-1.855h-4.289s1.036-8.351,2.28-11.169c0,0-1.297-9.739-.69-11.626Z"/><path class="cls-25" d="M199.551,455.339c-1.637.102-2.511-1.006-1.939-3.626l5.67-.836s1.069-.022,1.426,1.314c.357,1.336-.693,2.87-5.156,3.148Z"/><path class="cls-25" d="M193.292,449.858h4.289s-.501,1.325.03,1.855c0,0-.361,1.783-.04,2.027,0,0-4.393.853-4.771-1.317-.378-2.17.492-2.565.492-2.565Z"/><path class="cls-33" d="M326.702,267.534s3.744-.718,5.188,3.621c1.444,4.339-.301,7.2-1.252,7.593s-3.278.456-3.278.456c0,0-.989-.144-2.108-.456,0,0-.182.105-1.335.105-.192,0-1.343-.442-1.343-.442,0,0-1.06-.628-1.772-2.099-.602-1.244-.975-5.115,1.644-7.455,2.027-1.811,4.257-1.322,4.257-1.322Z"/><path class="cls-14" d="M319.157,280.887l-2.602,2.639s-1.956-1.224-1.443-1.847c.513-.623.997.007.997.007,0,0-1.344-1.805.074-2.416,1.418-.61,3.037.984,2.973,1.617Z"/><path class="cls-14" d="M312.241,286.233l-2.384,2.396s-2.98-1.15-2.401-2.58c.579-1.43,1.906-1.326,2.61-.705,0,0-.062-.591.373-.7s1.802,1.589,1.802,1.589Z"/><path class="cls-33" d="M322.439,282.844l-2.496-2.293-3.544,3.398,3.325,2.818-1.807,3.49-5.426-4.298-3.48,3.416s7.259,5.917,9.369,5.54c2.11-.376,4.408-3.921,4.408-3.921l-1.877,7.503s4.049,3.005,6.063,1.824c0,0,.037-5.705,2.725-7.66,2.687-1.955,3.478-2.219,3.478-2.219,0,0-1.27-6.212-2.092-8.02-.822-1.807-1.268-2.279-1.268-2.279,0,0-.083.739-2.01.656-1.927-.083-2.931-.618-2.931-.618,0,0-1.109.273-2.436,2.663Z"/><path class="cls-37" d="M322.231,293.169l-.965-.092s-1.569,1.892-3.269,1.921c0,0-2.002.13-3.167,3.457s-2.601,14.125-2.601,14.125l4.308,1.795s2.559-8.862,2.248-10.914l.435.089-.164,5.445,4.014.173.165-2.567s-3.831-.134-3.777-2.082c.053-1.948.626-1.978,3.966-.968s4.248.741,4.248.741c0,0-.748-2.198-.724-3.918,0,0-3.425.58-6.063-1.824l1.347-5.382Z"/><path class="cls-25" d="M316.214,314.37l-3.929-1.627s-2.458-.611-2.814,1.142c-.378,1.865,4.121,4.148,5.406,3.805,1.285-.343,1.596-1.145,1.779-2.001s-.442-1.319-.442-1.319Z"/><path class="cls-25" d="M319.083,308.969h3.321s1.105.412.953,1.982c-.152,1.569-1.145,1.737-1.948,1.795s-4.121.403-4.155-.725c-.027-.919.485-2.49.485-2.49l1.343-.562Z"/><path class="cls-14" d="M264.33,301.818s1.721,3.563,2.058,3.476,4.256-1.253,3.874-3.692c-.382-2.439-1.009-2.845-3.431-1.04,0,0,.872-3.024-2.502,1.256Z"/><path class="cls-14" d="M255.95,292.289s1.275-1.507,1.662-1.351,0,.913,0,.913c0,0,.718-1.045,1.478-.694s1.049,2.075.755,2.621-.932,1.204-1.444,1.139l-2.451-2.628Z"/><path class="cls-25" d="M255.817,288.386s.395-5.447-5.636-5.08c0,0-3.217-.492-4.945,2.859,0,0-1.001.554-.94,2.937.061,2.383,2.088,4.159,3.509,4.35,1.421.191,1.824.083,1.88.271s.044.547-.297.568c0,0,1.053.162,1.265-.181s2.042-1.461,1.532-2.136c0,0-1.582-1.112-.746-2.002s1.558.373,1.558.373c0,0,.563-.993.584-1.408s.742-.603.933-.933c.389-.674-.228-2.158-.228-2.158,0,0,1.511.974,1.532,2.54Z"/><path class="cls-37" d="M255.691,291.808s-1.028,1.121-1.303,1.089l-1.946,2.446s.91.274,1.023.41-2.806.631-4.144-.469c0,0-2.716,2.411-4.363,6.898-1.402,3.819-1.248,3.681-1.248,3.681,0,0,4.264,1.698,5.482,3.679,1.218,1.982,1.835,5.214,1.713,6.251s0,1.016,0,1.016l3.504-.894s.842-.931.416-2.775-.341-2.094-.341-2.094l-.592-7.004s3.269,6.332,5.634,6.202c2.365-.13,7.546-4.382,7.546-4.382l-2.78-4.392-4.327,3.751-4.337-6.63,3.383-2.873-3.32-3.911Z"/><path class="cls-25" d="M253.324,322.585l-.017,5.936,4.946,1.46.053-9.094s-4.263,1.827-4.982,1.699Z"/><path class="cls-25" d="M260.247,330.833s4.305-.154,4.915.115,1.074.474,1.16,1.579-.755,2.095-3.346,2.319c-2.591.223-3.348-.38-3.542-.973-.194-.594-.218-2.033.157-2.356s.656-.683.656-.683Z"/><path class="cls-25" d="M253.626,326.425s4.935.035,5.393.491.921,2.155.331,2.649c-.59.494-1.626.893-1.626.893,0,0,.183-.795-.066-1.182s-4.032-.814-4.032-.814v-2.039Z"/><path class="cls-14" d="M226.352,214.151s-1.397.497-.642,1.583,1.117.478,1.117.478c0,0,.969,1.51,2.5,1.75,1.532.24,1.648.927,1.458,1.249l-.19.322,1.086.363.861-.552s-.496-.834,0-1.174,2.63-1.178,3.288-2.391c0,0,.954-.549.987-.87s.139-1.424-.78-1.409c0,0-.598-.192-.778-.736,0,0-.942-.133-1.209-.502,0,0-2.009.957-3.806-1.648,0,0-.626,2.13-2.875,2.762,0,0-.482.679-1.018.775Z"/><path class="cls-37" d="M231.347,208.873s-2.359-.27-3.764,1.462c-1.406,1.732-1.035,3.846-1.035,3.846,0,0,.804-.325,1.018-.901,0,0,2.5-.436,2.875-2.762,0,0,1.097,2.22,3.804,1.706,0,0,.597.686,1.211.444,0,0,.177.601.775.793,0,0,.67-4.597-4.884-4.588Z"/><path class="cls-33" d="M230.392,219.361l-.107.68s.912.883,1.502.686,1.554-.964,1.554-.964l-.374-.684-1.18.79-1.394-.508Z"/><path class="cls-37" d="M226.956,239.882l-.424,12.693s-.738,10.421-.21,11.866,0,0,0,0l4.806.172.771-13.17.984-8.079.708,7.968.714,11.466h4.799l-.47-12.08.18-11.709s-5.037,1.644-11.858.874Z"/><path class="cls-25" d="M228.728,264.642s-2.576-.471-2.906,1.63c-.33,2.101,1.131,2.415,2.198,2.486s3.446-.167,3.65-1.214c.204-1.047-.171-2.974-2.942-2.901Z"/><path class="cls-25" d="M236.335,262.829c-1.833.075-2.793.953-2.904,1.658s-.163,2.373,2.614,2.414c2.777.041,3.596-.778,3.554-1.777s-.746-2.399-3.264-2.295Z"/><path class="cls-23" d="M367.473,208.692s-2.292,2.882-3.973,2.946c0,0,2.916,7.73,3.77,8.514.811.743,6.884,1.676,7.081,2.176s.174.805-.338,2.311-2.765,8.991-2.892,10.78c0,0,1.52,1.519,5.662,1.68,4.176.162,5.608-1.054,5.608-1.054l1.189-1.243-.501-1.342s2.62-1.212,2.42-2.577c-.23-1.568-4.07-10.082-5.59-11.05l-1.48,1.424-.398-1.567-.92.831-.103-.888-7.179-3.233-2.359-7.707Z"/><path class="cls-23" d="M379.148,208.262s-2.181-1.492-4.62.636c-2.439,2.128-1.528,5.029-1.528,5.029,0,0,.071.387,1.023-.304.952-.691.828-2.252,1.118-2.245s.55.242.55.242c0,0,.523-.278.683-.111s.251.829.145,1.52.736,1.492,1.786,1.465c0,0,1.987,1.34,2.499,1.188,0,0,.895-.976,1.429-.225s-.032,1.988-.571,2.164c0,0,.431.662.858.543,0,0,.028-1.253.988-2.143s1.21-5.321-1.112-6.76-3.248-.997-3.248-.997Z"/><path class="cls-14" d="M366.946,209.267s-.197-3.025-.861-3.183-.451.963-.451.963c0,0-1.078-1.426-2.376-.735s-.622,2.164-.346,2.58,1.672,2.386,1.672,2.386l2.362-2.012Z"/><path class="cls-14" d="M376.497,230.66s-2.169.047-2.06.499.597.826,1.028.741c0,0-1.504.843-1.402,1.553s.359,1.479,1.67,1.457,2.559-.974,2.559-.974c0,0-.398-3.051-1.794-3.277Z"/><path class="cls-37" d="M372.039,237.028s-.391,6.778-.406,8.955c-.015,2.176-.044,15.245-.044,15.245l4.954-.112.15-11.899.818-6.674s.523,6.844.591,8.498.632,13.847.632,13.847l4.622-.016-.204-13.13.402-13.408c.018-.616-.037-1.231-.164-1.834l-.06-.283s-2.344,2.422-6.436,1.887l-.822-.955-1.031.922-3.004-1.043Z"/><path class="cls-25" d="M375.55,261.305s-3.689-.177-4.559.403-.906,1.335-.66,1.913.466,1.497,2.127,1.605c1.661.108,2.807.166,3.583-.235.686-.355.786-1.47.671-1.926s-.374-1.739-1.162-1.761Z"/><path class="cls-25" d="M378.735,264.887h4.342s1.3,1.191.769,2.641c-.531,1.45-2.303,1.45-3.805,1.284-1.502-.166-2.41-.683-2.547-1.704-.137-1.021.195-2.013,1.241-2.222Z"/><path class="cls-25" d="M395.934,447.596c.01.469-.034.851-.265.856-.234.005-.292-.374-.303-.843s.108-.853.265-.856.292.374.303.843Z"/><polygon class="cls-34" points="485.336 374.494 485.405 389.914 506.94 377.722 506.94 362.479 485.336 374.494"/><path class="cls-25" d="M413.473,323.976c.064.371.064.68-.16.719-.227.039-.327-.253-.391-.624s.008-.693.16-.719.327.253.391.624Z"/><path class="cls-25" d="M454.033,412.219c-.034.468-.114.844-.345.827-.233-.017-.256-.4-.222-.868s.188-.839.345-.827.256.4.222.868Z"/><path class="cls-25" d="M468.009,352.781c.029.469-.052.855-.511.883-.465.029-.588-.345-.617-.813s.2-.864.511-.883.588.345.617.813Z"/><path class="cls-25" d="M471.378,352.293c.04.437-.026.801-.455.84-.434.039-.559-.307-.598-.744s.164-.813.455-.84.559.307.598.744Z"/><path class="cls-25" d="M214.227,403.41c-.243.402-.349.782.044,1.02.399.241.68-.034.923-.435s.223-.858-.044-1.02-.68.034-.923.435Z"/><path class="cls-25" d="M377.17,215.276c-.079.463-.04.855.413.933.459.079.621-.279.701-.742.079-.463-.105-.88-.413-.933s-.621.279-.701.742Z"/><path class="cls-25" d="M374.055,214.845c-.079.463-.04.855.413.933.459.079.621-.279.701-.742s-.105-.88-.413-.933-.621.279-.701.742Z"/><path class="cls-25" d="M254.44,289.493c.028.469.104.845.334.831.234-.014.261-.397.233-.865s-.178-.841-.334-.831-.261.397-.233.865Z"/><path class="cls-25" d="M360.639,355.792c.048.467.034.851-.196.874-.233.024-.321-.35-.369-.817s.04-.858.196-.874.321.35.369.817Z"/><path class="cls-25" d="M353.629,415.557c.046.467-.022.856-.48.901-.463.045-.599-.324-.645-.791s.169-.87.48-.901.599.324.645.791Z"/><path class="cls-25" d="M356.544,415.189c.046.467-.022.856-.48.901-.463.045-.5-.324-.546-.791-.046-.467.14-.851.45-.881s.53.304.576.771Z"/><path class="cls-25" d="M228.55,213.951c.032.468.163.841.622.809.465-.032.537-.419.505-.887s-.311-.83-.622-.809-.537.419-.505.887Z"/><path class="cls-25" d="M232.437,213.652c.032.468.163.841.622.809.465-.032.537-.419.505-.887s-.311-.83-.622-.809-.537.419-.505.887Z"/><path class="cls-25" d="M263.2,419.223c.155.443.231.82.013.896-.221.077-.394-.265-.549-.708s-.161-.844-.013-.896.394.265.549.708Z"/><path class="cls-25" d="M262.321,418.822s-.79-2.46-.141-2.626c0,0,.705,2.115,1.63,1.983,0,0,.233-1.023.883-.557s.705,1.317.705,1.317c0,0,1.315.628.734,2.376s-1.436,2.549-1.403,3.599c.033,1.05.6,1.879,2.216,1.658,0,0,1.962.511,2.929-.193,0,0,.829.18,1.782-.553,0,0,1.727.493,2.045-.845s-.354-1.974-.356-2.609,1.568-5.107-.243-8.702c-1.85-3.674-4.388-3.048-4.388-3.048,0,0-2.399-1.104-5.096,1.005-2.697,2.109-3.001,4.002-2.586,5.287s1.288,1.908,1.288,1.908Z"/><path class="cls-14" d="M467.24,356.522s1.811-1.068,1.608.122-.932,2.419-1.473,2.068-.135-2.189-.135-2.189Z"/><polygon class="cls-25" points="377.593 219.052 377.182 219.807 377.257 220.814 378.204 219.864 378.473 221.084 379.834 219.779 379.422 219.033 378.393 219.562 377.593 219.052"/><path class="cls-14" d="M180.095,317.558l.806,4.129c.072.371.398.634.769.634.025,0,.05,0,.076-.003.402-.039.709-.377.709-.781v-26.715l-6.117,3.48,1.517,7.774,2.24,11.482Z"/><path class="cls-26" d="M236.065,231.253c.018.512-.561.858-.561.858,0,0-5.338.147-5.843.163s-.514-.775-.514-.775l.303-3.652,1.043-.052s-.064-1.824-.044-2.159.468-.422.56-.133.094,2.314.094,2.314l2.717-.109-.06-1.876s-.002-.601.302-.639.332.559.35.678.127,1.855.127,1.855l.58-.019.946,3.548Z"/><path class="cls-14" d="M238.16,227.296s-2.504-.876-2.968-.52.549,1.042.549,1.042c0,0-1.748.666-.919,2.29s3.652.707,3.652.707c0,0,.557-2.286-.315-3.519Z"/><path class="cls-14" d="M226.957,228.139s2.473-1.488,2.774-.972-.512,1.052-.512,1.052c0,0,1.58.145,1.492,1.493s-.71,2.373-3.611,1.975c0,0-.825-2.429-.143-3.548Z"/><path class="cls-26" d="M188.921,306.208l.098-.919-1.994-.441c-.163-.036-.333-.011-.479.07l-4.945,2.764.052-.147c-.308-.363-.688-.598-1.123-.684-1.537-.299-3.074,1.376-3.576,3.909-.501,2.533.28,4.673,1.817,4.977l.039-.11-.08,1.816c-.015.33.21.622.533.694l2.007.39,2.924.75,2.292-1.009,5.512-3.08c.205-.115.337-.328.347-.564l.048-.896v-8.797l-3.473,1.278Z"/><path class="cls-4" d="M181.653,307.535c-.308-.363-.688-.598-1.123-.684-1.537-.3-3.074,1.376-3.576,3.909-.501,2.533.28,4.673,1.817,4.977"/><path class="cls-4" d="M189.019,305.289l-1.994-.441c-.163-.036-.333-.011-.479.07l-7.118,3.978c-.246.137-.382.413-.341.693.041.279.25.504.526.565l4.58,1.013"/><line class="cls-4" x1="188.452" y1="307.825" x2="188.767" y2="307.648"/><path class="cls-4" d="M186.486,318.268l5.512-3.08c.205-.115.337-.328.347-.564l.048-.896"/><path class="cls-4" d="M188.452,307.825l-3.884,2.17c-.454.263-.364.937-.374,1.173"/><path class="cls-4" d="M179.081,309.46l-.352,7.983c-.015.33.21.622.533.694l2.007.39"/><path class="cls-4" d="M186.307,317.212l4.927-2.622c.105-.056.174-.162.181-.281l.059-.696"/><path class="cls-4" d="M188.307,309.308l-2.812,1.531c-.156.087-.182.603-.182.603l-.009.206v5.564"/><line class="cls-4" x1="184.905" y1="324.335" x2="170.883" y2="354.667"/><line class="cls-4" x1="184.905" y1="362.54" x2="184.905" y2="324.335"/><line class="cls-4" x1="184.905" y1="324.335" x2="188.289" y2="330.511"/><line class="cls-4" x1="184.905" y1="362.54" x2="184.905" y2="322.815"/><line class="cls-4" x1="177.04" y1="310.908" x2="178.973" y2="312.387"/><line class="cls-4" x1="176.949" y1="311.579" x2="178.882" y2="313.059"/><line class="cls-4" x1="176.866" y1="312.319" x2="178.799" y2="313.798"/><line class="cls-4" x1="176.866" y1="313.059" x2="178.799" y2="314.538"/><line class="cls-4" x1="177.058" y1="313.942" x2="178.731" y2="315.223"/><path class="cls-25" d="M192.449,302.688s3.249-.883,4.996,1.401c1.747,2.284,1.892,7.079-2.711,8.373-6.462,1.818-6.332-6.166-6.332-6.166,0,0-.72-1.448.297-2.349,1.016-.901,2.535-2.07,3.751-1.259Z"/><path class="cls-14" d="M181.466,313.988s-.597-1.529.147-2.562c.744-1.033,2.352-1.17,2.65-.376s.039,1.981.039,1.981c0,0,.627-.743,1.396-.302.769.442-.299,1.822-.299,1.822l-3.933-.562Z"/><path class="cls-14" d="M188.225,305.571s-.85,1.52-.495,3.137.759,1.031.529,1.959.268,1.436.817,1.689c.549.253,3.273.688,3.377.983s0,.863,0,.863c0,0,1.501.161,1.793-.118,0,0-.461-1.016.362-1.38s-1.942-1.118-2.008-2.33-1.157-1.372-1.565-1.015l-.197-.464s-.661.627-1.168-.188c0,0-.589.528-.727-.213l-.716-2.924Z"/><path class="cls-37" d="M187.698,333.095s1.648-.519,4.084.251c2.436.769,7.661.41,10.216-2.933,0,0-3.705-13.889-4.684-15.115-.979-1.227-1.256-1.335-1.752-1.464,0,0-2.915.883-3.583.54,0,0-.965.345-1.767,1.201s-4.144,3.482-4.766,1.934c-.622-1.547-.046-2.958-.046-2.958l-4.792-.607s-.879,8.162,2.525,8.226c3.404.064,6.198-1.313,6.198-1.313,0,0,.309,4.665-.288,7.427s-1.345,4.812-1.345,4.812Z"/><path class="cls-25" d="M201.998,330.717s-.135,3.605-.863,6.818c-.727,3.212-.57,4.512-.57,4.512l.31,14.169-4.852-.206-1.416-13.615v-4.355l-2.721,7.554,1.924,13.654h-5.036l-2.321-13.471,1.244-12.681s2.071-.168,4.393.329c2.321.497,6.883.249,9.907-2.708Z"/><path class="cls-25" d="M189.476,362.762c-2.615-.558-2.782-1.934-2.408-3.07s6.64-.983,6.64-.983c0,0,.839,2.392.146,3.337-.693.945-4.378.715-4.378.715Z"/><path class="cls-25" d="M200.875,356.215l-5.206.027s-1.965-.217-1.708,1.608c.257,1.824,1.341,2.444,3.467,2.356,2.127-.088,3.632.172,3.815-1.775.129-1.368-.369-2.216-.369-2.216Z"/><path class="cls-25" d="M188.995,309.517c.048.467.034.851-.196.874-.233.024-.321-.35-.369-.817s.04-.858.196-.874.321.35.369.817Z"/><line class="cls-7" x1="452.812" y1="447.302" x2="452.867" y2="449.096"/><path class="cls-7" d="M475.869,438.446s-2.167-.197-2.345,1.215c-.178,1.411.421,2.568,3.31,2.778,2.889.21,3.441-.577,3.668-1.378.093-.329.064-.821-.003-1.286-.106-.736-.837-1.286-1.696-1.295l-2.934-.033Z"/><path class="cls-7" d="M397.908,447.902c.169-.354.506-.581.869-.545.484.047.832.544.777,1.108s-.329.884-.756,1.164c-.616.404-.963.136-1.031-.033"/><path class="cls-7" d="M394.991,447.302s.513.861.172,1.324c-.341.464-.321,2.153,3.512,2.639.701.089.575,1.041.575,1.041"/><path class="cls-7" d="M395.562,443.215c-.466.776-.768,1.815-.746,3.207"/><path class="cls-7" d="M401.491,451.147c-.902.256-1.298.175-1.24,1.173"/><path class="cls-7" d="M391.099,463.813c-.163-.942,7.012-10.941,7.408-11.044,0,0,.33,1.062,2.254.249,1.099-.464.632-.985.632-.985"/><path class="cls-7" d="M393.997,453.103c-.557-.403-1.878-.567-1.643-1.131.18-.433,1.103-.052,1.103-.052,0,0-2.36-1.385-.472-2.32,1.168-.578,2.285.381,3.548,1.546"/><path class="cls-7" d="M398.713,452.332l-2.181-1.185c-1.6.33-2.536,1.956-2.536,1.956l2.222,1.983"/><path class="cls-7" d="M400.76,451.781s1.452.311,2.549,2.114c1.098,1.804,2.884,7.215,3.394,9.354"/><line class="cls-7" x1="396.428" y1="463.813" x2="395.761" y2="468.758"/><path class="cls-7" d="M396.046,466.285s-2.447-.348-2.975,3.685"/><path class="cls-7" d="M443.518,450.892s-2.105-.549-2.512.814-.006,2.603,2.81,3.283c2.815.681,3.489-.005,3.844-.758.146-.309.198-.799.208-1.269.016-.743-.615-1.406-1.461-1.556l-2.889-.514Z"/><path class="cls-7" d="M455.206,449.151c-.276-.111-.599-.167-.939-.154l-1.508-.005s-2.555.29-2.982,1.041c-.489.861-.416,1.916,1.274,2.196"/><path class="cls-7" d="M395.761,468.758s-2.142,4.297-1.589,4.497c1.154.418,4.823.803,5.126.658"/><path class="cls-7" d="M395.562,443.215c-.389-1.718,2.9-3.192,4.267-2.882,0,0,3.031-1.366,5.315,1.884,2.284,3.25.725,6.314,0,7.101s-2.457,1.566-3.016,1.632"/><path class="cls-7" d="M399.298,449.18s-.026,1.849.74,1.77"/><path class="cls-7" d="M400.493,450.066s.124,1.199.998,1.081"/><path class="cls-7" d="M394.463,453.519s1.068-1.486,2.662-2.051"/><path class="cls-7" d="M455.195,447.302s-5.265.166-6.641,1.105-3.472-1.255-4.806-1.054"/><line class="cls-7" x1="446.894" y1="451.73" x2="447.868" y2="448.597"/><path class="cls-7" d="M412.283,323.826s.634.775.365,1.284c-.269.509,0,2.177,3.863,2.092.707-.016.722.944.722.944.135.758-1.748,1.765-1.748,1.765"/><path class="cls-7" d="M411.989,320.533c-.144.685-.252,1.969.181,2.694"/><path class="cls-7" d="M416.623,325.346c.092.157.474.371,1.024-.12.381-.34.604-.697.576-1.263s-.446-1.006-.932-.981c-.365.018-.664.292-.78.667"/><path class="cls-7" d="M411.287,326.122s-1.254-.665-1.593-.136.543,1.657,2.087,1.74"/><path class="cls-7" d="M403.459,331.447s-.142-.924.558-.991,1.708,1.702,1.708,1.702"/><path class="cls-7" d="M410.425,324.257s.97-.48,2.243.292"/><polyline class="cls-7" points="413.012 326.362 410.548 329.306 412.901 331.236"/><path class="cls-7" d="M403.459,331.447c-.183.016-1.072-1.09-2.38,0s.544,3.406.544,3.406"/><path class="cls-7" d="M409.592,336.607l-3.413-4.45c-2.017.525-4.457,3.207-4.457,3.207,0,0,4.775,4.903,5.413,5.603s1.657,1.654,2.702,1.503c1.045-.151,2.959-2.152,4.037-4.022l1.078-1.87"/><path class="cls-7" d="M409.255,337.321s4.395-7.409,6.23-7.409c0,0,.356.685,2.454-.378,2.098-1.063,1.972-1.522,1.972-1.522"/><path class="cls-7" d="M419.911,328.012c.911.857,2.062,6.497,2.748,9.96"/><path class="cls-7" d="M413.65,344.25c-.257.429-.722.779-1.553.804-2.216.066-5.368.013-6.785,1.929s-3.756,13.436-3.756,13.436l5.346.513,2.57-7.756"/><path class="cls-7" d="M412.737,341.394c-.31.121-.793.381-1.276.923-.806.906-1.121,2.795-1.121,2.795"/><polyline class="cls-7" points="410.428 353.547 410.501 358.238 413.588 358.238"/><path class="cls-7" d="M413.47,358.66l-2.934.056s-2.172-.13-2.307,1.286c-.093.974.178,1.816,1.297,2.287"/><path class="cls-7" d="M402.151,360.877s-2.172-.13-2.307,1.286c-.135,1.416.5,2.554,3.393,2.676s3.422-.682,3.624-1.489c.083-.332.039-.822-.042-1.285-.128-.732-.876-1.26-1.735-1.243l-2.934.056Z"/><path class="cls-7" d="M455.906,412.736c.202-.336.559-.53.917-.461.478.093.777.62.669,1.176s-.41.849-.862,1.088c-.652.345-.972.045-1.023-.13"/><path class="cls-7" d="M453.058,411.864s.429.905.046,1.334-.233,2.054,3.537,2.899c.69.155.39,1.15.39,1.15"/><path class="cls-7" d="M458.476,405.976s-5.071-.556-5.509,4.995"/><path class="cls-7" d="M458.708,416.74c-.235-1.222.763-.207,2.359-1.133s3.903-3.23,2.551-6.593c-1.352-3.363-4.618-3.008-4.618-3.008"/><path class="cls-7" d="M461.479,419.144c1.182,2.067,2.348,6.348,2.548,8.989"/><path class="cls-7" d="M449.892,427.071s6.143-9.078,6.405-9.274c.734-.549,2.593-1.092,2.593-1.092,0,0,.39.103.932.503"/><path class="cls-7" d="M449.999,426.226l-3.961-5.052s-3.814.95-4.177,2.787c0,0,4.715,5.152,5.271,6.209.556,1.057,1.933,2.422,3.662,2.164,1.729-.259,4.453-5.88,4.453-5.88"/><path class="cls-7" d="M455.607,425.488s-2.842,8.751-2.909,9.255"/><path class="cls-7" d="M454.152,415.573c-1.436.685-3.361,2.653-3.584,2.967,0,0,2.639,2.429,3.229,2.653"/><line class="cls-7" x1="454.152" y1="415.573" x2="456.297" y2="417.476"/><path class="cls-7" d="M445.342,421.193s.17-1.142-.283-1.265c-.452-.123-.439.377-.439.377,0,0-.748-.93-1.794-.698-.763.169-2.575,1.548-.801,3.906"/><path class="cls-7" d="M451.138,417.696s-1.814-.477-1.701-.887c.091-.328.655-.572.655-.572,0,0-.753-.973-.028-1.682.731-.715,2.634-.291,3.308,1.151"/><path class="cls-7" d="M453.503,432.052s-7.971.24-9.038,10.824c-.386,3.833-.947,8.015-.947,8.015"/><path class="cls-7" d="M474.126,386.871c-.199-.28-.533-.427-.857-.344-.432.111-.683.588-.561,1.067s.411.714.834.894c.61.259.889-.022.928-.177"/><path class="cls-7" d="M483.093,384.953c.446.008.801.414.792.908s-.235.79-.604,1.062c-.231.171-.425.228-.577.227"/><path class="cls-7" d="M474.103,388.771c-.247.473.668,1.544,2.148,1.593,1.48.049,1.217.393,1.34,1.501"/><path class="cls-7" d="M479.168,391.503s-.546-1.004.707-1.357c2.256-.636,3.826-4.21,2.881-6.794-.906-2.48-2.54-2.35-2.54-2.35,0,0-2.435-2.238-5.93,1.016-2.09,1.945-1.379,4.492-1.379,4.492"/><path class="cls-7" d="M477.427,391.734c-.451.101-1.356.62-1.798,1.935-.695,2.069-3.383,8.557-3.383,8.557l-3.92,8.485s4.354,2.083,4.282,2.859"/><path class="cls-7" d="M475.958,398.69s-3.211,13.98-3.082,15.291c0,0,4.25,1.735,15.143-1.092,0,0-.158-5.013-4.255-15.259"/><path class="cls-7" d="M479.238,391.317s.974,0,1.867,1.11c.685.851,5.595,7.25,5.878,7.9l5.582,7.757-3.794,3.68-1.4-2.396"/><path class="cls-7" d="M471.605,412.882c0,.505-.452,1.176-.707,1.143s-.283-.571-.283-.571c0,0-.299,1.898-.933,1.636s-1.187-1.183.17-3.512"/><path class="cls-7" d="M491.493,409.51s2.575,1.715,1.862,2.514-2.181-.596-2.181-.596c0,0,.537.639,0,.843s-1.104-1.38-1.104-1.38"/><path class="cls-7" d="M483.475,436.099l2.264-.153s.781-9.303.408-11.158l.858-10.824"/><path class="cls-7" d="M474.351,433.006c.094,2.326.22,4.604.374,5.431l5.392-.143s-.286-11.275-.37-12.436.973-9.019.973-9.019c0,0,.098,7.353.255,9.019.157,1.666.335,10.344.335,10.344l2.166-.103"/><path class="cls-7" d="M473.876,414.21s-.046,5.077.043,9.115"/><path class="cls-7" d="M482.912,436.1l-1.019-.01s-1.05-.094-1.747.325"/><path class="cls-7" d="M480.5,439.485c.52.308,1.281.519,2.365.596,2.889.206,3.44-.582,3.666-1.383.093-.329.063-.821-.005-1.286-.06-.413-.317-.767-.682-.999"/><path class="cls-7" d="M480.146,436.415c-.305.183-.542.464-.596.893-.11.882.083,1.665.949,2.178"/><path class="cls-7" d="M467.652,356.375c-.206-.314.134-.45.134-.45,1.476-.113,4.472-1.303,4.387-2.305s.19-2.246.19-2.246"/><path class="cls-7" d="M472.704,350.977s.72-3.804-2.275-5.247c-2.591-1.249-3.571-.322-3.571-.322"/><path class="cls-7" d="M466.208,345.352s-2.324-.432-4.415,2.276c-1.807,2.34-.795,6.701-.145,7.266,0,0,.331.418.6.437,0,0-.644.526-.497,1.376.104.599.787.796.787.796,0,0-.801,1.37.231,1.637,1.032.268,1.28-.002,1.28-.002,0,0-.041.807.435.849s.455-.023.455-.023c0,0-.494.83.623.893,1.116.062,1.139-.704,1.139-.704,0,0-1.577.111-1.431-.538.215-.949-.476-1.292-.476-1.292.476-.63-1.127-1.006-1.127-1.006,0,0,.568-.186.506-.828-.074-.766-.506-1.304-.506-1.304l.506-.186"/><path class="cls-7" d="M464.71,355.331s1.159.311,1.696.424c.537.113.264,1.095-.198,1.09"/><path class="cls-7" d="M466.018,380.229c1.098.828,1.937.829,2.502.159s.286-1.834-.622-2.599"/><path class="cls-7" d="M468.52,380.388s-.142-.304-.421-.616"/><path class="cls-7" d="M464.255,357.512c.544-.581,1.929-.772,2.16-.805"/><path class="cls-7" d="M464.832,362.875l-1.381,6.334,4.528,6.311c-2.071.554-5.332,2.785-5.332,2.785,0,0-3.847-6.488-4.082-8.156s3.422-9.13,3.879-10.295c.097-.249.207-.488.324-.715"/><path class="cls-7" d="M470.436,357.058c1.549,2.228,4.711,7.304,4.821,7.592"/><path class="cls-7" d="M467.652,356.375s.802-.362,1.567-.205"/><path class="cls-7" d="M472.203,367.159l-1.786,2.075s.671-.162,1.458.433"/><path class="cls-7" d="M469.855,358.322s3.257,6.612,3.186,7.863"/><path class="cls-7" d="M467.778,376.397s1.24,1.172.609,1.277-.955-.393-.955-.393c0,0,.889,1.056.794,1.636-.149.912-1.079,1.755-2.609,1.091-1.272-.552-1.443-.976-1.443-.976"/><path class="cls-7" d="M470.366,369.848c-.2.348-.391.78-.354,1.112.073.664.923,0,.923,0,0,0-.756,2.477.989,2.841"/><path class="cls-7" d="M457.492,413.452c.885.92.381,2.69,2.249,2.601,0,0,.511,4.468-.851,5.4,0,0,.812,2.36,1.992-.766,1.18-3.126-.704-4.687-.704-4.687"/><path class="cls-7" d="M452.967,410.971s-1.566-2.354,2.546-4.403"/><path class="cls-7" d="M454.506,407.975s-1.209,2.575-.708,2.996"/><path class="cls-7" d="M454.899,409.28s-.435,2.118.124,2.26"/><path class="cls-7" d="M455.513,410.971s.06,1.617.583,1.531"/><path class="cls-7" d="M468.679,352.783c.024.813-.587,1.533-1.365,1.608-.778.075-1.428-.524-1.453-1.337-.024-.813.587-1.533,1.365-1.608s1.428.524,1.453,1.337Z"/><path class="cls-7" d="M472.416,351.974c.077.751-.446,1.496-1.167,1.663s-1.367-.307-1.444-1.058.446-1.496,1.167-1.663c.721-.167,1.367.307,1.444,1.058Z"/><path class="cls-7" d="M468.738,353.076s.535-.703,1.082-.218"/><path class="cls-7" d="M465.861,353.388l-.995-.375c-.115-.375-.415-.649-.78-.667-.486-.025-.903.415-.932.981s.195.923.576,1.263c.55.491.932.277,1.024.12"/><path class="cls-7" d="M452.839,434.209s3.259,1.335,5.033.783"/><path class="cls-7" d="M466.702,349.118s.423,2.456-.287,2.656"/><path class="cls-7" d="M468.604,348.87s.744,1.818.134,2.503"/><path class="cls-7" d="M469.974,348.663s.941,1.75.617,2.219"/><path class="cls-7" d="M466.415,349.118s-1.082,3.225-1.705,3.226"/><path class="cls-7" d="M471.544,349.263s.538,2.34,1.077,2.511"/><path class="cls-7" d="M468.811,355.795s.186.309.58.336c-.164.044-.486,1.134.342,1.068,0,0-.59.439.186.936,0,0,.352.745-.311.901,0,0,.438.259.643-.228s0-.686,0-.686c.874-.47-.345-.991.092-1.24.553-.315-.004-.831-.092-.828.324-.104.152-.58,0-.76"/><path class="cls-7" d="M468.791,356.132c.208,1.031-.291,2.53-1.408,2.779-1.118.248-1.946-1.801-1.946-1.801"/><path class="cls-7" d="M466.415,360.028c.813.248.855-.787.855-.787,0,0,.499.701,1.165.413s1.121-1.551,1.121-1.551"/><path class="cls-7" d="M467.817,375.7c.186.021.592.53.281.619s-.684.147-.684.147c0,0,.036.455-.278.683s-.722-.186-.722-.186c0,0,.077.596-.171.826s-.807-.081-.807-.081c0,0,.145.476-.124.704s-.849-.107-.849-.107c0,0,.145.542-.29.728s-.538-.455-.538-.455c0,0-.116.739-.368.753,0,0-.291-.554-.324-1.222"/><path class="cls-7" d="M472.221,370.711s-.198.292-.537.195-.198-.629-.198-.629c0,0-.369.422-.766.164s.079-.701.079-.701c0,0-.679.315-.83.112,0,0-.09-.22.448-.619"/><path class="cls-7" d="M416.128,316.809s-2.578-.031-3.866,2.209c-.315.548-.343,1.214-.153,1.817.249.789.7,1.779,1.385,1.729"/><path class="cls-7" d="M413.93,321.405s-.077,1.242.696,1.408"/><path class="cls-7" d="M415.426,322.812s.319,1.19.701,1.013"/><path class="cls-7" d="M416.986,316.619s1.394-1.231,4.044.48c2.65,1.711,2.871,5.467,1.297,7.784-1.192,1.755-.662,2.76-.662,2.76"/><path class="cls-7" d="M418.225,325.53s-.138,2.447,1.066,2.306"/><path class="cls-7" d="M419.75,325.53s.127,2.495,1.032,2.312"/><path class="cls-7" d="M474.884,387.15c.193.585.856,1.387,1.794,1.621s.914.786.914.786"/><line class="cls-7" x1="478.307" y1="389.088" x2="478.307" y2="389.792"/><path class="cls-7" d="M479.26,389.148s.103.351,0,.585"/><path class="cls-7" d="M413.359,339.26s-.576,2.726-1.076,3.435,2.056,2.159,4.228,2.219"/><path class="cls-7" d="M190.962,309.662c.14-.366.458-.619.823-.613.487.009.873.475.863,1.042s-.257.907-.66,1.221c-.582.452-.949.213-1.03.05"/><path class="cls-7" d="M191.376,312.91c.195.019.4.034.618.044.706.033.624,1.144.624,1.144"/><path class="cls-7" d="M188.006,309.298s.58.817.277,1.306c-.286.462-.164,1.986,3.094,2.306"/><path class="cls-7" d="M188.249,305.513c-.402.811-.621,1.535-.488,2.921"/><path class="cls-7" d="M192.841,302.498s3.155-.917,5.07,2.161c1.915,3.078.042,5.749-1.368,6.936-1.411,1.188-2.73.768-2.52,2.281"/><path class="cls-7" d="M189.354,320.782s-4.053,1.95-6.738,1.198c-2.58-.722-1.852-8.09-1.852-8.09l4.663.592s-.328,2.775.046,3.124c1.376,1.282,4.941-2.415,4.941-2.415,1.389-.948,2.205-1.093,2.205-1.093"/><path class="cls-7" d="M189.269,319.212c.086.029.787,9.096-1.516,13.58-.215.419.274.217.738.135,1.675-.297,5.21,1.098,7.568.564,3.33-.754,3.99-1.592,5.909-3.05-.993-3.775-3.784-14.494-5.086-15.937-.532-.59-.954-.803-1.304-.867-.498-.091-1.282.186-1.555.24"/><path class="cls-7" d="M201.968,330.44s.226,1.632-.398,4.629c-.63,3.029-.994,6.882-.994,6.882.151,1.809.349,14.164.349,14.164l-4.886-.216s-1.275-11.302-1.414-13.601l.172-4.02"/><path class="cls-7" d="M189.46,359.295s-2.232-.169-2.397,1.245.467,2.563,3.443,2.736c2.976.173,3.534-.621,3.757-1.425.223-.804-.314-2.562-.314-2.562l-4.489.006Z"/><path class="cls-7" d="M196.397,356.111s-2.232-.169-2.397,1.245.467,2.563,3.443,2.736c2.976.173,3.534-.621,3.757-1.425.223-.804-.314-2.562-.314-2.562l-4.489.006Z"/><path class="cls-7" d="M195.122,336.566l-3.215,8.928c.857,4.256,1.922,13.64,1.922,13.64h-4.862s-1.878-10.51-2.299-12.961c-.421-2.451,1.084-13.381,1.084-13.381"/><path class="cls-7" d="M181.617,314.077c-1.168-1.263.038-3.788,1.772-3.562,1.734.226.942,2.45.942,2.45,0,0,.563-.768,1.395-.302.832.466-.299,1.82-.299,1.82"/><path class="cls-7" d="M212.129,401.64c.011-.392-.185-.748-.524-.882-.453-.179-.989.103-1.197.631s-.112.936.14,1.381c.363.641.794.561.932.442"/><path class="cls-7" d="M216.655,403.796s-1.053.967-.833,1.39-1.631,2.353-3.612,1.206c-1.981-1.146-2.393-.519-2.279-.219"/><path class="cls-7" d="M208.122,403.293c.058.013,1.166,1.541.666,1.981"/><path class="cls-7" d="M215.555,396.154s2.632.331,2.867,4.729c.111,2.076-1.425,2.59-1.425,2.59"/><path class="cls-7" d="M263.927,418.356c-.051-.379.066-.71.321-.819.34-.145.796.161,1.018.682s.189.91.037,1.324c-.219.596-.57.492-.692.369"/><path class="cls-7" d="M268.329,423.353c-.332-1.238-.519-1.425-2.208-1.224s-2.915-.857-2.716-1.437"/><path class="cls-7" d="M265.728,433.21c-1.038,1.801-7.496,6.494-9.823,7.753-.429.232-1.777-.144-1.777-.144-.567-.365-1.644-3.633-1.644-3.633l.635-.4c.244-.58,1.13-.805,1.391-.976l7.537-4.962s2.319-3.246,3.734-5.227"/><path class="cls-7" d="M271.799,425.544c1.27-.773-.359-1.546,0-3.009.122-.497.241-1.321.345-2.194"/><path class="cls-7" d="M380.769,215.81c.115-.375.415-.649.78-.667.486-.025.903.415.932.981s-.195.923-.576,1.263c-.55.491-.932.277-1.024.12"/><path class="cls-7" d="M377.983,219.172c.206-.314-.134-.45-.134-.45-1.476-.113-4.472-1.303-4.387-2.305.085-1.002-.19-2.246-.19-2.246"/><path class="cls-7" d="M372.931,213.774s-.633-3.636,2.275-5.247c2.908-1.611,3.571-.322,3.571-.322"/><path class="cls-7" d="M379.427,208.148s2.233-.283,3.873,2.177c1.64,2.459.65,5.286,0,5.852"/><path class="cls-7" d="M380.925,218.128s-1.159.311-1.696.424-.264,1.095.198,1.09"/><path class="cls-7" d="M197.108,429.826c1.127,3.058,1.655,7.277,2.19,8.986.14.447.152.918.041,1.374-.553,2.283-2.129,9.617-1.694,11.438l5.82-1.089s1.712-9.527,1.662-11.28c-.05-1.753-.782-12.876-.782-12.876"/><path class="cls-7" d="M195.219,426.981c-1.131,0,.346,11.54.346,11.54-.509.895-2.24,8.769-2.235,10.836,0,.222.132.415.354.415h3.424"/><path class="cls-7" d="M202.071,450.878s2.173-.541,2.572.825c.4,1.366-.031,2.605-2.936,3.274s-3.588-.02-3.943-.775c-.355-.755-.12-2.578-.12-2.578l4.427-.746Z"/><path class="cls-7" d="M197.605,453.649c-.302.051-.637.088-1.009.109-2.976.173-3.534-.621-3.757-1.425-.223-.804.314-2.562.314-2.562l4.21.006"/><path class="cls-7" d="M272.895,473.118s-1.848-.169-1.984,1.245c-.137,1.413.387,2.563,2.85,2.736s2.925-.621,3.109-1.425-.26-2.562-.26-2.562l-3.715.006Z"/><path class="cls-7" d="M267.482,463.321c-.261,2.563-1.918,12.155-1.918,12.155l-5.021-.946s.346-5.983,1.114-12.193"/><path class="cls-7" d="M277.39,461.546c.15,2.449-.232,11.421-.232,11.421h-5.454s-.187-6.627-.275-9.899"/><line class="cls-7" x1="265.964" y1="431.459" x2="265.294" y2="441.491"/><path class="cls-7" d="M273.429,425.535c1.357,1.541,2.33,3.218,3.353,4.685,1.812,2.597,3.965,6.139,5.058,7.312.122.131.063.703.196,1.118.155.486.494.814.494.814l-2.782,2.22-.531-.48c-.381-.162-1.269-.2-1.518-.594-.616-.973-1.158-2.992-2.079-4.532"/><path class="cls-7" d="M273.215,427.291c1.352,2.888,2.277,8.157,2.691,11.402"/><path class="cls-7" d="M210.03,407.011s4.831,4.482,5.922,4.488c.671.004,3.065.387,4.265.656.749.168.865.845.865.845v2.463s-1.04.749-2.231.457c-1.478-.363-3.417-.485-4.31-.784-1.619-.542-3.748-3.606-3.748-3.606"/><path class="cls-7" d="M224.328,414.401c-.566-1.82-3.247-1.402-3.247-1.402"/><path class="cls-7" d="M221.081,415.462c.212.647,2.037,1.335,2.147.655.11-.68-1.308-.486-.759-.583s2.299.078,1.859-1.133"/><path class="cls-7" d="M218.045,418.97c.888-.586,2.084-.292,2.272.724.136.736.009,2.297-3.776,2.37"/><path class="cls-7" d="M380.038,220.025c.537-.087,5.973,9.355,5.46,11.334s-6.965,3.909-6.965,3.909c0,0-.021-4.619-2.495-4.575l6.177-1.539"/><line class="cls-7" x1="379.858" y1="225.167" x2="380.786" y2="229.51"/><path class="cls-7" d="M377.422,219.482s-.147.293-.522.16-6.93-3.047-6.93-3.047"/><path class="cls-7" d="M370.087,217.026s-2.375-8.011-2.686-8.387c0,0-2.827,3.381-3.929,2.93,0,0,2.714,7.86,3.873,8.68.83.587,4.337,1.334,6.259,1.71.667.131,1.058.817.829,1.457-.938,2.62-3.057,8.815-3.311,12.003,0,0,1.209,1.616,6.165,1.789s6.313-2.484,6.313-2.484l-.52-1.264"/><path class="cls-7" d="M383.293,236.284c.175.613.174.86.155,3.046-.036,4.043-.333,12.462-.333,12.462l.242,13.078h-4.643s-.568-11.735-.633-13.459c-.065-1.724-.221-9.722-1.087-9.847"/><path class="cls-7" d="M377.395,242.605s-.66,6.174-.733,6.666l-.15,11.887-4.948.112s.053-9.872.03-12.873c-.023-3.001.164-8.26.259-9.298.247-2.716.165-1.882.165-1.882"/><path class="cls-7" d="M379.61,264.923s-1.983-.134-2.104,1.282.46,2.555,3.102,2.681,3.123-.676,3.307-1.484c.075-.332.034-.822-.041-1.285-.118-.732-.802-1.261-1.586-1.246l-2.678.052Z"/><path class="cls-7" d="M372.406,261.371s-1.983-.134-2.104,1.282c-.121,1.416.46,2.555,3.102,2.681,2.642.126,3.123-.676,3.307-1.484.075-.332.034-.822-.041-1.285-.118-.732-.802-1.261-1.586-1.246l-2.678.052Z"/><path class="cls-7" d="M376.636,230.982s-1.875-.102-2.057.286c-.174.369.293.897,1.082.807s-1.874.716-1.504,1.922,2.705,1.609,4.195.183"/><path class="cls-7" d="M366.911,209.194s-.077-3.024-.754-3.151-.55,1.063-.55,1.063c0,0-.801-1.311-1.861-1.073s-1.583,1.603-1.093,2.439,1.938,2.804,1.938,2.804"/><path class="cls-7" d="M323.232,278.503c-1.057.268-2.356-1.482-2.681-2.919-.3-1.326-.393-2.441.046-3.771,1.721-5.215,6.465-4.156,6.465-4.156"/><path class="cls-7" d="M327.352,267.666s.839-.199,2.065.465c3.726,2.019,3.769,9.018,1.389,10.406"/><path class="cls-7" d="M317.893,290.269c-.065-.485,5.267-8.647,5.925-9.438s1.377-.565,1.821-.886"/><path class="cls-7" d="M325.845,283.912s-3.724,12.206-8.596,10.948c-1.892-.488-8.253-5.473-8.253-5.473,0,0,2.827-2.535,3.534-3.496,0,0,5.23,4.076,5.937,5.105"/><path class="cls-7" d="M328.209,279.597s.697.161,1.109.187c.561.035,1.946,1.389,3.726,10.485"/><path class="cls-7" d="M319.85,286.83c-.314-.007-3.473-2.825-3.473-2.825,0,0,1.621-1.53,3.54-3.433,0,0,2.259,2.225,2.4,2.215"/><path class="cls-7" d="M312.239,286.245s-1.094-1.595-1.716-1.61c-.622-.015-.368.805-.368.805,0,0-.989-.92-2.064-.333-1.074.587-1.035,2.438,1.829,3.435"/><path class="cls-7" d="M316.766,283.635s-1.828-1.291-1.46-1.827,1.076,0,1.076,0c0,0-1.287-.84-.431-2.035.709-.989,2.276-.392,2.606.057.33.448.79,1.187.79,1.187"/><path class="cls-7" d="M322.785,290.902l-1.901,7.695s3.096,2.389,6.056,1.834"/><path class="cls-7" d="M321.548,296.031s-3.453-2.248-5.686.326-3.622,16.325-3.622,16.325l4.273,1.739s2.605-9.504,2.209-11.427"/><line class="cls-7" x1="319.48" y1="303.501" x2="318.787" y2="303.495"/><polyline class="cls-7" points="319.134 303.501 319.058 309.037 322.47 309.107"/><path class="cls-7" d="M313.027,313.013s-2.694-.888-3.376.359c-.682,1.247.325,2.49,2.692,3.67,2.367,1.18,3.131.64,3.624-.025.203-.273.363-.739.481-1.193.187-.718-.226-1.477-.949-1.779l-2.472-1.032Z"/><path class="cls-7" d="M317.141,312.011c.316.343.782.582,1.312.691,1.167.241,3.669-.035,4.211-.241.728-.276,1.335-2.677-.194-3.354-.161-.071-.347-.079-.532-.076l-2.678.052s-.812.093-1.519.447"/><path class="cls-7" d="M252.869,290.114c-.197-.339-.552-.537-.911-.472-.479.087-.785.61-.684,1.168s.4.854.849,1.099c.647.353.971.057,1.025-.117"/><path class="cls-7" d="M252.983,293.386c-.189.05-.39.098-.603.143-.692.146-.046,1.901-.046,1.901"/><path class="cls-7" d="M255.727,289.278s-.441.9-.063,1.334c.357.41.482,1.933-2.682,2.774"/><path class="cls-7" d="M250.384,283.322s5.078-.492,5.446,5.064"/><path class="cls-7" d="M250.533,293.999c.432.147.145,1.058-.226,1.117"/><path class="cls-7" d="M249.86,283.346s-3.262-.397-4.656,2.949"/><path class="cls-7" d="M259.88,305.26s-5.475-8.461-5.869-9.053c-.394-.592-1.677-.777-1.677-.777l1.823-2.154"/><path class="cls-7" d="M259.411,305.652l4.884-4.234s2.124,3.86,2.672,4.424c0,0-4.93,3.723-5.885,4.066-.955.343-2.368.798-4.262-1.465-1.894-2.263-2.939-4.581-2.939-4.581"/><path class="cls-7" d="M253.88,303.861l.532,7.372s1.27,4.348-.15,4.679-3.341.828-3.341.828"/><path class="cls-7" d="M264.577,301.925s1.917-2.67,2.39-2.374,0,1.235,0,1.235c0,0,1.461-1.646,2.682-1.104s1.166,3.274-.292,4.381c-1.458,1.108-2.723,1.335-2.723,1.335"/><path class="cls-7" d="M256.206,292.406c.792-.776,1.419-1.62,1.789-1.266s-.168.934-.168.934c0,0,.942-1.304,1.659-.704s1.495,3.421-1.005,3.688"/><path class="cls-7" d="M254.838,312.702s2.19-.948,4.43-.931c2.197.017,5.003,1.401,5.626,4.171.623,2.77-.317,14.537-.317,14.537l-5.164.391s-.64-13.38-.207-13.745"/><line class="cls-7" x1="257.753" y1="318.653" x2="259.091" y2="317.889"/><path class="cls-7" d="M254.263,309.161s1.666-.851,2.826.095c1.348,1.099,1.768,1.898,1.717,2.35"/><polyline class="cls-7" points="258.316 320.974 258.316 326.685 253.48 326.345"/><path class="cls-7" d="M263.972,330.881s2.176-.208,2.362,1.203c.186,1.41-.411,2.57-3.312,2.795-2.901.225-3.46-.56-3.692-1.359-.095-.329-.068-.821-.003-1.286.103-.736.835-1.29,1.698-1.304l2.947-.048Z"/><path class="cls-7" d="M259.198,329.483c-.312.387-.828.696-1.624.893"/><path class="cls-7" d="M254.263,326.624l2.947-.048s1.22-.116,1.911.417"/><path class="cls-7" d="M250.307,295.116s-.746-.35-1.577.652c-.832,1.003-3.357,4.086-4.995,10.036"/><path class="cls-7" d="M362.671,356.044c.14-.366.458-.619.823-.613.487.009.873.475.863,1.042s-.257.907-.66,1.221c-.582.452-.949.213-1.03.05"/><path class="cls-7" d="M359.477,355.136s.818,1.36.515,1.849-.133,1.965,3.712,2.35c1.341.134.134,1.649.134,1.649"/><path class="cls-7" d="M359.937,351.604c-.397.929-.61,1.97-.46,3.532"/><path class="cls-7" d="M368.253,357.976c-1.411,1.188-2.53.728-2.321,2.242"/><path class="cls-7" d="M362.667,369.498c-2.36,5.082-3.633,5.434-5.593,6.117-1.692.589-6.871-3.369-8.295-4.84-.225-.233-.502-1.752-.502-1.752.252-2.607,1.867-2.639,1.867-2.639l.912-.041,5.581,4.451s6.732-9.62,7.202-9.809"/><path class="cls-7" d="M362.465,370.252s-.881,7.304-1.735,7.394c0,0-5.017-.177-7.562,1.519-3.068,2.043-1.308,17.413-1.308,17.413h5.304l.357-12.35.029-1.014"/><line class="cls-7" x1="358.469" y1="384.292" x2="357.521" y2="384.227"/><path class="cls-7" d="M361.856,374.254s-2.049.019-2.642.9c-.907,1.348-1.132,2.485-1.132,2.485"/><path class="cls-7" d="M370.437,366.013c.869,2.968.907,5.673.907,5.673"/><path class="cls-7" d="M348.277,369.023s-4.019-2.467-1.905-4.384c1.482-1.344,2.88.26,2.88.26,0,0,.415-.671.925-.26s-.064,1.415-.064,1.415"/><path class="cls-7" d="M359.969,358.564s-2.823-2.885-4.539-.83c-1.282,1.536,1.116,2.592,1.116,2.592,0,0-1.275-.222-1.055.395.251.706,1.919.487,1.919.487"/><path class="cls-7" d="M359.969,358.564l-2.559,2.644h0c.167.377.681.912,1.059,1.077l3.008,1.312"/><line class="cls-7" x1="362.566" y1="359.226" x2="363.75" y2="360.162"/><path class="cls-7" d="M352.289,396.634s-2.172-.13-2.307,1.286c-.135,1.416.5,2.554,3.393,2.676,2.894.122,3.422-.682,3.624-1.489.083-.332.039-.822-.042-1.285-.128-.732-.876-1.26-1.735-1.243l-2.934.056Z"/><polyline class="cls-7" points="358.169 386.506 358.357 392.089 362.728 392.089"/><path class="cls-7" d="M362.803,392.387c-.323-.374-.754-.309-1.328-.298l-2.934.056s-.635-.038-1.24.151"/><path class="cls-7" d="M357.193,395.55c.355.208.825.367,1.435.463"/><path class="cls-7" d="M398.85,457.75c-1.362,4.479-4.014,10.722-7.278,9.948-3.59-.851-8.362-5.891-8.362-5.891,0,0,.849-.58,3.16-2.212.081.048,3.235,1.91,3.316,1.958.022.013,1.697,1.002,1.718,1.014"/><path class="cls-7" d="M386.371,459.596s-.716-1.922-1.514-2.212c-.798-.29-.324.908-.324.908,0,0-2.02-1.792-3.236-.488-1.13,1.212.421,3.318,1.913,4.004"/><path class="cls-7" d="M395.252,469.854s-4.718-.11-7.295,1.466c-2.576,1.576-1.25,16.434-1.25,16.434h5.357l.39-8.86"/><path class="cls-7" d="M350.345,415.002c-.087-.382-.367-.677-.729-.722-.483-.06-.931.348-1.001.911s.127.934.482,1.302c.513.53.91.344,1.013.194"/><path class="cls-7" d="M352.879,418.557c-.182-.328.166-.439.166-.439,1.48-.005,4.555-.974,4.543-1.98-.012-1.006.353-2.227.353-2.227"/><path class="cls-7" d="M352.241,407.72s-2.127-.642-4.021,1.627c-2.05,2.457-.587,5.442.02,6.053"/><path class="cls-7" d="M350.021,417.302s1.133.394,1.661.546c.527.152.184,1.111-.277,1.073"/><path class="cls-7" d="M351.122,426.76l-.777,5.767,3.625,1.504c-1.295.487-3.312,4.15-3.312,4.15,0,0-5.567-2.479-5.802-4.147-.235-1.668,2.889-9.841,3.345-11.006.803-2.051,1.986-3.778,2.457-3.845"/><path class="cls-7" d="M363.973,430.416c.873-.486.878-1.243.312-2.075-.22-.322-7.578-8.306-8.435-9.157s-2.152-.627-2.152-.627c0,0,2.086,0,1.552.627,0,0,2.092,11.933,1.655,12.841"/><path class="cls-7" d="M356.917,422.207s2.485,6.612,2.414,7.863l-2.624,3.05s.671-.162,1.458.433"/><line class="cls-7" x1="360.374" y1="428.933" x2="359.331" y2="430.07"/><path class="cls-7" d="M353.97,434.032s2.362.957,1.818,1.295c-.544.338-1.032,0-1.032,0,0,0,1.224.638,1.357,1.211.209.9-.33,2.033-1.998,2.002-1.386-.026-2.739-1.206-2.739-1.206"/><path class="cls-7" d="M357.065,433.12s-.836,1.062-.763,1.726.923,0,.923,0c0,0-.756,2.477.989,2.841"/><polyline class="cls-7" points="255.64 298.713 259.091 295.753 255.83 291.969"/><path class="cls-7" d="M252.659,437.688s-1.638.471-1.417.958,1.132.457,1.132.457c0,0-2.236.582-1.629,1.52.607.939,1.797,1.276,3.383.196"/><line class="cls-7" x1="383.931" y1="462.361" x2="387.027" y2="460.049"/><path class="cls-7" d="M352.105,411.805c-1.132-.055-.469,2.183-1.463,2.747"/><path class="cls-7" d="M352.654,411.612c.232-.745,1.742-.864,2.708-.248.966.616,1.048,2.852,2.484,2.91"/><path class="cls-7" d="M350.756,419.159s.41.541,1.191.485c0,0-.016,10.213-.564,13.112"/><ellipse class="cls-7" cx="360.592" cy="355.985" rx="1.313" ry="1.48" transform="translate(-68.799 86.958) rotate(-12.563)"/><path class="cls-7" d="M363.495,355.431s-.823.613-2.902-2.586c-2.079-3.199,1.138-3.354,1.138-3.354,0,0,2.285-2.514,5.763-.739s3.767,5.223,2.732,7.122c-1.035,1.899-2.732,2.596-2.732,2.596,0,0-.749.658-1.562-.667-.936-1.526-1.575-1.329-1.575-1.329"/><path class="cls-7" d="M188.964,308.434c.091-1.673-.959-3.12-.8-3.562.686-1.917,3.212-2.954,4.156-2.313"/><path class="cls-7" d="M189.691,305.755s.653,2.118.212,2.891"/><path class="cls-7" d="M190.957,307.439s.276,1.325-.1,1.491"/><path class="cls-7" d="M234.466,220.228s1.218.426,1.915,1.049c.755.675,3.416,3.568,3.416,3.568"/><line class="cls-7" x1="228.052" y1="234.769" x2="231.171" y2="234.769"/><path class="cls-7" d="M226.952,214.96c-.46,1.102.811,2.596,3.312,3.176,1.033.239.619,1.407.619,1.407"/><path class="cls-7" d="M235.808,214.558c.779.983-.939,2.653-3.113,3.578-.574.244.016,1.245.016,1.245"/><path class="cls-7" d="M226.827,215.256s-1.007-2.423.331-4.364c.543-.788,2.047-2.172,3.92-2.011"/><path class="cls-7" d="M231.232,208.893s.634-.105,1.423,0c1.136.151,2.631,1.212,3.371,2.909.507,1.162-.218,2.755-.218,2.755"/><path class="cls-7" d="M225.057,225.268c1.258-1.645,3.037-4.232,4.012-4.368"/><path class="cls-7" d="M225.518,228.627l1.564-.622s-1.165,2.415.399,4.186c0,0-4.709,2.078-5.218-.334-.37-1.755.383-2.943,2.376-5.562"/><path class="cls-7" d="M227.207,228.051c.452-.452,2.167-1.225,2.469-.886s-.157.923-.493.999,1.029.18,1.313.759c.255.519.856,3.506-3.338,2.76"/><path class="cls-7" d="M239.622,227.309l-1.651-.328s1.501,2.426.283,4.451c0,0,5.116,1.453,5.179-1.012.042-1.647-1.126-2.937-3.308-4.905"/><path class="cls-7" d="M236.645,231.149c.501-.004,1.119-.125,1.881-.41"/><path class="cls-7" d="M235.216,227.334c.153.187.392.326.573.333.344.013-.979.364-1.154.985-.126.45-.113,2.516,2.01,2.497"/><path class="cls-7" d="M237.712,227.198c-.527-.363-2.353-.812-2.589-.424-.111.184-.045.391.093.56"/><path class="cls-7" d="M236.806,226.846c-.172-.436-.354-.81-.547-1.103"/><path class="cls-7" d="M226.418,232.799c-.242,2.75.277,4.948.283,5.891.006,1.033,9.667,1.081,12.057-.443,0,0,.611-2.291.114-6.39"/><path class="cls-7" d="M227.799,226.346s-.005.313-.17,1.354"/><path class="cls-7" d="M232.891,242.164c.053.646-.705,8.186-.982,9.401l-.77,13.157-4.801-.172s-.212-9.044.21-11.854c0,0-.038-4.361.428-12.765"/><path class="cls-7" d="M238.817,239.242s-.059,9.305-.097,11.312.387,12.353.387,12.353h-4.794s-.441-6.995-.756-12.156c0,0-.113-2.472-.664-7.257"/><path class="cls-7" d="M229.612,264.816s2.111.123,2.111,2.124c0,1.394-.966,1.841-3.057,1.841-2.499,0-2.988-1.015-2.988-1.841,0-1.008.98-2.186,1.851-2.169l2.083.046Z"/><path class="cls-7" d="M227.96,212.226c-.336.739-.768,1.772-1.43,1.886"/><path class="cls-7" d="M227.451,213.263c2.138-.299,2.919-1.943,3.011-2.978,0,0,.539,2.381,3.646,2.033"/><path class="cls-7" d="M233.503,210.989s.414,1.575,1.926,1.677"/><path class="cls-7" d="M230.354,220.023l.107-.679c.016.002,1.185.564,1.185.564l-.118.75"/><path class="cls-7" d="M233.239,219.825l-.198-.658c-.015.005-1.097.72-1.097.72l.143.651"/><path class="cls-7" d="M233.431,219.601s-.538.936-1.577,1.108l.592,1.211c.404-.114,2.294-1.575,2.294-1.575l-1.309-.744Z"/><path class="cls-7" d="M230.089,219.998s1.054.762,1.765.71l-.297,1.245c-.276-.006-1.78-.49-2.488-1.054l1.02-.902Z"/><path class="cls-7" d="M226.701,238.69l.198,1.138c.358.138,4.063.429,6.768.236,2.705-.193,5.15-.921,5.15-.921l-.059-.896"/><path class="cls-7" d="M235.18,211.737s.249,1.228.825,1.529"/><path class="cls-7" d="M226.493,214.175s-.953-.02-.788.967.865,1.231,1.299,1.191"/><path class="cls-7" d="M236.267,213.52s.815-.049.709.942-.696,1.257-1.07,1.23"/><line class="cls-7" x1="232.759" y1="232.947" x2="232.95" y2="239.931"/><line class="cls-7" x1="231.943" y1="221.795" x2="232.349" y2="227.435"/><polyline class="cls-7" points="235.453 226.624 236.031 226.238 235.906 223.97 233.209 224.163 233.407 226.371 233.85 226.726"/><line class="cls-7" x1="233.282" y1="224.977" x2="235.906" y2="224.798"/><line class="cls-7" x1="230.354" y1="224.418" x2="230.354" y2="226.295"/><line class="cls-7" x1="234.466" y1="234.465" x2="237.796" y2="234.024"/><path class="cls-7" d="M237.576,262.954s2.111.123,2.111,2.124c0,1.394-.966,1.841-3.057,1.841-2.499,0-2.988-1.015-2.988-1.841,0-1.008.98-2.186,1.851-2.169l2.083.046Z"/><path class="cls-7" d="M280.088,441.478s-.255,1.611.373,1.663c.628.052.79-.985.79-.985.456,1.346,2.009,1.365,2.564.166.555-1.199-1.419-2.399-1.419-2.399"/><line class="cls-7" x1="217.79" y1="418.822" x2="216.75" y2="419.258"/><polyline class="cls-7" points="220.557 420.261 221.384 420.581 221.859 420.258 217.564 417.961 217.028 418.382 218.045 418.97"/><path class="cls-7" d="M265.423,418.871c1.647,1.045.271,3.659-.131,4.237-.787,1.132-.826,2.829-.055,2.94"/><path class="cls-7" d="M262.159,416.332s.317,1.477,1.629,1.78"/><path class="cls-7" d="M268.329,410.584c-.021.041-2.145-1.215-5.134,1.304-3.003,2.531-2.323,5.858-.895,6.867"/><path class="cls-7" d="M267.887,420.362c.083.69-.138,2.125-.469,2.816s-.7,2.098.243,2.346"/><path class="cls-7" d="M269.675,420.496c.386.469.58,1.711,0,3.147s.587,1.435.183,2.567"/><path class="cls-7" d="M268.688,410.563s3.533-.718,4.969,4.72c0,0,.856,3.213-.221,6.238-.467,1.313.538,1.826.304,3.092s-.911,1.008-.911,1.008"/><path class="cls-7" d="M360.73,377.646s-.101,2.319,1.189,2.775c1.29.455,3.657.414,3.657.414"/><path class="cls-7" d="M265.425,441.039s-4.381,16.998-4.341,21.17c0,0,5.979,1.427,9.117,1.049,5.272-.635,9.969-3.533,9.969-3.533l-4.265-21.031"/><path class="cls-7" d="M266.85,439.543s3.901,1.035,7.555-.291"/><line class="cls-7" x1="253.119" y1="436.786" x2="254.979" y2="440.996"/><line class="cls-7" x1="282.037" y1="438.65" x2="279.218" y2="441.203"/><path class="cls-7" d="M207.67,405.942c-.905-.27-12.306,10.886-13,16.102-.405,3.044.162,4.52.162,4.52l9.608-.817s1.512-.205,1.288-2.094c-.225-1.889,2.675-9.252,2.675-9.252,0,0,.092,3.722.482,4.586.319.707,3.156,3.204,5.414,3.666.867.177,2.243-.589,2.243-.589,0,0-.011-1.519.239-2.992.04-.238-2.413-.215-4.575-2.257-.476-.45-2.044-7.683-2.45-9.316s-2.054-1.64-2.054-1.64l.674-.585c.669.226,1.702.892,1.679,1.314s0,1.463,0,1.463"/><polyline class="cls-7" points="194.832 426.564 194.918 427.001 204.731 426.354 205.127 425.439"/><path class="cls-7" d="M204.041,420.581s.49.171,1.087.087l.597-.084"/><path class="cls-7" d="M214.843,395.638s-2.121-2.672-6.305-.354c-2.563,1.421-4.515,5.393-2.652,6.725"/><path class="cls-7" d="M207.294,400.271c-1.089,2.012.829,3.526.829,3.526"/><path class="cls-7" d="M206.231,401.135s-.205.703.524,1.295"/><path class="cls-7" d="M210.293,400.502s-1.773,1.739-.925,3.782"/><path class="cls-7" d="M214.986,399.814s-1.045,1.321-2.098,1.558c-.808.181-.82-.116-.82-.116"/><path class="cls-7" d="M216.54,399.467c1.249,1.727.115,3.454.115,3.454"/><path class="cls-7" d="M365.932,360.218c3.574.109,4.596,1.674,4.211,5.173-.217,1.975-2.194,2.936-3.346.331-.837-1.894-2.497-4.737-2.497-4.737,0,0,.978-.366,1.226-.573"/><path class="cls-7" d="M365.092,361.241s1.141,1.955,1.872,1.79.724-.674,1.289-.834c.107-.03,1.135-.624,0-.956-.677-.198-2.209-.42-2.209-.42l-.952.42Z"/><line class="cls-7" x1="321.266" y1="293.033" x2="322.338" y2="293.033"/><line class="cls-7" x1="323.067" y1="309.107" x2="323.232" y2="306.702"/><path class="cls-7" d="M325.48,278.771c.677.203.087,1.012.087,1.012"/><path class="cls-7" d="M322.042,272.768c-.107.362-.135,1.709,0,2.68.511,3.681,2.199,3.468,2.408,3.531"/><path class="cls-7" d="M323.912,275.095s-.035,3.676,1.567,3.676"/><path class="cls-7" d="M326.258,275.807c-.074-.037-.331,3.355,1.406,3.321"/><path class="cls-7" d="M328.531,275.914s-.207,2.774.331,2.857"/><path class="cls-7" d="M245.204,286.295c-.724.26-1.331,3.004-.433,4.761.951,1.861,3.482,2.883,4.958,2.51"/><path class="cls-7" d="M254.21,285.848c.373.624.745,2.156,0,2.322-.745.166-.549,1.014-.73,1.107"/><path class="cls-7" d="M249.729,293.567s.299.654-.336.654"/><path class="cls-7" d="M249.34,295.237s.826,1.077,4.14.545"/><path class="cls-7" d="M324.844,280.203s.956.504,2.088.639c1.914.228,3.188-.569,2.961-.677"/><polygon class="cls-7" points="378.162 219.677 378.431 221.256 379.791 219.797 379.379 219.052 378.162 219.677"/><polygon class="cls-7" points="378.162 219.677 377.593 219.052 377.141 219.825 377.267 220.919 378.162 219.677"/><path class="cls-7" d="M371.468,235.734l-.357.605c.571.745,3.932,1.731,3.932,1.731l.904-.952,1.047,1.05s1.744-.075,2.796-.276c1.684-.321,2.898-1.093,4.058-2.252l-.399-.554"/><path class="cls-7" d="M376.039,211.461c.578-.11.599.452.467,1.27-.11.685.258,1.531.916,1.566"/><path class="cls-7" d="M377.849,213.089c.009.773.648,1.854,2.3,2.263"/><path class="cls-7" d="M375.32,211.447c-.29-.307-.442.166-.47.711s-.359,1.815-2.181,2.012"/><path class="cls-7" d="M382.882,216.671s-.773,1.085-.276,1.457"/><line class="cls-7" x1="355.384" y1="369.767" x2="358.624" y2="367.976"/><path class="cls-7" d="M191.999,314.306s1.387.461,3.579-.67"/><path class="cls-7" d="M353.225,407.636s1.711-.479,3.072.737c1.916,1.711,1.414,4.967,2.172,4.805"/><line class="cls-7" x1="413.211" y1="326.523" x2="416.215" y2="329.326"/><path class="cls-9" d="M248.403,416.86c-.167.243-.673.599-1.202.55-.709-.066-1.122-.518-1.138-.55v-4.174c.064.075.451.417,1.104.445.73.031,1.182-.381,1.236-.445v4.174Z"/><path class="cls-9" d="M246.063,412.685v-1.485c.139.103.545.375,1.132.386.633.012,1.074-.287,1.209-.386v1.485"/><path class="cls-9" d="M246.063,411.201c0-.276.221-.655,1.17-.655.707,0,1.17.324,1.17.655"/><path class="cls-9" d="M246.063,416.86v1.127s.315.556,1.226.529c.911-.028,1.114-.517,1.114-.517v-1.139s-.396.55-1.202.55-1.138-.55-1.138-.55Z"/><line class="cls-9" x1="246.591" y1="417.416" x2="246.591" y2="418.393"/><line class="cls-9" x1="247.233" y1="417.416" x2="247.233" y2="418.282"/><line class="cls-9" x1="247.875" y1="417.302" x2="247.875" y2="418.2"/><line class="cls-9" x1="246.591" y1="412.249" x2="246.591" y2="412.857"/><line class="cls-9" x1="247.233" y1="412.36" x2="247.233" y2="412.898"/><line class="cls-9" x1="247.875" y1="412.318" x2="247.875" y2="412.926"/><polygon class="cls-9" points="257.332 412.417 257.332 417.302 259.499 415.939 259.499 411.227 257.332 412.417"/><polyline class="cls-9" points="256.839 411.766 256.423 412.021 257.332 412.417 256.423 412.021 255.79 413.459"/><polyline class="cls-9" points="259.499 411.227 258.415 410.799 257.99 411.06"/><path class="cls-9" d="M253.964,411.119c.192.16.386.316.572.491,1.457,1.371,2.797,5.693,2.797,5.693l-7.999-4.902v-4.015s3.192,1.45,4.631,2.733"/><path class="cls-9" d="M251.783,407.708c.797-.145,1.414.358,1.645,1.804.065.408.027.797-.07,1.127.204.152.404.312.605.48.143-.498.188-1.083.1-1.698-.228-1.593-1.239-2.538-2.261-2.391-.771.11-1.328.714-1.456,1.799.193.092.409.201.639.321,0-.669.383-1.366.798-1.442Z"/><path class="cls-9" d="M255.025,409.625c.275-2.747-2.338-3.893-3.827-2.988-1.185.72-1.055,1.896-1.055,1.896"/><line class="cls-9" x1="254.253" y1="411.119" x2="255.025" y2="410.702"/><line class="cls-9" x1="249.333" y1="408.386" x2="250.346" y2="407.783"/><line class="cls-9" x1="257.826" y1="411.182" x2="255.025" y2="409.625"/><polyline class="cls-9" points="254.109 409.859 257.984 412.059 258.808 411.607 257.826 411.182"/><path class="cls-9" d="M254.905,410.274s.1.235-.049.428"/><path class="cls-26" d="M367.127,383.505c-3.031,1.711-7.402-.905-8.912-.955-1.737-.057-1.808,3.66-1.044,3.9,1.237.527,2.651,1.046,4.297,1.553,3.001.923,6.447.684,9.407-.246.018-2.119-3.022-4.662-3.748-4.252Z"/><path class="cls-14" d="M373.288,370.432c-2.588,1.456-6.832,2.602-8.133,6.676s-.905,13.182,6.18,10.841c6.523-2.155,10.102-9.437,10.622-14.575s-.908-6.943-2.433-6.336-3.142,1.654-6.236,3.394Z"/><path class="cls-26" d="M367.385,394.646l-3.549-.381c.174-.13.294-.331.294-.565v-.8c0-.318-.215-.582-.511-.671v-6.551c0-.394-.319-.713-.713-.713s-.713.319-.713.713v8.568l-3.501.401c-.36.041-.632.346-.632.708v.8c0,.394.319.713.713.713s.713-.319.713-.713v-.164l2.593-.297-.435,3.027c-.005.033-.007.067-.007.101v.8c0,.394.319.712.713.712s.713-.318.713-.712v-.749l.461-3.208,3.072.33v.16c0,.394.319.713.713.713s.713-.319.713-.713v-.8c0-.364-.274-.67-.637-.709Z"/><path class="cls-26" d="M418.006,349.996c-3.031,1.711-7.402-.905-8.912-.955-1.737-.057-1.808,3.66-1.044,3.9,1.237.527,2.651,1.046,4.297,1.553,3.001.923,6.447.684,9.407-.246.018-2.119-3.022-4.662-3.748-4.252Z"/><path class="cls-14" d="M424.167,336.924c-2.588,1.456-6.832,2.602-8.133,6.676s-.905,13.182,6.18,10.841c6.523-2.155,10.102-9.437,10.622-14.575s-.908-6.943-2.433-6.336c-1.525.607-3.142,1.654-6.236,3.394Z"/><path class="cls-26" d="M418.264,361.138l-3.549-.381c.174-.13.294-.331.294-.565v-.8c0-.318-.215-.582-.511-.671v-6.551c0-.394-.319-.713-.713-.713s-.713.319-.713.713v8.568l-3.501.401c-.36.041-.632.346-.632.708v.8c0,.394.319.713.713.713s.713-.319.713-.713v-.164l2.593-.297-.435,3.027c-.005.033-.007.067-.007.101v.8c0,.394.319.712.713.712s.713-.318.713-.712v-.749l.461-3.208,3.072.33v.16c0,.394.319.713.713.713s.713-.319.713-.713v-.8c0-.364-.274-.67-.637-.709Z"/><path class="cls-26" d="M401.031,475.613c-.66.844-7.637.342-9.146.292-1.737-.057-1.9,2.202-.81,2.653,1.237.527,2.651,1.046,4.297,1.553,3.001.923,6.447.684,9.407-.246.018-2.119-3.235-4.909-3.748-4.252Z"/><path class="cls-14" d="M407.192,462.54c-2.588,1.456-6.832,2.602-8.133,6.676s-.905,13.182,6.18,10.841c6.523-2.155,10.102-9.437,10.622-14.575.52-5.139-.908-6.943-2.433-6.336s-3.142,1.654-6.236,3.394Z"/><path class="cls-26" d="M401.29,486.754l-3.549-.381c.174-.13.294-.331.294-.565v-.8c0-.318-.215-.582-.511-.671v-6.551c0-.394-.319-.713-.713-.713s-.713.319-.713.713v8.568l-3.501.401c-.36.041-.632.346-.632.708v.8c0,.394.319.713.713.713s.713-.319.713-.713v-.164l2.593-.297-.435,3.027c-.005.033-.007.067-.007.101v.8c0,.394.319.712.713.712s.713-.318.713-.712v-.749l.461-3.208,3.072.33v.16c0,.394.319.713.713.713s.713-.319.713-.713v-.8c0-.364-.274-.67-.637-.709Z"/><path class="cls-26" d="M459.02,439.59c-3.031,1.711-7.402-.905-8.912-.955-1.737-.057-1.808,3.66-1.044,3.9,1.237.527,2.651,1.046,4.297,1.553,3.001.923,6.447.684,9.407-.246.018-2.119-3.022-4.662-3.748-4.252Z"/><path class="cls-14" d="M465.18,426.518c-2.588,1.456-6.832,2.602-8.133,6.676-1.301,4.073-.905,13.182,6.18,10.841,6.523-2.155,10.102-9.437,10.622-14.575.52-5.139-.908-6.943-2.433-6.336-1.525.607-3.142,1.654-6.236,3.394Z"/><path class="cls-26" d="M459.278,450.732l-3.549-.381c.174-.13.294-.331.294-.565v-.8c0-.318-.215-.582-.511-.671v-6.551c0-.394-.319-.713-.713-.713s-.713.319-.713.713v8.568l-3.501.401c-.36.041-.632.346-.632.708v.8c0,.394.319.713.713.713s.713-.319.713-.713v-.164l2.593-.297-.435,3.027c-.005.033-.007.067-.007.101v.8c0,.394.319.712.713.712s.713-.318.713-.712v-.749l.461-3.208,3.072.33v.16c0,.394.319.713.713.713s.713-.319.713-.713v-.8c0-.364-.274-.67-.637-.709Z"/><polyline class="cls-8" points="252.959 319.879 252.959 329.443 257.253 329.934 257.253 330.766"/><polyline class="cls-8" points="252.959 329.52 253.535 333.537 253.535 334.369"/><polyline class="cls-8" points="252.959 329.443 248.383 329.934 248.383 330.766"/><polyline class="cls-8" points="252.959 329.52 252.428 327.383 252.428 328.215"/><path class="cls-26" d="M248.653,317.777c.685.877,7.937.534,9.505.612,1.257.063,1.082,1.486.841,2.448-1.285.548-2.755,1.088-4.466,1.614-3.118.959-6.7.711-9.775-.256-.019-2.202,3.361-5.101,3.895-4.418Z"/><path class="cls-14" d="M242.251,304.192c2.689,1.513,7.1,2.704,8.452,6.937,1.352,4.233.941,13.698-6.423,11.266-6.779-2.239-10.497-9.806-11.038-15.146-.541-5.34.944-7.216,2.528-6.584s3.265,1.718,6.481,3.527Z"/><path class="cls-26" d="M329.167,302.229c-.685.873-7.937.531-9.505.609-1.257.063-1.083,1.48-.841,2.437.851,1.943,2.395,1.982,4.034,1.97,3.655-.027,7.132.344,10.207-.618.019-2.192-3.361-5.078-3.895-4.398Z"/><path class="cls-14" d="M335.569,288.707c-2.689,1.506-7.1,2.692-8.452,6.905-1.352,4.214-.941,13.635,6.423,11.215,6.779-2.229,10.497-9.761,11.038-15.077.541-5.315-.944-7.182-2.528-6.554s-3.265,1.711-6.481,3.511Z"/><polyline class="cls-8" points="324.762 304.164 324.762 313.684 320.468 314.173 320.468 315.001"/><polyline class="cls-8" points="324.762 313.761 324.185 317.76 324.185 318.588"/><polyline class="cls-8" points="324.762 313.684 329.337 314.173 329.337 315.001"/><polyline class="cls-8" points="324.862 313.919 325.393 311.792 325.393 312.619"/><line class="cls-5" x1="555.291" y1="322.339" x2="574.015" y2="322.339"/><line class="cls-5" x1="576.548" y1="333.85" x2="574.015" y2="322.339"/><rect class="cls-16" x="226.872" y="98.71" width="143.846" height="104.269" rx="15.065" ry="15.065"/><path class="cls-2" d="M289.691,98.71h65.962c8.32,0,15.065,6.745,15.065,15.065v74.139c0,8.32-6.745,15.065-15.065,15.065h-113.717c-8.32,0-15.065-6.745-15.065-15.065v-75.722c0-7.446,6.036-13.482,13.482-13.482"/><polygon class="cls-20" points="299.651 217.363 286.867 195.22 312.435 195.22 299.651 217.363"/></svg>